<?xml version="1.0" encoding="UTF-8" standalone="no"?>
<!DOCTYPE svg PUBLIC "-//W3C//DTD SVG 1.1//EN"
 "http://www.w3.org/Graphics/SVG/1.1/DTD/svg11.dtd">
<!-- Generated by graphviz version 2.40.1 (20161225.0304)
 -->
<!-- Title: categories Pages: 1 -->
<svg width="329pt" height="592pt"
 viewBox="0.00 0.00 329.00 592.00" xmlns="http://www.w3.org/2000/svg" xmlns:xlink="http://www.w3.org/1999/xlink">
<g id="graph0" class="graph" transform="scale(1 1) rotate(0) translate(4 588)">
<title>categories</title>
<polygon fill="#ffffff" stroke="transparent" points="-4,4 -4,-588 325,-588 325,4 -4,4"/>
<!-- categories -->
<g id="node1" class="node">
<title>categories</title>
<polygon fill="#efefef" stroke="transparent" points="46.5,-105.5 46.5,-140.5 275.5,-140.5 275.5,-105.5 46.5,-105.5"/>
<polygon fill="none" stroke="#000000" points="46.5,-105.5 46.5,-140.5 275.5,-140.5 275.5,-105.5 46.5,-105.5"/>
<text text-anchor="start" x="53.3759" y="-118.3" font-family="Arial Bold" font-size="18.00" fill="#000000">categories</text>
<text text-anchor="start" x="136.3955" y="-118.3" font-family="Arial" font-size="14.00" fill="#000000">    </text>
<text text-anchor="start" x="170.6003" y="-118.3" font-family="Arial" font-size="14.00" fill="#666666">[BASIC TABLE]</text>
<polygon fill="none" stroke="#000000" points="46.5,-75.5 46.5,-105.5 275.5,-105.5 275.5,-75.5 46.5,-75.5"/>
<text text-anchor="start" x="53.5" y="-86.9" font-family="Arial" font-size="14.00" fill="#000000">id </text>
<text text-anchor="start" x="68.2798" y="-86.9" font-family="Arial" font-size="14.00" fill="#666666">[int]</text>
<polygon fill="none" stroke="#000000" points="46.5,-45.5 46.5,-75.5 275.5,-75.5 275.5,-45.5 46.5,-45.5"/>
<text text-anchor="start" x="53.5" y="-56.9" font-family="Arial" font-size="14.00" fill="#000000">name </text>
<text text-anchor="start" x="92.399" y="-56.9" font-family="Arial" font-size="14.00" fill="#666666">[varchar(255)]</text>
<polygon fill="none" stroke="#000000" stroke-width="3" points="44.5,-44.5 44.5,-142.5 276.5,-142.5 276.5,-44.5 44.5,-44.5"/>
</g>
<!-- products -->
<g id="node2" class="node">
<title>products</title>
<polygon fill="#efefef" stroke="transparent" points="53.5,-505.5 53.5,-540.5 268.5,-540.5 268.5,-505.5 53.5,-505.5"/>
<polygon fill="none" stroke="#000000" points="53.5,-505.5 53.5,-540.5 268.5,-540.5 268.5,-505.5 53.5,-505.5"/>
<text text-anchor="start" x="60.3761" y="-518.3" font-family="Arial Bold" font-size="18.00" fill="#000000">products</text>
<text text-anchor="start" x="129.3953" y="-518.3" font-family="Arial" font-size="14.00" fill="#000000">    </text>
<text text-anchor="start" x="163.6001" y="-518.3" font-family="Arial" font-size="14.00" fill="#666666">[BASIC TABLE]</text>
<polygon fill="none" stroke="#000000" points="53.5,-475.5 53.5,-505.5 268.5,-505.5 268.5,-475.5 53.5,-475.5"/>
<text text-anchor="start" x="60.5" y="-486.9" font-family="Arial" font-size="14.00" fill="#000000">id    </text>
<text text-anchor="start" x="105.594" y="-486.9" font-family="Arial" font-size="14.00" fill="#666666">[int]</text>
<polygon fill="none" stroke="#000000" points="53.5,-445.5 53.5,-475.5 268.5,-475.5 268.5,-445.5 53.5,-445.5"/>
<text text-anchor="start" x="60.5" y="-456.9" font-family="Arial" font-size="14.00" fill="#000000">name    </text>
<text text-anchor="start" x="129.7132" y="-456.9" font-family="Arial" font-size="14.00" fill="#666666">[varchar(255)]</text>
<polygon fill="none" stroke="#000000" points="53.5,-415.5 53.5,-445.5 268.5,-445.5 268.5,-415.5 53.5,-415.5"/>
<text text-anchor="start" x="60.5" y="-426.9" font-family="Arial" font-size="14.00" fill="#000000">description    </text>
<text text-anchor="start" x="162.3822" y="-426.9" font-family="Arial" font-size="14.00" fill="#666666">[text]</text>
<polygon fill="none" stroke="#000000" points="53.5,-385.5 53.5,-415.5 268.5,-415.5 268.5,-385.5 53.5,-385.5"/>
<text text-anchor="start" x="60.5" y="-396.9" font-family="Arial" font-size="14.00" fill="#000000">price    </text>
<text text-anchor="start" x="125.0372" y="-396.9" font-family="Arial" font-size="14.00" fill="#666666">[decimal]</text>
<polygon fill="none" stroke="#000000" points="53.5,-355.5 53.5,-385.5 268.5,-385.5 268.5,-355.5 53.5,-355.5"/>
<text text-anchor="start" x="60.5" y="-366.9" font-family="Arial" font-size="14.00" fill="#000000">stock    </text>
<text text-anchor="start" x="127.378" y="-366.9" font-family="Arial" font-size="14.00" fill="#666666">[int]</text>
<polygon fill="none" stroke="#000000" points="53.5,-325.5 53.5,-355.5 268.5,-355.5 268.5,-325.5 53.5,-325.5"/>
<text text-anchor="start" x="60.5" y="-336.9" font-family="Arial" font-size="14.00" fill="#000000">created_at    </text>
<text text-anchor="start" x="160.8422" y="-336.9" font-family="Arial" font-size="14.00" fill="#666666">[datetime2]</text>
<polygon fill="none" stroke="#000000" points="53.5,-295.5 53.5,-325.5 268.5,-325.5 268.5,-295.5 53.5,-295.5"/>
<text text-anchor="start" x="60.5" y="-306.9" font-family="Arial" font-size="14.00" fill="#000000">updated_at    </text>
<text text-anchor="start" x="164.7468" y="-306.9" font-family="Arial" font-size="14.00" fill="#666666">[datetime2]</text>
<polygon fill="none" stroke="#000000" points="53.5,-265.5 53.5,-295.5 268.5,-295.5 268.5,-265.5 53.5,-265.5"/>
<text text-anchor="start" x="60.5" y="-276.9" font-family="Arial" font-size="14.00" fill="#000000">category_id    </text>
<text text-anchor="start" x="167.0582" y="-276.9" font-family="Arial" font-size="14.00" fill="#666666">[int]</text>
</g>
<!-- products&#45;&gt;categories -->
<g id="edge1" class="edge">
<title>products:category_id&#45;&gt;categories:id</title>
<path fill="none" stroke="#000000" d="M160.5849,-255.3163C151.2836,-207.8903 73.6511,-238.4072 46.5,-187 26.47,-149.0757 3.6111,-90.5 46.5,-90.5"/>
<polygon fill="#000000" stroke="#000000" points="160.6049,-255.5401 157.0181,-265.9028 161.0525,-260.5201 161.5,-265.5 161.5,-265.5 161.5,-265.5 161.0525,-260.5201 165.9819,-265.0972 160.6049,-255.5401 160.6049,-255.5401"/>
</g>
</g>
</svg>
