<?xml version="1.0" encoding="UTF-8" standalone="no"?>
<!DOCTYPE svg PUBLIC "-//W3C//DTD SVG 1.1//EN"
 "http://www.w3.org/Graphics/SVG/1.1/DTD/svg11.dtd">
<!-- Generated by graphviz version 12.1.2 (20240928.0832)
 -->
<!-- Title: categories Pages: 1 -->
<svg width="317pt" height="602pt"
 viewBox="0.00 0.00 316.51 602.00" xmlns="http://www.w3.org/2000/svg" xmlns:xlink="http://www.w3.org/1999/xlink">
<g id="graph0" class="graph" transform="scale(1 1) rotate(0) translate(4 598)">
<title>categories</title>
<polygon fill="white" stroke="none" points="-4,4 -4,-598 312.51,-598 312.51,4 -4,4"/>
<!-- categories -->
<g id="node1" class="node">
<title>categories</title>
<polygon fill="#efefef" stroke="none" points="46.2,-107.8 46.2,-143.4 262.31,-143.4 262.31,-107.8 46.2,-107.8"/>
<polygon fill="none" stroke="black" points="46.2,-107.8 46.2,-143.4 262.31,-143.4 262.31,-107.8 46.2,-107.8"/>
<text text-anchor="start" x="53.2" y="-121.2" font-family="Arial Bold" font-size="18.00">categories</text>
<text text-anchor="start" x="126.16" y="-121.2" font-family="Arial" font-size="14.00">    </text>
<text text-anchor="start" x="157.28" y="-121.2" font-family="Arial" font-size="14.00" fill="#666666">[BASIC TABLE]</text>
<polygon fill="none" stroke="black" points="46.2,-77 46.2,-107.8 262.31,-107.8 262.31,-77 46.2,-77"/>
<text text-anchor="start" x="53.2" y="-89.2" font-family="Arial" font-size="14.00">id </text>
<text text-anchor="start" x="67.99" y="-89.2" font-family="Arial" font-size="14.00" fill="#666666">[int]</text>
<polygon fill="none" stroke="black" points="46.2,-46.2 46.2,-77 262.31,-77 262.31,-46.2 46.2,-46.2"/>
<text text-anchor="start" x="53.2" y="-58.4" font-family="Arial" font-size="14.00">name </text>
<text text-anchor="start" x="92.11" y="-58.4" font-family="Arial" font-size="14.00" fill="#666666">[varchar(255)]</text>
<polygon fill="none" stroke="black" stroke-width="3" points="44.7,-44.7 44.7,-144.9 263.81,-144.9 263.81,-44.7 44.7,-44.7"/>
</g>
<!-- products -->
<g id="node2" class="node">
<title>products</title>
<polygon fill="#efefef" stroke="none" points="51.68,-515.2 51.68,-550.8 256.82,-550.8 256.82,-515.2 51.68,-515.2"/>
<polygon fill="none" stroke="black" points="51.68,-515.2 51.68,-550.8 256.82,-550.8 256.82,-515.2 51.68,-515.2"/>
<text text-anchor="start" x="58.68" y="-528.6" font-family="Arial Bold" font-size="18.00">products</text>
<text text-anchor="start" x="120.67" y="-528.6" font-family="Arial" font-size="14.00">    </text>
<text text-anchor="start" x="151.79" y="-528.6" font-family="Arial" font-size="14.00" fill="#666666">[BASIC TABLE]</text>
<polygon fill="none" stroke="black" points="51.68,-484.4 51.68,-515.2 256.82,-515.2 256.82,-484.4 51.68,-484.4"/>
<text text-anchor="start" x="58.68" y="-496.6" font-family="Arial" font-size="14.00">id </text>
<text text-anchor="start" x="73.47" y="-496.6" font-family="Arial" font-size="14.00" fill="#666666">[int]</text>
<polygon fill="none" stroke="black" points="51.68,-453.6 51.68,-484.4 256.82,-484.4 256.82,-453.6 51.68,-453.6"/>
<text text-anchor="start" x="58.68" y="-465.8" font-family="Arial" font-size="14.00">name </text>
<text text-anchor="start" x="97.59" y="-465.8" font-family="Arial" font-size="14.00" fill="#666666">[varchar(255)]</text>
<polygon fill="none" stroke="black" points="51.68,-422.8 51.68,-453.6 256.82,-453.6 256.82,-422.8 51.68,-422.8"/>
<text text-anchor="start" x="58.68" y="-435" font-family="Arial" font-size="14.00">description </text>
<text text-anchor="start" x="130.28" y="-435" font-family="Arial" font-size="14.00" fill="#666666">[text]</text>
<polygon fill="none" stroke="black" points="51.68,-392 51.68,-422.8 256.82,-422.8 256.82,-392 51.68,-392"/>
<text text-anchor="start" x="58.68" y="-404.2" font-family="Arial" font-size="14.00">price </text>
<text text-anchor="start" x="92.92" y="-404.2" font-family="Arial" font-size="14.00" fill="#666666">[decimal]</text>
<polygon fill="none" stroke="black" points="51.68,-361.2 51.68,-392 256.82,-392 256.82,-361.2 51.68,-361.2"/>
<text text-anchor="start" x="58.68" y="-373.4" font-family="Arial" font-size="14.00">stock </text>
<text text-anchor="start" x="95.25" y="-373.4" font-family="Arial" font-size="14.00" fill="#666666">[int]</text>
<polygon fill="none" stroke="black" points="51.68,-330.4 51.68,-361.2 256.82,-361.2 256.82,-330.4 51.68,-330.4"/>
<text text-anchor="start" x="58.68" y="-342.6" font-family="Arial" font-size="14.00">created_at </text>
<text text-anchor="start" x="128.73" y="-342.6" font-family="Arial" font-size="14.00" fill="#666666">[datetime2]</text>
<polygon fill="none" stroke="black" points="51.68,-299.6 51.68,-330.4 256.82,-330.4 256.82,-299.6 51.68,-299.6"/>
<text text-anchor="start" x="58.68" y="-311.8" font-family="Arial" font-size="14.00">updated_at </text>
<text text-anchor="start" x="132.64" y="-311.8" font-family="Arial" font-size="14.00" fill="#666666">[datetime2]</text>
<polygon fill="none" stroke="black" points="51.68,-268.8 51.68,-299.6 256.82,-299.6 256.82,-268.8 51.68,-268.8"/>
<text text-anchor="start" x="58.68" y="-281" font-family="Arial" font-size="14.00">category_id </text>
<text text-anchor="start" x="134.95" y="-281" font-family="Arial" font-size="14.00" fill="#666666">[int]</text>
</g>
<!-- products&#45;&gt;categories -->
<g id="edge1" class="edge">
<title>products:category_id&#45;&gt;categories:id</title>
<path fill="none" stroke="black" d="M155.23,-257.45C164.45,-212.51 236.83,-238.86 262.31,-189.6 282.16,-151.23 306.51,-92.4 263.31,-92.4"/>
<polygon fill="black" stroke="black" points="155.22,-257.51 149.81,-267.05 154.72,-262.82 154.32,-267.13 154.32,-267.13 154.32,-267.13 154.72,-262.82 158.77,-267.89 155.22,-257.51"/>
</g>
</g>
</svg>
