<?xml version="1.0" encoding="UTF-8" standalone="no"?>
<!DOCTYPE svg PUBLIC "-//W3C//DTD SVG 1.1//EN"
 "http://www.w3.org/Graphics/SVG/1.1/DTD/svg11.dtd">
<!-- Generated by graphviz version 12.1.2 (20240928.0832)
 -->
<!-- Title: comments Pages: 1 -->
<svg width="560pt" height="694pt"
 viewBox="0.00 0.00 559.55 694.40" xmlns="http://www.w3.org/2000/svg" xmlns:xlink="http://www.w3.org/1999/xlink">
<g id="graph0" class="graph" transform="scale(1 1) rotate(0) translate(4 690.4)">
<title>comments</title>
<polygon fill="white" stroke="none" points="-4,4 -4,-690.4 555.55,-690.4 555.55,4 -4,4"/>
<!-- comments -->
<g id="node1" class="node">
<title>comments</title>
<polygon fill="#efefef" stroke="none" points="166.71,-604.6 166.71,-640.2 383.85,-640.2 383.85,-604.6 166.71,-604.6"/>
<polygon fill="none" stroke="black" points="166.71,-604.6 166.71,-640.2 383.85,-640.2 383.85,-604.6 166.71,-604.6"/>
<text text-anchor="start" x="173.71" y="-618" font-family="Arial Bold" font-size="18.00">comments</text>
<text text-anchor="start" x="247.7" y="-618" font-family="Arial" font-size="14.00">    </text>
<text text-anchor="start" x="278.82" y="-618" font-family="Arial" font-size="14.00" fill="#666666">[BASIC TABLE]</text>
<polygon fill="none" stroke="black" points="166.71,-573.8 166.71,-604.6 383.85,-604.6 383.85,-573.8 166.71,-573.8"/>
<text text-anchor="start" x="173.71" y="-586" font-family="Arial" font-size="14.00">id </text>
<text text-anchor="start" x="188.5" y="-586" font-family="Arial" font-size="14.00" fill="#666666">[int]</text>
<polygon fill="none" stroke="black" points="166.71,-543 166.71,-573.8 383.85,-573.8 383.85,-543 166.71,-543"/>
<text text-anchor="start" x="173.71" y="-555.2" font-family="Arial" font-size="14.00">content </text>
<text text-anchor="start" x="223.53" y="-555.2" font-family="Arial" font-size="14.00" fill="#666666">[text]</text>
<polygon fill="none" stroke="black" points="166.71,-512.2 166.71,-543 383.85,-543 383.85,-512.2 166.71,-512.2"/>
<text text-anchor="start" x="173.71" y="-524.4" font-family="Arial" font-size="14.00">created_at </text>
<text text-anchor="start" x="243.76" y="-524.4" font-family="Arial" font-size="14.00" fill="#666666">[datetime2]</text>
<polygon fill="none" stroke="black" points="166.71,-481.4 166.71,-512.2 383.85,-512.2 383.85,-481.4 166.71,-481.4"/>
<text text-anchor="start" x="173.71" y="-493.6" font-family="Arial" font-size="14.00">updated_at </text>
<text text-anchor="start" x="247.67" y="-493.6" font-family="Arial" font-size="14.00" fill="#666666">[datetime2]</text>
<polygon fill="none" stroke="black" points="166.71,-450.6 166.71,-481.4 383.85,-481.4 383.85,-450.6 166.71,-450.6"/>
<text text-anchor="start" x="173.71" y="-462.8" font-family="Arial" font-size="14.00">post_id </text>
<text text-anchor="start" x="222.75" y="-462.8" font-family="Arial" font-size="14.00" fill="#666666">[int]</text>
<polygon fill="none" stroke="black" points="166.71,-419.8 166.71,-450.6 383.85,-450.6 383.85,-419.8 166.71,-419.8"/>
<text text-anchor="start" x="173.71" y="-432" font-family="Arial" font-size="14.00">author_id </text>
<text text-anchor="start" x="235.98" y="-432" font-family="Arial" font-size="14.00" fill="#666666">[int]</text>
<polygon fill="none" stroke="black" stroke-width="3" points="165.21,-418.3 165.21,-641.7 385.35,-641.7 385.35,-418.3 165.21,-418.3"/>
</g>
<!-- posts -->
<g id="node2" class="node">
<title>posts</title>
<polygon fill="#efefef" stroke="none" points="43.2,-258.8 43.2,-294.4 223.36,-294.4 223.36,-258.8 43.2,-258.8"/>
<polygon fill="none" stroke="black" points="43.2,-258.8 43.2,-294.4 223.36,-294.4 223.36,-258.8 43.2,-258.8"/>
<text text-anchor="start" x="50.2" y="-272.2" font-family="Arial Bold" font-size="18.00">posts</text>
<text text-anchor="start" x="87.21" y="-272.2" font-family="Arial" font-size="14.00">    </text>
<text text-anchor="start" x="118.33" y="-272.2" font-family="Arial" font-size="14.00" fill="#666666">[BASIC TABLE]</text>
<polygon fill="none" stroke="black" points="43.2,-228 43.2,-258.8 223.36,-258.8 223.36,-228 43.2,-228"/>
<text text-anchor="start" x="50.2" y="-240.2" font-family="Arial" font-size="14.00">id </text>
<text text-anchor="start" x="64.99" y="-240.2" font-family="Arial" font-size="14.00" fill="#666666">[int]</text>
<polygon fill="none" stroke="black" points="43.2,-197.2 43.2,-228 223.36,-228 223.36,-197.2 43.2,-197.2"/>
<text text-anchor="start" x="50.2" y="-209.4" font-family="Arial" font-size="14.00">title </text>
<text text-anchor="start" x="75.88" y="-209.4" font-family="Arial" font-size="14.00" fill="#666666">[varchar(255)]</text>
<polygon fill="none" stroke="black" points="43.2,-166.4 43.2,-197.2 223.36,-197.2 223.36,-166.4 43.2,-166.4"/>
<text text-anchor="start" x="50.2" y="-178.6" font-family="Arial" font-size="14.00">content </text>
<text text-anchor="start" x="100.01" y="-178.6" font-family="Arial" font-size="14.00" fill="#666666">[text]</text>
<polygon fill="none" stroke="black" points="43.2,-135.6 43.2,-166.4 223.36,-166.4 223.36,-135.6 43.2,-135.6"/>
<text text-anchor="start" x="50.2" y="-147.8" font-family="Arial" font-size="14.00">published </text>
<text text-anchor="start" x="114.03" y="-147.8" font-family="Arial" font-size="14.00" fill="#666666">[bit]</text>
<polygon fill="none" stroke="black" points="43.2,-104.8 43.2,-135.6 223.36,-135.6 223.36,-104.8 43.2,-104.8"/>
<text text-anchor="start" x="50.2" y="-117" font-family="Arial" font-size="14.00">created_at </text>
<text text-anchor="start" x="120.25" y="-117" font-family="Arial" font-size="14.00" fill="#666666">[datetime2]</text>
<polygon fill="none" stroke="black" points="43.2,-74 43.2,-104.8 223.36,-104.8 223.36,-74 43.2,-74"/>
<text text-anchor="start" x="50.2" y="-86.2" font-family="Arial" font-size="14.00">updated_at </text>
<text text-anchor="start" x="124.16" y="-86.2" font-family="Arial" font-size="14.00" fill="#666666">[datetime2]</text>
<polygon fill="none" stroke="black" points="43.2,-43.2 43.2,-74 223.36,-74 223.36,-43.2 43.2,-43.2"/>
<text text-anchor="start" x="50.2" y="-55.4" font-family="Arial" font-size="14.00">author_id </text>
<text text-anchor="start" x="112.47" y="-55.4" font-family="Arial" font-size="14.00" fill="#666666">[int]</text>
</g>
<!-- comments&#45;&gt;posts -->
<g id="edge1" class="edge">
<title>comments:post_id&#45;&gt;posts:id</title>
<path fill="none" stroke="black" d="M155.43,-464.46C128.94,-455.16 148.69,-405.98 166.71,-373.6 181.22,-347.53 208.86,-363.67 223.36,-337.6 243.72,-301.01 266.23,-243.4 224.36,-243.4"/>
<polygon fill="black" stroke="black" points="155.49,-464.46 164.71,-470.4 160.77,-465.26 165.05,-465.9 165.05,-465.9 165.05,-465.9 160.77,-465.26 166.05,-461.5 155.49,-464.46"/>
</g>
<!-- users -->
<g id="node3" class="node">
<title>users</title>
<polygon fill="#efefef" stroke="none" points="328.21,-243.4 328.21,-279 508.35,-279 508.35,-243.4 328.21,-243.4"/>
<polygon fill="none" stroke="black" points="328.21,-243.4 328.21,-279 508.35,-279 508.35,-243.4 328.21,-243.4"/>
<text text-anchor="start" x="335.21" y="-256.8" font-family="Arial Bold" font-size="18.00">users</text>
<text text-anchor="start" x="372.2" y="-256.8" font-family="Arial" font-size="14.00">    </text>
<text text-anchor="start" x="403.32" y="-256.8" font-family="Arial" font-size="14.00" fill="#666666">[BASIC TABLE]</text>
<polygon fill="none" stroke="black" points="328.21,-212.6 328.21,-243.4 508.35,-243.4 508.35,-212.6 328.21,-212.6"/>
<text text-anchor="start" x="335.21" y="-224.8" font-family="Arial" font-size="14.00">id </text>
<text text-anchor="start" x="349.99" y="-224.8" font-family="Arial" font-size="14.00" fill="#666666">[int]</text>
<polygon fill="none" stroke="black" points="328.21,-181.8 328.21,-212.6 508.35,-212.6 508.35,-181.8 328.21,-181.8"/>
<text text-anchor="start" x="335.21" y="-194" font-family="Arial" font-size="14.00">email </text>
<text text-anchor="start" x="372.55" y="-194" font-family="Arial" font-size="14.00" fill="#666666">[varchar(255)]</text>
<polygon fill="none" stroke="black" points="328.21,-151 328.21,-181.8 508.35,-181.8 508.35,-151 328.21,-151"/>
<text text-anchor="start" x="335.21" y="-163.2" font-family="Arial" font-size="14.00">username </text>
<text text-anchor="start" x="401.35" y="-163.2" font-family="Arial" font-size="14.00" fill="#666666">[varchar(255)]</text>
<polygon fill="none" stroke="black" points="328.21,-120.2 328.21,-151 508.35,-151 508.35,-120.2 328.21,-120.2"/>
<text text-anchor="start" x="335.21" y="-132.4" font-family="Arial" font-size="14.00">password </text>
<text text-anchor="start" x="399.02" y="-132.4" font-family="Arial" font-size="14.00" fill="#666666">[varchar(255)]</text>
<polygon fill="none" stroke="black" points="328.21,-89.4 328.21,-120.2 508.35,-120.2 508.35,-89.4 328.21,-89.4"/>
<text text-anchor="start" x="335.21" y="-101.6" font-family="Arial" font-size="14.00">created_at </text>
<text text-anchor="start" x="405.26" y="-101.6" font-family="Arial" font-size="14.00" fill="#666666">[datetime2]</text>
<polygon fill="none" stroke="black" points="328.21,-58.6 328.21,-89.4 508.35,-89.4 508.35,-58.6 328.21,-58.6"/>
<text text-anchor="start" x="335.21" y="-70.8" font-family="Arial" font-size="14.00">updated_at </text>
<text text-anchor="start" x="409.17" y="-70.8" font-family="Arial" font-size="14.00" fill="#666666">[datetime2]</text>
</g>
<!-- comments&#45;&gt;users -->
<g id="edge2" class="edge">
<title>comments:author_id&#45;&gt;users:id</title>
<path fill="none" stroke="black" d="M394.61,-432.7C407,-424.04 393.28,-394.69 383.85,-373.6 370.1,-342.87 341.87,-352.97 328.21,-322.2 311.22,-283.93 285.34,-228 327.21,-228"/>
<polygon fill="black" stroke="black" points="394.86,-432.64 384.06,-430.76 389.69,-433.96 385.5,-435.03 385.5,-435.03 385.5,-435.03 389.69,-433.96 386.29,-439.48 394.86,-432.64"/>
</g>
</g>
</svg>
