<?xml version="1.0" encoding="UTF-8" standalone="no"?>
<!DOCTYPE svg PUBLIC "-//W3C//DTD SVG 1.1//EN"
 "http://www.w3.org/Graphics/SVG/1.1/DTD/svg11.dtd">
<!-- Generated by graphviz version 2.40.1 (20161225.0304)
 -->
<!-- Title: comments Pages: 1 -->
<svg width="584pt" height="682pt"
 viewBox="0.00 0.00 584.00 682.00" xmlns="http://www.w3.org/2000/svg" xmlns:xlink="http://www.w3.org/1999/xlink">
<g id="graph0" class="graph" transform="scale(1 1) rotate(0) translate(4 678)">
<title>comments</title>
<polygon fill="#ffffff" stroke="transparent" points="-4,4 -4,-678 580,-678 580,4 -4,4"/>
<!-- comments -->
<g id="node1" class="node">
<title>comments</title>
<polygon fill="#efefef" stroke="transparent" points="171.5,-592.5 171.5,-627.5 400.5,-627.5 400.5,-592.5 171.5,-592.5"/>
<polygon fill="none" stroke="#000000" points="171.5,-592.5 171.5,-627.5 400.5,-627.5 400.5,-592.5 171.5,-592.5"/>
<text text-anchor="start" x="178.3831" y="-605.3" font-family="Arial Bold" font-size="18.00" fill="#000000">comments</text>
<text text-anchor="start" x="261.3883" y="-605.3" font-family="Arial" font-size="14.00" fill="#000000">    </text>
<text text-anchor="start" x="295.5931" y="-605.3" font-family="Arial" font-size="14.00" fill="#666666">[BASIC TABLE]</text>
<polygon fill="none" stroke="#000000" points="171.5,-562.5 171.5,-592.5 400.5,-592.5 400.5,-562.5 171.5,-562.5"/>
<text text-anchor="start" x="178.5" y="-573.9" font-family="Arial" font-size="14.00" fill="#000000">id </text>
<text text-anchor="start" x="193.2798" y="-573.9" font-family="Arial" font-size="14.00" fill="#666666">[int]</text>
<polygon fill="none" stroke="#000000" points="171.5,-532.5 171.5,-562.5 400.5,-562.5 400.5,-532.5 171.5,-532.5"/>
<text text-anchor="start" x="178.5" y="-543.9" font-family="Arial" font-size="14.00" fill="#000000">content </text>
<text text-anchor="start" x="228.3022" y="-543.9" font-family="Arial" font-size="14.00" fill="#666666">[text]</text>
<polygon fill="none" stroke="#000000" points="171.5,-502.5 171.5,-532.5 400.5,-532.5 400.5,-502.5 171.5,-502.5"/>
<text text-anchor="start" x="178.5" y="-513.9" font-family="Arial" font-size="14.00" fill="#000000">created_at </text>
<text text-anchor="start" x="248.528" y="-513.9" font-family="Arial" font-size="14.00" fill="#666666">[datetime2]</text>
<polygon fill="none" stroke="#000000" points="171.5,-472.5 171.5,-502.5 400.5,-502.5 400.5,-472.5 171.5,-472.5"/>
<text text-anchor="start" x="178.5" y="-483.9" font-family="Arial" font-size="14.00" fill="#000000">updated_at </text>
<text text-anchor="start" x="252.4326" y="-483.9" font-family="Arial" font-size="14.00" fill="#666666">[datetime2]</text>
<polygon fill="none" stroke="#000000" points="171.5,-442.5 171.5,-472.5 400.5,-472.5 400.5,-442.5 171.5,-442.5"/>
<text text-anchor="start" x="178.5" y="-453.9" font-family="Arial" font-size="14.00" fill="#000000">post_id </text>
<text text-anchor="start" x="227.5182" y="-453.9" font-family="Arial" font-size="14.00" fill="#666666">[int]</text>
<polygon fill="none" stroke="#000000" points="171.5,-412.5 171.5,-442.5 400.5,-442.5 400.5,-412.5 171.5,-412.5"/>
<text text-anchor="start" x="178.5" y="-423.9" font-family="Arial" font-size="14.00" fill="#000000">author_id </text>
<text text-anchor="start" x="240.744" y="-423.9" font-family="Arial" font-size="14.00" fill="#666666">[int]</text>
<polygon fill="none" stroke="#000000" stroke-width="3" points="169.5,-411.5 169.5,-629.5 401.5,-629.5 401.5,-411.5 169.5,-411.5"/>
</g>
<!-- posts -->
<g id="node2" class="node">
<title>posts</title>
<polygon fill="#efefef" stroke="transparent" points="43.5,-252.5 43.5,-287.5 232.5,-287.5 232.5,-252.5 43.5,-252.5"/>
<polygon fill="none" stroke="#000000" points="43.5,-252.5 43.5,-287.5 232.5,-287.5 232.5,-252.5 43.5,-252.5"/>
<text text-anchor="start" x="50.3784" y="-265.3" font-family="Arial Bold" font-size="18.00" fill="#000000">posts</text>
<text text-anchor="start" x="93.393" y="-265.3" font-family="Arial" font-size="14.00" fill="#000000">    </text>
<text text-anchor="start" x="127.5978" y="-265.3" font-family="Arial" font-size="14.00" fill="#666666">[BASIC TABLE]</text>
<polygon fill="none" stroke="#000000" points="43.5,-222.5 43.5,-252.5 232.5,-252.5 232.5,-222.5 43.5,-222.5"/>
<text text-anchor="start" x="50.5" y="-233.9" font-family="Arial" font-size="14.00" fill="#000000">id    </text>
<text text-anchor="start" x="95.594" y="-233.9" font-family="Arial" font-size="14.00" fill="#666666">[int]</text>
<polygon fill="none" stroke="#000000" points="43.5,-192.5 43.5,-222.5 232.5,-222.5 232.5,-192.5 43.5,-192.5"/>
<text text-anchor="start" x="50.5" y="-203.9" font-family="Arial" font-size="14.00" fill="#000000">title    </text>
<text text-anchor="start" x="106.4818" y="-203.9" font-family="Arial" font-size="14.00" fill="#666666">[varchar(255)]</text>
<polygon fill="none" stroke="#000000" points="43.5,-162.5 43.5,-192.5 232.5,-192.5 232.5,-162.5 43.5,-162.5"/>
<text text-anchor="start" x="50.5" y="-173.9" font-family="Arial" font-size="14.00" fill="#000000">content    </text>
<text text-anchor="start" x="130.6164" y="-173.9" font-family="Arial" font-size="14.00" fill="#666666">[text]</text>
<polygon fill="none" stroke="#000000" points="43.5,-132.5 43.5,-162.5 232.5,-162.5 232.5,-132.5 43.5,-132.5"/>
<text text-anchor="start" x="50.5" y="-143.9" font-family="Arial" font-size="14.00" fill="#000000">published    </text>
<text text-anchor="start" x="144.6136" y="-143.9" font-family="Arial" font-size="14.00" fill="#666666">[bit]</text>
<polygon fill="none" stroke="#000000" points="43.5,-102.5 43.5,-132.5 232.5,-132.5 232.5,-102.5 43.5,-102.5"/>
<text text-anchor="start" x="50.5" y="-113.9" font-family="Arial" font-size="14.00" fill="#000000">created_at    </text>
<text text-anchor="start" x="150.8422" y="-113.9" font-family="Arial" font-size="14.00" fill="#666666">[datetime2]</text>
<polygon fill="none" stroke="#000000" points="43.5,-72.5 43.5,-102.5 232.5,-102.5 232.5,-72.5 43.5,-72.5"/>
<text text-anchor="start" x="50.5" y="-83.9" font-family="Arial" font-size="14.00" fill="#000000">updated_at    </text>
<text text-anchor="start" x="154.7468" y="-83.9" font-family="Arial" font-size="14.00" fill="#666666">[datetime2]</text>
<polygon fill="none" stroke="#000000" points="43.5,-42.5 43.5,-72.5 232.5,-72.5 232.5,-42.5 43.5,-42.5"/>
<text text-anchor="start" x="50.5" y="-53.9" font-family="Arial" font-size="14.00" fill="#000000">author_id    </text>
<text text-anchor="start" x="143.0582" y="-53.9" font-family="Arial" font-size="14.00" fill="#666666">[int]</text>
</g>
<!-- comments&#45;&gt;posts -->
<g id="edge1" class="edge">
<title>comments:post_id&#45;&gt;posts:id</title>
<path fill="none" stroke="#000000" d="M161.3904,-455.9811C135.2351,-446.8432 153.5033,-398.5181 171.5,-367 187.1097,-339.6623 216.8903,-358.3377 232.5,-331 253.1056,-294.913 274.0556,-237.5 232.5,-237.5"/>
<polygon fill="#000000" stroke="#000000" points="161.611,-456.0141 170.8314,-461.9501 166.5555,-456.7571 171.5,-457.5 171.5,-457.5 171.5,-457.5 166.5555,-456.7571 172.1686,-453.0499 161.611,-456.0141 161.611,-456.0141"/>
</g>
<!-- users -->
<g id="node3" class="node">
<title>users</title>
<polygon fill="#efefef" stroke="transparent" points="336.5,-237.5 336.5,-272.5 533.5,-272.5 533.5,-237.5 336.5,-237.5"/>
<polygon fill="none" stroke="#000000" points="336.5,-237.5 336.5,-272.5 533.5,-272.5 533.5,-237.5 336.5,-237.5"/>
<text text-anchor="start" x="346.8834" y="-250.3" font-family="Arial Bold" font-size="18.00" fill="#000000">users</text>
<text text-anchor="start" x="390.888" y="-250.3" font-family="Arial" font-size="14.00" fill="#000000">    </text>
<text text-anchor="start" x="425.0928" y="-250.3" font-family="Arial" font-size="14.00" fill="#666666">[BASIC TABLE]</text>
<polygon fill="none" stroke="#000000" points="336.5,-207.5 336.5,-237.5 533.5,-237.5 533.5,-207.5 336.5,-207.5"/>
<text text-anchor="start" x="343.5" y="-218.9" font-family="Arial" font-size="14.00" fill="#000000">id    </text>
<text text-anchor="start" x="388.594" y="-218.9" font-family="Arial" font-size="14.00" fill="#666666">[int]</text>
<polygon fill="none" stroke="#000000" points="336.5,-177.5 336.5,-207.5 533.5,-207.5 533.5,-177.5 336.5,-177.5"/>
<text text-anchor="start" x="343.5" y="-188.9" font-family="Arial" font-size="14.00" fill="#000000">email    </text>
<text text-anchor="start" x="411.1438" y="-188.9" font-family="Arial" font-size="14.00" fill="#666666">[varchar(255)]</text>
<polygon fill="none" stroke="#000000" points="336.5,-147.5 336.5,-177.5 533.5,-177.5 533.5,-147.5 336.5,-147.5"/>
<text text-anchor="start" x="343.2209" y="-158.9" font-family="Arial" font-size="14.00" fill="#000000">username    </text>
<text text-anchor="start" x="439.6599" y="-158.9" font-family="Arial" font-size="14.00" fill="#666666">[varchar(255)]</text>
<polygon fill="none" stroke="#000000" points="336.5,-117.5 336.5,-147.5 533.5,-147.5 533.5,-117.5 336.5,-117.5"/>
<text text-anchor="start" x="343.5" y="-128.9" font-family="Arial" font-size="14.00" fill="#000000">password    </text>
<text text-anchor="start" x="437.6024" y="-128.9" font-family="Arial" font-size="14.00" fill="#666666">[varchar(255)]</text>
<polygon fill="none" stroke="#000000" points="336.5,-87.5 336.5,-117.5 533.5,-117.5 533.5,-87.5 336.5,-87.5"/>
<text text-anchor="start" x="343.5" y="-98.9" font-family="Arial" font-size="14.00" fill="#000000">created_at    </text>
<text text-anchor="start" x="443.8422" y="-98.9" font-family="Arial" font-size="14.00" fill="#666666">[datetime2]</text>
<polygon fill="none" stroke="#000000" points="336.5,-57.5 336.5,-87.5 533.5,-87.5 533.5,-57.5 336.5,-57.5"/>
<text text-anchor="start" x="343.5" y="-68.9" font-family="Arial" font-size="14.00" fill="#000000">updated_at    </text>
<text text-anchor="start" x="447.7468" y="-68.9" font-family="Arial" font-size="14.00" fill="#666666">[datetime2]</text>
</g>
<!-- comments&#45;&gt;users -->
<g id="edge2" class="edge">
<title>comments:author_id&#45;&gt;users:id</title>
<path fill="none" stroke="#000000" d="M410.1943,-425.0274C422.7199,-416.458 410.3475,-387.4389 400.5,-367 384.7131,-334.2336 352.2869,-348.7664 336.5,-316 318.4629,-278.563 294.9444,-222.5 336.5,-222.5"/>
<polygon fill="#000000" stroke="#000000" points="410.1898,-425.0285 399.3878,-423.1396 405.3449,-426.2643 400.5,-427.5 400.5,-427.5 400.5,-427.5 405.3449,-426.2643 401.6122,-431.8604 410.1898,-425.0285 410.1898,-425.0285"/>
</g>
</g>
</svg>
