<?xml version="1.0" encoding="UTF-8" standalone="no"?>
<!DOCTYPE svg PUBLIC "-//W3C//DTD SVG 1.1//EN"
 "http://www.w3.org/Graphics/SVG/1.1/DTD/svg11.dtd">
<!-- Generated by graphviz version 2.40.1 (20161225.0304)
 -->
<!-- Title: notifications Pages: 1 -->
<svg width="341pt" height="652pt"
 viewBox="0.00 0.00 341.00 652.00" xmlns="http://www.w3.org/2000/svg" xmlns:xlink="http://www.w3.org/1999/xlink">
<g id="graph0" class="graph" transform="scale(1 1) rotate(0) translate(4 648)">
<title>notifications</title>
<polygon fill="#ffffff" stroke="transparent" points="-4,4 -4,-648 337,-648 337,4 -4,4"/>
<!-- notifications -->
<g id="node1" class="node">
<title>notifications</title>
<polygon fill="#efefef" stroke="transparent" points="46.5,-562.5 46.5,-597.5 287.5,-597.5 287.5,-562.5 46.5,-562.5"/>
<polygon fill="none" stroke="#000000" points="46.5,-562.5 46.5,-597.5 287.5,-597.5 287.5,-562.5 46.5,-562.5"/>
<text text-anchor="start" x="53.3756" y="-575.3" font-family="Arial Bold" font-size="18.00" fill="#000000">notifications</text>
<text text-anchor="start" x="148.3958" y="-575.3" font-family="Arial" font-size="14.00" fill="#000000">    </text>
<text text-anchor="start" x="182.6006" y="-575.3" font-family="Arial" font-size="14.00" fill="#666666">[BASIC TABLE]</text>
<polygon fill="none" stroke="#000000" points="46.5,-532.5 46.5,-562.5 287.5,-562.5 287.5,-532.5 46.5,-532.5"/>
<text text-anchor="start" x="53.5" y="-543.9" font-family="Arial" font-size="14.00" fill="#000000">id </text>
<text text-anchor="start" x="68.2798" y="-543.9" font-family="Arial" font-size="14.00" fill="#666666">[int]</text>
<polygon fill="none" stroke="#000000" points="46.5,-502.5 46.5,-532.5 287.5,-532.5 287.5,-502.5 46.5,-502.5"/>
<text text-anchor="start" x="53.5" y="-513.9" font-family="Arial" font-size="14.00" fill="#000000">user_id </text>
<text text-anchor="start" x="103.2882" y="-513.9" font-family="Arial" font-size="14.00" fill="#666666">[int]</text>
<polygon fill="none" stroke="#000000" points="46.5,-472.5 46.5,-502.5 287.5,-502.5 287.5,-472.5 46.5,-472.5"/>
<text text-anchor="start" x="53.5" y="-483.9" font-family="Arial" font-size="14.00" fill="#000000">title </text>
<text text-anchor="start" x="79.1676" y="-483.9" font-family="Arial" font-size="14.00" fill="#666666">[varchar(255)]</text>
<polygon fill="none" stroke="#000000" points="46.5,-442.5 46.5,-472.5 287.5,-472.5 287.5,-442.5 46.5,-442.5"/>
<text text-anchor="start" x="53.5" y="-453.9" font-family="Arial" font-size="14.00" fill="#000000">content </text>
<text text-anchor="start" x="103.3022" y="-453.9" font-family="Arial" font-size="14.00" fill="#666666">[text]</text>
<polygon fill="none" stroke="#000000" points="46.5,-412.5 46.5,-442.5 287.5,-442.5 287.5,-412.5 46.5,-412.5"/>
<text text-anchor="start" x="53.5" y="-423.9" font-family="Arial" font-size="14.00" fill="#000000">is_read </text>
<text text-anchor="start" x="103.2882" y="-423.9" font-family="Arial" font-size="14.00" fill="#666666">[bit]</text>
<polygon fill="none" stroke="#000000" points="46.5,-382.5 46.5,-412.5 287.5,-412.5 287.5,-382.5 46.5,-382.5"/>
<text text-anchor="start" x="53.5" y="-393.9" font-family="Arial" font-size="14.00" fill="#000000">created_at </text>
<text text-anchor="start" x="123.528" y="-393.9" font-family="Arial" font-size="14.00" fill="#666666">[datetime2]</text>
<polygon fill="none" stroke="#000000" stroke-width="3" points="44.5,-381.5 44.5,-599.5 288.5,-599.5 288.5,-381.5 44.5,-381.5"/>
</g>
<!-- users -->
<g id="node2" class="node">
<title>users</title>
<polygon fill="#efefef" stroke="transparent" points="68.5,-222.5 68.5,-257.5 265.5,-257.5 265.5,-222.5 68.5,-222.5"/>
<polygon fill="none" stroke="#000000" points="68.5,-222.5 68.5,-257.5 265.5,-257.5 265.5,-222.5 68.5,-222.5"/>
<text text-anchor="start" x="78.8834" y="-235.3" font-family="Arial Bold" font-size="18.00" fill="#000000">users</text>
<text text-anchor="start" x="122.888" y="-235.3" font-family="Arial" font-size="14.00" fill="#000000">    </text>
<text text-anchor="start" x="157.0928" y="-235.3" font-family="Arial" font-size="14.00" fill="#666666">[BASIC TABLE]</text>
<polygon fill="none" stroke="#000000" points="68.5,-192.5 68.5,-222.5 265.5,-222.5 265.5,-192.5 68.5,-192.5"/>
<text text-anchor="start" x="75.5" y="-203.9" font-family="Arial" font-size="14.00" fill="#000000">id    </text>
<text text-anchor="start" x="120.594" y="-203.9" font-family="Arial" font-size="14.00" fill="#666666">[int]</text>
<polygon fill="none" stroke="#000000" points="68.5,-162.5 68.5,-192.5 265.5,-192.5 265.5,-162.5 68.5,-162.5"/>
<text text-anchor="start" x="75.5" y="-173.9" font-family="Arial" font-size="14.00" fill="#000000">email    </text>
<text text-anchor="start" x="143.1438" y="-173.9" font-family="Arial" font-size="14.00" fill="#666666">[varchar(255)]</text>
<polygon fill="none" stroke="#000000" points="68.5,-132.5 68.5,-162.5 265.5,-162.5 265.5,-132.5 68.5,-132.5"/>
<text text-anchor="start" x="75.2209" y="-143.9" font-family="Arial" font-size="14.00" fill="#000000">username    </text>
<text text-anchor="start" x="171.6599" y="-143.9" font-family="Arial" font-size="14.00" fill="#666666">[varchar(255)]</text>
<polygon fill="none" stroke="#000000" points="68.5,-102.5 68.5,-132.5 265.5,-132.5 265.5,-102.5 68.5,-102.5"/>
<text text-anchor="start" x="75.5" y="-113.9" font-family="Arial" font-size="14.00" fill="#000000">password    </text>
<text text-anchor="start" x="169.6024" y="-113.9" font-family="Arial" font-size="14.00" fill="#666666">[varchar(255)]</text>
<polygon fill="none" stroke="#000000" points="68.5,-72.5 68.5,-102.5 265.5,-102.5 265.5,-72.5 68.5,-72.5"/>
<text text-anchor="start" x="75.5" y="-83.9" font-family="Arial" font-size="14.00" fill="#000000">created_at    </text>
<text text-anchor="start" x="175.8422" y="-83.9" font-family="Arial" font-size="14.00" fill="#666666">[datetime2]</text>
<polygon fill="none" stroke="#000000" points="68.5,-42.5 68.5,-72.5 265.5,-72.5 265.5,-42.5 68.5,-42.5"/>
<text text-anchor="start" x="75.5" y="-53.9" font-family="Arial" font-size="14.00" fill="#000000">updated_at    </text>
<text text-anchor="start" x="179.7468" y="-53.9" font-family="Arial" font-size="14.00" fill="#666666">[datetime2]</text>
</g>
<!-- notifications&#45;&gt;users -->
<g id="edge1" class="edge">
<title>notifications:user_id&#45;&gt;users:id</title>
<path fill="none" stroke="#000000" d="M36.6775,-515.183C-20.2064,-486.815 2.9449,-207.5 68.5,-207.5"/>
<polygon fill="#000000" stroke="#000000" points="36.7671,-515.204 45.4668,-521.8798 41.6336,-516.352 46.5,-517.5 46.5,-517.5 46.5,-517.5 41.6336,-516.352 47.5332,-513.1202 36.7671,-515.204 36.7671,-515.204"/>
</g>
</g>
</svg>
