<?xml version="1.0" encoding="UTF-8" standalone="no"?>
<!DOCTYPE svg PUBLIC "-//W3C//DTD SVG 1.1//EN"
 "http://www.w3.org/Graphics/SVG/1.1/DTD/svg11.dtd">
<!-- Generated by graphviz version 2.40.1 (20161225.0304)
 -->
<!-- Title: order_items Pages: 1 -->
<svg width="610pt" height="682pt"
 viewBox="0.00 0.00 610.00 682.00" xmlns="http://www.w3.org/2000/svg" xmlns:xlink="http://www.w3.org/1999/xlink">
<g id="graph0" class="graph" transform="scale(1 1) rotate(0) translate(4 678)">
<title>order_items</title>
<polygon fill="#ffffff" stroke="transparent" points="-4,4 -4,-678 606,-678 606,4 -4,4"/>
<!-- order_items -->
<g id="node1" class="node">
<title>order_items</title>
<polygon fill="#efefef" stroke="transparent" points="176.5,-592.5 176.5,-627.5 417.5,-627.5 417.5,-592.5 176.5,-592.5"/>
<polygon fill="none" stroke="#000000" points="176.5,-592.5 176.5,-627.5 417.5,-627.5 417.5,-592.5 176.5,-592.5"/>
<text text-anchor="start" x="183.3837" y="-605.3" font-family="Arial Bold" font-size="18.00" fill="#000000">order_items</text>
<text text-anchor="start" x="278.3877" y="-605.3" font-family="Arial" font-size="14.00" fill="#000000">    </text>
<text text-anchor="start" x="312.5925" y="-605.3" font-family="Arial" font-size="14.00" fill="#666666">[BASIC TABLE]</text>
<polygon fill="none" stroke="#000000" points="176.5,-562.5 176.5,-592.5 417.5,-592.5 417.5,-562.5 176.5,-562.5"/>
<text text-anchor="start" x="183.5" y="-573.9" font-family="Arial" font-size="14.00" fill="#000000">id </text>
<text text-anchor="start" x="198.2798" y="-573.9" font-family="Arial" font-size="14.00" fill="#666666">[int]</text>
<polygon fill="none" stroke="#000000" points="176.5,-532.5 176.5,-562.5 417.5,-562.5 417.5,-532.5 176.5,-532.5"/>
<text text-anchor="start" x="183.5" y="-543.9" font-family="Arial" font-size="14.00" fill="#000000">order_id </text>
<text text-anchor="start" x="238.7314" y="-543.9" font-family="Arial" font-size="14.00" fill="#666666">[int]</text>
<polygon fill="none" stroke="#000000" points="176.5,-502.5 176.5,-532.5 417.5,-532.5 417.5,-502.5 176.5,-502.5"/>
<text text-anchor="start" x="183.5" y="-513.9" font-family="Arial" font-size="14.00" fill="#000000">product_id </text>
<text text-anchor="start" x="252.744" y="-513.9" font-family="Arial" font-size="14.00" fill="#666666">[int]</text>
<polygon fill="none" stroke="#000000" points="176.5,-472.5 176.5,-502.5 417.5,-502.5 417.5,-472.5 176.5,-472.5"/>
<text text-anchor="start" x="183.5" y="-483.9" font-family="Arial" font-size="14.00" fill="#000000">quantity </text>
<text text-anchor="start" x="236.4088" y="-483.9" font-family="Arial" font-size="14.00" fill="#666666">[int]</text>
<polygon fill="none" stroke="#000000" points="176.5,-442.5 176.5,-472.5 417.5,-472.5 417.5,-442.5 176.5,-442.5"/>
<text text-anchor="start" x="183.5" y="-453.9" font-family="Arial" font-size="14.00" fill="#000000">price </text>
<text text-anchor="start" x="217.723" y="-453.9" font-family="Arial" font-size="14.00" fill="#666666">[decimal]</text>
<polygon fill="none" stroke="#000000" stroke-width="3" points="174.5,-441.5 174.5,-629.5 418.5,-629.5 418.5,-441.5 174.5,-441.5"/>
</g>
<!-- orders -->
<g id="node2" class="node">
<title>orders</title>
<polygon fill="#efefef" stroke="transparent" points="43.5,-252.5 43.5,-287.5 240.5,-287.5 240.5,-252.5 43.5,-252.5"/>
<polygon fill="none" stroke="#000000" points="43.5,-252.5 43.5,-287.5 240.5,-287.5 240.5,-252.5 43.5,-252.5"/>
<text text-anchor="start" x="50.3842" y="-265.3" font-family="Arial Bold" font-size="18.00" fill="#000000">orders</text>
<text text-anchor="start" x="101.3872" y="-265.3" font-family="Arial" font-size="14.00" fill="#000000">    </text>
<text text-anchor="start" x="135.592" y="-265.3" font-family="Arial" font-size="14.00" fill="#666666">[BASIC TABLE]</text>
<polygon fill="none" stroke="#000000" points="43.5,-222.5 43.5,-252.5 240.5,-252.5 240.5,-222.5 43.5,-222.5"/>
<text text-anchor="start" x="50.5" y="-233.9" font-family="Arial" font-size="14.00" fill="#000000">id    </text>
<text text-anchor="start" x="95.594" y="-233.9" font-family="Arial" font-size="14.00" fill="#666666">[int]</text>
<polygon fill="none" stroke="#000000" points="43.5,-192.5 43.5,-222.5 240.5,-222.5 240.5,-192.5 43.5,-192.5"/>
<text text-anchor="start" x="50.5" y="-203.9" font-family="Arial" font-size="14.00" fill="#000000">user_id    </text>
<text text-anchor="start" x="130.6024" y="-203.9" font-family="Arial" font-size="14.00" fill="#666666">[int]</text>
<polygon fill="none" stroke="#000000" points="43.5,-162.5 43.5,-192.5 240.5,-192.5 240.5,-162.5 43.5,-162.5"/>
<text text-anchor="start" x="50.5" y="-173.9" font-family="Arial" font-size="14.00" fill="#000000">status    </text>
<text text-anchor="start" x="122.0512" y="-173.9" font-family="Arial" font-size="14.00" fill="#666666">[varchar(20)]</text>
<polygon fill="none" stroke="#000000" points="43.5,-132.5 43.5,-162.5 240.5,-162.5 240.5,-132.5 43.5,-132.5"/>
<text text-anchor="start" x="50.5" y="-143.9" font-family="Arial" font-size="14.00" fill="#000000">total_price    </text>
<text text-anchor="start" x="149.2728" y="-143.9" font-family="Arial" font-size="14.00" fill="#666666">[decimal]</text>
<polygon fill="none" stroke="#000000" points="43.5,-102.5 43.5,-132.5 240.5,-132.5 240.5,-102.5 43.5,-102.5"/>
<text text-anchor="start" x="50.5" y="-113.9" font-family="Arial" font-size="14.00" fill="#000000">created_at    </text>
<text text-anchor="start" x="150.8422" y="-113.9" font-family="Arial" font-size="14.00" fill="#666666">[datetime2]</text>
<polygon fill="none" stroke="#000000" points="43.5,-72.5 43.5,-102.5 240.5,-102.5 240.5,-72.5 43.5,-72.5"/>
<text text-anchor="start" x="50.5" y="-83.9" font-family="Arial" font-size="14.00" fill="#000000">updated_at    </text>
<text text-anchor="start" x="154.7468" y="-83.9" font-family="Arial" font-size="14.00" fill="#666666">[datetime2]</text>
</g>
<!-- order_items&#45;&gt;orders -->
<g id="edge1" class="edge">
<title>order_items:order_id&#45;&gt;orders:id</title>
<path fill="none" stroke="#000000" d="M166.3884,-547.3514C-38.2901,-541.1416 235.9047,-342.3399 240.5,-331 256.1069,-292.4865 282.0556,-237.5 240.5,-237.5"/>
<polygon fill="#000000" stroke="#000000" points="166.5011,-547.3529 176.4338,-551.9995 171.5005,-547.4265 176.5,-547.5 176.5,-547.5 176.5,-547.5 171.5005,-547.4265 176.5662,-543.0005 166.5011,-547.3529 166.5011,-547.3529"/>
</g>
<!-- products -->
<g id="node3" class="node">
<title>products</title>
<polygon fill="#efefef" stroke="transparent" points="344.5,-282.5 344.5,-317.5 559.5,-317.5 559.5,-282.5 344.5,-282.5"/>
<polygon fill="none" stroke="#000000" points="344.5,-282.5 344.5,-317.5 559.5,-317.5 559.5,-282.5 344.5,-282.5"/>
<text text-anchor="start" x="351.3761" y="-295.3" font-family="Arial Bold" font-size="18.00" fill="#000000">products</text>
<text text-anchor="start" x="420.3953" y="-295.3" font-family="Arial" font-size="14.00" fill="#000000">    </text>
<text text-anchor="start" x="454.6001" y="-295.3" font-family="Arial" font-size="14.00" fill="#666666">[BASIC TABLE]</text>
<polygon fill="none" stroke="#000000" points="344.5,-252.5 344.5,-282.5 559.5,-282.5 559.5,-252.5 344.5,-252.5"/>
<text text-anchor="start" x="351.5" y="-263.9" font-family="Arial" font-size="14.00" fill="#000000">id    </text>
<text text-anchor="start" x="396.594" y="-263.9" font-family="Arial" font-size="14.00" fill="#666666">[int]</text>
<polygon fill="none" stroke="#000000" points="344.5,-222.5 344.5,-252.5 559.5,-252.5 559.5,-222.5 344.5,-222.5"/>
<text text-anchor="start" x="351.5" y="-233.9" font-family="Arial" font-size="14.00" fill="#000000">name    </text>
<text text-anchor="start" x="420.7132" y="-233.9" font-family="Arial" font-size="14.00" fill="#666666">[varchar(255)]</text>
<polygon fill="none" stroke="#000000" points="344.5,-192.5 344.5,-222.5 559.5,-222.5 559.5,-192.5 344.5,-192.5"/>
<text text-anchor="start" x="351.5" y="-203.9" font-family="Arial" font-size="14.00" fill="#000000">description    </text>
<text text-anchor="start" x="453.3822" y="-203.9" font-family="Arial" font-size="14.00" fill="#666666">[text]</text>
<polygon fill="none" stroke="#000000" points="344.5,-162.5 344.5,-192.5 559.5,-192.5 559.5,-162.5 344.5,-162.5"/>
<text text-anchor="start" x="351.5" y="-173.9" font-family="Arial" font-size="14.00" fill="#000000">price    </text>
<text text-anchor="start" x="416.0372" y="-173.9" font-family="Arial" font-size="14.00" fill="#666666">[decimal]</text>
<polygon fill="none" stroke="#000000" points="344.5,-132.5 344.5,-162.5 559.5,-162.5 559.5,-132.5 344.5,-132.5"/>
<text text-anchor="start" x="351.5" y="-143.9" font-family="Arial" font-size="14.00" fill="#000000">stock    </text>
<text text-anchor="start" x="418.378" y="-143.9" font-family="Arial" font-size="14.00" fill="#666666">[int]</text>
<polygon fill="none" stroke="#000000" points="344.5,-102.5 344.5,-132.5 559.5,-132.5 559.5,-102.5 344.5,-102.5"/>
<text text-anchor="start" x="351.5" y="-113.9" font-family="Arial" font-size="14.00" fill="#000000">created_at    </text>
<text text-anchor="start" x="451.8422" y="-113.9" font-family="Arial" font-size="14.00" fill="#666666">[datetime2]</text>
<polygon fill="none" stroke="#000000" points="344.5,-72.5 344.5,-102.5 559.5,-102.5 559.5,-72.5 344.5,-72.5"/>
<text text-anchor="start" x="351.5" y="-83.9" font-family="Arial" font-size="14.00" fill="#000000">updated_at    </text>
<text text-anchor="start" x="455.7468" y="-83.9" font-family="Arial" font-size="14.00" fill="#666666">[datetime2]</text>
<polygon fill="none" stroke="#000000" points="344.5,-42.5 344.5,-72.5 559.5,-72.5 559.5,-42.5 344.5,-42.5"/>
<text text-anchor="start" x="351.5" y="-53.9" font-family="Arial" font-size="14.00" fill="#000000">category_id    </text>
<text text-anchor="start" x="458.0582" y="-53.9" font-family="Arial" font-size="14.00" fill="#666666">[int]</text>
</g>
<!-- order_items&#45;&gt;products -->
<g id="edge2" class="edge">
<title>order_items:product_id&#45;&gt;products:id</title>
<path fill="none" stroke="#000000" d="M427.6541,-516.4237C467.4864,-507.0963 443.7924,-439.2818 417.5,-397 398.3971,-366.2799 363.6029,-391.7201 344.5,-361 322.5559,-325.7109 302.9444,-267.5 344.5,-267.5"/>
<polygon fill="#000000" stroke="#000000" points="427.4443,-516.4458 417.0256,-513.0251 422.4721,-516.9729 417.5,-517.5 417.5,-517.5 417.5,-517.5 422.4721,-516.9729 417.9744,-521.9749 427.4443,-516.4458 427.4443,-516.4458"/>
</g>
</g>
</svg>
