<?xml version="1.0" encoding="UTF-8" standalone="no"?>
<!DOCTYPE svg PUBLIC "-//W3C//DTD SVG 1.1//EN"
 "http://www.w3.org/Graphics/SVG/1.1/DTD/svg11.dtd">
<!-- Generated by graphviz version 12.1.2 (20240928.0832)
 -->
<!-- Title: order_items Pages: 1 -->
<svg width="592pt" height="694pt"
 viewBox="0.00 0.00 592.04 694.40" xmlns="http://www.w3.org/2000/svg" xmlns:xlink="http://www.w3.org/1999/xlink">
<g id="graph0" class="graph" transform="scale(1 1) rotate(0) translate(4 690.4)">
<title>order_items</title>
<polygon fill="white" stroke="none" points="-4,4 -4,-690.4 588.04,-690.4 588.04,4 -4,4"/>
<!-- order_items -->
<g id="node1" class="node">
<title>order_items</title>
<polygon fill="#efefef" stroke="none" points="172.7,-604.6 172.7,-640.2 401.83,-640.2 401.83,-604.6 172.7,-604.6"/>
<polygon fill="none" stroke="black" points="172.7,-604.6 172.7,-640.2 401.83,-640.2 401.83,-604.6 172.7,-604.6"/>
<text text-anchor="start" x="179.7" y="-618" font-family="Arial Bold" font-size="18.00">order_items</text>
<text text-anchor="start" x="265.68" y="-618" font-family="Arial" font-size="14.00">    </text>
<text text-anchor="start" x="296.8" y="-618" font-family="Arial" font-size="14.00" fill="#666666">[BASIC TABLE]</text>
<polygon fill="none" stroke="black" points="172.7,-573.8 172.7,-604.6 401.83,-604.6 401.83,-573.8 172.7,-573.8"/>
<text text-anchor="start" x="179.7" y="-586" font-family="Arial" font-size="14.00">id </text>
<text text-anchor="start" x="194.49" y="-586" font-family="Arial" font-size="14.00" fill="#666666">[int]</text>
<polygon fill="none" stroke="black" points="172.7,-543 172.7,-573.8 401.83,-573.8 401.83,-543 172.7,-543"/>
<text text-anchor="start" x="179.7" y="-555.2" font-family="Arial" font-size="14.00">order_id </text>
<text text-anchor="start" x="234.96" y="-555.2" font-family="Arial" font-size="14.00" fill="#666666">[int]</text>
<polygon fill="none" stroke="black" points="172.7,-512.2 172.7,-543 401.83,-543 401.83,-512.2 172.7,-512.2"/>
<text text-anchor="start" x="179.7" y="-524.4" font-family="Arial" font-size="14.00">product_id </text>
<text text-anchor="start" x="248.97" y="-524.4" font-family="Arial" font-size="14.00" fill="#666666">[int]</text>
<polygon fill="none" stroke="black" points="172.7,-481.4 172.7,-512.2 401.83,-512.2 401.83,-481.4 172.7,-481.4"/>
<text text-anchor="start" x="179.7" y="-493.6" font-family="Arial" font-size="14.00">quantity </text>
<text text-anchor="start" x="232.63" y="-493.6" font-family="Arial" font-size="14.00" fill="#666666">[int]</text>
<polygon fill="none" stroke="black" points="172.7,-450.6 172.7,-481.4 401.83,-481.4 401.83,-450.6 172.7,-450.6"/>
<text text-anchor="start" x="179.7" y="-462.8" font-family="Arial" font-size="14.00">price </text>
<text text-anchor="start" x="213.94" y="-462.8" font-family="Arial" font-size="14.00" fill="#666666">[decimal]</text>
<polygon fill="none" stroke="black" stroke-width="3" points="171.2,-449.1 171.2,-641.7 403.33,-641.7 403.33,-449.1 171.2,-449.1"/>
</g>
<!-- orders -->
<g id="node2" class="node">
<title>orders</title>
<polygon fill="#efefef" stroke="none" points="43.2,-258.8 43.2,-294.4 231.33,-294.4 231.33,-258.8 43.2,-258.8"/>
<polygon fill="none" stroke="black" points="43.2,-258.8 43.2,-294.4 231.33,-294.4 231.33,-258.8 43.2,-258.8"/>
<text text-anchor="start" x="50.2" y="-272.2" font-family="Arial Bold" font-size="18.00">orders</text>
<text text-anchor="start" x="95.18" y="-272.2" font-family="Arial" font-size="14.00">    </text>
<text text-anchor="start" x="126.3" y="-272.2" font-family="Arial" font-size="14.00" fill="#666666">[BASIC TABLE]</text>
<polygon fill="none" stroke="black" points="43.2,-228 43.2,-258.8 231.33,-258.8 231.33,-228 43.2,-228"/>
<text text-anchor="start" x="50.2" y="-240.2" font-family="Arial" font-size="14.00">id </text>
<text text-anchor="start" x="64.99" y="-240.2" font-family="Arial" font-size="14.00" fill="#666666">[int]</text>
<polygon fill="none" stroke="black" points="43.2,-197.2 43.2,-228 231.33,-228 231.33,-197.2 43.2,-197.2"/>
<text text-anchor="start" x="50.2" y="-209.4" font-family="Arial" font-size="14.00">user_id </text>
<text text-anchor="start" x="100.01" y="-209.4" font-family="Arial" font-size="14.00" fill="#666666">[int]</text>
<polygon fill="none" stroke="black" points="43.2,-166.4 43.2,-197.2 231.33,-197.2 231.33,-166.4 43.2,-166.4"/>
<text text-anchor="start" x="50.2" y="-178.6" font-family="Arial" font-size="14.00">status </text>
<text text-anchor="start" x="91.44" y="-178.6" font-family="Arial" font-size="14.00" fill="#666666">[varchar(20)]</text>
<polygon fill="none" stroke="black" points="43.2,-135.6 43.2,-166.4 231.33,-166.4 231.33,-135.6 43.2,-135.6"/>
<text text-anchor="start" x="50.2" y="-147.8" font-family="Arial" font-size="14.00">total_price </text>
<text text-anchor="start" x="118.68" y="-147.8" font-family="Arial" font-size="14.00" fill="#666666">[decimal]</text>
<polygon fill="none" stroke="black" points="43.2,-104.8 43.2,-135.6 231.33,-135.6 231.33,-104.8 43.2,-104.8"/>
<text text-anchor="start" x="50.2" y="-117" font-family="Arial" font-size="14.00">created_at </text>
<text text-anchor="start" x="120.25" y="-117" font-family="Arial" font-size="14.00" fill="#666666">[datetime2]</text>
<polygon fill="none" stroke="black" points="43.2,-74 43.2,-104.8 231.33,-104.8 231.33,-74 43.2,-74"/>
<text text-anchor="start" x="50.2" y="-86.2" font-family="Arial" font-size="14.00">updated_at </text>
<text text-anchor="start" x="124.16" y="-86.2" font-family="Arial" font-size="14.00" fill="#666666">[datetime2]</text>
</g>
<!-- order_items&#45;&gt;orders -->
<g id="edge1" class="edge">
<title>order_items:order_id&#45;&gt;orders:id</title>
<path fill="none" stroke="black" d="M161.51,-558.22C-31.96,-551.16 231.04,-338.38 231.33,-337.6 246.3,-298.5 274.2,-243.4 232.33,-243.4"/>
<polygon fill="black" stroke="black" points="161.37,-558.22 171.29,-562.89 166.7,-558.31 171.04,-558.39 171.04,-558.39 171.04,-558.39 166.7,-558.31 171.45,-553.89 161.37,-558.22"/>
</g>
<!-- products -->
<g id="node3" class="node">
<title>products</title>
<polygon fill="#efefef" stroke="none" points="335.7,-289.6 335.7,-325.2 540.84,-325.2 540.84,-289.6 335.7,-289.6"/>
<polygon fill="none" stroke="black" points="335.7,-289.6 335.7,-325.2 540.84,-325.2 540.84,-289.6 335.7,-289.6"/>
<text text-anchor="start" x="342.7" y="-303" font-family="Arial Bold" font-size="18.00">products</text>
<text text-anchor="start" x="404.69" y="-303" font-family="Arial" font-size="14.00">    </text>
<text text-anchor="start" x="435.8" y="-303" font-family="Arial" font-size="14.00" fill="#666666">[BASIC TABLE]</text>
<polygon fill="none" stroke="black" points="335.7,-258.8 335.7,-289.6 540.84,-289.6 540.84,-258.8 335.7,-258.8"/>
<text text-anchor="start" x="342.7" y="-271" font-family="Arial" font-size="14.00">id </text>
<text text-anchor="start" x="357.48" y="-271" font-family="Arial" font-size="14.00" fill="#666666">[int]</text>
<polygon fill="none" stroke="black" points="335.7,-228 335.7,-258.8 540.84,-258.8 540.84,-228 335.7,-228"/>
<text text-anchor="start" x="342.7" y="-240.2" font-family="Arial" font-size="14.00">name </text>
<text text-anchor="start" x="381.61" y="-240.2" font-family="Arial" font-size="14.00" fill="#666666">[varchar(255)]</text>
<polygon fill="none" stroke="black" points="335.7,-197.2 335.7,-228 540.84,-228 540.84,-197.2 335.7,-197.2"/>
<text text-anchor="start" x="342.7" y="-209.4" font-family="Arial" font-size="14.00">description </text>
<text text-anchor="start" x="414.29" y="-209.4" font-family="Arial" font-size="14.00" fill="#666666">[text]</text>
<polygon fill="none" stroke="black" points="335.7,-166.4 335.7,-197.2 540.84,-197.2 540.84,-166.4 335.7,-166.4"/>
<text text-anchor="start" x="342.7" y="-178.6" font-family="Arial" font-size="14.00">price </text>
<text text-anchor="start" x="376.93" y="-178.6" font-family="Arial" font-size="14.00" fill="#666666">[decimal]</text>
<polygon fill="none" stroke="black" points="335.7,-135.6 335.7,-166.4 540.84,-166.4 540.84,-135.6 335.7,-135.6"/>
<text text-anchor="start" x="342.7" y="-147.8" font-family="Arial" font-size="14.00">stock </text>
<text text-anchor="start" x="379.26" y="-147.8" font-family="Arial" font-size="14.00" fill="#666666">[int]</text>
<polygon fill="none" stroke="black" points="335.7,-104.8 335.7,-135.6 540.84,-135.6 540.84,-104.8 335.7,-104.8"/>
<text text-anchor="start" x="342.7" y="-117" font-family="Arial" font-size="14.00">created_at </text>
<text text-anchor="start" x="412.74" y="-117" font-family="Arial" font-size="14.00" fill="#666666">[datetime2]</text>
<polygon fill="none" stroke="black" points="335.7,-74 335.7,-104.8 540.84,-104.8 540.84,-74 335.7,-74"/>
<text text-anchor="start" x="342.7" y="-86.2" font-family="Arial" font-size="14.00">updated_at </text>
<text text-anchor="start" x="416.65" y="-86.2" font-family="Arial" font-size="14.00" fill="#666666">[datetime2]</text>
<polygon fill="none" stroke="black" points="335.7,-43.2 335.7,-74 540.84,-74 540.84,-43.2 335.7,-43.2"/>
<text text-anchor="start" x="342.7" y="-55.4" font-family="Arial" font-size="14.00">category_id </text>
<text text-anchor="start" x="418.97" y="-55.4" font-family="Arial" font-size="14.00" fill="#666666">[int]</text>
</g>
<!-- order_items&#45;&gt;products -->
<g id="edge2" class="edge">
<title>order_items:product_id&#45;&gt;products:id</title>
<path fill="none" stroke="black" d="M413.19,-526.51C453.7,-517.02 428.01,-448.06 401.83,-404.4 384.62,-375.7 352.94,-397.08 335.7,-368.4 314.12,-332.52 292.83,-274.2 334.7,-274.2"/>
<polygon fill="black" stroke="black" points="413.11,-526.51 402.69,-523.09 407.8,-527.07 403.5,-527.53 403.5,-527.53 403.5,-527.53 407.8,-527.07 403.64,-532.04 413.11,-526.51"/>
</g>
</g>
</svg>
