<?xml version="1.0" encoding="UTF-8" standalone="no"?>
<!DOCTYPE svg PUBLIC "-//W3C//DTD SVG 1.1//EN"
 "http://www.w3.org/Graphics/SVG/1.1/DTD/svg11.dtd">
<!-- Generated by graphviz version 2.40.1 (20161225.0304)
 -->
<!-- Title: orders Pages: 1 -->
<svg width="375pt" height="959pt"
 viewBox="0.00 0.00 375.34 959.00" xmlns="http://www.w3.org/2000/svg" xmlns:xlink="http://www.w3.org/1999/xlink">
<g id="graph0" class="graph" transform="scale(1 1) rotate(0) translate(4 955)">
<title>orders</title>
<polygon fill="#ffffff" stroke="transparent" points="-4,4 -4,-955 371.3431,-955 371.3431,4 -4,4"/>
<!-- orders -->
<g id="node1" class="node">
<title>orders</title>
<polygon fill="#efefef" stroke="transparent" points="105.8431,-562.5 105.8431,-597.5 302.8431,-597.5 302.8431,-562.5 105.8431,-562.5"/>
<polygon fill="none" stroke="#000000" points="105.8431,-562.5 105.8431,-597.5 302.8431,-597.5 302.8431,-562.5 105.8431,-562.5"/>
<text text-anchor="start" x="112.7273" y="-575.3" font-family="Arial Bold" font-size="18.00" fill="#000000">orders</text>
<text text-anchor="start" x="163.7303" y="-575.3" font-family="Arial" font-size="14.00" fill="#000000">    </text>
<text text-anchor="start" x="197.9351" y="-575.3" font-family="Arial" font-size="14.00" fill="#666666">[BASIC TABLE]</text>
<polygon fill="none" stroke="#000000" points="105.8431,-532.5 105.8431,-562.5 302.8431,-562.5 302.8431,-532.5 105.8431,-532.5"/>
<text text-anchor="start" x="112.8431" y="-543.9" font-family="Arial" font-size="14.00" fill="#000000">id </text>
<text text-anchor="start" x="127.6229" y="-543.9" font-family="Arial" font-size="14.00" fill="#666666">[int]</text>
<polygon fill="none" stroke="#000000" points="105.8431,-502.5 105.8431,-532.5 302.8431,-532.5 302.8431,-502.5 105.8431,-502.5"/>
<text text-anchor="start" x="112.8431" y="-513.9" font-family="Arial" font-size="14.00" fill="#000000">user_id </text>
<text text-anchor="start" x="162.6313" y="-513.9" font-family="Arial" font-size="14.00" fill="#666666">[int]</text>
<polygon fill="none" stroke="#000000" points="105.8431,-472.5 105.8431,-502.5 302.8431,-502.5 302.8431,-472.5 105.8431,-472.5"/>
<text text-anchor="start" x="112.8431" y="-483.9" font-family="Arial" font-size="14.00" fill="#000000">status </text>
<text text-anchor="start" x="154.0801" y="-483.9" font-family="Arial" font-size="14.00" fill="#666666">[varchar(20)]</text>
<polygon fill="none" stroke="#000000" points="105.8431,-442.5 105.8431,-472.5 302.8431,-472.5 302.8431,-442.5 105.8431,-442.5"/>
<text text-anchor="start" x="112.8431" y="-453.9" font-family="Arial" font-size="14.00" fill="#000000">total_price </text>
<text text-anchor="start" x="181.3017" y="-453.9" font-family="Arial" font-size="14.00" fill="#666666">[decimal]</text>
<polygon fill="none" stroke="#000000" points="105.8431,-412.5 105.8431,-442.5 302.8431,-442.5 302.8431,-412.5 105.8431,-412.5"/>
<text text-anchor="start" x="112.8431" y="-423.9" font-family="Arial" font-size="14.00" fill="#000000">created_at </text>
<text text-anchor="start" x="182.8711" y="-423.9" font-family="Arial" font-size="14.00" fill="#666666">[datetime2]</text>
<polygon fill="none" stroke="#000000" points="105.8431,-382.5 105.8431,-412.5 302.8431,-412.5 302.8431,-382.5 105.8431,-382.5"/>
<text text-anchor="start" x="112.8431" y="-393.9" font-family="Arial" font-size="14.00" fill="#000000">updated_at </text>
<text text-anchor="start" x="186.7757" y="-393.9" font-family="Arial" font-size="14.00" fill="#666666">[datetime2]</text>
<polygon fill="none" stroke="#000000" stroke-width="3" points="103.8431,-381.5 103.8431,-599.5 303.8431,-599.5 303.8431,-381.5 103.8431,-381.5"/>
</g>
<!-- users -->
<g id="node3" class="node">
<title>users</title>
<polygon fill="#efefef" stroke="transparent" points="105.8431,-222.5 105.8431,-257.5 302.8431,-257.5 302.8431,-222.5 105.8431,-222.5"/>
<polygon fill="none" stroke="#000000" points="105.8431,-222.5 105.8431,-257.5 302.8431,-257.5 302.8431,-222.5 105.8431,-222.5"/>
<text text-anchor="start" x="116.2265" y="-235.3" font-family="Arial Bold" font-size="18.00" fill="#000000">users</text>
<text text-anchor="start" x="160.2311" y="-235.3" font-family="Arial" font-size="14.00" fill="#000000">    </text>
<text text-anchor="start" x="194.4359" y="-235.3" font-family="Arial" font-size="14.00" fill="#666666">[BASIC TABLE]</text>
<polygon fill="none" stroke="#000000" points="105.8431,-192.5 105.8431,-222.5 302.8431,-222.5 302.8431,-192.5 105.8431,-192.5"/>
<text text-anchor="start" x="112.8431" y="-203.9" font-family="Arial" font-size="14.00" fill="#000000">id    </text>
<text text-anchor="start" x="157.9371" y="-203.9" font-family="Arial" font-size="14.00" fill="#666666">[int]</text>
<polygon fill="none" stroke="#000000" points="105.8431,-162.5 105.8431,-192.5 302.8431,-192.5 302.8431,-162.5 105.8431,-162.5"/>
<text text-anchor="start" x="112.8431" y="-173.9" font-family="Arial" font-size="14.00" fill="#000000">email    </text>
<text text-anchor="start" x="180.4869" y="-173.9" font-family="Arial" font-size="14.00" fill="#666666">[varchar(255)]</text>
<polygon fill="none" stroke="#000000" points="105.8431,-132.5 105.8431,-162.5 302.8431,-162.5 302.8431,-132.5 105.8431,-132.5"/>
<text text-anchor="start" x="112.564" y="-143.9" font-family="Arial" font-size="14.00" fill="#000000">username    </text>
<text text-anchor="start" x="209.003" y="-143.9" font-family="Arial" font-size="14.00" fill="#666666">[varchar(255)]</text>
<polygon fill="none" stroke="#000000" points="105.8431,-102.5 105.8431,-132.5 302.8431,-132.5 302.8431,-102.5 105.8431,-102.5"/>
<text text-anchor="start" x="112.8431" y="-113.9" font-family="Arial" font-size="14.00" fill="#000000">password    </text>
<text text-anchor="start" x="206.9455" y="-113.9" font-family="Arial" font-size="14.00" fill="#666666">[varchar(255)]</text>
<polygon fill="none" stroke="#000000" points="105.8431,-72.5 105.8431,-102.5 302.8431,-102.5 302.8431,-72.5 105.8431,-72.5"/>
<text text-anchor="start" x="112.8431" y="-83.9" font-family="Arial" font-size="14.00" fill="#000000">created_at    </text>
<text text-anchor="start" x="213.1853" y="-83.9" font-family="Arial" font-size="14.00" fill="#666666">[datetime2]</text>
<polygon fill="none" stroke="#000000" points="105.8431,-42.5 105.8431,-72.5 302.8431,-72.5 302.8431,-42.5 105.8431,-42.5"/>
<text text-anchor="start" x="112.8431" y="-53.9" font-family="Arial" font-size="14.00" fill="#000000">updated_at    </text>
<text text-anchor="start" x="217.0899" y="-53.9" font-family="Arial" font-size="14.00" fill="#666666">[datetime2]</text>
</g>
<!-- orders&#45;&gt;users -->
<g id="edge2" class="edge">
<title>orders:user_id&#45;&gt;users:id</title>
<path fill="none" stroke="#000000" d="M95.6148,-516.9106C-31.8458,-501.9577 -28.4364,-207.5 105.8431,-207.5"/>
<polygon fill="#000000" stroke="#000000" points="95.8597,-516.9246 105.5842,-521.9925 100.8514,-517.2123 105.8431,-517.5 105.8431,-517.5 105.8431,-517.5 100.8514,-517.2123 106.102,-513.0075 95.8597,-516.9246 95.8597,-516.9246"/>
</g>
<!-- order_items -->
<g id="node2" class="node">
<title>order_items</title>
<polygon fill="#efefef" stroke="transparent" points="83.8431,-872.5 83.8431,-907.5 324.8431,-907.5 324.8431,-872.5 83.8431,-872.5"/>
<polygon fill="none" stroke="#000000" points="83.8431,-872.5 83.8431,-907.5 324.8431,-907.5 324.8431,-872.5 83.8431,-872.5"/>
<text text-anchor="start" x="90.7268" y="-885.3" font-family="Arial Bold" font-size="18.00" fill="#000000">order_items</text>
<text text-anchor="start" x="185.7308" y="-885.3" font-family="Arial" font-size="14.00" fill="#000000">    </text>
<text text-anchor="start" x="219.9356" y="-885.3" font-family="Arial" font-size="14.00" fill="#666666">[BASIC TABLE]</text>
<polygon fill="none" stroke="#000000" points="83.8431,-842.5 83.8431,-872.5 324.8431,-872.5 324.8431,-842.5 83.8431,-842.5"/>
<text text-anchor="start" x="90.8431" y="-853.9" font-family="Arial" font-size="14.00" fill="#000000">id    </text>
<text text-anchor="start" x="135.9371" y="-853.9" font-family="Arial" font-size="14.00" fill="#666666">[int]</text>
<polygon fill="none" stroke="#000000" points="83.8431,-812.5 83.8431,-842.5 324.8431,-842.5 324.8431,-812.5 83.8431,-812.5"/>
<text text-anchor="start" x="90.8431" y="-823.9" font-family="Arial" font-size="14.00" fill="#000000">order_id    </text>
<text text-anchor="start" x="176.3887" y="-823.9" font-family="Arial" font-size="14.00" fill="#666666">[int]</text>
<polygon fill="none" stroke="#000000" points="83.8431,-782.5 83.8431,-812.5 324.8431,-812.5 324.8431,-782.5 83.8431,-782.5"/>
<text text-anchor="start" x="90.8431" y="-793.9" font-family="Arial" font-size="14.00" fill="#000000">product_id    </text>
<text text-anchor="start" x="190.4013" y="-793.9" font-family="Arial" font-size="14.00" fill="#666666">[int]</text>
<polygon fill="none" stroke="#000000" points="83.8431,-752.5 83.8431,-782.5 324.8431,-782.5 324.8431,-752.5 83.8431,-752.5"/>
<text text-anchor="start" x="90.8431" y="-763.9" font-family="Arial" font-size="14.00" fill="#000000">quantity    </text>
<text text-anchor="start" x="174.0661" y="-763.9" font-family="Arial" font-size="14.00" fill="#666666">[int]</text>
<polygon fill="none" stroke="#000000" points="83.8431,-722.5 83.8431,-752.5 324.8431,-752.5 324.8431,-722.5 83.8431,-722.5"/>
<text text-anchor="start" x="90.8431" y="-733.9" font-family="Arial" font-size="14.00" fill="#000000">price    </text>
<text text-anchor="start" x="155.3803" y="-733.9" font-family="Arial" font-size="14.00" fill="#666666">[decimal]</text>
</g>
<!-- order_items&#45;&gt;orders -->
<g id="edge1" class="edge">
<title>order_items:order_id&#45;&gt;orders:id</title>
<path fill="none" stroke="#000000" d="M73.5899,-826.839C-39.6563,-811.8652 -15.4497,-547.5 105.8431,-547.5"/>
<polygon fill="#000000" stroke="#000000" points="73.8638,-826.8566 83.5536,-831.9907 78.8535,-827.1783 83.8431,-827.5 83.8431,-827.5 83.8431,-827.5 78.8535,-827.1783 84.1326,-823.0093 73.8638,-826.8566 73.8638,-826.8566"/>
</g>
</g>
</svg>
