<?xml version="1.0" encoding="UTF-8" standalone="no"?>
<!DOCTYPE svg PUBLIC "-//W3C//DTD SVG 1.1//EN"
 "http://www.w3.org/Graphics/SVG/1.1/DTD/svg11.dtd">
<!-- Generated by graphviz version 12.1.2 (20240928.0832)
 -->
<!-- Title: orders Pages: 1 -->
<svg width="367pt" height="976pt"
 viewBox="0.00 0.00 367.23 975.60" xmlns="http://www.w3.org/2000/svg" xmlns:xlink="http://www.w3.org/1999/xlink">
<g id="graph0" class="graph" transform="scale(1 1) rotate(0) translate(4 971.6)">
<title>orders</title>
<polygon fill="white" stroke="none" points="-4,4 -4,-971.6 363.23,-971.6 363.23,4 -4,4"/>
<!-- orders -->
<g id="node1" class="node">
<title>orders</title>
<polygon fill="#efefef" stroke="none" points="63.7,-573.8 63.7,-609.4 251.83,-609.4 251.83,-573.8 63.7,-573.8"/>
<polygon fill="none" stroke="black" points="63.7,-573.8 63.7,-609.4 251.83,-609.4 251.83,-573.8 63.7,-573.8"/>
<text text-anchor="start" x="70.7" y="-587.2" font-family="Arial Bold" font-size="18.00">orders</text>
<text text-anchor="start" x="115.68" y="-587.2" font-family="Arial" font-size="14.00">    </text>
<text text-anchor="start" x="146.8" y="-587.2" font-family="Arial" font-size="14.00" fill="#666666">[BASIC TABLE]</text>
<polygon fill="none" stroke="black" points="63.7,-543 63.7,-573.8 251.83,-573.8 251.83,-543 63.7,-543"/>
<text text-anchor="start" x="70.7" y="-555.2" font-family="Arial" font-size="14.00">id </text>
<text text-anchor="start" x="85.48" y="-555.2" font-family="Arial" font-size="14.00" fill="#666666">[int]</text>
<polygon fill="none" stroke="black" points="63.7,-512.2 63.7,-543 251.83,-543 251.83,-512.2 63.7,-512.2"/>
<text text-anchor="start" x="70.7" y="-524.4" font-family="Arial" font-size="14.00">user_id </text>
<text text-anchor="start" x="120.5" y="-524.4" font-family="Arial" font-size="14.00" fill="#666666">[int]</text>
<polygon fill="none" stroke="black" points="63.7,-481.4 63.7,-512.2 251.83,-512.2 251.83,-481.4 63.7,-481.4"/>
<text text-anchor="start" x="70.7" y="-493.6" font-family="Arial" font-size="14.00">status </text>
<text text-anchor="start" x="111.94" y="-493.6" font-family="Arial" font-size="14.00" fill="#666666">[varchar(20)]</text>
<polygon fill="none" stroke="black" points="63.7,-450.6 63.7,-481.4 251.83,-481.4 251.83,-450.6 63.7,-450.6"/>
<text text-anchor="start" x="70.7" y="-462.8" font-family="Arial" font-size="14.00">total_price </text>
<text text-anchor="start" x="139.18" y="-462.8" font-family="Arial" font-size="14.00" fill="#666666">[decimal]</text>
<polygon fill="none" stroke="black" points="63.7,-419.8 63.7,-450.6 251.83,-450.6 251.83,-419.8 63.7,-419.8"/>
<text text-anchor="start" x="70.7" y="-432" font-family="Arial" font-size="14.00">created_at </text>
<text text-anchor="start" x="140.74" y="-432" font-family="Arial" font-size="14.00" fill="#666666">[datetime2]</text>
<polygon fill="none" stroke="black" points="63.7,-389 63.7,-419.8 251.83,-419.8 251.83,-389 63.7,-389"/>
<text text-anchor="start" x="70.7" y="-401.2" font-family="Arial" font-size="14.00">updated_at </text>
<text text-anchor="start" x="144.65" y="-401.2" font-family="Arial" font-size="14.00" fill="#666666">[datetime2]</text>
<polygon fill="none" stroke="black" stroke-width="3" points="62.2,-387.5 62.2,-610.9 253.33,-610.9 253.33,-387.5 62.2,-387.5"/>
</g>
<!-- users -->
<g id="node3" class="node">
<title>users</title>
<polygon fill="#efefef" stroke="none" points="67.69,-228 67.69,-263.6 247.84,-263.6 247.84,-228 67.69,-228"/>
<polygon fill="none" stroke="black" points="67.69,-228 67.69,-263.6 247.84,-263.6 247.84,-228 67.69,-228"/>
<text text-anchor="start" x="74.69" y="-241.4" font-family="Arial Bold" font-size="18.00">users</text>
<text text-anchor="start" x="111.68" y="-241.4" font-family="Arial" font-size="14.00">    </text>
<text text-anchor="start" x="142.8" y="-241.4" font-family="Arial" font-size="14.00" fill="#666666">[BASIC TABLE]</text>
<polygon fill="none" stroke="black" points="67.69,-197.2 67.69,-228 247.84,-228 247.84,-197.2 67.69,-197.2"/>
<text text-anchor="start" x="74.69" y="-209.4" font-family="Arial" font-size="14.00">id </text>
<text text-anchor="start" x="89.48" y="-209.4" font-family="Arial" font-size="14.00" fill="#666666">[int]</text>
<polygon fill="none" stroke="black" points="67.69,-166.4 67.69,-197.2 247.84,-197.2 247.84,-166.4 67.69,-166.4"/>
<text text-anchor="start" x="74.69" y="-178.6" font-family="Arial" font-size="14.00">email </text>
<text text-anchor="start" x="112.04" y="-178.6" font-family="Arial" font-size="14.00" fill="#666666">[varchar(255)]</text>
<polygon fill="none" stroke="black" points="67.69,-135.6 67.69,-166.4 247.84,-166.4 247.84,-135.6 67.69,-135.6"/>
<text text-anchor="start" x="74.69" y="-147.8" font-family="Arial" font-size="14.00">username </text>
<text text-anchor="start" x="140.84" y="-147.8" font-family="Arial" font-size="14.00" fill="#666666">[varchar(255)]</text>
<polygon fill="none" stroke="black" points="67.69,-104.8 67.69,-135.6 247.84,-135.6 247.84,-104.8 67.69,-104.8"/>
<text text-anchor="start" x="74.69" y="-117" font-family="Arial" font-size="14.00">password </text>
<text text-anchor="start" x="138.5" y="-117" font-family="Arial" font-size="14.00" fill="#666666">[varchar(255)]</text>
<polygon fill="none" stroke="black" points="67.69,-74 67.69,-104.8 247.84,-104.8 247.84,-74 67.69,-74"/>
<text text-anchor="start" x="74.69" y="-86.2" font-family="Arial" font-size="14.00">created_at </text>
<text text-anchor="start" x="144.74" y="-86.2" font-family="Arial" font-size="14.00" fill="#666666">[datetime2]</text>
<polygon fill="none" stroke="black" points="67.69,-43.2 67.69,-74 247.84,-74 247.84,-43.2 67.69,-43.2"/>
<text text-anchor="start" x="74.69" y="-55.4" font-family="Arial" font-size="14.00">updated_at </text>
<text text-anchor="start" x="148.65" y="-55.4" font-family="Arial" font-size="14.00" fill="#666666">[datetime2]</text>
</g>
<!-- orders&#45;&gt;users -->
<g id="edge2" class="edge">
<title>orders:user_id&#45;&gt;users:id</title>
<path fill="none" stroke="black" d="M263.22,-527C392.55,-511.81 385.29,-212.6 248.84,-212.6"/>
<polygon fill="black" stroke="black" points="263.15,-527 252.9,-523.09 257.82,-527.31 253.5,-527.56 253.5,-527.56 253.5,-527.56 257.82,-527.31 253.42,-532.07 263.15,-527"/>
</g>
<!-- order_items -->
<g id="node2" class="node">
<title>order_items</title>
<polygon fill="#efefef" stroke="none" points="43.2,-888.8 43.2,-924.4 272.33,-924.4 272.33,-888.8 43.2,-888.8"/>
<polygon fill="none" stroke="black" points="43.2,-888.8 43.2,-924.4 272.33,-924.4 272.33,-888.8 43.2,-888.8"/>
<text text-anchor="start" x="50.2" y="-902.2" font-family="Arial Bold" font-size="18.00">order_items</text>
<text text-anchor="start" x="136.17" y="-902.2" font-family="Arial" font-size="14.00">    </text>
<text text-anchor="start" x="167.29" y="-902.2" font-family="Arial" font-size="14.00" fill="#666666">[BASIC TABLE]</text>
<polygon fill="none" stroke="black" points="43.2,-858 43.2,-888.8 272.33,-888.8 272.33,-858 43.2,-858"/>
<text text-anchor="start" x="50.2" y="-870.2" font-family="Arial" font-size="14.00">id </text>
<text text-anchor="start" x="64.99" y="-870.2" font-family="Arial" font-size="14.00" fill="#666666">[int]</text>
<polygon fill="none" stroke="black" points="43.2,-827.2 43.2,-858 272.33,-858 272.33,-827.2 43.2,-827.2"/>
<text text-anchor="start" x="50.2" y="-839.4" font-family="Arial" font-size="14.00">order_id </text>
<text text-anchor="start" x="105.45" y="-839.4" font-family="Arial" font-size="14.00" fill="#666666">[int]</text>
<polygon fill="none" stroke="black" points="43.2,-796.4 43.2,-827.2 272.33,-827.2 272.33,-796.4 43.2,-796.4"/>
<text text-anchor="start" x="50.2" y="-808.6" font-family="Arial" font-size="14.00">product_id </text>
<text text-anchor="start" x="119.47" y="-808.6" font-family="Arial" font-size="14.00" fill="#666666">[int]</text>
<polygon fill="none" stroke="black" points="43.2,-765.6 43.2,-796.4 272.33,-796.4 272.33,-765.6 43.2,-765.6"/>
<text text-anchor="start" x="50.2" y="-777.8" font-family="Arial" font-size="14.00">quantity </text>
<text text-anchor="start" x="103.12" y="-777.8" font-family="Arial" font-size="14.00" fill="#666666">[int]</text>
<polygon fill="none" stroke="black" points="43.2,-734.8 43.2,-765.6 272.33,-765.6 272.33,-734.8 43.2,-734.8"/>
<text text-anchor="start" x="50.2" y="-747" font-family="Arial" font-size="14.00">price </text>
<text text-anchor="start" x="84.43" y="-747" font-family="Arial" font-size="14.00" fill="#666666">[decimal]</text>
</g>
<!-- order_items&#45;&gt;orders -->
<g id="edge1" class="edge">
<title>order_items:order_id&#45;&gt;orders:id</title>
<path fill="none" stroke="black" d="M283.73,-841.93C398.72,-826.73 375.88,-558.4 252.83,-558.4"/>
<polygon fill="black" stroke="black" points="283.64,-841.94 273.37,-838.09 278.32,-842.28 273.99,-842.56 273.99,-842.56 273.99,-842.56 278.32,-842.28 273.95,-847.07 283.64,-841.94"/>
</g>
</g>
</svg>
