<?xml version="1.0" encoding="UTF-8" standalone="no"?>
<!DOCTYPE svg PUBLIC "-//W3C//DTD SVG 1.1//EN"
 "http://www.w3.org/Graphics/SVG/1.1/DTD/svg11.dtd">
<!-- Generated by graphviz version 12.1.2 (20240928.0832)
 -->
<!-- Title: posts Pages: 1 -->
<svg width="634pt" height="1037pt"
 viewBox="0.00 0.00 634.05 1037.20" xmlns="http://www.w3.org/2000/svg" xmlns:xlink="http://www.w3.org/1999/xlink">
<g id="graph0" class="graph" transform="scale(1 1) rotate(0) translate(4 1033.2)">
<title>posts</title>
<polygon fill="white" stroke="none" points="-4,4 -4,-1033.2 630.05,-1033.2 630.05,4 -4,4"/>
<!-- posts -->
<g id="node1" class="node">
<title>posts</title>
<polygon fill="#efefef" stroke="none" points="222.69,-604.6 222.69,-640.2 402.85,-640.2 402.85,-604.6 222.69,-604.6"/>
<polygon fill="none" stroke="black" points="222.69,-604.6 222.69,-640.2 402.85,-640.2 402.85,-604.6 222.69,-604.6"/>
<text text-anchor="start" x="229.69" y="-618" font-family="Arial Bold" font-size="18.00">posts</text>
<text text-anchor="start" x="266.7" y="-618" font-family="Arial" font-size="14.00">    </text>
<text text-anchor="start" x="297.82" y="-618" font-family="Arial" font-size="14.00" fill="#666666">[BASIC TABLE]</text>
<polygon fill="none" stroke="black" points="222.69,-573.8 222.69,-604.6 402.85,-604.6 402.85,-573.8 222.69,-573.8"/>
<text text-anchor="start" x="229.69" y="-586" font-family="Arial" font-size="14.00">id </text>
<text text-anchor="start" x="244.47" y="-586" font-family="Arial" font-size="14.00" fill="#666666">[int]</text>
<polygon fill="none" stroke="black" points="222.69,-543 222.69,-573.8 402.85,-573.8 402.85,-543 222.69,-543"/>
<text text-anchor="start" x="229.69" y="-555.2" font-family="Arial" font-size="14.00">title </text>
<text text-anchor="start" x="255.36" y="-555.2" font-family="Arial" font-size="14.00" fill="#666666">[varchar(255)]</text>
<polygon fill="none" stroke="black" points="222.69,-512.2 222.69,-543 402.85,-543 402.85,-512.2 222.69,-512.2"/>
<text text-anchor="start" x="229.69" y="-524.4" font-family="Arial" font-size="14.00">content </text>
<text text-anchor="start" x="279.5" y="-524.4" font-family="Arial" font-size="14.00" fill="#666666">[text]</text>
<polygon fill="none" stroke="black" points="222.69,-481.4 222.69,-512.2 402.85,-512.2 402.85,-481.4 222.69,-481.4"/>
<text text-anchor="start" x="229.69" y="-493.6" font-family="Arial" font-size="14.00">published </text>
<text text-anchor="start" x="293.51" y="-493.6" font-family="Arial" font-size="14.00" fill="#666666">[bit]</text>
<polygon fill="none" stroke="black" points="222.69,-450.6 222.69,-481.4 402.85,-481.4 402.85,-450.6 222.69,-450.6"/>
<text text-anchor="start" x="229.69" y="-462.8" font-family="Arial" font-size="14.00">created_at </text>
<text text-anchor="start" x="299.74" y="-462.8" font-family="Arial" font-size="14.00" fill="#666666">[datetime2]</text>
<polygon fill="none" stroke="black" points="222.69,-419.8 222.69,-450.6 402.85,-450.6 402.85,-419.8 222.69,-419.8"/>
<text text-anchor="start" x="229.69" y="-432" font-family="Arial" font-size="14.00">updated_at </text>
<text text-anchor="start" x="303.65" y="-432" font-family="Arial" font-size="14.00" fill="#666666">[datetime2]</text>
<polygon fill="none" stroke="black" points="222.69,-389 222.69,-419.8 402.85,-419.8 402.85,-389 222.69,-389"/>
<text text-anchor="start" x="229.69" y="-401.2" font-family="Arial" font-size="14.00">author_id </text>
<text text-anchor="start" x="291.96" y="-401.2" font-family="Arial" font-size="14.00" fill="#666666">[int]</text>
<polygon fill="none" stroke="black" stroke-width="3" points="221.19,-387.5 221.19,-641.7 404.35,-641.7 404.35,-387.5 221.19,-387.5"/>
</g>
<!-- users -->
<g id="node4" class="node">
<title>users</title>
<polygon fill="#efefef" stroke="none" points="222.7,-228 222.7,-263.6 402.84,-263.6 402.84,-228 222.7,-228"/>
<polygon fill="none" stroke="black" points="222.7,-228 222.7,-263.6 402.84,-263.6 402.84,-228 222.7,-228"/>
<text text-anchor="start" x="229.7" y="-241.4" font-family="Arial Bold" font-size="18.00">users</text>
<text text-anchor="start" x="266.69" y="-241.4" font-family="Arial" font-size="14.00">    </text>
<text text-anchor="start" x="297.81" y="-241.4" font-family="Arial" font-size="14.00" fill="#666666">[BASIC TABLE]</text>
<polygon fill="none" stroke="black" points="222.7,-197.2 222.7,-228 402.84,-228 402.84,-197.2 222.7,-197.2"/>
<text text-anchor="start" x="229.7" y="-209.4" font-family="Arial" font-size="14.00">id </text>
<text text-anchor="start" x="244.48" y="-209.4" font-family="Arial" font-size="14.00" fill="#666666">[int]</text>
<polygon fill="none" stroke="black" points="222.7,-166.4 222.7,-197.2 402.84,-197.2 402.84,-166.4 222.7,-166.4"/>
<text text-anchor="start" x="229.7" y="-178.6" font-family="Arial" font-size="14.00">email </text>
<text text-anchor="start" x="267.04" y="-178.6" font-family="Arial" font-size="14.00" fill="#666666">[varchar(255)]</text>
<polygon fill="none" stroke="black" points="222.7,-135.6 222.7,-166.4 402.84,-166.4 402.84,-135.6 222.7,-135.6"/>
<text text-anchor="start" x="229.7" y="-147.8" font-family="Arial" font-size="14.00">username </text>
<text text-anchor="start" x="295.84" y="-147.8" font-family="Arial" font-size="14.00" fill="#666666">[varchar(255)]</text>
<polygon fill="none" stroke="black" points="222.7,-104.8 222.7,-135.6 402.84,-135.6 402.84,-104.8 222.7,-104.8"/>
<text text-anchor="start" x="229.7" y="-117" font-family="Arial" font-size="14.00">password </text>
<text text-anchor="start" x="293.5" y="-117" font-family="Arial" font-size="14.00" fill="#666666">[varchar(255)]</text>
<polygon fill="none" stroke="black" points="222.7,-74 222.7,-104.8 402.84,-104.8 402.84,-74 222.7,-74"/>
<text text-anchor="start" x="229.7" y="-86.2" font-family="Arial" font-size="14.00">created_at </text>
<text text-anchor="start" x="299.74" y="-86.2" font-family="Arial" font-size="14.00" fill="#666666">[datetime2]</text>
<polygon fill="none" stroke="black" points="222.7,-43.2 222.7,-74 402.84,-74 402.84,-43.2 222.7,-43.2"/>
<text text-anchor="start" x="229.7" y="-55.4" font-family="Arial" font-size="14.00">updated_at </text>
<text text-anchor="start" x="303.65" y="-55.4" font-family="Arial" font-size="14.00" fill="#666666">[datetime2]</text>
</g>
<!-- posts&#45;&gt;users -->
<g id="edge3" class="edge">
<title>posts:author_id&#45;&gt;users:id</title>
<path fill="none" stroke="black" d="M313.74,-377.7C322.09,-336.82 382.23,-352.47 402.84,-306.8 420.06,-268.64 445.71,-212.6 403.84,-212.6"/>
<polygon fill="black" stroke="black" points="313.74,-377.71 308.32,-387.25 313.24,-383.02 312.83,-387.33 312.83,-387.33 312.83,-387.33 313.24,-383.02 317.28,-388.09 313.74,-377.71"/>
</g>
<!-- comments -->
<g id="node2" class="node">
<title>comments</title>
<polygon fill="#efefef" stroke="none" points="43.2,-950.4 43.2,-986 260.34,-986 260.34,-950.4 43.2,-950.4"/>
<polygon fill="none" stroke="black" points="43.2,-950.4 43.2,-986 260.34,-986 260.34,-950.4 43.2,-950.4"/>
<text text-anchor="start" x="50.2" y="-963.8" font-family="Arial Bold" font-size="18.00">comments</text>
<text text-anchor="start" x="124.19" y="-963.8" font-family="Arial" font-size="14.00">    </text>
<text text-anchor="start" x="155.3" y="-963.8" font-family="Arial" font-size="14.00" fill="#666666">[BASIC TABLE]</text>
<polygon fill="none" stroke="black" points="43.2,-919.6 43.2,-950.4 260.34,-950.4 260.34,-919.6 43.2,-919.6"/>
<text text-anchor="start" x="50.2" y="-931.8" font-family="Arial" font-size="14.00">id </text>
<text text-anchor="start" x="64.99" y="-931.8" font-family="Arial" font-size="14.00" fill="#666666">[int]</text>
<polygon fill="none" stroke="black" points="43.2,-888.8 43.2,-919.6 260.34,-919.6 260.34,-888.8 43.2,-888.8"/>
<text text-anchor="start" x="50.2" y="-901" font-family="Arial" font-size="14.00">content </text>
<text text-anchor="start" x="100.01" y="-901" font-family="Arial" font-size="14.00" fill="#666666">[text]</text>
<polygon fill="none" stroke="black" points="43.2,-858 43.2,-888.8 260.34,-888.8 260.34,-858 43.2,-858"/>
<text text-anchor="start" x="50.2" y="-870.2" font-family="Arial" font-size="14.00">created_at </text>
<text text-anchor="start" x="120.25" y="-870.2" font-family="Arial" font-size="14.00" fill="#666666">[datetime2]</text>
<polygon fill="none" stroke="black" points="43.2,-827.2 43.2,-858 260.34,-858 260.34,-827.2 43.2,-827.2"/>
<text text-anchor="start" x="50.2" y="-839.4" font-family="Arial" font-size="14.00">updated_at </text>
<text text-anchor="start" x="124.16" y="-839.4" font-family="Arial" font-size="14.00" fill="#666666">[datetime2]</text>
<polygon fill="none" stroke="black" points="43.2,-796.4 43.2,-827.2 260.34,-827.2 260.34,-796.4 43.2,-796.4"/>
<text text-anchor="start" x="50.2" y="-808.6" font-family="Arial" font-size="14.00">post_id </text>
<text text-anchor="start" x="99.23" y="-808.6" font-family="Arial" font-size="14.00" fill="#666666">[int]</text>
<polygon fill="none" stroke="black" points="43.2,-765.6 43.2,-796.4 260.34,-796.4 260.34,-765.6 43.2,-765.6"/>
<text text-anchor="start" x="50.2" y="-777.8" font-family="Arial" font-size="14.00">author_id </text>
<text text-anchor="start" x="112.47" y="-777.8" font-family="Arial" font-size="14.00" fill="#666666">[int]</text>
</g>
<!-- comments&#45;&gt;posts -->
<g id="edge1" class="edge">
<title>comments:post_id&#45;&gt;posts:id</title>
<path fill="none" stroke="black" d="M271.52,-810.23C296.11,-801.21 274.55,-755.15 260.34,-722.4 251.12,-701.16 231.9,-707.64 222.69,-686.4 205.5,-646.76 178.49,-589.2 221.69,-589.2"/>
<polygon fill="black" stroke="black" points="271.55,-810.23 260.98,-807.3 266.28,-811.04 262,-811.7 262,-811.7 262,-811.7 266.28,-811.04 262.35,-816.2 271.55,-810.23"/>
</g>
<!-- posts_tags -->
<g id="node3" class="node">
<title>posts_tags</title>
<polygon fill="#efefef" stroke="none" points="364.69,-888.8 364.69,-924.4 582.85,-924.4 582.85,-888.8 364.69,-888.8"/>
<polygon fill="none" stroke="black" points="364.69,-888.8 364.69,-924.4 582.85,-924.4 582.85,-888.8 364.69,-888.8"/>
<text text-anchor="start" x="371.69" y="-902.2" font-family="Arial Bold" font-size="18.00">posts_tags</text>
<text text-anchor="start" x="446.7" y="-902.2" font-family="Arial" font-size="14.00">    </text>
<text text-anchor="start" x="477.81" y="-902.2" font-family="Arial" font-size="14.00" fill="#666666">[BASIC TABLE]</text>
<polygon fill="none" stroke="black" points="364.69,-858 364.69,-888.8 582.85,-888.8 582.85,-858 364.69,-858"/>
<text text-anchor="start" x="371.69" y="-870.2" font-family="Arial" font-size="14.00">post_id </text>
<text text-anchor="start" x="420.72" y="-870.2" font-family="Arial" font-size="14.00" fill="#666666">[int]</text>
<polygon fill="none" stroke="black" points="364.69,-827.2 364.69,-858 582.85,-858 582.85,-827.2 364.69,-827.2"/>
<text text-anchor="start" x="371.69" y="-839.4" font-family="Arial" font-size="14.00">tag_id </text>
<text text-anchor="start" x="413.72" y="-839.4" font-family="Arial" font-size="14.00" fill="#666666">[int]</text>
</g>
<!-- posts_tags&#45;&gt;posts -->
<g id="edge2" class="edge">
<title>posts_tags:post_id&#45;&gt;posts:id</title>
<path fill="none" stroke="black" d="M353.55,-872.68C253.06,-856.99 527.68,-589.2 403.85,-589.2"/>
<polygon fill="black" stroke="black" points="353.38,-872.67 363.04,-877.87 358.7,-873.05 363.02,-873.35 363.02,-873.35 363.02,-873.35 358.7,-873.05 363.67,-868.89 353.38,-872.67"/>
</g>
</g>
</svg>
