<?xml version="1.0" encoding="UTF-8" standalone="no"?>
<!DOCTYPE svg PUBLIC "-//W3C//DTD SVG 1.1//EN"
 "http://www.w3.org/Graphics/SVG/1.1/DTD/svg11.dtd">
<!-- Generated by graphviz version 2.40.1 (20161225.0304)
 -->
<!-- Title: posts Pages: 1 -->
<svg width="660pt" height="1019pt"
 viewBox="0.00 0.00 660.00 1019.00" xmlns="http://www.w3.org/2000/svg" xmlns:xlink="http://www.w3.org/1999/xlink">
<g id="graph0" class="graph" transform="scale(1 1) rotate(0) translate(4 1015)">
<title>posts</title>
<polygon fill="#ffffff" stroke="transparent" points="-4,4 -4,-1015 656,-1015 656,4 -4,4"/>
<!-- posts -->
<g id="node1" class="node">
<title>posts</title>
<polygon fill="#efefef" stroke="transparent" points="230.5,-592.5 230.5,-627.5 419.5,-627.5 419.5,-592.5 230.5,-592.5"/>
<polygon fill="none" stroke="#000000" points="230.5,-592.5 230.5,-627.5 419.5,-627.5 419.5,-592.5 230.5,-592.5"/>
<text text-anchor="start" x="237.3784" y="-605.3" font-family="Arial Bold" font-size="18.00" fill="#000000">posts</text>
<text text-anchor="start" x="280.393" y="-605.3" font-family="Arial" font-size="14.00" fill="#000000">    </text>
<text text-anchor="start" x="314.5978" y="-605.3" font-family="Arial" font-size="14.00" fill="#666666">[BASIC TABLE]</text>
<polygon fill="none" stroke="#000000" points="230.5,-562.5 230.5,-592.5 419.5,-592.5 419.5,-562.5 230.5,-562.5"/>
<text text-anchor="start" x="237.5" y="-573.9" font-family="Arial" font-size="14.00" fill="#000000">id </text>
<text text-anchor="start" x="252.2798" y="-573.9" font-family="Arial" font-size="14.00" fill="#666666">[int]</text>
<polygon fill="none" stroke="#000000" points="230.5,-532.5 230.5,-562.5 419.5,-562.5 419.5,-532.5 230.5,-532.5"/>
<text text-anchor="start" x="237.5" y="-543.9" font-family="Arial" font-size="14.00" fill="#000000">title </text>
<text text-anchor="start" x="263.1676" y="-543.9" font-family="Arial" font-size="14.00" fill="#666666">[varchar(255)]</text>
<polygon fill="none" stroke="#000000" points="230.5,-502.5 230.5,-532.5 419.5,-532.5 419.5,-502.5 230.5,-502.5"/>
<text text-anchor="start" x="237.5" y="-513.9" font-family="Arial" font-size="14.00" fill="#000000">content </text>
<text text-anchor="start" x="287.3022" y="-513.9" font-family="Arial" font-size="14.00" fill="#666666">[text]</text>
<polygon fill="none" stroke="#000000" points="230.5,-472.5 230.5,-502.5 419.5,-502.5 419.5,-472.5 230.5,-472.5"/>
<text text-anchor="start" x="237.5" y="-483.9" font-family="Arial" font-size="14.00" fill="#000000">published </text>
<text text-anchor="start" x="301.2994" y="-483.9" font-family="Arial" font-size="14.00" fill="#666666">[bit]</text>
<polygon fill="none" stroke="#000000" points="230.5,-442.5 230.5,-472.5 419.5,-472.5 419.5,-442.5 230.5,-442.5"/>
<text text-anchor="start" x="237.5" y="-453.9" font-family="Arial" font-size="14.00" fill="#000000">created_at </text>
<text text-anchor="start" x="307.528" y="-453.9" font-family="Arial" font-size="14.00" fill="#666666">[datetime2]</text>
<polygon fill="none" stroke="#000000" points="230.5,-412.5 230.5,-442.5 419.5,-442.5 419.5,-412.5 230.5,-412.5"/>
<text text-anchor="start" x="237.5" y="-423.9" font-family="Arial" font-size="14.00" fill="#000000">updated_at </text>
<text text-anchor="start" x="311.4326" y="-423.9" font-family="Arial" font-size="14.00" fill="#666666">[datetime2]</text>
<polygon fill="none" stroke="#000000" points="230.5,-382.5 230.5,-412.5 419.5,-412.5 419.5,-382.5 230.5,-382.5"/>
<text text-anchor="start" x="237.5" y="-393.9" font-family="Arial" font-size="14.00" fill="#000000">author_id </text>
<text text-anchor="start" x="299.744" y="-393.9" font-family="Arial" font-size="14.00" fill="#666666">[int]</text>
<polygon fill="none" stroke="#000000" stroke-width="3" points="228.5,-381.5 228.5,-629.5 420.5,-629.5 420.5,-381.5 228.5,-381.5"/>
</g>
<!-- users -->
<g id="node4" class="node">
<title>users</title>
<polygon fill="#efefef" stroke="transparent" points="226.5,-222.5 226.5,-257.5 423.5,-257.5 423.5,-222.5 226.5,-222.5"/>
<polygon fill="none" stroke="#000000" points="226.5,-222.5 226.5,-257.5 423.5,-257.5 423.5,-222.5 226.5,-222.5"/>
<text text-anchor="start" x="236.8834" y="-235.3" font-family="Arial Bold" font-size="18.00" fill="#000000">users</text>
<text text-anchor="start" x="280.888" y="-235.3" font-family="Arial" font-size="14.00" fill="#000000">    </text>
<text text-anchor="start" x="315.0928" y="-235.3" font-family="Arial" font-size="14.00" fill="#666666">[BASIC TABLE]</text>
<polygon fill="none" stroke="#000000" points="226.5,-192.5 226.5,-222.5 423.5,-222.5 423.5,-192.5 226.5,-192.5"/>
<text text-anchor="start" x="233.5" y="-203.9" font-family="Arial" font-size="14.00" fill="#000000">id    </text>
<text text-anchor="start" x="278.594" y="-203.9" font-family="Arial" font-size="14.00" fill="#666666">[int]</text>
<polygon fill="none" stroke="#000000" points="226.5,-162.5 226.5,-192.5 423.5,-192.5 423.5,-162.5 226.5,-162.5"/>
<text text-anchor="start" x="233.5" y="-173.9" font-family="Arial" font-size="14.00" fill="#000000">email    </text>
<text text-anchor="start" x="301.1438" y="-173.9" font-family="Arial" font-size="14.00" fill="#666666">[varchar(255)]</text>
<polygon fill="none" stroke="#000000" points="226.5,-132.5 226.5,-162.5 423.5,-162.5 423.5,-132.5 226.5,-132.5"/>
<text text-anchor="start" x="233.2209" y="-143.9" font-family="Arial" font-size="14.00" fill="#000000">username    </text>
<text text-anchor="start" x="329.6599" y="-143.9" font-family="Arial" font-size="14.00" fill="#666666">[varchar(255)]</text>
<polygon fill="none" stroke="#000000" points="226.5,-102.5 226.5,-132.5 423.5,-132.5 423.5,-102.5 226.5,-102.5"/>
<text text-anchor="start" x="233.5" y="-113.9" font-family="Arial" font-size="14.00" fill="#000000">password    </text>
<text text-anchor="start" x="327.6024" y="-113.9" font-family="Arial" font-size="14.00" fill="#666666">[varchar(255)]</text>
<polygon fill="none" stroke="#000000" points="226.5,-72.5 226.5,-102.5 423.5,-102.5 423.5,-72.5 226.5,-72.5"/>
<text text-anchor="start" x="233.5" y="-83.9" font-family="Arial" font-size="14.00" fill="#000000">created_at    </text>
<text text-anchor="start" x="333.8422" y="-83.9" font-family="Arial" font-size="14.00" fill="#666666">[datetime2]</text>
<polygon fill="none" stroke="#000000" points="226.5,-42.5 226.5,-72.5 423.5,-72.5 423.5,-42.5 226.5,-42.5"/>
<text text-anchor="start" x="233.5" y="-53.9" font-family="Arial" font-size="14.00" fill="#000000">updated_at    </text>
<text text-anchor="start" x="337.7468" y="-53.9" font-family="Arial" font-size="14.00" fill="#666666">[datetime2]</text>
</g>
<!-- posts&#45;&gt;users -->
<g id="edge3" class="edge">
<title>posts:author_id&#45;&gt;users:id</title>
<path fill="none" stroke="#000000" d="M324.6029,-372.4837C316.0834,-328.6663 249.2598,-349.2166 226.5,-301 208.7613,-263.4207 184.9444,-207.5 226.5,-207.5"/>
<polygon fill="#000000" stroke="#000000" points="324.6078,-372.5399 321.0179,-382.9015 325.0539,-377.5199 325.5,-382.5 325.5,-382.5 325.5,-382.5 325.0539,-377.5199 329.9821,-382.0985 324.6078,-372.5399 324.6078,-372.5399"/>
</g>
<!-- comments -->
<g id="node2" class="node">
<title>comments</title>
<polygon fill="#efefef" stroke="transparent" points="43.5,-932.5 43.5,-967.5 272.5,-967.5 272.5,-932.5 43.5,-932.5"/>
<polygon fill="none" stroke="#000000" points="43.5,-932.5 43.5,-967.5 272.5,-967.5 272.5,-932.5 43.5,-932.5"/>
<text text-anchor="start" x="50.3831" y="-945.3" font-family="Arial Bold" font-size="18.00" fill="#000000">comments</text>
<text text-anchor="start" x="133.3883" y="-945.3" font-family="Arial" font-size="14.00" fill="#000000">    </text>
<text text-anchor="start" x="167.5931" y="-945.3" font-family="Arial" font-size="14.00" fill="#666666">[BASIC TABLE]</text>
<polygon fill="none" stroke="#000000" points="43.5,-902.5 43.5,-932.5 272.5,-932.5 272.5,-902.5 43.5,-902.5"/>
<text text-anchor="start" x="50.5" y="-913.9" font-family="Arial" font-size="14.00" fill="#000000">id    </text>
<text text-anchor="start" x="95.594" y="-913.9" font-family="Arial" font-size="14.00" fill="#666666">[int]</text>
<polygon fill="none" stroke="#000000" points="43.5,-872.5 43.5,-902.5 272.5,-902.5 272.5,-872.5 43.5,-872.5"/>
<text text-anchor="start" x="50.5" y="-883.9" font-family="Arial" font-size="14.00" fill="#000000">content    </text>
<text text-anchor="start" x="130.6164" y="-883.9" font-family="Arial" font-size="14.00" fill="#666666">[text]</text>
<polygon fill="none" stroke="#000000" points="43.5,-842.5 43.5,-872.5 272.5,-872.5 272.5,-842.5 43.5,-842.5"/>
<text text-anchor="start" x="50.5" y="-853.9" font-family="Arial" font-size="14.00" fill="#000000">created_at    </text>
<text text-anchor="start" x="150.8422" y="-853.9" font-family="Arial" font-size="14.00" fill="#666666">[datetime2]</text>
<polygon fill="none" stroke="#000000" points="43.5,-812.5 43.5,-842.5 272.5,-842.5 272.5,-812.5 43.5,-812.5"/>
<text text-anchor="start" x="50.5" y="-823.9" font-family="Arial" font-size="14.00" fill="#000000">updated_at    </text>
<text text-anchor="start" x="154.7468" y="-823.9" font-family="Arial" font-size="14.00" fill="#666666">[datetime2]</text>
<polygon fill="none" stroke="#000000" points="43.5,-782.5 43.5,-812.5 272.5,-812.5 272.5,-782.5 43.5,-782.5"/>
<text text-anchor="start" x="50.5" y="-793.9" font-family="Arial" font-size="14.00" fill="#000000">post_id    </text>
<text text-anchor="start" x="129.8324" y="-793.9" font-family="Arial" font-size="14.00" fill="#666666">[int]</text>
<polygon fill="none" stroke="#000000" points="43.5,-752.5 43.5,-782.5 272.5,-782.5 272.5,-752.5 43.5,-752.5"/>
<text text-anchor="start" x="50.5" y="-763.9" font-family="Arial" font-size="14.00" fill="#000000">author_id    </text>
<text text-anchor="start" x="143.0582" y="-763.9" font-family="Arial" font-size="14.00" fill="#666666">[int]</text>
</g>
<!-- comments&#45;&gt;posts -->
<g id="edge1" class="edge">
<title>comments:post_id&#45;&gt;posts:id</title>
<path fill="none" stroke="#000000" d="M282.5161,-795.9579C306.8563,-787.0769 287.0996,-741.7427 272.5,-710 262.2268,-687.6638 240.7732,-696.3362 230.5,-674 212.5786,-635.0349 187.6111,-577.5 230.5,-577.5"/>
<polygon fill="#000000" stroke="#000000" points="282.3836,-795.9783 271.8152,-793.0524 277.4418,-796.7391 272.5,-797.5 272.5,-797.5 272.5,-797.5 277.4418,-796.7391 273.1848,-801.9476 282.3836,-795.9783 282.3836,-795.9783"/>
</g>
<!-- posts_tags -->
<g id="node3" class="node">
<title>posts_tags</title>
<polygon fill="#efefef" stroke="transparent" points="376.5,-872.5 376.5,-907.5 609.5,-907.5 609.5,-872.5 376.5,-872.5"/>
<polygon fill="none" stroke="#000000" points="376.5,-872.5 376.5,-907.5 609.5,-907.5 609.5,-872.5 376.5,-872.5"/>
<text text-anchor="start" x="383.368" y="-885.3" font-family="Arial Bold" font-size="18.00" fill="#000000">posts_tags</text>
<text text-anchor="start" x="470.4034" y="-885.3" font-family="Arial" font-size="14.00" fill="#000000">    </text>
<text text-anchor="start" x="504.6082" y="-885.3" font-family="Arial" font-size="14.00" fill="#666666">[BASIC TABLE]</text>
<polygon fill="none" stroke="#000000" points="376.5,-842.5 376.5,-872.5 609.5,-872.5 609.5,-842.5 376.5,-842.5"/>
<text text-anchor="start" x="383.5" y="-853.9" font-family="Arial" font-size="14.00" fill="#000000">post_id    </text>
<text text-anchor="start" x="462.8324" y="-853.9" font-family="Arial" font-size="14.00" fill="#666666">[int]</text>
<polygon fill="none" stroke="#000000" points="376.5,-812.5 376.5,-842.5 609.5,-842.5 609.5,-812.5 376.5,-812.5"/>
<text text-anchor="start" x="383.5" y="-823.9" font-family="Arial" font-size="14.00" fill="#000000">tag_id    </text>
<text text-anchor="start" x="455.8324" y="-823.9" font-family="Arial" font-size="14.00" fill="#666666">[int]</text>
</g>
<!-- posts_tags&#45;&gt;posts -->
<g id="edge2" class="edge">
<title>posts_tags:post_id&#45;&gt;posts:id</title>
<path fill="none" stroke="#000000" d="M366.4964,-856.7931C267.5094,-841.3341 541.7148,-577.5 419.5,-577.5"/>
<polygon fill="#000000" stroke="#000000" points="366.5249,-856.795 376.1828,-861.9888 371.5124,-857.1475 376.5,-857.5 376.5,-857.5 376.5,-857.5 371.5124,-857.1475 376.8172,-853.0112 366.5249,-856.795 366.5249,-856.795"/>
</g>
</g>
</svg>
