<?xml version="1.0" encoding="UTF-8" standalone="no"?>
<!DOCTYPE svg PUBLIC "-//W3C//DTD SVG 1.1//EN"
 "http://www.w3.org/Graphics/SVG/1.1/DTD/svg11.dtd">
<!-- Generated by graphviz version 2.40.1 (20161225.0304)
 -->
<!-- Title: posts_tags Pages: 1 -->
<svg width="568pt" height="562pt"
 viewBox="0.00 0.00 567.50 562.00" xmlns="http://www.w3.org/2000/svg" xmlns:xlink="http://www.w3.org/1999/xlink">
<g id="graph0" class="graph" transform="scale(1 1) rotate(0) translate(4 558)">
<title>posts_tags</title>
<polygon fill="#ffffff" stroke="transparent" points="-4,4 -4,-558 563.5,-558 563.5,4 -4,4"/>
<!-- posts_tags -->
<g id="node1" class="node">
<title>posts_tags</title>
<polygon fill="#efefef" stroke="transparent" points="165.5,-472.5 165.5,-507.5 398.5,-507.5 398.5,-472.5 165.5,-472.5"/>
<polygon fill="none" stroke="#000000" points="165.5,-472.5 165.5,-507.5 398.5,-507.5 398.5,-472.5 165.5,-472.5"/>
<text text-anchor="start" x="172.368" y="-485.3" font-family="Arial Bold" font-size="18.00" fill="#000000">posts_tags</text>
<text text-anchor="start" x="259.4034" y="-485.3" font-family="Arial" font-size="14.00" fill="#000000">    </text>
<text text-anchor="start" x="293.6082" y="-485.3" font-family="Arial" font-size="14.00" fill="#666666">[BASIC TABLE]</text>
<polygon fill="none" stroke="#000000" points="165.5,-442.5 165.5,-472.5 398.5,-472.5 398.5,-442.5 165.5,-442.5"/>
<text text-anchor="start" x="172.5" y="-453.9" font-family="Arial" font-size="14.00" fill="#000000">post_id </text>
<text text-anchor="start" x="221.5182" y="-453.9" font-family="Arial" font-size="14.00" fill="#666666">[int]</text>
<polygon fill="none" stroke="#000000" points="165.5,-412.5 165.5,-442.5 398.5,-442.5 398.5,-412.5 165.5,-412.5"/>
<text text-anchor="start" x="172.5" y="-423.9" font-family="Arial" font-size="14.00" fill="#000000">tag_id </text>
<text text-anchor="start" x="214.5182" y="-423.9" font-family="Arial" font-size="14.00" fill="#666666">[int]</text>
<polygon fill="none" stroke="#000000" stroke-width="3" points="163.5,-411.5 163.5,-509.5 399.5,-509.5 399.5,-411.5 163.5,-411.5"/>
</g>
<!-- posts -->
<g id="node2" class="node">
<title>posts</title>
<polygon fill="#efefef" stroke="transparent" points="43.5,-252.5 43.5,-287.5 232.5,-287.5 232.5,-252.5 43.5,-252.5"/>
<polygon fill="none" stroke="#000000" points="43.5,-252.5 43.5,-287.5 232.5,-287.5 232.5,-252.5 43.5,-252.5"/>
<text text-anchor="start" x="50.3784" y="-265.3" font-family="Arial Bold" font-size="18.00" fill="#000000">posts</text>
<text text-anchor="start" x="93.393" y="-265.3" font-family="Arial" font-size="14.00" fill="#000000">    </text>
<text text-anchor="start" x="127.5978" y="-265.3" font-family="Arial" font-size="14.00" fill="#666666">[BASIC TABLE]</text>
<polygon fill="none" stroke="#000000" points="43.5,-222.5 43.5,-252.5 232.5,-252.5 232.5,-222.5 43.5,-222.5"/>
<text text-anchor="start" x="50.5" y="-233.9" font-family="Arial" font-size="14.00" fill="#000000">id    </text>
<text text-anchor="start" x="95.594" y="-233.9" font-family="Arial" font-size="14.00" fill="#666666">[int]</text>
<polygon fill="none" stroke="#000000" points="43.5,-192.5 43.5,-222.5 232.5,-222.5 232.5,-192.5 43.5,-192.5"/>
<text text-anchor="start" x="50.5" y="-203.9" font-family="Arial" font-size="14.00" fill="#000000">title    </text>
<text text-anchor="start" x="106.4818" y="-203.9" font-family="Arial" font-size="14.00" fill="#666666">[varchar(255)]</text>
<polygon fill="none" stroke="#000000" points="43.5,-162.5 43.5,-192.5 232.5,-192.5 232.5,-162.5 43.5,-162.5"/>
<text text-anchor="start" x="50.5" y="-173.9" font-family="Arial" font-size="14.00" fill="#000000">content    </text>
<text text-anchor="start" x="130.6164" y="-173.9" font-family="Arial" font-size="14.00" fill="#666666">[text]</text>
<polygon fill="none" stroke="#000000" points="43.5,-132.5 43.5,-162.5 232.5,-162.5 232.5,-132.5 43.5,-132.5"/>
<text text-anchor="start" x="50.5" y="-143.9" font-family="Arial" font-size="14.00" fill="#000000">published    </text>
<text text-anchor="start" x="144.6136" y="-143.9" font-family="Arial" font-size="14.00" fill="#666666">[bit]</text>
<polygon fill="none" stroke="#000000" points="43.5,-102.5 43.5,-132.5 232.5,-132.5 232.5,-102.5 43.5,-102.5"/>
<text text-anchor="start" x="50.5" y="-113.9" font-family="Arial" font-size="14.00" fill="#000000">created_at    </text>
<text text-anchor="start" x="150.8422" y="-113.9" font-family="Arial" font-size="14.00" fill="#666666">[datetime2]</text>
<polygon fill="none" stroke="#000000" points="43.5,-72.5 43.5,-102.5 232.5,-102.5 232.5,-72.5 43.5,-72.5"/>
<text text-anchor="start" x="50.5" y="-83.9" font-family="Arial" font-size="14.00" fill="#000000">updated_at    </text>
<text text-anchor="start" x="154.7468" y="-83.9" font-family="Arial" font-size="14.00" fill="#666666">[datetime2]</text>
<polygon fill="none" stroke="#000000" points="43.5,-42.5 43.5,-72.5 232.5,-72.5 232.5,-42.5 43.5,-42.5"/>
<text text-anchor="start" x="50.5" y="-53.9" font-family="Arial" font-size="14.00" fill="#000000">author_id    </text>
<text text-anchor="start" x="143.0582" y="-53.9" font-family="Arial" font-size="14.00" fill="#666666">[int]</text>
</g>
<!-- posts_tags&#45;&gt;posts -->
<g id="edge1" class="edge">
<title>posts_tags:post_id&#45;&gt;posts:id</title>
<path fill="none" stroke="#000000" d="M155.3724,-455.9706C129.1124,-446.7715 146.8749,-398.1509 165.5,-367 182.8472,-337.9864 215.1528,-360.0136 232.5,-331 253.825,-295.3334 274.0556,-237.5 232.5,-237.5"/>
<polygon fill="#000000" stroke="#000000" points="155.6121,-456.0067 164.828,-461.9495 160.5561,-456.7533 165.5,-457.5 165.5,-457.5 165.5,-457.5 160.5561,-456.7533 166.172,-453.0505 155.6121,-456.0067 155.6121,-456.0067"/>
</g>
<!-- tags -->
<g id="node3" class="node">
<title>tags</title>
<polygon fill="#efefef" stroke="transparent" points="336.5,-177.5 336.5,-212.5 516.5,-212.5 516.5,-177.5 336.5,-177.5"/>
<polygon fill="none" stroke="#000000" points="336.5,-177.5 336.5,-212.5 516.5,-212.5 516.5,-177.5 336.5,-177.5"/>
<text text-anchor="start" x="343.3784" y="-190.3" font-family="Arial Bold" font-size="18.00" fill="#000000">tags</text>
<text text-anchor="start" x="377.393" y="-190.3" font-family="Arial" font-size="14.00" fill="#000000">    </text>
<text text-anchor="start" x="411.5978" y="-190.3" font-family="Arial" font-size="14.00" fill="#666666">[BASIC TABLE]</text>
<polygon fill="none" stroke="#000000" points="336.5,-147.5 336.5,-177.5 516.5,-177.5 516.5,-147.5 336.5,-147.5"/>
<text text-anchor="start" x="343.5" y="-158.9" font-family="Arial" font-size="14.00" fill="#000000">id    </text>
<text text-anchor="start" x="388.594" y="-158.9" font-family="Arial" font-size="14.00" fill="#666666">[int]</text>
<polygon fill="none" stroke="#000000" points="336.5,-117.5 336.5,-147.5 516.5,-147.5 516.5,-117.5 336.5,-117.5"/>
<text text-anchor="start" x="343.5" y="-128.9" font-family="Arial" font-size="14.00" fill="#000000">name    </text>
<text text-anchor="start" x="412.7132" y="-128.9" font-family="Arial" font-size="14.00" fill="#666666">[varchar(255)]</text>
</g>
<!-- posts_tags&#45;&gt;tags -->
<g id="edge2" class="edge">
<title>posts_tags:tag_id&#45;&gt;tags:id</title>
<path fill="none" stroke="#000000" d="M408.2054,-424.9055C419.148,-416.4144 404.1632,-388.7523 398.5,-367 384.2629,-312.3155 350.7371,-310.6845 336.5,-256 326.0301,-215.785 294.9444,-162.5 336.5,-162.5"/>
<polygon fill="#000000" stroke="#000000" points="408.1608,-424.9173 397.3378,-423.1527 403.3304,-426.2087 398.5,-427.5 398.5,-427.5 398.5,-427.5 403.3304,-426.2087 399.6622,-431.8473 408.1608,-424.9173 408.1608,-424.9173"/>
</g>
</g>
</svg>
