<?xml version="1.0" encoding="UTF-8" standalone="no"?>
<!DOCTYPE svg PUBLIC "-//W3C//DTD SVG 1.1//EN"
 "http://www.w3.org/Graphics/SVG/1.1/DTD/svg11.dtd">
<!-- Generated by graphviz version 12.1.2 (20240928.0832)
 -->
<!-- Title: posts_tags Pages: 1 -->
<svg width="552pt" height="571pt"
 viewBox="0.00 0.00 551.55 571.20" xmlns="http://www.w3.org/2000/svg" xmlns:xlink="http://www.w3.org/1999/xlink">
<g id="graph0" class="graph" transform="scale(1 1) rotate(0) translate(4 567.2)">
<title>posts_tags</title>
<polygon fill="white" stroke="none" points="-4,4 -4,-567.2 547.55,-567.2 547.55,4 -4,4"/>
<!-- posts_tags -->
<g id="node1" class="node">
<title>posts_tags</title>
<polygon fill="#efefef" stroke="none" points="164.2,-481.4 164.2,-517 382.36,-517 382.36,-481.4 164.2,-481.4"/>
<polygon fill="none" stroke="black" points="164.2,-481.4 164.2,-517 382.36,-517 382.36,-481.4 164.2,-481.4"/>
<text text-anchor="start" x="171.2" y="-494.8" font-family="Arial Bold" font-size="18.00">posts_tags</text>
<text text-anchor="start" x="246.21" y="-494.8" font-family="Arial" font-size="14.00">    </text>
<text text-anchor="start" x="277.33" y="-494.8" font-family="Arial" font-size="14.00" fill="#666666">[BASIC TABLE]</text>
<polygon fill="none" stroke="black" points="164.2,-450.6 164.2,-481.4 382.36,-481.4 382.36,-450.6 164.2,-450.6"/>
<text text-anchor="start" x="171.2" y="-462.8" font-family="Arial" font-size="14.00">post_id </text>
<text text-anchor="start" x="220.24" y="-462.8" font-family="Arial" font-size="14.00" fill="#666666">[int]</text>
<polygon fill="none" stroke="black" points="164.2,-419.8 164.2,-450.6 382.36,-450.6 382.36,-419.8 164.2,-419.8"/>
<text text-anchor="start" x="171.2" y="-432" font-family="Arial" font-size="14.00">tag_id </text>
<text text-anchor="start" x="213.24" y="-432" font-family="Arial" font-size="14.00" fill="#666666">[int]</text>
<polygon fill="none" stroke="black" stroke-width="3" points="162.7,-418.3 162.7,-518.5 383.86,-518.5 383.86,-418.3 162.7,-418.3"/>
</g>
<!-- posts -->
<g id="node2" class="node">
<title>posts</title>
<polygon fill="#efefef" stroke="none" points="43.2,-258.8 43.2,-294.4 223.36,-294.4 223.36,-258.8 43.2,-258.8"/>
<polygon fill="none" stroke="black" points="43.2,-258.8 43.2,-294.4 223.36,-294.4 223.36,-258.8 43.2,-258.8"/>
<text text-anchor="start" x="50.2" y="-272.2" font-family="Arial Bold" font-size="18.00">posts</text>
<text text-anchor="start" x="87.21" y="-272.2" font-family="Arial" font-size="14.00">    </text>
<text text-anchor="start" x="118.33" y="-272.2" font-family="Arial" font-size="14.00" fill="#666666">[BASIC TABLE]</text>
<polygon fill="none" stroke="black" points="43.2,-228 43.2,-258.8 223.36,-258.8 223.36,-228 43.2,-228"/>
<text text-anchor="start" x="50.2" y="-240.2" font-family="Arial" font-size="14.00">id </text>
<text text-anchor="start" x="64.99" y="-240.2" font-family="Arial" font-size="14.00" fill="#666666">[int]</text>
<polygon fill="none" stroke="black" points="43.2,-197.2 43.2,-228 223.36,-228 223.36,-197.2 43.2,-197.2"/>
<text text-anchor="start" x="50.2" y="-209.4" font-family="Arial" font-size="14.00">title </text>
<text text-anchor="start" x="75.88" y="-209.4" font-family="Arial" font-size="14.00" fill="#666666">[varchar(255)]</text>
<polygon fill="none" stroke="black" points="43.2,-166.4 43.2,-197.2 223.36,-197.2 223.36,-166.4 43.2,-166.4"/>
<text text-anchor="start" x="50.2" y="-178.6" font-family="Arial" font-size="14.00">content </text>
<text text-anchor="start" x="100.01" y="-178.6" font-family="Arial" font-size="14.00" fill="#666666">[text]</text>
<polygon fill="none" stroke="black" points="43.2,-135.6 43.2,-166.4 223.36,-166.4 223.36,-135.6 43.2,-135.6"/>
<text text-anchor="start" x="50.2" y="-147.8" font-family="Arial" font-size="14.00">published </text>
<text text-anchor="start" x="114.03" y="-147.8" font-family="Arial" font-size="14.00" fill="#666666">[bit]</text>
<polygon fill="none" stroke="black" points="43.2,-104.8 43.2,-135.6 223.36,-135.6 223.36,-104.8 43.2,-104.8"/>
<text text-anchor="start" x="50.2" y="-117" font-family="Arial" font-size="14.00">created_at </text>
<text text-anchor="start" x="120.25" y="-117" font-family="Arial" font-size="14.00" fill="#666666">[datetime2]</text>
<polygon fill="none" stroke="black" points="43.2,-74 43.2,-104.8 223.36,-104.8 223.36,-74 43.2,-74"/>
<text text-anchor="start" x="50.2" y="-86.2" font-family="Arial" font-size="14.00">updated_at </text>
<text text-anchor="start" x="124.16" y="-86.2" font-family="Arial" font-size="14.00" fill="#666666">[datetime2]</text>
<polygon fill="none" stroke="black" points="43.2,-43.2 43.2,-74 223.36,-74 223.36,-43.2 43.2,-43.2"/>
<text text-anchor="start" x="50.2" y="-55.4" font-family="Arial" font-size="14.00">author_id </text>
<text text-anchor="start" x="112.47" y="-55.4" font-family="Arial" font-size="14.00" fill="#666666">[int]</text>
</g>
<!-- posts_tags&#45;&gt;posts -->
<g id="edge1" class="edge">
<title>posts_tags:post_id&#45;&gt;posts:id</title>
<path fill="none" stroke="black" d="M152.91,-464.45C126.37,-455.12 145.87,-405.81 164.2,-373.6 179.43,-346.85 208.14,-364.35 223.36,-337.6 244.07,-301.21 266.23,-243.4 224.36,-243.4"/>
<polygon fill="black" stroke="black" points="152.98,-464.46 162.2,-470.4 158.26,-465.26 162.54,-465.9 162.54,-465.9 162.54,-465.9 158.26,-465.26 163.54,-461.5 152.98,-464.46"/>
</g>
<!-- tags -->
<g id="node3" class="node">
<title>tags</title>
<polygon fill="#efefef" stroke="none" points="328.21,-181.8 328.21,-217.4 500.35,-217.4 500.35,-181.8 328.21,-181.8"/>
<polygon fill="none" stroke="black" points="328.21,-181.8 328.21,-217.4 500.35,-217.4 500.35,-181.8 328.21,-181.8"/>
<text text-anchor="start" x="335.21" y="-195.2" font-family="Arial Bold" font-size="18.00">tags</text>
<text text-anchor="start" x="364.2" y="-195.2" font-family="Arial" font-size="14.00">    </text>
<text text-anchor="start" x="395.32" y="-195.2" font-family="Arial" font-size="14.00" fill="#666666">[BASIC TABLE]</text>
<polygon fill="none" stroke="black" points="328.21,-151 328.21,-181.8 500.35,-181.8 500.35,-151 328.21,-151"/>
<text text-anchor="start" x="335.21" y="-163.2" font-family="Arial" font-size="14.00">id </text>
<text text-anchor="start" x="349.99" y="-163.2" font-family="Arial" font-size="14.00" fill="#666666">[int]</text>
<polygon fill="none" stroke="black" points="328.21,-120.2 328.21,-151 500.35,-151 500.35,-120.2 328.21,-120.2"/>
<text text-anchor="start" x="335.21" y="-132.4" font-family="Arial" font-size="14.00">name </text>
<text text-anchor="start" x="374.12" y="-132.4" font-family="Arial" font-size="14.00" fill="#666666">[varchar(255)]</text>
</g>
<!-- posts_tags&#45;&gt;tags -->
<g id="edge2" class="edge">
<title>posts_tags:tag_id&#45;&gt;tags:id</title>
<path fill="none" stroke="black" d="M393.13,-432.57C403.92,-423.96 387.61,-395.88 382.36,-373.6 360.49,-280.85 231.91,-166.4 327.21,-166.4"/>
<polygon fill="black" stroke="black" points="393.34,-432.51 382.51,-430.77 388.19,-433.9 384.01,-435.03 384.01,-435.03 384.01,-435.03 388.19,-433.9 384.85,-439.46 393.34,-432.51"/>
</g>
</g>
</svg>
