<?xml version="1.0" encoding="UTF-8" standalone="no"?>
<!DOCTYPE svg PUBLIC "-//W3C//DTD SVG 1.1//EN"
 "http://www.w3.org/Graphics/SVG/1.1/DTD/svg11.dtd">
<!-- Generated by graphviz version 2.40.1 (20161225.0304)
 -->
<!-- Title: products Pages: 1 -->
<svg width="369pt" height="899pt"
 viewBox="0.00 0.00 369.27 899.00" xmlns="http://www.w3.org/2000/svg" xmlns:xlink="http://www.w3.org/1999/xlink">
<g id="graph0" class="graph" transform="scale(1 1) rotate(0) translate(4 895)">
<title>products</title>
<polygon fill="#ffffff" stroke="transparent" points="-4,4 -4,-895 365.2672,-895 365.2672,4 -4,4"/>
<!-- products -->
<g id="node1" class="node">
<title>products</title>
<polygon fill="#efefef" stroke="transparent" points="90.7672,-502.5 90.7672,-537.5 305.7672,-537.5 305.7672,-502.5 90.7672,-502.5"/>
<polygon fill="none" stroke="#000000" points="90.7672,-502.5 90.7672,-537.5 305.7672,-537.5 305.7672,-502.5 90.7672,-502.5"/>
<text text-anchor="start" x="97.6433" y="-515.3" font-family="Arial Bold" font-size="18.00" fill="#000000">products</text>
<text text-anchor="start" x="166.6625" y="-515.3" font-family="Arial" font-size="14.00" fill="#000000">    </text>
<text text-anchor="start" x="200.8673" y="-515.3" font-family="Arial" font-size="14.00" fill="#666666">[BASIC TABLE]</text>
<polygon fill="none" stroke="#000000" points="90.7672,-472.5 90.7672,-502.5 305.7672,-502.5 305.7672,-472.5 90.7672,-472.5"/>
<text text-anchor="start" x="97.7672" y="-483.9" font-family="Arial" font-size="14.00" fill="#000000">id </text>
<text text-anchor="start" x="112.547" y="-483.9" font-family="Arial" font-size="14.00" fill="#666666">[int]</text>
<polygon fill="none" stroke="#000000" points="90.7672,-442.5 90.7672,-472.5 305.7672,-472.5 305.7672,-442.5 90.7672,-442.5"/>
<text text-anchor="start" x="97.7672" y="-453.9" font-family="Arial" font-size="14.00" fill="#000000">name </text>
<text text-anchor="start" x="136.6662" y="-453.9" font-family="Arial" font-size="14.00" fill="#666666">[varchar(255)]</text>
<polygon fill="none" stroke="#000000" points="90.7672,-412.5 90.7672,-442.5 305.7672,-442.5 305.7672,-412.5 90.7672,-412.5"/>
<text text-anchor="start" x="97.7672" y="-423.9" font-family="Arial" font-size="14.00" fill="#000000">description </text>
<text text-anchor="start" x="169.3352" y="-423.9" font-family="Arial" font-size="14.00" fill="#666666">[text]</text>
<polygon fill="none" stroke="#000000" points="90.7672,-382.5 90.7672,-412.5 305.7672,-412.5 305.7672,-382.5 90.7672,-382.5"/>
<text text-anchor="start" x="97.7672" y="-393.9" font-family="Arial" font-size="14.00" fill="#000000">price </text>
<text text-anchor="start" x="131.9902" y="-393.9" font-family="Arial" font-size="14.00" fill="#666666">[decimal]</text>
<polygon fill="none" stroke="#000000" points="90.7672,-352.5 90.7672,-382.5 305.7672,-382.5 305.7672,-352.5 90.7672,-352.5"/>
<text text-anchor="start" x="97.7672" y="-363.9" font-family="Arial" font-size="14.00" fill="#000000">stock </text>
<text text-anchor="start" x="134.331" y="-363.9" font-family="Arial" font-size="14.00" fill="#666666">[int]</text>
<polygon fill="none" stroke="#000000" points="90.7672,-322.5 90.7672,-352.5 305.7672,-352.5 305.7672,-322.5 90.7672,-322.5"/>
<text text-anchor="start" x="97.7672" y="-333.9" font-family="Arial" font-size="14.00" fill="#000000">created_at </text>
<text text-anchor="start" x="167.7952" y="-333.9" font-family="Arial" font-size="14.00" fill="#666666">[datetime2]</text>
<polygon fill="none" stroke="#000000" points="90.7672,-292.5 90.7672,-322.5 305.7672,-322.5 305.7672,-292.5 90.7672,-292.5"/>
<text text-anchor="start" x="97.7672" y="-303.9" font-family="Arial" font-size="14.00" fill="#000000">updated_at </text>
<text text-anchor="start" x="171.6998" y="-303.9" font-family="Arial" font-size="14.00" fill="#666666">[datetime2]</text>
<polygon fill="none" stroke="#000000" points="90.7672,-262.5 90.7672,-292.5 305.7672,-292.5 305.7672,-262.5 90.7672,-262.5"/>
<text text-anchor="start" x="97.7672" y="-273.9" font-family="Arial" font-size="14.00" fill="#000000">category_id </text>
<text text-anchor="start" x="174.0112" y="-273.9" font-family="Arial" font-size="14.00" fill="#666666">[int]</text>
<polygon fill="none" stroke="#000000" stroke-width="3" points="88.7672,-261.5 88.7672,-539.5 306.7672,-539.5 306.7672,-261.5 88.7672,-261.5"/>
</g>
<!-- categories -->
<g id="node3" class="node">
<title>categories</title>
<polygon fill="#efefef" stroke="transparent" points="83.7672,-102.5 83.7672,-137.5 312.7672,-137.5 312.7672,-102.5 83.7672,-102.5"/>
<polygon fill="none" stroke="#000000" points="83.7672,-102.5 83.7672,-137.5 312.7672,-137.5 312.7672,-102.5 83.7672,-102.5"/>
<text text-anchor="start" x="90.6431" y="-115.3" font-family="Arial Bold" font-size="18.00" fill="#000000">categories</text>
<text text-anchor="start" x="173.6627" y="-115.3" font-family="Arial" font-size="14.00" fill="#000000">    </text>
<text text-anchor="start" x="207.8675" y="-115.3" font-family="Arial" font-size="14.00" fill="#666666">[BASIC TABLE]</text>
<polygon fill="none" stroke="#000000" points="83.7672,-72.5 83.7672,-102.5 312.7672,-102.5 312.7672,-72.5 83.7672,-72.5"/>
<text text-anchor="start" x="90.7672" y="-83.9" font-family="Arial" font-size="14.00" fill="#000000">id    </text>
<text text-anchor="start" x="135.8612" y="-83.9" font-family="Arial" font-size="14.00" fill="#666666">[int]</text>
<polygon fill="none" stroke="#000000" points="83.7672,-42.5 83.7672,-72.5 312.7672,-72.5 312.7672,-42.5 83.7672,-42.5"/>
<text text-anchor="start" x="90.7672" y="-53.9" font-family="Arial" font-size="14.00" fill="#000000">name    </text>
<text text-anchor="start" x="159.9804" y="-53.9" font-family="Arial" font-size="14.00" fill="#666666">[varchar(255)]</text>
</g>
<!-- products&#45;&gt;categories -->
<g id="edge2" class="edge">
<title>products:category_id&#45;&gt;categories:id</title>
<path fill="none" stroke="#000000" d="M197.908,-252.4738C188.8592,-203.8494 110.8501,-233.388 83.7672,-181 64.6836,-144.0855 42.2117,-87.5 83.7672,-87.5"/>
<polygon fill="#000000" stroke="#000000" points="197.9133,-252.5365 194.2837,-262.8843 198.3402,-257.5183 198.7672,-262.5 198.7672,-262.5 198.7672,-262.5 198.3402,-257.5183 203.2508,-262.1157 197.9133,-252.5365 197.9133,-252.5365"/>
</g>
<!-- order_items -->
<g id="node2" class="node">
<title>order_items</title>
<polygon fill="#efefef" stroke="transparent" points="77.7672,-812.5 77.7672,-847.5 318.7672,-847.5 318.7672,-812.5 77.7672,-812.5"/>
<polygon fill="none" stroke="#000000" points="77.7672,-812.5 77.7672,-847.5 318.7672,-847.5 318.7672,-812.5 77.7672,-812.5"/>
<text text-anchor="start" x="84.6509" y="-825.3" font-family="Arial Bold" font-size="18.00" fill="#000000">order_items</text>
<text text-anchor="start" x="179.6549" y="-825.3" font-family="Arial" font-size="14.00" fill="#000000">    </text>
<text text-anchor="start" x="213.8597" y="-825.3" font-family="Arial" font-size="14.00" fill="#666666">[BASIC TABLE]</text>
<polygon fill="none" stroke="#000000" points="77.7672,-782.5 77.7672,-812.5 318.7672,-812.5 318.7672,-782.5 77.7672,-782.5"/>
<text text-anchor="start" x="84.7672" y="-793.9" font-family="Arial" font-size="14.00" fill="#000000">id    </text>
<text text-anchor="start" x="129.8612" y="-793.9" font-family="Arial" font-size="14.00" fill="#666666">[int]</text>
<polygon fill="none" stroke="#000000" points="77.7672,-752.5 77.7672,-782.5 318.7672,-782.5 318.7672,-752.5 77.7672,-752.5"/>
<text text-anchor="start" x="84.7672" y="-763.9" font-family="Arial" font-size="14.00" fill="#000000">order_id    </text>
<text text-anchor="start" x="170.3128" y="-763.9" font-family="Arial" font-size="14.00" fill="#666666">[int]</text>
<polygon fill="none" stroke="#000000" points="77.7672,-722.5 77.7672,-752.5 318.7672,-752.5 318.7672,-722.5 77.7672,-722.5"/>
<text text-anchor="start" x="84.7672" y="-733.9" font-family="Arial" font-size="14.00" fill="#000000">product_id    </text>
<text text-anchor="start" x="184.3254" y="-733.9" font-family="Arial" font-size="14.00" fill="#666666">[int]</text>
<polygon fill="none" stroke="#000000" points="77.7672,-692.5 77.7672,-722.5 318.7672,-722.5 318.7672,-692.5 77.7672,-692.5"/>
<text text-anchor="start" x="84.7672" y="-703.9" font-family="Arial" font-size="14.00" fill="#000000">quantity    </text>
<text text-anchor="start" x="167.9902" y="-703.9" font-family="Arial" font-size="14.00" fill="#666666">[int]</text>
<polygon fill="none" stroke="#000000" points="77.7672,-662.5 77.7672,-692.5 318.7672,-692.5 318.7672,-662.5 77.7672,-662.5"/>
<text text-anchor="start" x="84.7672" y="-673.9" font-family="Arial" font-size="14.00" fill="#000000">price    </text>
<text text-anchor="start" x="149.3044" y="-673.9" font-family="Arial" font-size="14.00" fill="#666666">[decimal]</text>
</g>
<!-- order_items&#45;&gt;products -->
<g id="edge1" class="edge">
<title>order_items:product_id&#45;&gt;products:id</title>
<path fill="none" stroke="#000000" d="M67.6997,-736.7828C-32.5856,-722.1191 -17.0171,-487.5 90.7672,-487.5"/>
<polygon fill="#000000" stroke="#000000" points="67.7925,-736.7894 77.4474,-741.9886 72.7799,-737.1447 77.7672,-737.5 77.7672,-737.5 77.7672,-737.5 72.7799,-737.1447 78.087,-733.0114 67.7925,-736.7894 67.7925,-736.7894"/>
</g>
</g>
</svg>
