<?xml version="1.0" encoding="UTF-8" standalone="no"?>
<!DOCTYPE svg PUBLIC "-//W3C//DTD SVG 1.1//EN"
 "http://www.w3.org/Graphics/SVG/1.1/DTD/svg11.dtd">
<!-- Generated by graphviz version 12.1.2 (20240928.0832)
 -->
<!-- Title: products Pages: 1 -->
<svg width="361pt" height="914pt"
 viewBox="0.00 0.00 360.68 914.00" xmlns="http://www.w3.org/2000/svg" xmlns:xlink="http://www.w3.org/1999/xlink">
<g id="graph0" class="graph" transform="scale(1 1) rotate(0) translate(4 910)">
<title>products</title>
<polygon fill="white" stroke="none" points="-4,4 -4,-910 356.68,-910 356.68,4 -4,4"/>
<!-- products -->
<g id="node1" class="node">
<title>products</title>
<polygon fill="#efefef" stroke="none" points="55.19,-512.2 55.19,-547.8 260.33,-547.8 260.33,-512.2 55.19,-512.2"/>
<polygon fill="none" stroke="black" points="55.19,-512.2 55.19,-547.8 260.33,-547.8 260.33,-512.2 55.19,-512.2"/>
<text text-anchor="start" x="62.19" y="-525.6" font-family="Arial Bold" font-size="18.00">products</text>
<text text-anchor="start" x="124.18" y="-525.6" font-family="Arial" font-size="14.00">    </text>
<text text-anchor="start" x="155.3" y="-525.6" font-family="Arial" font-size="14.00" fill="#666666">[BASIC TABLE]</text>
<polygon fill="none" stroke="black" points="55.19,-481.4 55.19,-512.2 260.33,-512.2 260.33,-481.4 55.19,-481.4"/>
<text text-anchor="start" x="62.19" y="-493.6" font-family="Arial" font-size="14.00">id </text>
<text text-anchor="start" x="76.98" y="-493.6" font-family="Arial" font-size="14.00" fill="#666666">[int]</text>
<polygon fill="none" stroke="black" points="55.19,-450.6 55.19,-481.4 260.33,-481.4 260.33,-450.6 55.19,-450.6"/>
<text text-anchor="start" x="62.19" y="-462.8" font-family="Arial" font-size="14.00">name </text>
<text text-anchor="start" x="101.1" y="-462.8" font-family="Arial" font-size="14.00" fill="#666666">[varchar(255)]</text>
<polygon fill="none" stroke="black" points="55.19,-419.8 55.19,-450.6 260.33,-450.6 260.33,-419.8 55.19,-419.8"/>
<text text-anchor="start" x="62.19" y="-432" font-family="Arial" font-size="14.00">description </text>
<text text-anchor="start" x="133.79" y="-432" font-family="Arial" font-size="14.00" fill="#666666">[text]</text>
<polygon fill="none" stroke="black" points="55.19,-389 55.19,-419.8 260.33,-419.8 260.33,-389 55.19,-389"/>
<text text-anchor="start" x="62.19" y="-401.2" font-family="Arial" font-size="14.00">price </text>
<text text-anchor="start" x="96.43" y="-401.2" font-family="Arial" font-size="14.00" fill="#666666">[decimal]</text>
<polygon fill="none" stroke="black" points="55.19,-358.2 55.19,-389 260.33,-389 260.33,-358.2 55.19,-358.2"/>
<text text-anchor="start" x="62.19" y="-370.4" font-family="Arial" font-size="14.00">stock </text>
<text text-anchor="start" x="98.76" y="-370.4" font-family="Arial" font-size="14.00" fill="#666666">[int]</text>
<polygon fill="none" stroke="black" points="55.19,-327.4 55.19,-358.2 260.33,-358.2 260.33,-327.4 55.19,-327.4"/>
<text text-anchor="start" x="62.19" y="-339.6" font-family="Arial" font-size="14.00">created_at </text>
<text text-anchor="start" x="132.24" y="-339.6" font-family="Arial" font-size="14.00" fill="#666666">[datetime2]</text>
<polygon fill="none" stroke="black" points="55.19,-296.6 55.19,-327.4 260.33,-327.4 260.33,-296.6 55.19,-296.6"/>
<text text-anchor="start" x="62.19" y="-308.8" font-family="Arial" font-size="14.00">updated_at </text>
<text text-anchor="start" x="136.15" y="-308.8" font-family="Arial" font-size="14.00" fill="#666666">[datetime2]</text>
<polygon fill="none" stroke="black" points="55.19,-265.8 55.19,-296.6 260.33,-296.6 260.33,-265.8 55.19,-265.8"/>
<text text-anchor="start" x="62.19" y="-278" font-family="Arial" font-size="14.00">category_id </text>
<text text-anchor="start" x="138.46" y="-278" font-family="Arial" font-size="14.00" fill="#666666">[int]</text>
<polygon fill="none" stroke="black" stroke-width="3" points="53.69,-264.3 53.69,-549.3 261.83,-549.3 261.83,-264.3 53.69,-264.3"/>
</g>
<!-- categories -->
<g id="node3" class="node">
<title>categories</title>
<polygon fill="#efefef" stroke="none" points="49.71,-104.8 49.71,-140.4 265.82,-140.4 265.82,-104.8 49.71,-104.8"/>
<polygon fill="none" stroke="black" points="49.71,-104.8 49.71,-140.4 265.82,-140.4 265.82,-104.8 49.71,-104.8"/>
<text text-anchor="start" x="56.71" y="-118.2" font-family="Arial Bold" font-size="18.00">categories</text>
<text text-anchor="start" x="129.67" y="-118.2" font-family="Arial" font-size="14.00">    </text>
<text text-anchor="start" x="160.78" y="-118.2" font-family="Arial" font-size="14.00" fill="#666666">[BASIC TABLE]</text>
<polygon fill="none" stroke="black" points="49.71,-74 49.71,-104.8 265.82,-104.8 265.82,-74 49.71,-74"/>
<text text-anchor="start" x="56.71" y="-86.2" font-family="Arial" font-size="14.00">id </text>
<text text-anchor="start" x="71.49" y="-86.2" font-family="Arial" font-size="14.00" fill="#666666">[int]</text>
<polygon fill="none" stroke="black" points="49.71,-43.2 49.71,-74 265.82,-74 265.82,-43.2 49.71,-43.2"/>
<text text-anchor="start" x="56.71" y="-55.4" font-family="Arial" font-size="14.00">name </text>
<text text-anchor="start" x="95.62" y="-55.4" font-family="Arial" font-size="14.00" fill="#666666">[varchar(255)]</text>
</g>
<!-- products&#45;&gt;categories -->
<g id="edge2" class="edge">
<title>products:category_id&#45;&gt;categories:id</title>
<path fill="none" stroke="black" d="M158.68,-254.58C167.67,-208.45 240.39,-233.85 265.82,-183.6 284.72,-146.24 308.69,-89.4 266.82,-89.4"/>
<polygon fill="black" stroke="black" points="158.68,-254.51 153.31,-264.07 158.21,-259.82 157.82,-264.13 157.82,-264.13 157.82,-264.13 158.21,-259.82 162.27,-264.87 158.68,-254.51"/>
</g>
<!-- order_items -->
<g id="node2" class="node">
<title>order_items</title>
<polygon fill="#efefef" stroke="none" points="43.2,-827.2 43.2,-862.8 272.33,-862.8 272.33,-827.2 43.2,-827.2"/>
<polygon fill="none" stroke="black" points="43.2,-827.2 43.2,-862.8 272.33,-862.8 272.33,-827.2 43.2,-827.2"/>
<text text-anchor="start" x="50.2" y="-840.6" font-family="Arial Bold" font-size="18.00">order_items</text>
<text text-anchor="start" x="136.17" y="-840.6" font-family="Arial" font-size="14.00">    </text>
<text text-anchor="start" x="167.29" y="-840.6" font-family="Arial" font-size="14.00" fill="#666666">[BASIC TABLE]</text>
<polygon fill="none" stroke="black" points="43.2,-796.4 43.2,-827.2 272.33,-827.2 272.33,-796.4 43.2,-796.4"/>
<text text-anchor="start" x="50.2" y="-808.6" font-family="Arial" font-size="14.00">id </text>
<text text-anchor="start" x="64.99" y="-808.6" font-family="Arial" font-size="14.00" fill="#666666">[int]</text>
<polygon fill="none" stroke="black" points="43.2,-765.6 43.2,-796.4 272.33,-796.4 272.33,-765.6 43.2,-765.6"/>
<text text-anchor="start" x="50.2" y="-777.8" font-family="Arial" font-size="14.00">order_id </text>
<text text-anchor="start" x="105.45" y="-777.8" font-family="Arial" font-size="14.00" fill="#666666">[int]</text>
<polygon fill="none" stroke="black" points="43.2,-734.8 43.2,-765.6 272.33,-765.6 272.33,-734.8 43.2,-734.8"/>
<text text-anchor="start" x="50.2" y="-747" font-family="Arial" font-size="14.00">product_id </text>
<text text-anchor="start" x="119.47" y="-747" font-family="Arial" font-size="14.00" fill="#666666">[int]</text>
<polygon fill="none" stroke="black" points="43.2,-704 43.2,-734.8 272.33,-734.8 272.33,-704 43.2,-704"/>
<text text-anchor="start" x="50.2" y="-716.2" font-family="Arial" font-size="14.00">quantity </text>
<text text-anchor="start" x="103.12" y="-716.2" font-family="Arial" font-size="14.00" fill="#666666">[int]</text>
<polygon fill="none" stroke="black" points="43.2,-673.2 43.2,-704 272.33,-704 272.33,-673.2 43.2,-673.2"/>
<text text-anchor="start" x="50.2" y="-685.4" font-family="Arial" font-size="14.00">price </text>
<text text-anchor="start" x="84.43" y="-685.4" font-family="Arial" font-size="14.00" fill="#666666">[decimal]</text>
</g>
<!-- order_items&#45;&gt;products -->
<g id="edge1" class="edge">
<title>order_items:product_id&#45;&gt;products:id</title>
<path fill="none" stroke="black" d="M283.53,-749.47C385.23,-734.61 370.56,-496.8 261.33,-496.8"/>
<polygon fill="black" stroke="black" points="283.63,-749.47 273.34,-745.69 278.31,-749.84 273.99,-750.15 273.99,-750.15 273.99,-750.15 278.31,-749.84 273.98,-754.66 283.63,-749.47"/>
</g>
</g>
</svg>
