<?xml version="1.0" encoding="UTF-8" standalone="no"?>
<!DOCTYPE svg PUBLIC "-//W3C//DTD SVG 1.1//EN"
 "http://www.w3.org/Graphics/SVG/1.1/DTD/svg11.dtd">
<!-- Generated by graphviz version 2.40.1 (20161225.0304)
 -->
<!-- Title: profiles Pages: 1 -->
<svg width="325pt" height="712pt"
 viewBox="0.00 0.00 325.00 712.00" xmlns="http://www.w3.org/2000/svg" xmlns:xlink="http://www.w3.org/1999/xlink">
<g id="graph0" class="graph" transform="scale(1 1) rotate(0) translate(4 708)">
<title>profiles</title>
<polygon fill="#ffffff" stroke="transparent" points="-4,4 -4,-708 321.0035,-708 321.0035,4 -4,4"/>
<!-- profiles -->
<g id="node1" class="node">
<title>profiles</title>
<polygon fill="#efefef" stroke="transparent" points="67.0035,-622.5 67.0035,-657.5 271.0035,-657.5 271.0035,-622.5 67.0035,-622.5"/>
<polygon fill="none" stroke="#000000" points="67.0035,-622.5 67.0035,-657.5 271.0035,-657.5 271.0035,-622.5 67.0035,-622.5"/>
<text text-anchor="start" x="73.8885" y="-635.3" font-family="Arial Bold" font-size="18.00" fill="#000000">profiles</text>
<text text-anchor="start" x="131.8899" y="-635.3" font-family="Arial" font-size="14.00" fill="#000000">    </text>
<text text-anchor="start" x="166.0947" y="-635.3" font-family="Arial" font-size="14.00" fill="#666666">[BASIC TABLE]</text>
<polygon fill="none" stroke="#000000" points="67.0035,-592.5 67.0035,-622.5 271.0035,-622.5 271.0035,-592.5 67.0035,-592.5"/>
<text text-anchor="start" x="74.0035" y="-603.9" font-family="Arial" font-size="14.00" fill="#000000">id </text>
<text text-anchor="start" x="88.7833" y="-603.9" font-family="Arial" font-size="14.00" fill="#666666">[int]</text>
<polygon fill="none" stroke="#000000" points="67.0035,-562.5 67.0035,-592.5 271.0035,-592.5 271.0035,-562.5 67.0035,-562.5"/>
<text text-anchor="start" x="74.0035" y="-573.9" font-family="Arial" font-size="14.00" fill="#000000">user_id </text>
<text text-anchor="start" x="123.7917" y="-573.9" font-family="Arial" font-size="14.00" fill="#666666">[int]</text>
<polygon fill="none" stroke="#000000" points="67.0035,-532.5 67.0035,-562.5 271.0035,-562.5 271.0035,-532.5 67.0035,-532.5"/>
<text text-anchor="start" x="74.0035" y="-543.9" font-family="Arial" font-size="14.00" fill="#000000">first_name </text>
<text text-anchor="start" x="143.2335" y="-543.9" font-family="Arial" font-size="14.00" fill="#666666">[varchar(255)]</text>
<polygon fill="none" stroke="#000000" points="67.0035,-502.5 67.0035,-532.5 271.0035,-532.5 271.0035,-502.5 67.0035,-502.5"/>
<text text-anchor="start" x="74.0035" y="-513.9" font-family="Arial" font-size="14.00" fill="#000000">last_name </text>
<text text-anchor="start" x="142.4649" y="-513.9" font-family="Arial" font-size="14.00" fill="#666666">[varchar(255)]</text>
<polygon fill="none" stroke="#000000" points="67.0035,-472.5 67.0035,-502.5 271.0035,-502.5 271.0035,-472.5 67.0035,-472.5"/>
<text text-anchor="start" x="74.0035" y="-483.9" font-family="Arial" font-size="14.00" fill="#000000">bio </text>
<text text-anchor="start" x="96.5659" y="-483.9" font-family="Arial" font-size="14.00" fill="#666666">[text]</text>
<polygon fill="none" stroke="#000000" points="67.0035,-442.5 67.0035,-472.5 271.0035,-472.5 271.0035,-442.5 67.0035,-442.5"/>
<text text-anchor="start" x="74.0035" y="-453.9" font-family="Arial" font-size="14.00" fill="#000000">avatar </text>
<text text-anchor="start" x="116.7931" y="-453.9" font-family="Arial" font-size="14.00" fill="#666666">[varchar(255)]</text>
<polygon fill="none" stroke="#000000" points="67.0035,-412.5 67.0035,-442.5 271.0035,-442.5 271.0035,-412.5 67.0035,-412.5"/>
<text text-anchor="start" x="74.0035" y="-423.9" font-family="Arial" font-size="14.00" fill="#000000">birth_date </text>
<text text-anchor="start" x="140.1381" y="-423.9" font-family="Arial" font-size="14.00" fill="#666666">[date]</text>
<polygon fill="none" stroke="#000000" points="67.0035,-382.5 67.0035,-412.5 271.0035,-412.5 271.0035,-382.5 67.0035,-382.5"/>
<text text-anchor="start" x="74.0035" y="-393.9" font-family="Arial" font-size="14.00" fill="#000000">phone_number </text>
<text text-anchor="start" x="172.0413" y="-393.9" font-family="Arial" font-size="14.00" fill="#666666">[varchar(20)]</text>
<polygon fill="none" stroke="#000000" stroke-width="3" points="65.5035,-381.5 65.5035,-659.5 272.5035,-659.5 272.5035,-381.5 65.5035,-381.5"/>
</g>
<!-- users -->
<g id="node2" class="node">
<title>users</title>
<polygon fill="#efefef" stroke="transparent" points="70.0035,-222.5 70.0035,-257.5 267.0035,-257.5 267.0035,-222.5 70.0035,-222.5"/>
<polygon fill="none" stroke="#000000" points="70.0035,-222.5 70.0035,-257.5 267.0035,-257.5 267.0035,-222.5 70.0035,-222.5"/>
<text text-anchor="start" x="80.3869" y="-235.3" font-family="Arial Bold" font-size="18.00" fill="#000000">users</text>
<text text-anchor="start" x="124.3915" y="-235.3" font-family="Arial" font-size="14.00" fill="#000000">    </text>
<text text-anchor="start" x="158.5963" y="-235.3" font-family="Arial" font-size="14.00" fill="#666666">[BASIC TABLE]</text>
<polygon fill="none" stroke="#000000" points="70.0035,-192.5 70.0035,-222.5 267.0035,-222.5 267.0035,-192.5 70.0035,-192.5"/>
<text text-anchor="start" x="77.0035" y="-203.9" font-family="Arial" font-size="14.00" fill="#000000">id    </text>
<text text-anchor="start" x="122.0975" y="-203.9" font-family="Arial" font-size="14.00" fill="#666666">[int]</text>
<polygon fill="none" stroke="#000000" points="70.0035,-162.5 70.0035,-192.5 267.0035,-192.5 267.0035,-162.5 70.0035,-162.5"/>
<text text-anchor="start" x="77.0035" y="-173.9" font-family="Arial" font-size="14.00" fill="#000000">email    </text>
<text text-anchor="start" x="144.6473" y="-173.9" font-family="Arial" font-size="14.00" fill="#666666">[varchar(255)]</text>
<polygon fill="none" stroke="#000000" points="70.0035,-132.5 70.0035,-162.5 267.0035,-162.5 267.0035,-132.5 70.0035,-132.5"/>
<text text-anchor="start" x="76.7244" y="-143.9" font-family="Arial" font-size="14.00" fill="#000000">username    </text>
<text text-anchor="start" x="173.1634" y="-143.9" font-family="Arial" font-size="14.00" fill="#666666">[varchar(255)]</text>
<polygon fill="none" stroke="#000000" points="70.0035,-102.5 70.0035,-132.5 267.0035,-132.5 267.0035,-102.5 70.0035,-102.5"/>
<text text-anchor="start" x="77.0035" y="-113.9" font-family="Arial" font-size="14.00" fill="#000000">password    </text>
<text text-anchor="start" x="171.1059" y="-113.9" font-family="Arial" font-size="14.00" fill="#666666">[varchar(255)]</text>
<polygon fill="none" stroke="#000000" points="70.0035,-72.5 70.0035,-102.5 267.0035,-102.5 267.0035,-72.5 70.0035,-72.5"/>
<text text-anchor="start" x="77.0035" y="-83.9" font-family="Arial" font-size="14.00" fill="#000000">created_at    </text>
<text text-anchor="start" x="177.3457" y="-83.9" font-family="Arial" font-size="14.00" fill="#666666">[datetime2]</text>
<polygon fill="none" stroke="#000000" points="70.0035,-42.5 70.0035,-72.5 267.0035,-72.5 267.0035,-42.5 70.0035,-42.5"/>
<text text-anchor="start" x="77.0035" y="-53.9" font-family="Arial" font-size="14.00" fill="#000000">updated_at    </text>
<text text-anchor="start" x="181.2503" y="-53.9" font-family="Arial" font-size="14.00" fill="#666666">[datetime2]</text>
</g>
<!-- profiles&#45;&gt;users -->
<g id="edge1" class="edge">
<title>profiles:user_id&#45;&gt;users:id</title>
<path fill="none" stroke="#000000" d="M56.8324,-576.9844C-37.3069,-567.0592 .7189,-416.281 67.0035,-337 124.9351,-267.7096 209.0718,-370.2904 267.0035,-301 293.6582,-269.1191 308.559,-207.5 267.0035,-207.5"/>
<polygon fill="#000000" stroke="#000000" points="57.0163,-576.9936 66.7756,-581.9942 62.0099,-577.2468 67.0035,-577.5 67.0035,-577.5 67.0035,-577.5 62.0099,-577.2468 67.2313,-573.0058 57.0163,-576.9936 57.0163,-576.9936"/>
</g>
</g>
</svg>
