<?xml version="1.0" encoding="UTF-8" standalone="no"?>
<!DOCTYPE svg PUBLIC "-//W3C//DTD SVG 1.1//EN"
 "http://www.w3.org/Graphics/SVG/1.1/DTD/svg11.dtd">
<!-- Generated by graphviz version 12.1.2 (20240928.0832)
 -->
<!-- Title: blog_app Pages: 1 -->
<svg width="1838pt" height="1062pt"
 viewBox="0.00 0.00 1837.52 1062.00" xmlns="http://www.w3.org/2000/svg" xmlns:xlink="http://www.w3.org/1999/xlink">
<g id="graph0" class="graph" transform="scale(1 1) rotate(0) translate(4 1058)">
<title>blog_app</title>
<polygon fill="white" stroke="none" points="-4,4 -4,-1058 1833.52,-1058 1833.52,4 -4,4"/>
<!-- users -->
<g id="node1" class="node">
<title>users</title>
<polygon fill="#efefef" stroke="none" points="383.2,-228 383.2,-263.6 563.34,-263.6 563.34,-228 383.2,-228"/>
<polygon fill="none" stroke="black" points="383.2,-228 383.2,-263.6 563.34,-263.6 563.34,-228 383.2,-228"/>
<text text-anchor="start" x="390.2" y="-241.4" font-family="Arial Bold" font-size="18.00">users</text>
<text text-anchor="start" x="427.19" y="-241.4" font-family="Arial" font-size="14.00">    </text>
<text text-anchor="start" x="458.31" y="-241.4" font-family="Arial" font-size="14.00" fill="#666666">[BASIC TABLE]</text>
<polygon fill="none" stroke="black" points="383.2,-197.2 383.2,-228 563.34,-228 563.34,-197.2 383.2,-197.2"/>
<text text-anchor="start" x="390.2" y="-209.4" font-family="Arial" font-size="14.00">id </text>
<text text-anchor="start" x="404.98" y="-209.4" font-family="Arial" font-size="14.00" fill="#666666">[int]</text>
<polygon fill="none" stroke="black" points="383.2,-166.4 383.2,-197.2 563.34,-197.2 563.34,-166.4 383.2,-166.4"/>
<text text-anchor="start" x="390.2" y="-178.6" font-family="Arial" font-size="14.00">email </text>
<text text-anchor="start" x="427.54" y="-178.6" font-family="Arial" font-size="14.00" fill="#666666">[varchar(255)]</text>
<polygon fill="none" stroke="black" points="383.2,-135.6 383.2,-166.4 563.34,-166.4 563.34,-135.6 383.2,-135.6"/>
<text text-anchor="start" x="390.2" y="-147.8" font-family="Arial" font-size="14.00">username </text>
<text text-anchor="start" x="456.34" y="-147.8" font-family="Arial" font-size="14.00" fill="#666666">[varchar(255)]</text>
<polygon fill="none" stroke="black" points="383.2,-104.8 383.2,-135.6 563.34,-135.6 563.34,-104.8 383.2,-104.8"/>
<text text-anchor="start" x="390.2" y="-117" font-family="Arial" font-size="14.00">password </text>
<text text-anchor="start" x="454" y="-117" font-family="Arial" font-size="14.00" fill="#666666">[varchar(255)]</text>
<polygon fill="none" stroke="black" points="383.2,-74 383.2,-104.8 563.34,-104.8 563.34,-74 383.2,-74"/>
<text text-anchor="start" x="390.2" y="-86.2" font-family="Arial" font-size="14.00">created_at </text>
<text text-anchor="start" x="460.24" y="-86.2" font-family="Arial" font-size="14.00" fill="#666666">[datetime2]</text>
<polygon fill="none" stroke="black" points="383.2,-43.2 383.2,-74 563.34,-74 563.34,-43.2 383.2,-43.2"/>
<text text-anchor="start" x="390.2" y="-55.4" font-family="Arial" font-size="14.00">updated_at </text>
<text text-anchor="start" x="464.15" y="-55.4" font-family="Arial" font-size="14.00" fill="#666666">[datetime2]</text>
</g>
<!-- profiles -->
<g id="node2" class="node">
<title>profiles</title>
<polygon fill="#efefef" stroke="none" points="43.2,-632.4 43.2,-668 241.34,-668 241.34,-632.4 43.2,-632.4"/>
<polygon fill="none" stroke="black" points="43.2,-632.4 43.2,-668 241.34,-668 241.34,-632.4 43.2,-632.4"/>
<text text-anchor="start" x="50.2" y="-645.8" font-family="Arial Bold" font-size="18.00">profiles</text>
<text text-anchor="start" x="105.18" y="-645.8" font-family="Arial" font-size="14.00">    </text>
<text text-anchor="start" x="136.3" y="-645.8" font-family="Arial" font-size="14.00" fill="#666666">[BASIC TABLE]</text>
<polygon fill="none" stroke="black" points="43.2,-601.6 43.2,-632.4 241.34,-632.4 241.34,-601.6 43.2,-601.6"/>
<text text-anchor="start" x="50.2" y="-613.8" font-family="Arial" font-size="14.00">id </text>
<text text-anchor="start" x="64.99" y="-613.8" font-family="Arial" font-size="14.00" fill="#666666">[int]</text>
<polygon fill="none" stroke="black" points="43.2,-570.8 43.2,-601.6 241.34,-601.6 241.34,-570.8 43.2,-570.8"/>
<text text-anchor="start" x="50.2" y="-583" font-family="Arial" font-size="14.00">user_id </text>
<text text-anchor="start" x="100.01" y="-583" font-family="Arial" font-size="14.00" fill="#666666">[int]</text>
<polygon fill="none" stroke="black" points="43.2,-540 43.2,-570.8 241.34,-570.8 241.34,-540 43.2,-540"/>
<text text-anchor="start" x="50.2" y="-552.2" font-family="Arial" font-size="14.00">first_name </text>
<text text-anchor="start" x="119.45" y="-552.2" font-family="Arial" font-size="14.00" fill="#666666">[varchar(255)]</text>
<polygon fill="none" stroke="black" points="43.2,-509.2 43.2,-540 241.34,-540 241.34,-509.2 43.2,-509.2"/>
<text text-anchor="start" x="50.2" y="-521.4" font-family="Arial" font-size="14.00">last_name </text>
<text text-anchor="start" x="118.68" y="-521.4" font-family="Arial" font-size="14.00" fill="#666666">[varchar(255)]</text>
<polygon fill="none" stroke="black" points="43.2,-478.4 43.2,-509.2 241.34,-509.2 241.34,-478.4 43.2,-478.4"/>
<text text-anchor="start" x="50.2" y="-490.6" font-family="Arial" font-size="14.00">bio </text>
<text text-anchor="start" x="72.77" y="-490.6" font-family="Arial" font-size="14.00" fill="#666666">[text]</text>
<polygon fill="none" stroke="black" points="43.2,-447.6 43.2,-478.4 241.34,-478.4 241.34,-447.6 43.2,-447.6"/>
<text text-anchor="start" x="50.2" y="-459.8" font-family="Arial" font-size="14.00">avatar </text>
<text text-anchor="start" x="93" y="-459.8" font-family="Arial" font-size="14.00" fill="#666666">[varchar(255)]</text>
<polygon fill="none" stroke="black" points="43.2,-416.8 43.2,-447.6 241.34,-447.6 241.34,-416.8 43.2,-416.8"/>
<text text-anchor="start" x="50.2" y="-429" font-family="Arial" font-size="14.00">birth_date </text>
<text text-anchor="start" x="116.36" y="-429" font-family="Arial" font-size="14.00" fill="#666666">[date]</text>
<polygon fill="none" stroke="black" points="43.2,-386 43.2,-416.8 241.34,-416.8 241.34,-386 43.2,-386"/>
<text text-anchor="start" x="50.2" y="-398.2" font-family="Arial" font-size="14.00">phone_number </text>
<text text-anchor="start" x="148.28" y="-398.2" font-family="Arial" font-size="14.00" fill="#666666">[varchar(20)]</text>
</g>
<!-- profiles&#45;&gt;users -->
<g id="edge1" class="edge">
<title>profiles:user_id&#45;&gt;users:id</title>
<path fill="none" stroke="black" d="M252.71,-585.74C346.97,-576.87 256.56,-441.67 298.27,-342.8 325.03,-279.37 313.35,-212.6 382.2,-212.6"/>
<polygon fill="black" stroke="black" points="252.66,-585.74 242.47,-581.69 247.33,-585.98 243,-586.17 243,-586.17 243,-586.17 247.33,-585.98 242.87,-590.68 252.66,-585.74"/>
</g>
<!-- posts -->
<g id="node3" class="node">
<title>posts</title>
<polygon fill="#efefef" stroke="none" points="383.19,-617 383.19,-652.6 563.35,-652.6 563.35,-617 383.19,-617"/>
<polygon fill="none" stroke="black" points="383.19,-617 383.19,-652.6 563.35,-652.6 563.35,-617 383.19,-617"/>
<text text-anchor="start" x="390.19" y="-630.4" font-family="Arial Bold" font-size="18.00">posts</text>
<text text-anchor="start" x="427.2" y="-630.4" font-family="Arial" font-size="14.00">    </text>
<text text-anchor="start" x="458.31" y="-630.4" font-family="Arial" font-size="14.00" fill="#666666">[BASIC TABLE]</text>
<polygon fill="none" stroke="black" points="383.19,-586.2 383.19,-617 563.35,-617 563.35,-586.2 383.19,-586.2"/>
<text text-anchor="start" x="390.19" y="-598.4" font-family="Arial" font-size="14.00">id </text>
<text text-anchor="start" x="404.97" y="-598.4" font-family="Arial" font-size="14.00" fill="#666666">[int]</text>
<polygon fill="none" stroke="black" points="383.19,-555.4 383.19,-586.2 563.35,-586.2 563.35,-555.4 383.19,-555.4"/>
<text text-anchor="start" x="390.19" y="-567.6" font-family="Arial" font-size="14.00">title </text>
<text text-anchor="start" x="415.86" y="-567.6" font-family="Arial" font-size="14.00" fill="#666666">[varchar(255)]</text>
<polygon fill="none" stroke="black" points="383.19,-524.6 383.19,-555.4 563.35,-555.4 563.35,-524.6 383.19,-524.6"/>
<text text-anchor="start" x="390.19" y="-536.8" font-family="Arial" font-size="14.00">content </text>
<text text-anchor="start" x="440" y="-536.8" font-family="Arial" font-size="14.00" fill="#666666">[text]</text>
<polygon fill="none" stroke="black" points="383.19,-493.8 383.19,-524.6 563.35,-524.6 563.35,-493.8 383.19,-493.8"/>
<text text-anchor="start" x="390.19" y="-506" font-family="Arial" font-size="14.00">published </text>
<text text-anchor="start" x="454.01" y="-506" font-family="Arial" font-size="14.00" fill="#666666">[bit]</text>
<polygon fill="none" stroke="black" points="383.19,-463 383.19,-493.8 563.35,-493.8 563.35,-463 383.19,-463"/>
<text text-anchor="start" x="390.19" y="-475.2" font-family="Arial" font-size="14.00">created_at </text>
<text text-anchor="start" x="460.23" y="-475.2" font-family="Arial" font-size="14.00" fill="#666666">[datetime2]</text>
<polygon fill="none" stroke="black" points="383.19,-432.2 383.19,-463 563.35,-463 563.35,-432.2 383.19,-432.2"/>
<text text-anchor="start" x="390.19" y="-444.4" font-family="Arial" font-size="14.00">updated_at </text>
<text text-anchor="start" x="464.14" y="-444.4" font-family="Arial" font-size="14.00" fill="#666666">[datetime2]</text>
<polygon fill="none" stroke="black" points="383.19,-401.4 383.19,-432.2 563.35,-432.2 563.35,-401.4 383.19,-401.4"/>
<text text-anchor="start" x="390.19" y="-413.6" font-family="Arial" font-size="14.00">author_id </text>
<text text-anchor="start" x="452.46" y="-413.6" font-family="Arial" font-size="14.00" fill="#666666">[int]</text>
</g>
<!-- posts&#45;&gt;users -->
<g id="edge2" class="edge">
<title>posts:author_id&#45;&gt;users:id</title>
<path fill="none" stroke="black" d="M474.09,-390.14C481.87,-344.64 542.89,-356.79 563.34,-306.8 579.2,-268.05 606.21,-212.6 564.34,-212.6"/>
<polygon fill="black" stroke="black" points="474.09,-390.1 468.81,-399.71 473.67,-395.42 473.32,-399.73 473.32,-399.73 473.32,-399.73 473.67,-395.42 477.78,-400.42 474.09,-390.1"/>
</g>
<!-- comments -->
<g id="node4" class="node">
<title>comments</title>
<polygon fill="#efefef" stroke="none" points="254.7,-975.2 254.7,-1010.8 471.84,-1010.8 471.84,-975.2 254.7,-975.2"/>
<polygon fill="none" stroke="black" points="254.7,-975.2 254.7,-1010.8 471.84,-1010.8 471.84,-975.2 254.7,-975.2"/>
<text text-anchor="start" x="261.7" y="-988.6" font-family="Arial Bold" font-size="18.00">comments</text>
<text text-anchor="start" x="335.69" y="-988.6" font-family="Arial" font-size="14.00">    </text>
<text text-anchor="start" x="366.8" y="-988.6" font-family="Arial" font-size="14.00" fill="#666666">[BASIC TABLE]</text>
<polygon fill="none" stroke="black" points="254.7,-944.4 254.7,-975.2 471.84,-975.2 471.84,-944.4 254.7,-944.4"/>
<text text-anchor="start" x="261.7" y="-956.6" font-family="Arial" font-size="14.00">id </text>
<text text-anchor="start" x="276.49" y="-956.6" font-family="Arial" font-size="14.00" fill="#666666">[int]</text>
<polygon fill="none" stroke="black" points="254.7,-913.6 254.7,-944.4 471.84,-944.4 471.84,-913.6 254.7,-913.6"/>
<text text-anchor="start" x="261.7" y="-925.8" font-family="Arial" font-size="14.00">content </text>
<text text-anchor="start" x="311.51" y="-925.8" font-family="Arial" font-size="14.00" fill="#666666">[text]</text>
<polygon fill="none" stroke="black" points="254.7,-882.8 254.7,-913.6 471.84,-913.6 471.84,-882.8 254.7,-882.8"/>
<text text-anchor="start" x="261.7" y="-895" font-family="Arial" font-size="14.00">created_at </text>
<text text-anchor="start" x="331.75" y="-895" font-family="Arial" font-size="14.00" fill="#666666">[datetime2]</text>
<polygon fill="none" stroke="black" points="254.7,-852 254.7,-882.8 471.84,-882.8 471.84,-852 254.7,-852"/>
<text text-anchor="start" x="261.7" y="-864.2" font-family="Arial" font-size="14.00">updated_at </text>
<text text-anchor="start" x="335.66" y="-864.2" font-family="Arial" font-size="14.00" fill="#666666">[datetime2]</text>
<polygon fill="none" stroke="black" points="254.7,-821.2 254.7,-852 471.84,-852 471.84,-821.2 254.7,-821.2"/>
<text text-anchor="start" x="261.7" y="-833.4" font-family="Arial" font-size="14.00">post_id </text>
<text text-anchor="start" x="310.73" y="-833.4" font-family="Arial" font-size="14.00" fill="#666666">[int]</text>
<polygon fill="none" stroke="black" points="254.7,-790.4 254.7,-821.2 471.84,-821.2 471.84,-790.4 254.7,-790.4"/>
<text text-anchor="start" x="261.7" y="-802.6" font-family="Arial" font-size="14.00">author_id </text>
<text text-anchor="start" x="323.97" y="-802.6" font-family="Arial" font-size="14.00" fill="#666666">[int]</text>
</g>
<!-- comments&#45;&gt;users -->
<g id="edge3" class="edge">
<title>comments:author_id&#45;&gt;users:id</title>
<path fill="none" stroke="black" d="M362.6,-779.3C358.6,-750.79 337.81,-744.45 331.27,-711.2 299.67,-550.54 300.92,-503.7 331.27,-342.8 342.78,-281.74 320.06,-212.6 382.2,-212.6"/>
<polygon fill="black" stroke="black" points="362.58,-779.09 358.76,-789.36 362.94,-784.41 363.22,-788.73 363.22,-788.73 363.22,-788.73 362.94,-784.41 367.74,-788.77 362.58,-779.09"/>
</g>
<!-- comments&#45;&gt;posts -->
<g id="edge4" class="edge">
<title>comments:post_id&#45;&gt;posts:id</title>
<path fill="none" stroke="black" d="M483.14,-834.97C508.37,-825.63 489.83,-778.03 471.84,-747.2 448.88,-707.86 406.13,-735.14 383.19,-695.8 362.09,-659.63 340.32,-601.6 382.19,-601.6"/>
<polygon fill="black" stroke="black" points="483.04,-834.99 472.47,-832.1 477.78,-835.82 473.5,-836.5 473.5,-836.5 473.5,-836.5 477.78,-835.82 473.87,-840.99 483.04,-834.99"/>
</g>
<!-- tags -->
<g id="node5" class="node">
<title>tags</title>
<polygon fill="#efefef" stroke="none" points="668.19,-540 668.19,-575.6 840.34,-575.6 840.34,-540 668.19,-540"/>
<polygon fill="none" stroke="black" points="668.19,-540 668.19,-575.6 840.34,-575.6 840.34,-540 668.19,-540"/>
<text text-anchor="start" x="675.19" y="-553.4" font-family="Arial Bold" font-size="18.00">tags</text>
<text text-anchor="start" x="704.19" y="-553.4" font-family="Arial" font-size="14.00">    </text>
<text text-anchor="start" x="735.31" y="-553.4" font-family="Arial" font-size="14.00" fill="#666666">[BASIC TABLE]</text>
<polygon fill="none" stroke="black" points="668.19,-509.2 668.19,-540 840.34,-540 840.34,-509.2 668.19,-509.2"/>
<text text-anchor="start" x="675.19" y="-521.4" font-family="Arial" font-size="14.00">id </text>
<text text-anchor="start" x="689.98" y="-521.4" font-family="Arial" font-size="14.00" fill="#666666">[int]</text>
<polygon fill="none" stroke="black" points="668.19,-478.4 668.19,-509.2 840.34,-509.2 840.34,-478.4 668.19,-478.4"/>
<text text-anchor="start" x="675.19" y="-490.6" font-family="Arial" font-size="14.00">name </text>
<text text-anchor="start" x="714.1" y="-490.6" font-family="Arial" font-size="14.00" fill="#666666">[varchar(255)]</text>
</g>
<!-- posts_tags -->
<g id="node6" class="node">
<title>posts_tags</title>
<polygon fill="#efefef" stroke="none" points="614.19,-913.6 614.19,-949.2 832.35,-949.2 832.35,-913.6 614.19,-913.6"/>
<polygon fill="none" stroke="black" points="614.19,-913.6 614.19,-949.2 832.35,-949.2 832.35,-913.6 614.19,-913.6"/>
<text text-anchor="start" x="621.19" y="-927" font-family="Arial Bold" font-size="18.00">posts_tags</text>
<text text-anchor="start" x="696.2" y="-927" font-family="Arial" font-size="14.00">    </text>
<text text-anchor="start" x="727.31" y="-927" font-family="Arial" font-size="14.00" fill="#666666">[BASIC TABLE]</text>
<polygon fill="none" stroke="black" points="614.19,-882.8 614.19,-913.6 832.35,-913.6 832.35,-882.8 614.19,-882.8"/>
<text text-anchor="start" x="621.19" y="-895" font-family="Arial" font-size="14.00">post_id </text>
<text text-anchor="start" x="670.22" y="-895" font-family="Arial" font-size="14.00" fill="#666666">[int]</text>
<polygon fill="none" stroke="black" points="614.19,-852 614.19,-882.8 832.35,-882.8 832.35,-852 614.19,-852"/>
<text text-anchor="start" x="621.19" y="-864.2" font-family="Arial" font-size="14.00">tag_id </text>
<text text-anchor="start" x="663.22" y="-864.2" font-family="Arial" font-size="14.00" fill="#666666">[int]</text>
</g>
<!-- posts_tags&#45;&gt;posts -->
<g id="edge5" class="edge">
<title>posts_tags:post_id&#45;&gt;posts:id</title>
<path fill="none" stroke="black" d="M603.01,-897.55C491.27,-882.2 694.29,-601.6 564.35,-601.6"/>
<polygon fill="black" stroke="black" points="602.88,-897.54 612.57,-902.67 608.2,-897.88 612.52,-898.16 612.52,-898.16 612.52,-898.16 608.2,-897.88 613.14,-893.69 602.88,-897.54"/>
</g>
<!-- posts_tags&#45;&gt;tags -->
<g id="edge6" class="edge">
<title>posts_tags:tag_id&#45;&gt;tags:id</title>
<path fill="none" stroke="black" d="M722.61,-840.81C712.74,-756.62 596.69,-524.6 667.19,-524.6"/>
<polygon fill="black" stroke="black" points="722.6,-840.69 718.76,-850.96 722.94,-846.01 723.22,-850.33 723.22,-850.33 723.22,-850.33 722.94,-846.01 727.74,-850.37 722.6,-840.69"/>
</g>
<!-- categories -->
<g id="node7" class="node">
<title>categories</title>
<polygon fill="#efefef" stroke="none" points="1570.21,-166.4 1570.21,-202 1786.32,-202 1786.32,-166.4 1570.21,-166.4"/>
<polygon fill="none" stroke="black" points="1570.21,-166.4 1570.21,-202 1786.32,-202 1786.32,-166.4 1570.21,-166.4"/>
<text text-anchor="start" x="1577.21" y="-179.8" font-family="Arial Bold" font-size="18.00">categories</text>
<text text-anchor="start" x="1650.17" y="-179.8" font-family="Arial" font-size="14.00">    </text>
<text text-anchor="start" x="1681.29" y="-179.8" font-family="Arial" font-size="14.00" fill="#666666">[BASIC TABLE]</text>
<polygon fill="none" stroke="black" points="1570.21,-135.6 1570.21,-166.4 1786.32,-166.4 1786.32,-135.6 1570.21,-135.6"/>
<text text-anchor="start" x="1577.21" y="-147.8" font-family="Arial" font-size="14.00">id </text>
<text text-anchor="start" x="1592" y="-147.8" font-family="Arial" font-size="14.00" fill="#666666">[int]</text>
<polygon fill="none" stroke="black" points="1570.21,-104.8 1570.21,-135.6 1786.32,-135.6 1786.32,-104.8 1570.21,-104.8"/>
<text text-anchor="start" x="1577.21" y="-117" font-family="Arial" font-size="14.00">name </text>
<text text-anchor="start" x="1616.12" y="-117" font-family="Arial" font-size="14.00" fill="#666666">[varchar(255)]</text>
</g>
<!-- products -->
<g id="node8" class="node">
<title>products</title>
<polygon fill="#efefef" stroke="none" points="1575.7,-632.4 1575.7,-668 1780.84,-668 1780.84,-632.4 1575.7,-632.4"/>
<polygon fill="none" stroke="black" points="1575.7,-632.4 1575.7,-668 1780.84,-668 1780.84,-632.4 1575.7,-632.4"/>
<text text-anchor="start" x="1582.7" y="-645.8" font-family="Arial Bold" font-size="18.00">products</text>
<text text-anchor="start" x="1644.69" y="-645.8" font-family="Arial" font-size="14.00">    </text>
<text text-anchor="start" x="1675.8" y="-645.8" font-family="Arial" font-size="14.00" fill="#666666">[BASIC TABLE]</text>
<polygon fill="none" stroke="black" points="1575.7,-601.6 1575.7,-632.4 1780.84,-632.4 1780.84,-601.6 1575.7,-601.6"/>
<text text-anchor="start" x="1582.7" y="-613.8" font-family="Arial" font-size="14.00">id </text>
<text text-anchor="start" x="1597.48" y="-613.8" font-family="Arial" font-size="14.00" fill="#666666">[int]</text>
<polygon fill="none" stroke="black" points="1575.7,-570.8 1575.7,-601.6 1780.84,-601.6 1780.84,-570.8 1575.7,-570.8"/>
<text text-anchor="start" x="1582.7" y="-583" font-family="Arial" font-size="14.00">name </text>
<text text-anchor="start" x="1621.61" y="-583" font-family="Arial" font-size="14.00" fill="#666666">[varchar(255)]</text>
<polygon fill="none" stroke="black" points="1575.7,-540 1575.7,-570.8 1780.84,-570.8 1780.84,-540 1575.7,-540"/>
<text text-anchor="start" x="1582.7" y="-552.2" font-family="Arial" font-size="14.00">description </text>
<text text-anchor="start" x="1654.29" y="-552.2" font-family="Arial" font-size="14.00" fill="#666666">[text]</text>
<polygon fill="none" stroke="black" points="1575.7,-509.2 1575.7,-540 1780.84,-540 1780.84,-509.2 1575.7,-509.2"/>
<text text-anchor="start" x="1582.7" y="-521.4" font-family="Arial" font-size="14.00">price </text>
<text text-anchor="start" x="1616.93" y="-521.4" font-family="Arial" font-size="14.00" fill="#666666">[decimal]</text>
<polygon fill="none" stroke="black" points="1575.7,-478.4 1575.7,-509.2 1780.84,-509.2 1780.84,-478.4 1575.7,-478.4"/>
<text text-anchor="start" x="1582.7" y="-490.6" font-family="Arial" font-size="14.00">stock </text>
<text text-anchor="start" x="1619.26" y="-490.6" font-family="Arial" font-size="14.00" fill="#666666">[int]</text>
<polygon fill="none" stroke="black" points="1575.7,-447.6 1575.7,-478.4 1780.84,-478.4 1780.84,-447.6 1575.7,-447.6"/>
<text text-anchor="start" x="1582.7" y="-459.8" font-family="Arial" font-size="14.00">created_at </text>
<text text-anchor="start" x="1652.75" y="-459.8" font-family="Arial" font-size="14.00" fill="#666666">[datetime2]</text>
<polygon fill="none" stroke="black" points="1575.7,-416.8 1575.7,-447.6 1780.84,-447.6 1780.84,-416.8 1575.7,-416.8"/>
<text text-anchor="start" x="1582.7" y="-429" font-family="Arial" font-size="14.00">updated_at </text>
<text text-anchor="start" x="1656.66" y="-429" font-family="Arial" font-size="14.00" fill="#666666">[datetime2]</text>
<polygon fill="none" stroke="black" points="1575.7,-386 1575.7,-416.8 1780.84,-416.8 1780.84,-386 1575.7,-386"/>
<text text-anchor="start" x="1582.7" y="-398.2" font-family="Arial" font-size="14.00">category_id </text>
<text text-anchor="start" x="1658.97" y="-398.2" font-family="Arial" font-size="14.00" fill="#666666">[int]</text>
</g>
<!-- products&#45;&gt;categories -->
<g id="edge7" class="edge">
<title>products:category_id&#45;&gt;categories:id</title>
<path fill="none" stroke="black" d="M1678.75,-374.95C1685.55,-307.45 1761.71,-316.05 1786.32,-245.2 1800.06,-205.65 1829.19,-151 1787.32,-151"/>
<polygon fill="black" stroke="black" points="1678.77,-374.68 1673.79,-384.45 1678.51,-380.01 1678.3,-384.33 1678.3,-384.33 1678.3,-384.33 1678.51,-380.01 1682.78,-384.88 1678.77,-374.68"/>
</g>
<!-- orders -->
<g id="node9" class="node">
<title>orders</title>
<polygon fill="#efefef" stroke="none" points="945.2,-601.6 945.2,-637.2 1133.33,-637.2 1133.33,-601.6 945.2,-601.6"/>
<polygon fill="none" stroke="black" points="945.2,-601.6 945.2,-637.2 1133.33,-637.2 1133.33,-601.6 945.2,-601.6"/>
<text text-anchor="start" x="952.2" y="-615" font-family="Arial Bold" font-size="18.00">orders</text>
<text text-anchor="start" x="997.18" y="-615" font-family="Arial" font-size="14.00">    </text>
<text text-anchor="start" x="1028.3" y="-615" font-family="Arial" font-size="14.00" fill="#666666">[BASIC TABLE]</text>
<polygon fill="none" stroke="black" points="945.2,-570.8 945.2,-601.6 1133.33,-601.6 1133.33,-570.8 945.2,-570.8"/>
<text text-anchor="start" x="952.2" y="-583" font-family="Arial" font-size="14.00">id </text>
<text text-anchor="start" x="966.99" y="-583" font-family="Arial" font-size="14.00" fill="#666666">[int]</text>
<polygon fill="none" stroke="black" points="945.2,-540 945.2,-570.8 1133.33,-570.8 1133.33,-540 945.2,-540"/>
<text text-anchor="start" x="952.2" y="-552.2" font-family="Arial" font-size="14.00">user_id </text>
<text text-anchor="start" x="1002.01" y="-552.2" font-family="Arial" font-size="14.00" fill="#666666">[int]</text>
<polygon fill="none" stroke="black" points="945.2,-509.2 945.2,-540 1133.33,-540 1133.33,-509.2 945.2,-509.2"/>
<text text-anchor="start" x="952.2" y="-521.4" font-family="Arial" font-size="14.00">status </text>
<text text-anchor="start" x="993.44" y="-521.4" font-family="Arial" font-size="14.00" fill="#666666">[varchar(20)]</text>
<polygon fill="none" stroke="black" points="945.2,-478.4 945.2,-509.2 1133.33,-509.2 1133.33,-478.4 945.2,-478.4"/>
<text text-anchor="start" x="952.2" y="-490.6" font-family="Arial" font-size="14.00">total_price </text>
<text text-anchor="start" x="1020.68" y="-490.6" font-family="Arial" font-size="14.00" fill="#666666">[decimal]</text>
<polygon fill="none" stroke="black" points="945.2,-447.6 945.2,-478.4 1133.33,-478.4 1133.33,-447.6 945.2,-447.6"/>
<text text-anchor="start" x="952.2" y="-459.8" font-family="Arial" font-size="14.00">created_at </text>
<text text-anchor="start" x="1022.25" y="-459.8" font-family="Arial" font-size="14.00" fill="#666666">[datetime2]</text>
<polygon fill="none" stroke="black" points="945.2,-416.8 945.2,-447.6 1133.33,-447.6 1133.33,-416.8 945.2,-416.8"/>
<text text-anchor="start" x="952.2" y="-429" font-family="Arial" font-size="14.00">updated_at </text>
<text text-anchor="start" x="1026.16" y="-429" font-family="Arial" font-size="14.00" fill="#666666">[datetime2]</text>
</g>
<!-- orders&#45;&gt;users -->
<g id="edge8" class="edge">
<title>orders:user_id&#45;&gt;users:id</title>
<path fill="none" stroke="black" d="M934.21,-554.84C854.8,-545.16 953.76,-413.45 892.27,-342.8 789.31,-224.52 721.15,-212.6 564.34,-212.6"/>
<polygon fill="black" stroke="black" points="933.88,-554.82 943.61,-559.87 939.21,-555.12 943.53,-555.36 943.53,-555.36 943.53,-555.36 939.21,-555.12 944.12,-550.89 933.88,-554.82"/>
</g>
<!-- order_items -->
<g id="node10" class="node">
<title>order_items</title>
<polygon fill="#efefef" stroke="none" points="955.7,-959.8 955.7,-995.4 1184.83,-995.4 1184.83,-959.8 955.7,-959.8"/>
<polygon fill="none" stroke="black" points="955.7,-959.8 955.7,-995.4 1184.83,-995.4 1184.83,-959.8 955.7,-959.8"/>
<text text-anchor="start" x="962.7" y="-973.2" font-family="Arial Bold" font-size="18.00">order_items</text>
<text text-anchor="start" x="1048.68" y="-973.2" font-family="Arial" font-size="14.00">    </text>
<text text-anchor="start" x="1079.8" y="-973.2" font-family="Arial" font-size="14.00" fill="#666666">[BASIC TABLE]</text>
<polygon fill="none" stroke="black" points="955.7,-929 955.7,-959.8 1184.83,-959.8 1184.83,-929 955.7,-929"/>
<text text-anchor="start" x="962.7" y="-941.2" font-family="Arial" font-size="14.00">id </text>
<text text-anchor="start" x="977.49" y="-941.2" font-family="Arial" font-size="14.00" fill="#666666">[int]</text>
<polygon fill="none" stroke="black" points="955.7,-898.2 955.7,-929 1184.83,-929 1184.83,-898.2 955.7,-898.2"/>
<text text-anchor="start" x="962.7" y="-910.4" font-family="Arial" font-size="14.00">order_id </text>
<text text-anchor="start" x="1017.96" y="-910.4" font-family="Arial" font-size="14.00" fill="#666666">[int]</text>
<polygon fill="none" stroke="black" points="955.7,-867.4 955.7,-898.2 1184.83,-898.2 1184.83,-867.4 955.7,-867.4"/>
<text text-anchor="start" x="962.7" y="-879.6" font-family="Arial" font-size="14.00">product_id </text>
<text text-anchor="start" x="1031.97" y="-879.6" font-family="Arial" font-size="14.00" fill="#666666">[int]</text>
<polygon fill="none" stroke="black" points="955.7,-836.6 955.7,-867.4 1184.83,-867.4 1184.83,-836.6 955.7,-836.6"/>
<text text-anchor="start" x="962.7" y="-848.8" font-family="Arial" font-size="14.00">quantity </text>
<text text-anchor="start" x="1015.63" y="-848.8" font-family="Arial" font-size="14.00" fill="#666666">[int]</text>
<polygon fill="none" stroke="black" points="955.7,-805.8 955.7,-836.6 1184.83,-836.6 1184.83,-805.8 955.7,-805.8"/>
<text text-anchor="start" x="962.7" y="-818" font-family="Arial" font-size="14.00">price </text>
<text text-anchor="start" x="996.94" y="-818" font-family="Arial" font-size="14.00" fill="#666666">[decimal]</text>
</g>
<!-- order_items&#45;&gt;products -->
<g id="edge10" class="edge">
<title>order_items:product_id&#45;&gt;products:id</title>
<path fill="none" stroke="black" d="M1196.03,-882.73C1356.1,-880.54 1405.04,-826.01 1523.27,-711.2 1557.49,-677.97 1527,-617 1574.7,-617"/>
<polygon fill="black" stroke="black" points="1196.17,-882.73 1186.13,-878.3 1190.83,-882.77 1186.5,-882.8 1186.5,-882.8 1186.5,-882.8 1190.83,-882.77 1186.2,-887.3 1196.17,-882.73"/>
</g>
<!-- order_items&#45;&gt;orders -->
<g id="edge9" class="edge">
<title>order_items:order_id&#45;&gt;orders:id</title>
<path fill="none" stroke="black" d="M944.57,-912.77C891.08,-903.37 921.36,-815.94 955.7,-762.6 1002.79,-689.46 1086.1,-753.45 1133.33,-680.4 1156.07,-645.24 1176.2,-586.2 1134.33,-586.2"/>
<polygon fill="black" stroke="black" points="944.4,-912.76 954.01,-918.06 949.72,-913.19 954.04,-913.55 954.04,-913.55 954.04,-913.55 949.72,-913.19 954.74,-909.09 944.4,-912.76"/>
</g>
<!-- notifications -->
<g id="node11" class="node">
<title>notifications</title>
<polygon fill="#efefef" stroke="none" points="1237.7,-601.6 1237.7,-637.2 1470.83,-637.2 1470.83,-601.6 1237.7,-601.6"/>
<polygon fill="none" stroke="black" points="1237.7,-601.6 1237.7,-637.2 1470.83,-637.2 1470.83,-601.6 1237.7,-601.6"/>
<text text-anchor="start" x="1244.7" y="-615" font-family="Arial Bold" font-size="18.00">notifications</text>
<text text-anchor="start" x="1334.68" y="-615" font-family="Arial" font-size="14.00">    </text>
<text text-anchor="start" x="1365.8" y="-615" font-family="Arial" font-size="14.00" fill="#666666">[BASIC TABLE]</text>
<polygon fill="none" stroke="black" points="1237.7,-570.8 1237.7,-601.6 1470.83,-601.6 1470.83,-570.8 1237.7,-570.8"/>
<text text-anchor="start" x="1244.7" y="-583" font-family="Arial" font-size="14.00">id </text>
<text text-anchor="start" x="1259.49" y="-583" font-family="Arial" font-size="14.00" fill="#666666">[int]</text>
<polygon fill="none" stroke="black" points="1237.7,-540 1237.7,-570.8 1470.83,-570.8 1470.83,-540 1237.7,-540"/>
<text text-anchor="start" x="1244.7" y="-552.2" font-family="Arial" font-size="14.00">user_id </text>
<text text-anchor="start" x="1294.51" y="-552.2" font-family="Arial" font-size="14.00" fill="#666666">[int]</text>
<polygon fill="none" stroke="black" points="1237.7,-509.2 1237.7,-540 1470.83,-540 1470.83,-509.2 1237.7,-509.2"/>
<text text-anchor="start" x="1244.7" y="-521.4" font-family="Arial" font-size="14.00">title </text>
<text text-anchor="start" x="1270.38" y="-521.4" font-family="Arial" font-size="14.00" fill="#666666">[varchar(255)]</text>
<polygon fill="none" stroke="black" points="1237.7,-478.4 1237.7,-509.2 1470.83,-509.2 1470.83,-478.4 1237.7,-478.4"/>
<text text-anchor="start" x="1244.7" y="-490.6" font-family="Arial" font-size="14.00">content </text>
<text text-anchor="start" x="1294.51" y="-490.6" font-family="Arial" font-size="14.00" fill="#666666">[text]</text>
<polygon fill="none" stroke="black" points="1237.7,-447.6 1237.7,-478.4 1470.83,-478.4 1470.83,-447.6 1237.7,-447.6"/>
<text text-anchor="start" x="1244.7" y="-459.8" font-family="Arial" font-size="14.00">is_read </text>
<text text-anchor="start" x="1294.51" y="-459.8" font-family="Arial" font-size="14.00" fill="#666666">[bit]</text>
<polygon fill="none" stroke="black" points="1237.7,-416.8 1237.7,-447.6 1470.83,-447.6 1470.83,-416.8 1237.7,-416.8"/>
<text text-anchor="start" x="1244.7" y="-429" font-family="Arial" font-size="14.00">created_at </text>
<text text-anchor="start" x="1314.75" y="-429" font-family="Arial" font-size="14.00" fill="#666666">[datetime2]</text>
</g>
<!-- notifications&#45;&gt;users -->
<g id="edge11" class="edge">
<title>notifications:user_id&#45;&gt;users:id</title>
<path fill="none" stroke="black" d="M1226.74,-554.81C1147.81,-544.75 1252.47,-407.97 1185.27,-342.8 1084.06,-244.65 705.32,-212.6 564.34,-212.6"/>
<polygon fill="black" stroke="black" points="1226.38,-554.79 1236.1,-559.87 1231.71,-555.11 1236.03,-555.36 1236.03,-555.36 1236.03,-555.36 1231.71,-555.11 1236.63,-550.89 1226.38,-554.79"/>
</g>
</g>
</svg>
