<?xml version="1.0" encoding="UTF-8" standalone="no"?>
<!DOCTYPE svg PUBLIC "-//W3C//DTD SVG 1.1//EN"
 "http://www.w3.org/Graphics/SVG/1.1/DTD/svg11.dtd">
<!-- Generated by graphviz version 2.40.1 (20161225.0304)
 -->
<!-- Title: blog_app Pages: 1 -->
<svg width="1904pt" height="1043pt"
 viewBox="0.00 0.00 1904.00 1043.00" xmlns="http://www.w3.org/2000/svg" xmlns:xlink="http://www.w3.org/1999/xlink">
<g id="graph0" class="graph" transform="scale(1 1) rotate(0) translate(4 1039)">
<title>blog_app</title>
<polygon fill="#ffffff" stroke="transparent" points="-4,4 -4,-1039 1900,-1039 1900,4 -4,4"/>
<!-- users -->
<g id="node1" class="node">
<title>users</title>
<polygon fill="#efefef" stroke="transparent" points="403.5,-222.5 403.5,-257.5 600.5,-257.5 600.5,-222.5 403.5,-222.5"/>
<polygon fill="none" stroke="#000000" points="403.5,-222.5 403.5,-257.5 600.5,-257.5 600.5,-222.5 403.5,-222.5"/>
<text text-anchor="start" x="413.8834" y="-235.3" font-family="Arial Bold" font-size="18.00" fill="#000000">users</text>
<text text-anchor="start" x="457.888" y="-235.3" font-family="Arial" font-size="14.00" fill="#000000">    </text>
<text text-anchor="start" x="492.0928" y="-235.3" font-family="Arial" font-size="14.00" fill="#666666">[BASIC TABLE]</text>
<polygon fill="none" stroke="#000000" points="403.5,-192.5 403.5,-222.5 600.5,-222.5 600.5,-192.5 403.5,-192.5"/>
<text text-anchor="start" x="410.5" y="-203.9" font-family="Arial" font-size="14.00" fill="#000000">id    </text>
<text text-anchor="start" x="455.594" y="-203.9" font-family="Arial" font-size="14.00" fill="#666666">[int]</text>
<polygon fill="none" stroke="#000000" points="403.5,-162.5 403.5,-192.5 600.5,-192.5 600.5,-162.5 403.5,-162.5"/>
<text text-anchor="start" x="410.5" y="-173.9" font-family="Arial" font-size="14.00" fill="#000000">email    </text>
<text text-anchor="start" x="478.1438" y="-173.9" font-family="Arial" font-size="14.00" fill="#666666">[varchar(255)]</text>
<polygon fill="none" stroke="#000000" points="403.5,-132.5 403.5,-162.5 600.5,-162.5 600.5,-132.5 403.5,-132.5"/>
<text text-anchor="start" x="410.2209" y="-143.9" font-family="Arial" font-size="14.00" fill="#000000">username    </text>
<text text-anchor="start" x="506.6599" y="-143.9" font-family="Arial" font-size="14.00" fill="#666666">[varchar(255)]</text>
<polygon fill="none" stroke="#000000" points="403.5,-102.5 403.5,-132.5 600.5,-132.5 600.5,-102.5 403.5,-102.5"/>
<text text-anchor="start" x="410.5" y="-113.9" font-family="Arial" font-size="14.00" fill="#000000">password    </text>
<text text-anchor="start" x="504.6024" y="-113.9" font-family="Arial" font-size="14.00" fill="#666666">[varchar(255)]</text>
<polygon fill="none" stroke="#000000" points="403.5,-72.5 403.5,-102.5 600.5,-102.5 600.5,-72.5 403.5,-72.5"/>
<text text-anchor="start" x="410.5" y="-83.9" font-family="Arial" font-size="14.00" fill="#000000">created_at    </text>
<text text-anchor="start" x="510.8422" y="-83.9" font-family="Arial" font-size="14.00" fill="#666666">[datetime2]</text>
<polygon fill="none" stroke="#000000" points="403.5,-42.5 403.5,-72.5 600.5,-72.5 600.5,-42.5 403.5,-42.5"/>
<text text-anchor="start" x="410.5" y="-53.9" font-family="Arial" font-size="14.00" fill="#000000">updated_at    </text>
<text text-anchor="start" x="514.7468" y="-53.9" font-family="Arial" font-size="14.00" fill="#666666">[datetime2]</text>
</g>
<!-- profiles -->
<g id="node2" class="node">
<title>profiles</title>
<polygon fill="#efefef" stroke="transparent" points="43.5,-619.5 43.5,-654.5 264.5,-654.5 264.5,-619.5 43.5,-619.5"/>
<polygon fill="none" stroke="#000000" points="43.5,-619.5 43.5,-654.5 264.5,-654.5 264.5,-619.5 43.5,-619.5"/>
<text text-anchor="start" x="58.885" y="-632.3" font-family="Arial Bold" font-size="18.00" fill="#000000">profiles</text>
<text text-anchor="start" x="116.8864" y="-632.3" font-family="Arial" font-size="14.00" fill="#000000">    </text>
<text text-anchor="start" x="151.0912" y="-632.3" font-family="Arial" font-size="14.00" fill="#666666">[BASIC TABLE]</text>
<polygon fill="none" stroke="#000000" points="43.5,-589.5 43.5,-619.5 264.5,-619.5 264.5,-589.5 43.5,-589.5"/>
<text text-anchor="start" x="50.5" y="-600.9" font-family="Arial" font-size="14.00" fill="#000000">id    </text>
<text text-anchor="start" x="95.594" y="-600.9" font-family="Arial" font-size="14.00" fill="#666666">[int]</text>
<polygon fill="none" stroke="#000000" points="43.5,-559.5 43.5,-589.5 264.5,-589.5 264.5,-559.5 43.5,-559.5"/>
<text text-anchor="start" x="50.5" y="-570.9" font-family="Arial" font-size="14.00" fill="#000000">user_id    </text>
<text text-anchor="start" x="130.6024" y="-570.9" font-family="Arial" font-size="14.00" fill="#666666">[int]</text>
<polygon fill="none" stroke="#000000" points="43.5,-529.5 43.5,-559.5 264.5,-559.5 264.5,-529.5 43.5,-529.5"/>
<text text-anchor="start" x="50.5" y="-540.9" font-family="Arial" font-size="14.00" fill="#000000">first_name    </text>
<text text-anchor="start" x="150.0442" y="-540.9" font-family="Arial" font-size="14.00" fill="#666666">[varchar(255)]</text>
<polygon fill="none" stroke="#000000" points="43.5,-499.5 43.5,-529.5 264.5,-529.5 264.5,-499.5 43.5,-499.5"/>
<text text-anchor="start" x="50.5" y="-510.9" font-family="Arial" font-size="14.00" fill="#000000">last_name    </text>
<text text-anchor="start" x="149.2756" y="-510.9" font-family="Arial" font-size="14.00" fill="#666666">[varchar(255)]</text>
<polygon fill="none" stroke="#000000" points="43.5,-469.5 43.5,-499.5 264.5,-499.5 264.5,-469.5 43.5,-469.5"/>
<text text-anchor="start" x="50.5" y="-480.9" font-family="Arial" font-size="14.00" fill="#000000">bio    </text>
<text text-anchor="start" x="103.3766" y="-480.9" font-family="Arial" font-size="14.00" fill="#666666">[text]</text>
<polygon fill="none" stroke="#000000" points="43.5,-439.5 43.5,-469.5 264.5,-469.5 264.5,-439.5 43.5,-439.5"/>
<text text-anchor="start" x="50.5" y="-450.9" font-family="Arial" font-size="14.00" fill="#000000">avatar    </text>
<text text-anchor="start" x="123.6038" y="-450.9" font-family="Arial" font-size="14.00" fill="#666666">[varchar(255)]</text>
<polygon fill="none" stroke="#000000" points="43.5,-409.5 43.5,-439.5 264.5,-439.5 264.5,-409.5 43.5,-409.5"/>
<text text-anchor="start" x="50.5" y="-420.9" font-family="Arial" font-size="14.00" fill="#000000">birth_date    </text>
<text text-anchor="start" x="146.9488" y="-420.9" font-family="Arial" font-size="14.00" fill="#666666">[date]</text>
<polygon fill="none" stroke="#000000" points="43.5,-379.5 43.5,-409.5 264.5,-409.5 264.5,-379.5 43.5,-379.5"/>
<text text-anchor="start" x="50.1557" y="-390.9" font-family="Arial" font-size="14.00" fill="#000000">phone_number    </text>
<text text-anchor="start" x="178.5077" y="-390.9" font-family="Arial" font-size="14.00" fill="#666666">[varchar(20)]</text>
</g>
<!-- profiles&#45;&gt;users -->
<g id="edge1" class="edge">
<title>profiles:user_id&#45;&gt;users:id</title>
<path fill="none" stroke="#000000" d="M274.6559,-574.0516C366.9724,-565.4094 280.63,-433.6637 321.5,-337 348.0293,-274.2542 335.3763,-207.5 403.5,-207.5"/>
<polygon fill="#000000" stroke="#000000" points="274.4903,-574.0588 264.3015,-570.0044 269.4951,-574.2794 264.5,-574.5 264.5,-574.5 264.5,-574.5 269.4951,-574.2794 264.6985,-578.9956 274.4903,-574.0588 274.4903,-574.0588"/>
</g>
<!-- posts -->
<g id="node3" class="node">
<title>posts</title>
<polygon fill="#efefef" stroke="transparent" points="407.5,-604.5 407.5,-639.5 596.5,-639.5 596.5,-604.5 407.5,-604.5"/>
<polygon fill="none" stroke="#000000" points="407.5,-604.5 407.5,-639.5 596.5,-639.5 596.5,-604.5 407.5,-604.5"/>
<text text-anchor="start" x="414.3784" y="-617.3" font-family="Arial Bold" font-size="18.00" fill="#000000">posts</text>
<text text-anchor="start" x="457.393" y="-617.3" font-family="Arial" font-size="14.00" fill="#000000">    </text>
<text text-anchor="start" x="491.5978" y="-617.3" font-family="Arial" font-size="14.00" fill="#666666">[BASIC TABLE]</text>
<polygon fill="none" stroke="#000000" points="407.5,-574.5 407.5,-604.5 596.5,-604.5 596.5,-574.5 407.5,-574.5"/>
<text text-anchor="start" x="414.5" y="-585.9" font-family="Arial" font-size="14.00" fill="#000000">id    </text>
<text text-anchor="start" x="459.594" y="-585.9" font-family="Arial" font-size="14.00" fill="#666666">[int]</text>
<polygon fill="none" stroke="#000000" points="407.5,-544.5 407.5,-574.5 596.5,-574.5 596.5,-544.5 407.5,-544.5"/>
<text text-anchor="start" x="414.5" y="-555.9" font-family="Arial" font-size="14.00" fill="#000000">title    </text>
<text text-anchor="start" x="470.4818" y="-555.9" font-family="Arial" font-size="14.00" fill="#666666">[varchar(255)]</text>
<polygon fill="none" stroke="#000000" points="407.5,-514.5 407.5,-544.5 596.5,-544.5 596.5,-514.5 407.5,-514.5"/>
<text text-anchor="start" x="414.5" y="-525.9" font-family="Arial" font-size="14.00" fill="#000000">content    </text>
<text text-anchor="start" x="494.6164" y="-525.9" font-family="Arial" font-size="14.00" fill="#666666">[text]</text>
<polygon fill="none" stroke="#000000" points="407.5,-484.5 407.5,-514.5 596.5,-514.5 596.5,-484.5 407.5,-484.5"/>
<text text-anchor="start" x="414.5" y="-495.9" font-family="Arial" font-size="14.00" fill="#000000">published    </text>
<text text-anchor="start" x="508.6136" y="-495.9" font-family="Arial" font-size="14.00" fill="#666666">[bit]</text>
<polygon fill="none" stroke="#000000" points="407.5,-454.5 407.5,-484.5 596.5,-484.5 596.5,-454.5 407.5,-454.5"/>
<text text-anchor="start" x="414.5" y="-465.9" font-family="Arial" font-size="14.00" fill="#000000">created_at    </text>
<text text-anchor="start" x="514.8422" y="-465.9" font-family="Arial" font-size="14.00" fill="#666666">[datetime2]</text>
<polygon fill="none" stroke="#000000" points="407.5,-424.5 407.5,-454.5 596.5,-454.5 596.5,-424.5 407.5,-424.5"/>
<text text-anchor="start" x="414.5" y="-435.9" font-family="Arial" font-size="14.00" fill="#000000">updated_at    </text>
<text text-anchor="start" x="518.7468" y="-435.9" font-family="Arial" font-size="14.00" fill="#666666">[datetime2]</text>
<polygon fill="none" stroke="#000000" points="407.5,-394.5 407.5,-424.5 596.5,-424.5 596.5,-394.5 407.5,-394.5"/>
<text text-anchor="start" x="414.5" y="-405.9" font-family="Arial" font-size="14.00" fill="#000000">author_id    </text>
<text text-anchor="start" x="507.0582" y="-405.9" font-family="Arial" font-size="14.00" fill="#666666">[int]</text>
</g>
<!-- posts&#45;&gt;users -->
<g id="edge2" class="edge">
<title>posts:author_id&#45;&gt;users:id</title>
<path fill="none" stroke="#000000" d="M501.7027,-384.3852C493.6,-336.4285 426.0063,-353.2131 403.5,-301 387.0507,-262.8387 361.9444,-207.5 403.5,-207.5"/>
<polygon fill="#000000" stroke="#000000" points="501.7141,-384.5309 498.0139,-394.8537 502.107,-389.5155 502.5,-394.5 502.5,-394.5 502.5,-394.5 502.107,-389.5155 506.9861,-394.1463 501.7141,-384.5309 501.7141,-384.5309"/>
</g>
<!-- comments -->
<g id="node4" class="node">
<title>comments</title>
<polygon fill="#efefef" stroke="transparent" points="271.5,-956.5 271.5,-991.5 500.5,-991.5 500.5,-956.5 271.5,-956.5"/>
<polygon fill="none" stroke="#000000" points="271.5,-956.5 271.5,-991.5 500.5,-991.5 500.5,-956.5 271.5,-956.5"/>
<text text-anchor="start" x="278.3831" y="-969.3" font-family="Arial Bold" font-size="18.00" fill="#000000">comments</text>
<text text-anchor="start" x="361.3883" y="-969.3" font-family="Arial" font-size="14.00" fill="#000000">    </text>
<text text-anchor="start" x="395.5931" y="-969.3" font-family="Arial" font-size="14.00" fill="#666666">[BASIC TABLE]</text>
<polygon fill="none" stroke="#000000" points="271.5,-926.5 271.5,-956.5 500.5,-956.5 500.5,-926.5 271.5,-926.5"/>
<text text-anchor="start" x="278.5" y="-937.9" font-family="Arial" font-size="14.00" fill="#000000">id    </text>
<text text-anchor="start" x="323.594" y="-937.9" font-family="Arial" font-size="14.00" fill="#666666">[int]</text>
<polygon fill="none" stroke="#000000" points="271.5,-896.5 271.5,-926.5 500.5,-926.5 500.5,-896.5 271.5,-896.5"/>
<text text-anchor="start" x="278.5" y="-907.9" font-family="Arial" font-size="14.00" fill="#000000">content    </text>
<text text-anchor="start" x="358.6164" y="-907.9" font-family="Arial" font-size="14.00" fill="#666666">[text]</text>
<polygon fill="none" stroke="#000000" points="271.5,-866.5 271.5,-896.5 500.5,-896.5 500.5,-866.5 271.5,-866.5"/>
<text text-anchor="start" x="278.5" y="-877.9" font-family="Arial" font-size="14.00" fill="#000000">created_at    </text>
<text text-anchor="start" x="378.8422" y="-877.9" font-family="Arial" font-size="14.00" fill="#666666">[datetime2]</text>
<polygon fill="none" stroke="#000000" points="271.5,-836.5 271.5,-866.5 500.5,-866.5 500.5,-836.5 271.5,-836.5"/>
<text text-anchor="start" x="278.5" y="-847.9" font-family="Arial" font-size="14.00" fill="#000000">updated_at    </text>
<text text-anchor="start" x="382.7468" y="-847.9" font-family="Arial" font-size="14.00" fill="#666666">[datetime2]</text>
<polygon fill="none" stroke="#000000" points="271.5,-806.5 271.5,-836.5 500.5,-836.5 500.5,-806.5 271.5,-806.5"/>
<text text-anchor="start" x="278.5" y="-817.9" font-family="Arial" font-size="14.00" fill="#000000">post_id    </text>
<text text-anchor="start" x="357.8324" y="-817.9" font-family="Arial" font-size="14.00" fill="#666666">[int]</text>
<polygon fill="none" stroke="#000000" points="271.5,-776.5 271.5,-806.5 500.5,-806.5 500.5,-776.5 271.5,-776.5"/>
<text text-anchor="start" x="278.5" y="-787.9" font-family="Arial" font-size="14.00" fill="#000000">author_id    </text>
<text text-anchor="start" x="371.0582" y="-787.9" font-family="Arial" font-size="14.00" fill="#666666">[int]</text>
</g>
<!-- comments&#45;&gt;users -->
<g id="edge3" class="edge">
<title>comments:author_id&#45;&gt;users:id</title>
<path fill="none" stroke="#000000" d="M385.8312,-766.3674C381.8323,-737.7557 361.0387,-731.3623 354.5,-698 323.6412,-540.5511 325.6392,-494.8274 354.5,-337 365.5694,-276.4659 341.9621,-207.5 403.5,-207.5"/>
<polygon fill="#000000" stroke="#000000" points="385.8412,-766.5217 382.0098,-776.7964 386.1706,-771.5109 386.5,-776.5 386.5,-776.5 386.5,-776.5 386.1706,-771.5109 390.9902,-776.2036 385.8412,-766.5217 385.8412,-766.5217"/>
</g>
<!-- comments&#45;&gt;posts -->
<g id="edge4" class="edge">
<title>comments:post_id&#45;&gt;posts:id</title>
<path fill="none" stroke="#000000" d="M510.6152,-819.906C535.5066,-810.7359 518.3013,-764.0643 500.5,-734 476.4822,-693.4368 431.5178,-723.5632 407.5,-683 386.3277,-647.2425 365.9444,-589.5 407.5,-589.5"/>
<polygon fill="#000000" stroke="#000000" points="510.3781,-819.9433 499.7995,-817.0549 505.4391,-820.7216 500.5,-821.5 500.5,-821.5 500.5,-821.5 505.4391,-820.7216 501.2005,-825.9451 510.3781,-819.9433 510.3781,-819.9433"/>
</g>
<!-- tags -->
<g id="node5" class="node">
<title>tags</title>
<polygon fill="#efefef" stroke="transparent" points="700.5,-529.5 700.5,-564.5 880.5,-564.5 880.5,-529.5 700.5,-529.5"/>
<polygon fill="none" stroke="#000000" points="700.5,-529.5 700.5,-564.5 880.5,-564.5 880.5,-529.5 700.5,-529.5"/>
<text text-anchor="start" x="707.3784" y="-542.3" font-family="Arial Bold" font-size="18.00" fill="#000000">tags</text>
<text text-anchor="start" x="741.393" y="-542.3" font-family="Arial" font-size="14.00" fill="#000000">    </text>
<text text-anchor="start" x="775.5978" y="-542.3" font-family="Arial" font-size="14.00" fill="#666666">[BASIC TABLE]</text>
<polygon fill="none" stroke="#000000" points="700.5,-499.5 700.5,-529.5 880.5,-529.5 880.5,-499.5 700.5,-499.5"/>
<text text-anchor="start" x="707.5" y="-510.9" font-family="Arial" font-size="14.00" fill="#000000">id    </text>
<text text-anchor="start" x="752.594" y="-510.9" font-family="Arial" font-size="14.00" fill="#666666">[int]</text>
<polygon fill="none" stroke="#000000" points="700.5,-469.5 700.5,-499.5 880.5,-499.5 880.5,-469.5 700.5,-469.5"/>
<text text-anchor="start" x="707.5" y="-480.9" font-family="Arial" font-size="14.00" fill="#000000">name    </text>
<text text-anchor="start" x="776.7132" y="-480.9" font-family="Arial" font-size="14.00" fill="#666666">[varchar(255)]</text>
</g>
<!-- posts_tags -->
<g id="node6" class="node">
<title>posts_tags</title>
<polygon fill="#efefef" stroke="transparent" points="640.5,-896.5 640.5,-931.5 873.5,-931.5 873.5,-896.5 640.5,-896.5"/>
<polygon fill="none" stroke="#000000" points="640.5,-896.5 640.5,-931.5 873.5,-931.5 873.5,-896.5 640.5,-896.5"/>
<text text-anchor="start" x="647.368" y="-909.3" font-family="Arial Bold" font-size="18.00" fill="#000000">posts_tags</text>
<text text-anchor="start" x="734.4034" y="-909.3" font-family="Arial" font-size="14.00" fill="#000000">    </text>
<text text-anchor="start" x="768.6082" y="-909.3" font-family="Arial" font-size="14.00" fill="#666666">[BASIC TABLE]</text>
<polygon fill="none" stroke="#000000" points="640.5,-866.5 640.5,-896.5 873.5,-896.5 873.5,-866.5 640.5,-866.5"/>
<text text-anchor="start" x="647.5" y="-877.9" font-family="Arial" font-size="14.00" fill="#000000">post_id    </text>
<text text-anchor="start" x="726.8324" y="-877.9" font-family="Arial" font-size="14.00" fill="#666666">[int]</text>
<polygon fill="none" stroke="#000000" points="640.5,-836.5 640.5,-866.5 873.5,-866.5 873.5,-836.5 640.5,-836.5"/>
<text text-anchor="start" x="647.5" y="-847.9" font-family="Arial" font-size="14.00" fill="#000000">tag_id    </text>
<text text-anchor="start" x="719.8324" y="-847.9" font-family="Arial" font-size="14.00" fill="#666666">[int]</text>
</g>
<!-- posts_tags&#45;&gt;posts -->
<g id="edge5" class="edge">
<title>posts_tags:post_id&#45;&gt;posts:id</title>
<path fill="none" stroke="#000000" d="M630.5041,-880.857C520.9441,-865.7496 724.1542,-589.5 596.5,-589.5"/>
<polygon fill="#000000" stroke="#000000" points="630.5206,-880.8579 640.2111,-885.9907 635.5103,-881.179 640.5,-881.5 640.5,-881.5 640.5,-881.5 635.5103,-881.179 640.7889,-877.0093 630.5206,-880.8579 630.5206,-880.8579"/>
</g>
<!-- posts_tags&#45;&gt;tags -->
<g id="edge6" class="edge">
<title>posts_tags:tag_id&#45;&gt;tags:id</title>
<path fill="none" stroke="#000000" d="M757.1736,-826.2321C748.2065,-682.9799 558.5703,-514.5 700.5,-514.5"/>
<polygon fill="#000000" stroke="#000000" points="757.1822,-826.505 753.0023,-836.643 757.3411,-831.5025 757.5,-836.5 757.5,-836.5 757.5,-836.5 757.3411,-831.5025 761.9977,-836.357 757.1822,-826.505 757.1822,-826.505"/>
</g>
<!-- categories -->
<g id="node7" class="node">
<title>categories</title>
<polygon fill="#efefef" stroke="transparent" points="1624.5,-162.5 1624.5,-197.5 1853.5,-197.5 1853.5,-162.5 1624.5,-162.5"/>
<polygon fill="none" stroke="#000000" points="1624.5,-162.5 1624.5,-197.5 1853.5,-197.5 1853.5,-162.5 1624.5,-162.5"/>
<text text-anchor="start" x="1631.3759" y="-175.3" font-family="Arial Bold" font-size="18.00" fill="#000000">categories</text>
<text text-anchor="start" x="1714.3955" y="-175.3" font-family="Arial" font-size="14.00" fill="#000000">    </text>
<text text-anchor="start" x="1748.6003" y="-175.3" font-family="Arial" font-size="14.00" fill="#666666">[BASIC TABLE]</text>
<polygon fill="none" stroke="#000000" points="1624.5,-132.5 1624.5,-162.5 1853.5,-162.5 1853.5,-132.5 1624.5,-132.5"/>
<text text-anchor="start" x="1631.5" y="-143.9" font-family="Arial" font-size="14.00" fill="#000000">id    </text>
<text text-anchor="start" x="1676.594" y="-143.9" font-family="Arial" font-size="14.00" fill="#666666">[int]</text>
<polygon fill="none" stroke="#000000" points="1624.5,-102.5 1624.5,-132.5 1853.5,-132.5 1853.5,-102.5 1624.5,-102.5"/>
<text text-anchor="start" x="1631.5" y="-113.9" font-family="Arial" font-size="14.00" fill="#000000">name    </text>
<text text-anchor="start" x="1700.7132" y="-113.9" font-family="Arial" font-size="14.00" fill="#666666">[varchar(255)]</text>
</g>
<!-- products -->
<g id="node8" class="node">
<title>products</title>
<polygon fill="#efefef" stroke="transparent" points="1631.5,-619.5 1631.5,-654.5 1846.5,-654.5 1846.5,-619.5 1631.5,-619.5"/>
<polygon fill="none" stroke="#000000" points="1631.5,-619.5 1631.5,-654.5 1846.5,-654.5 1846.5,-619.5 1631.5,-619.5"/>
<text text-anchor="start" x="1638.3761" y="-632.3" font-family="Arial Bold" font-size="18.00" fill="#000000">products</text>
<text text-anchor="start" x="1707.3953" y="-632.3" font-family="Arial" font-size="14.00" fill="#000000">    </text>
<text text-anchor="start" x="1741.6001" y="-632.3" font-family="Arial" font-size="14.00" fill="#666666">[BASIC TABLE]</text>
<polygon fill="none" stroke="#000000" points="1631.5,-589.5 1631.5,-619.5 1846.5,-619.5 1846.5,-589.5 1631.5,-589.5"/>
<text text-anchor="start" x="1638.5" y="-600.9" font-family="Arial" font-size="14.00" fill="#000000">id    </text>
<text text-anchor="start" x="1683.594" y="-600.9" font-family="Arial" font-size="14.00" fill="#666666">[int]</text>
<polygon fill="none" stroke="#000000" points="1631.5,-559.5 1631.5,-589.5 1846.5,-589.5 1846.5,-559.5 1631.5,-559.5"/>
<text text-anchor="start" x="1638.5" y="-570.9" font-family="Arial" font-size="14.00" fill="#000000">name    </text>
<text text-anchor="start" x="1707.7132" y="-570.9" font-family="Arial" font-size="14.00" fill="#666666">[varchar(255)]</text>
<polygon fill="none" stroke="#000000" points="1631.5,-529.5 1631.5,-559.5 1846.5,-559.5 1846.5,-529.5 1631.5,-529.5"/>
<text text-anchor="start" x="1638.5" y="-540.9" font-family="Arial" font-size="14.00" fill="#000000">description    </text>
<text text-anchor="start" x="1740.3822" y="-540.9" font-family="Arial" font-size="14.00" fill="#666666">[text]</text>
<polygon fill="none" stroke="#000000" points="1631.5,-499.5 1631.5,-529.5 1846.5,-529.5 1846.5,-499.5 1631.5,-499.5"/>
<text text-anchor="start" x="1638.5" y="-510.9" font-family="Arial" font-size="14.00" fill="#000000">price    </text>
<text text-anchor="start" x="1703.0372" y="-510.9" font-family="Arial" font-size="14.00" fill="#666666">[decimal]</text>
<polygon fill="none" stroke="#000000" points="1631.5,-469.5 1631.5,-499.5 1846.5,-499.5 1846.5,-469.5 1631.5,-469.5"/>
<text text-anchor="start" x="1638.5" y="-480.9" font-family="Arial" font-size="14.00" fill="#000000">stock    </text>
<text text-anchor="start" x="1705.378" y="-480.9" font-family="Arial" font-size="14.00" fill="#666666">[int]</text>
<polygon fill="none" stroke="#000000" points="1631.5,-439.5 1631.5,-469.5 1846.5,-469.5 1846.5,-439.5 1631.5,-439.5"/>
<text text-anchor="start" x="1638.5" y="-450.9" font-family="Arial" font-size="14.00" fill="#000000">created_at    </text>
<text text-anchor="start" x="1738.8422" y="-450.9" font-family="Arial" font-size="14.00" fill="#666666">[datetime2]</text>
<polygon fill="none" stroke="#000000" points="1631.5,-409.5 1631.5,-439.5 1846.5,-439.5 1846.5,-409.5 1631.5,-409.5"/>
<text text-anchor="start" x="1638.5" y="-420.9" font-family="Arial" font-size="14.00" fill="#000000">updated_at    </text>
<text text-anchor="start" x="1742.7468" y="-420.9" font-family="Arial" font-size="14.00" fill="#666666">[datetime2]</text>
<polygon fill="none" stroke="#000000" points="1631.5,-379.5 1631.5,-409.5 1846.5,-409.5 1846.5,-379.5 1631.5,-379.5"/>
<text text-anchor="start" x="1638.5" y="-390.9" font-family="Arial" font-size="14.00" fill="#000000">category_id    </text>
<text text-anchor="start" x="1745.0582" y="-390.9" font-family="Arial" font-size="14.00" fill="#666666">[int]</text>
</g>
<!-- products&#45;&gt;categories -->
<g id="edge7" class="edge">
<title>products:category_id&#45;&gt;categories:id</title>
<path fill="none" stroke="#000000" d="M1738.9817,-369.2863C1731.7314,-300.8114 1650.4496,-312.8738 1624.5,-241 1610.3882,-201.9139 1582.9444,-147.5 1624.5,-147.5"/>
<polygon fill="#000000" stroke="#000000" points="1738.9931,-369.5128 1735.0058,-379.7281 1739.2466,-374.5064 1739.5,-379.5 1739.5,-379.5 1739.5,-379.5 1739.2466,-374.5064 1743.9942,-379.2719 1738.9931,-369.5128 1738.9931,-369.5128"/>
</g>
<!-- orders -->
<g id="node9" class="node">
<title>orders</title>
<polygon fill="#efefef" stroke="transparent" points="985.5,-589.5 985.5,-624.5 1182.5,-624.5 1182.5,-589.5 985.5,-589.5"/>
<polygon fill="none" stroke="#000000" points="985.5,-589.5 985.5,-624.5 1182.5,-624.5 1182.5,-589.5 985.5,-589.5"/>
<text text-anchor="start" x="992.3842" y="-602.3" font-family="Arial Bold" font-size="18.00" fill="#000000">orders</text>
<text text-anchor="start" x="1043.3872" y="-602.3" font-family="Arial" font-size="14.00" fill="#000000">    </text>
<text text-anchor="start" x="1077.592" y="-602.3" font-family="Arial" font-size="14.00" fill="#666666">[BASIC TABLE]</text>
<polygon fill="none" stroke="#000000" points="985.5,-559.5 985.5,-589.5 1182.5,-589.5 1182.5,-559.5 985.5,-559.5"/>
<text text-anchor="start" x="992.5" y="-570.9" font-family="Arial" font-size="14.00" fill="#000000">id    </text>
<text text-anchor="start" x="1037.594" y="-570.9" font-family="Arial" font-size="14.00" fill="#666666">[int]</text>
<polygon fill="none" stroke="#000000" points="985.5,-529.5 985.5,-559.5 1182.5,-559.5 1182.5,-529.5 985.5,-529.5"/>
<text text-anchor="start" x="992.5" y="-540.9" font-family="Arial" font-size="14.00" fill="#000000">user_id    </text>
<text text-anchor="start" x="1072.6024" y="-540.9" font-family="Arial" font-size="14.00" fill="#666666">[int]</text>
<polygon fill="none" stroke="#000000" points="985.5,-499.5 985.5,-529.5 1182.5,-529.5 1182.5,-499.5 985.5,-499.5"/>
<text text-anchor="start" x="992.5" y="-510.9" font-family="Arial" font-size="14.00" fill="#000000">status    </text>
<text text-anchor="start" x="1064.0512" y="-510.9" font-family="Arial" font-size="14.00" fill="#666666">[varchar(20)]</text>
<polygon fill="none" stroke="#000000" points="985.5,-469.5 985.5,-499.5 1182.5,-499.5 1182.5,-469.5 985.5,-469.5"/>
<text text-anchor="start" x="992.5" y="-480.9" font-family="Arial" font-size="14.00" fill="#000000">total_price    </text>
<text text-anchor="start" x="1091.2728" y="-480.9" font-family="Arial" font-size="14.00" fill="#666666">[decimal]</text>
<polygon fill="none" stroke="#000000" points="985.5,-439.5 985.5,-469.5 1182.5,-469.5 1182.5,-439.5 985.5,-439.5"/>
<text text-anchor="start" x="992.5" y="-450.9" font-family="Arial" font-size="14.00" fill="#000000">created_at    </text>
<text text-anchor="start" x="1092.8422" y="-450.9" font-family="Arial" font-size="14.00" fill="#666666">[datetime2]</text>
<polygon fill="none" stroke="#000000" points="985.5,-409.5 985.5,-439.5 1182.5,-439.5 1182.5,-409.5 985.5,-409.5"/>
<text text-anchor="start" x="992.5" y="-420.9" font-family="Arial" font-size="14.00" fill="#000000">updated_at    </text>
<text text-anchor="start" x="1096.7468" y="-420.9" font-family="Arial" font-size="14.00" fill="#666666">[datetime2]</text>
</g>
<!-- orders&#45;&gt;users -->
<g id="edge8" class="edge">
<title>orders:user_id&#45;&gt;users:id</title>
<path fill="none" stroke="#000000" d="M975.2413,-543.8884C898.284,-533.9567 993.1181,-405.4929 932.5,-337 827.5319,-218.3957 758.8833,-207.5 600.5,-207.5"/>
<polygon fill="#000000" stroke="#000000" points="975.5177,-543.9048 985.2322,-548.992 980.5089,-544.2024 985.5,-544.5 985.5,-544.5 985.5,-544.5 980.5089,-544.2024 985.7678,-540.008 975.5177,-543.9048 975.5177,-543.9048"/>
</g>
<!-- order_items -->
<g id="node10" class="node">
<title>order_items</title>
<polygon fill="#efefef" stroke="transparent" points="995.5,-941.5 995.5,-976.5 1236.5,-976.5 1236.5,-941.5 995.5,-941.5"/>
<polygon fill="none" stroke="#000000" points="995.5,-941.5 995.5,-976.5 1236.5,-976.5 1236.5,-941.5 995.5,-941.5"/>
<text text-anchor="start" x="1002.3837" y="-954.3" font-family="Arial Bold" font-size="18.00" fill="#000000">order_items</text>
<text text-anchor="start" x="1097.3877" y="-954.3" font-family="Arial" font-size="14.00" fill="#000000">    </text>
<text text-anchor="start" x="1131.5925" y="-954.3" font-family="Arial" font-size="14.00" fill="#666666">[BASIC TABLE]</text>
<polygon fill="none" stroke="#000000" points="995.5,-911.5 995.5,-941.5 1236.5,-941.5 1236.5,-911.5 995.5,-911.5"/>
<text text-anchor="start" x="1002.5" y="-922.9" font-family="Arial" font-size="14.00" fill="#000000">id    </text>
<text text-anchor="start" x="1047.594" y="-922.9" font-family="Arial" font-size="14.00" fill="#666666">[int]</text>
<polygon fill="none" stroke="#000000" points="995.5,-881.5 995.5,-911.5 1236.5,-911.5 1236.5,-881.5 995.5,-881.5"/>
<text text-anchor="start" x="1002.5" y="-892.9" font-family="Arial" font-size="14.00" fill="#000000">order_id    </text>
<text text-anchor="start" x="1088.0456" y="-892.9" font-family="Arial" font-size="14.00" fill="#666666">[int]</text>
<polygon fill="none" stroke="#000000" points="995.5,-851.5 995.5,-881.5 1236.5,-881.5 1236.5,-851.5 995.5,-851.5"/>
<text text-anchor="start" x="1002.5" y="-862.9" font-family="Arial" font-size="14.00" fill="#000000">product_id    </text>
<text text-anchor="start" x="1102.0582" y="-862.9" font-family="Arial" font-size="14.00" fill="#666666">[int]</text>
<polygon fill="none" stroke="#000000" points="995.5,-821.5 995.5,-851.5 1236.5,-851.5 1236.5,-821.5 995.5,-821.5"/>
<text text-anchor="start" x="1002.5" y="-832.9" font-family="Arial" font-size="14.00" fill="#000000">quantity    </text>
<text text-anchor="start" x="1085.723" y="-832.9" font-family="Arial" font-size="14.00" fill="#666666">[int]</text>
<polygon fill="none" stroke="#000000" points="995.5,-791.5 995.5,-821.5 1236.5,-821.5 1236.5,-791.5 995.5,-791.5"/>
<text text-anchor="start" x="1002.5" y="-802.9" font-family="Arial" font-size="14.00" fill="#000000">price    </text>
<text text-anchor="start" x="1067.0372" y="-802.9" font-family="Arial" font-size="14.00" fill="#666666">[decimal]</text>
</g>
<!-- order_items&#45;&gt;products -->
<g id="edge10" class="edge">
<title>order_items:product_id&#45;&gt;products:id</title>
<path fill="none" stroke="#000000" d="M1246.8,-866.4349C1408.429,-864.3602 1458.9068,-812.6031 1579.5,-698 1613.968,-665.2441 1583.9502,-604.5 1631.5,-604.5"/>
<polygon fill="#000000" stroke="#000000" points="1246.4998,-866.4367 1236.4715,-862.0001 1241.4999,-866.4684 1236.5,-866.5 1236.5,-866.5 1236.5,-866.5 1241.4999,-866.4684 1236.5285,-870.9999 1246.4998,-866.4367 1246.4998,-866.4367"/>
</g>
<!-- order_items&#45;&gt;orders -->
<g id="edge9" class="edge">
<title>order_items:order_id&#45;&gt;orders:id</title>
<path fill="none" stroke="#000000" d="M985.2601,-895.6315C933.3151,-886.1202 961.5561,-800.6943 995.5,-749 1045.2133,-673.2898 1132.7867,-743.7102 1182.5,-668 1205.3089,-633.2636 1224.0556,-574.5 1182.5,-574.5"/>
<polygon fill="#000000" stroke="#000000" points="985.5358,-895.6548 995.1197,-900.9839 990.5179,-896.0774 995.5,-896.5 995.5,-896.5 995.5,-896.5 990.5179,-896.0774 995.8803,-892.0161 985.5358,-895.6548 985.5358,-895.6548"/>
</g>
<!-- notifications -->
<g id="node11" class="node">
<title>notifications</title>
<polygon fill="#efefef" stroke="transparent" points="1286.5,-589.5 1286.5,-624.5 1527.5,-624.5 1527.5,-589.5 1286.5,-589.5"/>
<polygon fill="none" stroke="#000000" points="1286.5,-589.5 1286.5,-624.5 1527.5,-624.5 1527.5,-589.5 1286.5,-589.5"/>
<text text-anchor="start" x="1293.3756" y="-602.3" font-family="Arial Bold" font-size="18.00" fill="#000000">notifications</text>
<text text-anchor="start" x="1388.3958" y="-602.3" font-family="Arial" font-size="14.00" fill="#000000">    </text>
<text text-anchor="start" x="1422.6006" y="-602.3" font-family="Arial" font-size="14.00" fill="#666666">[BASIC TABLE]</text>
<polygon fill="none" stroke="#000000" points="1286.5,-559.5 1286.5,-589.5 1527.5,-589.5 1527.5,-559.5 1286.5,-559.5"/>
<text text-anchor="start" x="1293.5" y="-570.9" font-family="Arial" font-size="14.00" fill="#000000">id    </text>
<text text-anchor="start" x="1338.594" y="-570.9" font-family="Arial" font-size="14.00" fill="#666666">[int]</text>
<polygon fill="none" stroke="#000000" points="1286.5,-529.5 1286.5,-559.5 1527.5,-559.5 1527.5,-529.5 1286.5,-529.5"/>
<text text-anchor="start" x="1293.5" y="-540.9" font-family="Arial" font-size="14.00" fill="#000000">user_id    </text>
<text text-anchor="start" x="1373.6024" y="-540.9" font-family="Arial" font-size="14.00" fill="#666666">[int]</text>
<polygon fill="none" stroke="#000000" points="1286.5,-499.5 1286.5,-529.5 1527.5,-529.5 1527.5,-499.5 1286.5,-499.5"/>
<text text-anchor="start" x="1293.5" y="-510.9" font-family="Arial" font-size="14.00" fill="#000000">title    </text>
<text text-anchor="start" x="1349.4818" y="-510.9" font-family="Arial" font-size="14.00" fill="#666666">[varchar(255)]</text>
<polygon fill="none" stroke="#000000" points="1286.5,-469.5 1286.5,-499.5 1527.5,-499.5 1527.5,-469.5 1286.5,-469.5"/>
<text text-anchor="start" x="1293.5" y="-480.9" font-family="Arial" font-size="14.00" fill="#000000">content    </text>
<text text-anchor="start" x="1373.6164" y="-480.9" font-family="Arial" font-size="14.00" fill="#666666">[text]</text>
<polygon fill="none" stroke="#000000" points="1286.5,-439.5 1286.5,-469.5 1527.5,-469.5 1527.5,-439.5 1286.5,-439.5"/>
<text text-anchor="start" x="1293.5" y="-450.9" font-family="Arial" font-size="14.00" fill="#000000">is_read    </text>
<text text-anchor="start" x="1373.6024" y="-450.9" font-family="Arial" font-size="14.00" fill="#666666">[bit]</text>
<polygon fill="none" stroke="#000000" points="1286.5,-409.5 1286.5,-439.5 1527.5,-439.5 1527.5,-409.5 1286.5,-409.5"/>
<text text-anchor="start" x="1293.5" y="-420.9" font-family="Arial" font-size="14.00" fill="#000000">created_at    </text>
<text text-anchor="start" x="1393.8422" y="-420.9" font-family="Arial" font-size="14.00" fill="#666666">[datetime2]</text>
</g>
<!-- notifications&#45;&gt;users -->
<g id="edge11" class="edge">
<title>notifications:user_id&#45;&gt;users:id</title>
<path fill="none" stroke="#000000" d="M1276.2823,-543.864C1199.8824,-533.5403 1300.5087,-400.1627 1234.5,-337 1130.6044,-237.584 744.2979,-207.5 600.5,-207.5"/>
<polygon fill="#000000" stroke="#000000" points="1276.5193,-543.8787 1286.2204,-548.9913 1281.5097,-544.1893 1286.5,-544.5 1286.5,-544.5 1286.5,-544.5 1281.5097,-544.1893 1286.7796,-540.0087 1276.5193,-543.8787 1276.5193,-543.8787"/>
</g>
</g>
</svg>
