<?xml version="1.0" encoding="UTF-8" standalone="no"?>
<!DOCTYPE svg PUBLIC "-//W3C//DTD SVG 1.1//EN"
 "http://www.w3.org/Graphics/SVG/1.1/DTD/svg11.dtd">
<!-- Generated by graphviz version 2.40.1 (20161225.0304)
 -->
<!-- Title: tags Pages: 1 -->
<svg width="327pt" height="412pt"
 viewBox="0.00 0.00 327.00 412.00" xmlns="http://www.w3.org/2000/svg" xmlns:xlink="http://www.w3.org/1999/xlink">
<g id="graph0" class="graph" transform="scale(1 1) rotate(0) translate(4 408)">
<title>tags</title>
<polygon fill="#ffffff" stroke="transparent" points="-4,4 -4,-408 323,-408 323,4 -4,4"/>
<!-- tags -->
<g id="node1" class="node">
<title>tags</title>
<polygon fill="#efefef" stroke="transparent" points="70.5,-105.5 70.5,-140.5 250.5,-140.5 250.5,-105.5 70.5,-105.5"/>
<polygon fill="none" stroke="#000000" points="70.5,-105.5 70.5,-140.5 250.5,-140.5 250.5,-105.5 70.5,-105.5"/>
<text text-anchor="start" x="77.3784" y="-118.3" font-family="Arial Bold" font-size="18.00" fill="#000000">tags</text>
<text text-anchor="start" x="111.393" y="-118.3" font-family="Arial" font-size="14.00" fill="#000000">    </text>
<text text-anchor="start" x="145.5978" y="-118.3" font-family="Arial" font-size="14.00" fill="#666666">[BASIC TABLE]</text>
<polygon fill="none" stroke="#000000" points="70.5,-75.5 70.5,-105.5 250.5,-105.5 250.5,-75.5 70.5,-75.5"/>
<text text-anchor="start" x="77.5" y="-86.9" font-family="Arial" font-size="14.00" fill="#000000">id </text>
<text text-anchor="start" x="92.2798" y="-86.9" font-family="Arial" font-size="14.00" fill="#666666">[int]</text>
<polygon fill="none" stroke="#000000" points="70.5,-45.5 70.5,-75.5 250.5,-75.5 250.5,-45.5 70.5,-45.5"/>
<text text-anchor="start" x="77.5" y="-56.9" font-family="Arial" font-size="14.00" fill="#000000">name </text>
<text text-anchor="start" x="116.399" y="-56.9" font-family="Arial" font-size="14.00" fill="#666666">[varchar(255)]</text>
<polygon fill="none" stroke="#000000" stroke-width="3" points="69,-44.5 69,-142.5 252,-142.5 252,-44.5 69,-44.5"/>
</g>
<!-- posts_tags -->
<g id="node2" class="node">
<title>posts_tags</title>
<polygon fill="#efefef" stroke="transparent" points="43.5,-325.5 43.5,-360.5 276.5,-360.5 276.5,-325.5 43.5,-325.5"/>
<polygon fill="none" stroke="#000000" points="43.5,-325.5 43.5,-360.5 276.5,-360.5 276.5,-325.5 43.5,-325.5"/>
<text text-anchor="start" x="50.368" y="-338.3" font-family="Arial Bold" font-size="18.00" fill="#000000">posts_tags</text>
<text text-anchor="start" x="137.4034" y="-338.3" font-family="Arial" font-size="14.00" fill="#000000">    </text>
<text text-anchor="start" x="171.6082" y="-338.3" font-family="Arial" font-size="14.00" fill="#666666">[BASIC TABLE]</text>
<polygon fill="none" stroke="#000000" points="43.5,-295.5 43.5,-325.5 276.5,-325.5 276.5,-295.5 43.5,-295.5"/>
<text text-anchor="start" x="50.5" y="-306.9" font-family="Arial" font-size="14.00" fill="#000000">post_id    </text>
<text text-anchor="start" x="129.8324" y="-306.9" font-family="Arial" font-size="14.00" fill="#666666">[int]</text>
<polygon fill="none" stroke="#000000" points="43.5,-265.5 43.5,-295.5 276.5,-295.5 276.5,-265.5 43.5,-265.5"/>
<text text-anchor="start" x="50.5" y="-276.9" font-family="Arial" font-size="14.00" fill="#000000">tag_id    </text>
<text text-anchor="start" x="122.8324" y="-276.9" font-family="Arial" font-size="14.00" fill="#666666">[int]</text>
</g>
<!-- posts_tags&#45;&gt;tags -->
<g id="edge1" class="edge">
<title>posts_tags:tag_id&#45;&gt;tags:id</title>
<path fill="none" stroke="#000000" d="M159.5307,-255.3796C151.1611,-215.2899 90.9258,-231.9197 70.5,-187 52.7469,-147.9579 27.6111,-90.5 70.5,-90.5"/>
<polygon fill="#000000" stroke="#000000" points="159.5465,-255.5456 156.0205,-265.9291 160.0232,-260.5228 160.5,-265.5 160.5,-265.5 160.5,-265.5 160.0232,-260.5228 164.9795,-265.0709 159.5465,-255.5456 159.5465,-255.5456"/>
</g>
</g>
</svg>
