<?xml version="1.0" encoding="UTF-8" standalone="no"?>
<!DOCTYPE svg PUBLIC "-//W3C//DTD SVG 1.1//EN"
 "http://www.w3.org/Graphics/SVG/1.1/DTD/svg11.dtd">
<!-- Generated by graphviz version 12.1.2 (20240928.0832)
 -->
<!-- Title: tags Pages: 1 -->
<svg width="313pt" height="417pt"
 viewBox="0.00 0.00 312.56 417.20" xmlns="http://www.w3.org/2000/svg" xmlns:xlink="http://www.w3.org/1999/xlink">
<g id="graph0" class="graph" transform="scale(1 1) rotate(0) translate(4 413.2)">
<title>tags</title>
<polygon fill="white" stroke="none" points="-4,4 -4,-413.2 308.56,-413.2 308.56,4 -4,4"/>
<!-- tags -->
<g id="node1" class="node">
<title>tags</title>
<polygon fill="#efefef" stroke="none" points="66.21,-107.8 66.21,-143.4 238.35,-143.4 238.35,-107.8 66.21,-107.8"/>
<polygon fill="none" stroke="black" points="66.21,-107.8 66.21,-143.4 238.35,-143.4 238.35,-107.8 66.21,-107.8"/>
<text text-anchor="start" x="73.21" y="-121.2" font-family="Arial Bold" font-size="18.00">tags</text>
<text text-anchor="start" x="102.2" y="-121.2" font-family="Arial" font-size="14.00">    </text>
<text text-anchor="start" x="133.32" y="-121.2" font-family="Arial" font-size="14.00" fill="#666666">[BASIC TABLE]</text>
<polygon fill="none" stroke="black" points="66.21,-77 66.21,-107.8 238.35,-107.8 238.35,-77 66.21,-77"/>
<text text-anchor="start" x="73.21" y="-89.2" font-family="Arial" font-size="14.00">id </text>
<text text-anchor="start" x="87.99" y="-89.2" font-family="Arial" font-size="14.00" fill="#666666">[int]</text>
<polygon fill="none" stroke="black" points="66.21,-46.2 66.21,-77 238.35,-77 238.35,-46.2 66.21,-46.2"/>
<text text-anchor="start" x="73.21" y="-58.4" font-family="Arial" font-size="14.00">name </text>
<text text-anchor="start" x="112.12" y="-58.4" font-family="Arial" font-size="14.00" fill="#666666">[varchar(255)]</text>
<polygon fill="none" stroke="black" stroke-width="3" points="64.71,-44.7 64.71,-144.9 239.85,-144.9 239.85,-44.7 64.71,-44.7"/>
</g>
<!-- posts_tags -->
<g id="node2" class="node">
<title>posts_tags</title>
<polygon fill="#efefef" stroke="none" points="43.2,-330.4 43.2,-366 261.36,-366 261.36,-330.4 43.2,-330.4"/>
<polygon fill="none" stroke="black" points="43.2,-330.4 43.2,-366 261.36,-366 261.36,-330.4 43.2,-330.4"/>
<text text-anchor="start" x="50.2" y="-343.8" font-family="Arial Bold" font-size="18.00">posts_tags</text>
<text text-anchor="start" x="125.21" y="-343.8" font-family="Arial" font-size="14.00">    </text>
<text text-anchor="start" x="156.32" y="-343.8" font-family="Arial" font-size="14.00" fill="#666666">[BASIC TABLE]</text>
<polygon fill="none" stroke="black" points="43.2,-299.6 43.2,-330.4 261.36,-330.4 261.36,-299.6 43.2,-299.6"/>
<text text-anchor="start" x="50.2" y="-311.8" font-family="Arial" font-size="14.00">post_id </text>
<text text-anchor="start" x="99.23" y="-311.8" font-family="Arial" font-size="14.00" fill="#666666">[int]</text>
<polygon fill="none" stroke="black" points="43.2,-268.8 43.2,-299.6 261.36,-299.6 261.36,-268.8 43.2,-268.8"/>
<text text-anchor="start" x="50.2" y="-281" font-family="Arial" font-size="14.00">tag_id </text>
<text text-anchor="start" x="92.23" y="-281" font-family="Arial" font-size="14.00" fill="#666666">[int]</text>
</g>
<!-- posts_tags&#45;&gt;tags -->
<g id="edge1" class="edge">
<title>posts_tags:tag_id&#45;&gt;tags:id</title>
<path fill="none" stroke="black" d="M153.31,-257.43C161.67,-218.81 218.76,-233.26 238.35,-189.6 256.04,-150.18 282.55,-92.4 239.35,-92.4"/>
<polygon fill="black" stroke="black" points="153.3,-257.52 147.83,-267.02 152.77,-262.82 152.34,-267.13 152.34,-267.13 152.34,-267.13 152.77,-262.82 156.79,-267.91 153.3,-257.52"/>
</g>
</g>
</svg>
