<?xml version="1.0" encoding="UTF-8" standalone="no"?>
<!DOCTYPE svg PUBLIC "-//W3C//DTD SVG 1.1//EN"
 "http://www.w3.org/Graphics/SVG/1.1/DTD/svg11.dtd">
<!-- Generated by graphviz version 12.1.2 (20240928.0832)
 -->
<!-- Title: users Pages: 1 -->
<svg width="1529pt" height="725pt"
 viewBox="0.00 0.00 1529.03 725.20" xmlns="http://www.w3.org/2000/svg" xmlns:xlink="http://www.w3.org/1999/xlink">
<g id="graph0" class="graph" transform="scale(1 1) rotate(0) translate(4 721.2)">
<title>users</title>
<polygon fill="white" stroke="none" points="-4,4 -4,-721.2 1525.03,-721.2 1525.03,4 -4,4"/>
<!-- users -->
<g id="node1" class="node">
<title>users</title>
<polygon fill="#efefef" stroke="none" points="649.2,-231 649.2,-266.6 829.34,-266.6 829.34,-231 649.2,-231"/>
<polygon fill="none" stroke="black" points="649.2,-231 649.2,-266.6 829.34,-266.6 829.34,-231 649.2,-231"/>
<text text-anchor="start" x="656.2" y="-244.4" font-family="Arial Bold" font-size="18.00">users</text>
<text text-anchor="start" x="693.19" y="-244.4" font-family="Arial" font-size="14.00">    </text>
<text text-anchor="start" x="724.31" y="-244.4" font-family="Arial" font-size="14.00" fill="#666666">[BASIC TABLE]</text>
<polygon fill="none" stroke="black" points="649.2,-200.2 649.2,-231 829.34,-231 829.34,-200.2 649.2,-200.2"/>
<text text-anchor="start" x="656.2" y="-212.4" font-family="Arial" font-size="14.00">id </text>
<text text-anchor="start" x="670.98" y="-212.4" font-family="Arial" font-size="14.00" fill="#666666">[int]</text>
<polygon fill="none" stroke="black" points="649.2,-169.4 649.2,-200.2 829.34,-200.2 829.34,-169.4 649.2,-169.4"/>
<text text-anchor="start" x="656.2" y="-181.6" font-family="Arial" font-size="14.00">email </text>
<text text-anchor="start" x="693.54" y="-181.6" font-family="Arial" font-size="14.00" fill="#666666">[varchar(255)]</text>
<polygon fill="none" stroke="black" points="649.2,-138.6 649.2,-169.4 829.34,-169.4 829.34,-138.6 649.2,-138.6"/>
<text text-anchor="start" x="656.2" y="-150.8" font-family="Arial" font-size="14.00">username </text>
<text text-anchor="start" x="722.34" y="-150.8" font-family="Arial" font-size="14.00" fill="#666666">[varchar(255)]</text>
<polygon fill="none" stroke="black" points="649.2,-107.8 649.2,-138.6 829.34,-138.6 829.34,-107.8 649.2,-107.8"/>
<text text-anchor="start" x="656.2" y="-120" font-family="Arial" font-size="14.00">password </text>
<text text-anchor="start" x="720" y="-120" font-family="Arial" font-size="14.00" fill="#666666">[varchar(255)]</text>
<polygon fill="none" stroke="black" points="649.2,-77 649.2,-107.8 829.34,-107.8 829.34,-77 649.2,-77"/>
<text text-anchor="start" x="656.2" y="-89.2" font-family="Arial" font-size="14.00">created_at </text>
<text text-anchor="start" x="726.24" y="-89.2" font-family="Arial" font-size="14.00" fill="#666666">[datetime2]</text>
<polygon fill="none" stroke="black" points="649.2,-46.2 649.2,-77 829.34,-77 829.34,-46.2 649.2,-46.2"/>
<text text-anchor="start" x="656.2" y="-58.4" font-family="Arial" font-size="14.00">updated_at </text>
<text text-anchor="start" x="730.15" y="-58.4" font-family="Arial" font-size="14.00" fill="#666666">[datetime2]</text>
<polygon fill="none" stroke="black" stroke-width="3" points="647.7,-44.7 647.7,-268.1 830.84,-268.1 830.84,-44.7 647.7,-44.7"/>
</g>
<!-- profiles -->
<g id="node2" class="node">
<title>profiles</title>
<polygon fill="#efefef" stroke="none" points="43.2,-638.4 43.2,-674 241.34,-674 241.34,-638.4 43.2,-638.4"/>
<polygon fill="none" stroke="black" points="43.2,-638.4 43.2,-674 241.34,-674 241.34,-638.4 43.2,-638.4"/>
<text text-anchor="start" x="50.2" y="-651.8" font-family="Arial Bold" font-size="18.00">profiles</text>
<text text-anchor="start" x="105.18" y="-651.8" font-family="Arial" font-size="14.00">    </text>
<text text-anchor="start" x="136.3" y="-651.8" font-family="Arial" font-size="14.00" fill="#666666">[BASIC TABLE]</text>
<polygon fill="none" stroke="black" points="43.2,-607.6 43.2,-638.4 241.34,-638.4 241.34,-607.6 43.2,-607.6"/>
<text text-anchor="start" x="50.2" y="-619.8" font-family="Arial" font-size="14.00">id </text>
<text text-anchor="start" x="64.99" y="-619.8" font-family="Arial" font-size="14.00" fill="#666666">[int]</text>
<polygon fill="none" stroke="black" points="43.2,-576.8 43.2,-607.6 241.34,-607.6 241.34,-576.8 43.2,-576.8"/>
<text text-anchor="start" x="50.2" y="-589" font-family="Arial" font-size="14.00">user_id </text>
<text text-anchor="start" x="100.01" y="-589" font-family="Arial" font-size="14.00" fill="#666666">[int]</text>
<polygon fill="none" stroke="black" points="43.2,-546 43.2,-576.8 241.34,-576.8 241.34,-546 43.2,-546"/>
<text text-anchor="start" x="50.2" y="-558.2" font-family="Arial" font-size="14.00">first_name </text>
<text text-anchor="start" x="119.45" y="-558.2" font-family="Arial" font-size="14.00" fill="#666666">[varchar(255)]</text>
<polygon fill="none" stroke="black" points="43.2,-515.2 43.2,-546 241.34,-546 241.34,-515.2 43.2,-515.2"/>
<text text-anchor="start" x="50.2" y="-527.4" font-family="Arial" font-size="14.00">last_name </text>
<text text-anchor="start" x="118.68" y="-527.4" font-family="Arial" font-size="14.00" fill="#666666">[varchar(255)]</text>
<polygon fill="none" stroke="black" points="43.2,-484.4 43.2,-515.2 241.34,-515.2 241.34,-484.4 43.2,-484.4"/>
<text text-anchor="start" x="50.2" y="-496.6" font-family="Arial" font-size="14.00">bio </text>
<text text-anchor="start" x="72.77" y="-496.6" font-family="Arial" font-size="14.00" fill="#666666">[text]</text>
<polygon fill="none" stroke="black" points="43.2,-453.6 43.2,-484.4 241.34,-484.4 241.34,-453.6 43.2,-453.6"/>
<text text-anchor="start" x="50.2" y="-465.8" font-family="Arial" font-size="14.00">avatar </text>
<text text-anchor="start" x="93" y="-465.8" font-family="Arial" font-size="14.00" fill="#666666">[varchar(255)]</text>
<polygon fill="none" stroke="black" points="43.2,-422.8 43.2,-453.6 241.34,-453.6 241.34,-422.8 43.2,-422.8"/>
<text text-anchor="start" x="50.2" y="-435" font-family="Arial" font-size="14.00">birth_date </text>
<text text-anchor="start" x="116.36" y="-435" font-family="Arial" font-size="14.00" fill="#666666">[date]</text>
<polygon fill="none" stroke="black" points="43.2,-392 43.2,-422.8 241.34,-422.8 241.34,-392 43.2,-392"/>
<text text-anchor="start" x="50.2" y="-404.2" font-family="Arial" font-size="14.00">phone_number </text>
<text text-anchor="start" x="148.28" y="-404.2" font-family="Arial" font-size="14.00" fill="#666666">[varchar(20)]</text>
</g>
<!-- profiles&#45;&gt;users -->
<g id="edge1" class="edge">
<title>profiles:user_id&#45;&gt;users:id</title>
<path fill="none" stroke="black" d="M252.57,-591.68C344.48,-581.69 224.52,-429.86 294.27,-348.8 403.89,-221.4 480.12,-215.6 648.2,-215.6"/>
<polygon fill="black" stroke="black" points="252.66,-591.68 242.44,-587.69 247.33,-591.95 243,-592.17 243,-592.17 243,-592.17 247.33,-591.95 242.9,-596.68 252.66,-591.68"/>
</g>
<!-- posts -->
<g id="node3" class="node">
<title>posts</title>
<polygon fill="#efefef" stroke="none" points="346.19,-623 346.19,-658.6 526.35,-658.6 526.35,-623 346.19,-623"/>
<polygon fill="none" stroke="black" points="346.19,-623 346.19,-658.6 526.35,-658.6 526.35,-623 346.19,-623"/>
<text text-anchor="start" x="353.19" y="-636.4" font-family="Arial Bold" font-size="18.00">posts</text>
<text text-anchor="start" x="390.2" y="-636.4" font-family="Arial" font-size="14.00">    </text>
<text text-anchor="start" x="421.31" y="-636.4" font-family="Arial" font-size="14.00" fill="#666666">[BASIC TABLE]</text>
<polygon fill="none" stroke="black" points="346.19,-592.2 346.19,-623 526.35,-623 526.35,-592.2 346.19,-592.2"/>
<text text-anchor="start" x="353.19" y="-604.4" font-family="Arial" font-size="14.00">id </text>
<text text-anchor="start" x="367.97" y="-604.4" font-family="Arial" font-size="14.00" fill="#666666">[int]</text>
<polygon fill="none" stroke="black" points="346.19,-561.4 346.19,-592.2 526.35,-592.2 526.35,-561.4 346.19,-561.4"/>
<text text-anchor="start" x="353.19" y="-573.6" font-family="Arial" font-size="14.00">title </text>
<text text-anchor="start" x="378.86" y="-573.6" font-family="Arial" font-size="14.00" fill="#666666">[varchar(255)]</text>
<polygon fill="none" stroke="black" points="346.19,-530.6 346.19,-561.4 526.35,-561.4 526.35,-530.6 346.19,-530.6"/>
<text text-anchor="start" x="353.19" y="-542.8" font-family="Arial" font-size="14.00">content </text>
<text text-anchor="start" x="403" y="-542.8" font-family="Arial" font-size="14.00" fill="#666666">[text]</text>
<polygon fill="none" stroke="black" points="346.19,-499.8 346.19,-530.6 526.35,-530.6 526.35,-499.8 346.19,-499.8"/>
<text text-anchor="start" x="353.19" y="-512" font-family="Arial" font-size="14.00">published </text>
<text text-anchor="start" x="417.01" y="-512" font-family="Arial" font-size="14.00" fill="#666666">[bit]</text>
<polygon fill="none" stroke="black" points="346.19,-469 346.19,-499.8 526.35,-499.8 526.35,-469 346.19,-469"/>
<text text-anchor="start" x="353.19" y="-481.2" font-family="Arial" font-size="14.00">created_at </text>
<text text-anchor="start" x="423.23" y="-481.2" font-family="Arial" font-size="14.00" fill="#666666">[datetime2]</text>
<polygon fill="none" stroke="black" points="346.19,-438.2 346.19,-469 526.35,-469 526.35,-438.2 346.19,-438.2"/>
<text text-anchor="start" x="353.19" y="-450.4" font-family="Arial" font-size="14.00">updated_at </text>
<text text-anchor="start" x="427.14" y="-450.4" font-family="Arial" font-size="14.00" fill="#666666">[datetime2]</text>
<polygon fill="none" stroke="black" points="346.19,-407.4 346.19,-438.2 526.35,-438.2 526.35,-407.4 346.19,-407.4"/>
<text text-anchor="start" x="353.19" y="-419.6" font-family="Arial" font-size="14.00">author_id </text>
<text text-anchor="start" x="415.46" y="-419.6" font-family="Arial" font-size="14.00" fill="#666666">[int]</text>
</g>
<!-- posts&#45;&gt;users -->
<g id="edge2" class="edge">
<title>posts:author_id&#45;&gt;users:id</title>
<path fill="none" stroke="black" d="M537.19,-420.33C582.65,-396.95 598.33,-215.6 648.2,-215.6"/>
<polygon fill="black" stroke="black" points="537.37,-420.28 526.58,-418.35 532.2,-421.58 528,-422.64 528,-422.64 528,-422.64 532.2,-421.58 528.77,-427.08 537.37,-420.28"/>
</g>
<!-- comments -->
<g id="node4" class="node">
<title>comments</title>
<polygon fill="#efefef" stroke="none" points="630.7,-607.6 630.7,-643.2 847.84,-643.2 847.84,-607.6 630.7,-607.6"/>
<polygon fill="none" stroke="black" points="630.7,-607.6 630.7,-643.2 847.84,-643.2 847.84,-607.6 630.7,-607.6"/>
<text text-anchor="start" x="637.7" y="-621" font-family="Arial Bold" font-size="18.00">comments</text>
<text text-anchor="start" x="711.69" y="-621" font-family="Arial" font-size="14.00">    </text>
<text text-anchor="start" x="742.8" y="-621" font-family="Arial" font-size="14.00" fill="#666666">[BASIC TABLE]</text>
<polygon fill="none" stroke="black" points="630.7,-576.8 630.7,-607.6 847.84,-607.6 847.84,-576.8 630.7,-576.8"/>
<text text-anchor="start" x="637.7" y="-589" font-family="Arial" font-size="14.00">id </text>
<text text-anchor="start" x="652.49" y="-589" font-family="Arial" font-size="14.00" fill="#666666">[int]</text>
<polygon fill="none" stroke="black" points="630.7,-546 630.7,-576.8 847.84,-576.8 847.84,-546 630.7,-546"/>
<text text-anchor="start" x="637.7" y="-558.2" font-family="Arial" font-size="14.00">content </text>
<text text-anchor="start" x="687.51" y="-558.2" font-family="Arial" font-size="14.00" fill="#666666">[text]</text>
<polygon fill="none" stroke="black" points="630.7,-515.2 630.7,-546 847.84,-546 847.84,-515.2 630.7,-515.2"/>
<text text-anchor="start" x="637.7" y="-527.4" font-family="Arial" font-size="14.00">created_at </text>
<text text-anchor="start" x="707.75" y="-527.4" font-family="Arial" font-size="14.00" fill="#666666">[datetime2]</text>
<polygon fill="none" stroke="black" points="630.7,-484.4 630.7,-515.2 847.84,-515.2 847.84,-484.4 630.7,-484.4"/>
<text text-anchor="start" x="637.7" y="-496.6" font-family="Arial" font-size="14.00">updated_at </text>
<text text-anchor="start" x="711.66" y="-496.6" font-family="Arial" font-size="14.00" fill="#666666">[datetime2]</text>
<polygon fill="none" stroke="black" points="630.7,-453.6 630.7,-484.4 847.84,-484.4 847.84,-453.6 630.7,-453.6"/>
<text text-anchor="start" x="637.7" y="-465.8" font-family="Arial" font-size="14.00">post_id </text>
<text text-anchor="start" x="686.73" y="-465.8" font-family="Arial" font-size="14.00" fill="#666666">[int]</text>
<polygon fill="none" stroke="black" points="630.7,-422.8 630.7,-453.6 847.84,-453.6 847.84,-422.8 630.7,-422.8"/>
<text text-anchor="start" x="637.7" y="-435" font-family="Arial" font-size="14.00">author_id </text>
<text text-anchor="start" x="699.97" y="-435" font-family="Arial" font-size="14.00" fill="#666666">[int]</text>
</g>
<!-- comments&#45;&gt;users -->
<g id="edge3" class="edge">
<title>comments:author_id&#45;&gt;users:id</title>
<path fill="none" stroke="black" d="M739.95,-411.5C747.13,-360.22 809.03,-368.37 829.34,-312.8 844.17,-272.22 873.54,-215.6 830.34,-215.6"/>
<polygon fill="black" stroke="black" points="739.95,-411.49 734.8,-421.17 739.6,-416.81 739.31,-421.13 739.31,-421.13 739.31,-421.13 739.6,-416.81 743.78,-421.76 739.95,-411.49"/>
</g>
<!-- orders -->
<g id="node5" class="node">
<title>orders</title>
<polygon fill="#efefef" stroke="none" points="952.2,-607.6 952.2,-643.2 1140.33,-643.2 1140.33,-607.6 952.2,-607.6"/>
<polygon fill="none" stroke="black" points="952.2,-607.6 952.2,-643.2 1140.33,-643.2 1140.33,-607.6 952.2,-607.6"/>
<text text-anchor="start" x="959.2" y="-621" font-family="Arial Bold" font-size="18.00">orders</text>
<text text-anchor="start" x="1004.18" y="-621" font-family="Arial" font-size="14.00">    </text>
<text text-anchor="start" x="1035.3" y="-621" font-family="Arial" font-size="14.00" fill="#666666">[BASIC TABLE]</text>
<polygon fill="none" stroke="black" points="952.2,-576.8 952.2,-607.6 1140.33,-607.6 1140.33,-576.8 952.2,-576.8"/>
<text text-anchor="start" x="959.2" y="-589" font-family="Arial" font-size="14.00">id </text>
<text text-anchor="start" x="973.99" y="-589" font-family="Arial" font-size="14.00" fill="#666666">[int]</text>
<polygon fill="none" stroke="black" points="952.2,-546 952.2,-576.8 1140.33,-576.8 1140.33,-546 952.2,-546"/>
<text text-anchor="start" x="959.2" y="-558.2" font-family="Arial" font-size="14.00">user_id </text>
<text text-anchor="start" x="1009.01" y="-558.2" font-family="Arial" font-size="14.00" fill="#666666">[int]</text>
<polygon fill="none" stroke="black" points="952.2,-515.2 952.2,-546 1140.33,-546 1140.33,-515.2 952.2,-515.2"/>
<text text-anchor="start" x="959.2" y="-527.4" font-family="Arial" font-size="14.00">status </text>
<text text-anchor="start" x="1000.44" y="-527.4" font-family="Arial" font-size="14.00" fill="#666666">[varchar(20)]</text>
<polygon fill="none" stroke="black" points="952.2,-484.4 952.2,-515.2 1140.33,-515.2 1140.33,-484.4 952.2,-484.4"/>
<text text-anchor="start" x="959.2" y="-496.6" font-family="Arial" font-size="14.00">total_price </text>
<text text-anchor="start" x="1027.68" y="-496.6" font-family="Arial" font-size="14.00" fill="#666666">[decimal]</text>
<polygon fill="none" stroke="black" points="952.2,-453.6 952.2,-484.4 1140.33,-484.4 1140.33,-453.6 952.2,-453.6"/>
<text text-anchor="start" x="959.2" y="-465.8" font-family="Arial" font-size="14.00">created_at </text>
<text text-anchor="start" x="1029.25" y="-465.8" font-family="Arial" font-size="14.00" fill="#666666">[datetime2]</text>
<polygon fill="none" stroke="black" points="952.2,-422.8 952.2,-453.6 1140.33,-453.6 1140.33,-422.8 952.2,-422.8"/>
<text text-anchor="start" x="959.2" y="-435" font-family="Arial" font-size="14.00">updated_at </text>
<text text-anchor="start" x="1033.16" y="-435" font-family="Arial" font-size="14.00" fill="#666666">[datetime2]</text>
</g>
<!-- orders&#45;&gt;users -->
<g id="edge4" class="edge">
<title>orders:user_id&#45;&gt;users:id</title>
<path fill="none" stroke="black" d="M941.1,-560.91C859.85,-552.41 933.16,-436.38 900.27,-348.8 876.76,-286.21 897.2,-215.6 830.34,-215.6"/>
<polygon fill="black" stroke="black" points="940.88,-560.89 950.65,-565.88 946.21,-561.16 950.53,-561.37 950.53,-561.37 950.53,-561.37 946.21,-561.16 951.09,-556.89 940.88,-560.89"/>
</g>
<!-- notifications -->
<g id="node6" class="node">
<title>notifications</title>
<polygon fill="#efefef" stroke="none" points="1244.7,-607.6 1244.7,-643.2 1477.83,-643.2 1477.83,-607.6 1244.7,-607.6"/>
<polygon fill="none" stroke="black" points="1244.7,-607.6 1244.7,-643.2 1477.83,-643.2 1477.83,-607.6 1244.7,-607.6"/>
<text text-anchor="start" x="1251.7" y="-621" font-family="Arial Bold" font-size="18.00">notifications</text>
<text text-anchor="start" x="1341.68" y="-621" font-family="Arial" font-size="14.00">    </text>
<text text-anchor="start" x="1372.8" y="-621" font-family="Arial" font-size="14.00" fill="#666666">[BASIC TABLE]</text>
<polygon fill="none" stroke="black" points="1244.7,-576.8 1244.7,-607.6 1477.83,-607.6 1477.83,-576.8 1244.7,-576.8"/>
<text text-anchor="start" x="1251.7" y="-589" font-family="Arial" font-size="14.00">id </text>
<text text-anchor="start" x="1266.49" y="-589" font-family="Arial" font-size="14.00" fill="#666666">[int]</text>
<polygon fill="none" stroke="black" points="1244.7,-546 1244.7,-576.8 1477.83,-576.8 1477.83,-546 1244.7,-546"/>
<text text-anchor="start" x="1251.7" y="-558.2" font-family="Arial" font-size="14.00">user_id </text>
<text text-anchor="start" x="1301.51" y="-558.2" font-family="Arial" font-size="14.00" fill="#666666">[int]</text>
<polygon fill="none" stroke="black" points="1244.7,-515.2 1244.7,-546 1477.83,-546 1477.83,-515.2 1244.7,-515.2"/>
<text text-anchor="start" x="1251.7" y="-527.4" font-family="Arial" font-size="14.00">title </text>
<text text-anchor="start" x="1277.38" y="-527.4" font-family="Arial" font-size="14.00" fill="#666666">[varchar(255)]</text>
<polygon fill="none" stroke="black" points="1244.7,-484.4 1244.7,-515.2 1477.83,-515.2 1477.83,-484.4 1244.7,-484.4"/>
<text text-anchor="start" x="1251.7" y="-496.6" font-family="Arial" font-size="14.00">content </text>
<text text-anchor="start" x="1301.51" y="-496.6" font-family="Arial" font-size="14.00" fill="#666666">[text]</text>
<polygon fill="none" stroke="black" points="1244.7,-453.6 1244.7,-484.4 1477.83,-484.4 1477.83,-453.6 1244.7,-453.6"/>
<text text-anchor="start" x="1251.7" y="-465.8" font-family="Arial" font-size="14.00">is_read </text>
<text text-anchor="start" x="1301.51" y="-465.8" font-family="Arial" font-size="14.00" fill="#666666">[bit]</text>
<polygon fill="none" stroke="black" points="1244.7,-422.8 1244.7,-453.6 1477.83,-453.6 1477.83,-422.8 1244.7,-422.8"/>
<text text-anchor="start" x="1251.7" y="-435" font-family="Arial" font-size="14.00">created_at </text>
<text text-anchor="start" x="1321.75" y="-435" font-family="Arial" font-size="14.00" fill="#666666">[datetime2]</text>
</g>
<!-- notifications&#45;&gt;users -->
<g id="edge5" class="edge">
<title>notifications:user_id&#45;&gt;users:id</title>
<path fill="none" stroke="black" d="M1233.72,-560.83C1154.44,-551.1 1254.54,-418.69 1192.27,-348.8 1078.25,-220.82 1001.74,-215.6 830.34,-215.6"/>
<polygon fill="black" stroke="black" points="1233.38,-560.81 1243.11,-565.87 1238.71,-561.12 1243.03,-561.36 1243.03,-561.36 1243.03,-561.36 1238.71,-561.12 1243.62,-556.89 1233.38,-560.81"/>
</g>
</g>
</svg>
