<?xml version="1.0" encoding="UTF-8" standalone="no"?>
<!DOCTYPE svg PUBLIC "-//W3C//DTD SVG 1.1//EN"
 "http://www.w3.org/Graphics/SVG/1.1/DTD/svg11.dtd">
<!-- Generated by graphviz version 2.40.1 (20161225.0304)
 -->
<!-- Title: users Pages: 1 -->
<svg width="1587pt" height="712pt"
 viewBox="0.00 0.00 1587.00 712.00" xmlns="http://www.w3.org/2000/svg" xmlns:xlink="http://www.w3.org/1999/xlink">
<g id="graph0" class="graph" transform="scale(1 1) rotate(0) translate(4 708)">
<title>users</title>
<polygon fill="#ffffff" stroke="transparent" points="-4,4 -4,-708 1583,-708 1583,4 -4,4"/>
<!-- users -->
<g id="node1" class="node">
<title>users</title>
<polygon fill="#efefef" stroke="transparent" points="681.5,-225.5 681.5,-260.5 871.5,-260.5 871.5,-225.5 681.5,-225.5"/>
<polygon fill="none" stroke="#000000" points="681.5,-225.5 681.5,-260.5 871.5,-260.5 871.5,-225.5 681.5,-225.5"/>
<text text-anchor="start" x="688.3834" y="-238.3" font-family="Arial Bold" font-size="18.00" fill="#000000">users</text>
<text text-anchor="start" x="732.388" y="-238.3" font-family="Arial" font-size="14.00" fill="#000000">    </text>
<text text-anchor="start" x="766.5928" y="-238.3" font-family="Arial" font-size="14.00" fill="#666666">[BASIC TABLE]</text>
<polygon fill="none" stroke="#000000" points="681.5,-195.5 681.5,-225.5 871.5,-225.5 871.5,-195.5 681.5,-195.5"/>
<text text-anchor="start" x="688.5" y="-206.9" font-family="Arial" font-size="14.00" fill="#000000">id </text>
<text text-anchor="start" x="703.2798" y="-206.9" font-family="Arial" font-size="14.00" fill="#666666">[int]</text>
<polygon fill="none" stroke="#000000" points="681.5,-165.5 681.5,-195.5 871.5,-195.5 871.5,-165.5 681.5,-165.5"/>
<text text-anchor="start" x="688.5" y="-176.9" font-family="Arial" font-size="14.00" fill="#000000">email </text>
<text text-anchor="start" x="725.8296" y="-176.9" font-family="Arial" font-size="14.00" fill="#666666">[varchar(255)]</text>
<polygon fill="none" stroke="#000000" points="681.5,-135.5 681.5,-165.5 871.5,-165.5 871.5,-135.5 681.5,-135.5"/>
<text text-anchor="start" x="688.5" y="-146.9" font-family="Arial" font-size="14.00" fill="#000000">username </text>
<text text-anchor="start" x="754.6248" y="-146.9" font-family="Arial" font-size="14.00" fill="#666666">[varchar(255)]</text>
<polygon fill="none" stroke="#000000" points="681.5,-105.5 681.5,-135.5 871.5,-135.5 871.5,-105.5 681.5,-105.5"/>
<text text-anchor="start" x="688.5" y="-116.9" font-family="Arial" font-size="14.00" fill="#000000">password </text>
<text text-anchor="start" x="752.2882" y="-116.9" font-family="Arial" font-size="14.00" fill="#666666">[varchar(255)]</text>
<polygon fill="none" stroke="#000000" points="681.5,-75.5 681.5,-105.5 871.5,-105.5 871.5,-75.5 681.5,-75.5"/>
<text text-anchor="start" x="688.5" y="-86.9" font-family="Arial" font-size="14.00" fill="#000000">created_at </text>
<text text-anchor="start" x="758.528" y="-86.9" font-family="Arial" font-size="14.00" fill="#666666">[datetime2]</text>
<polygon fill="none" stroke="#000000" points="681.5,-45.5 681.5,-75.5 871.5,-75.5 871.5,-45.5 681.5,-45.5"/>
<text text-anchor="start" x="688.5" y="-56.9" font-family="Arial" font-size="14.00" fill="#000000">updated_at </text>
<text text-anchor="start" x="762.4326" y="-56.9" font-family="Arial" font-size="14.00" fill="#666666">[datetime2]</text>
<polygon fill="none" stroke="#000000" stroke-width="3" points="680,-44.5 680,-262.5 873,-262.5 873,-44.5 680,-44.5"/>
</g>
<!-- profiles -->
<g id="node2" class="node">
<title>profiles</title>
<polygon fill="#efefef" stroke="transparent" points="43.5,-625.5 43.5,-660.5 264.5,-660.5 264.5,-625.5 43.5,-625.5"/>
<polygon fill="none" stroke="#000000" points="43.5,-625.5 43.5,-660.5 264.5,-660.5 264.5,-625.5 43.5,-625.5"/>
<text text-anchor="start" x="58.885" y="-638.3" font-family="Arial Bold" font-size="18.00" fill="#000000">profiles</text>
<text text-anchor="start" x="116.8864" y="-638.3" font-family="Arial" font-size="14.00" fill="#000000">    </text>
<text text-anchor="start" x="151.0912" y="-638.3" font-family="Arial" font-size="14.00" fill="#666666">[BASIC TABLE]</text>
<polygon fill="none" stroke="#000000" points="43.5,-595.5 43.5,-625.5 264.5,-625.5 264.5,-595.5 43.5,-595.5"/>
<text text-anchor="start" x="50.5" y="-606.9" font-family="Arial" font-size="14.00" fill="#000000">id    </text>
<text text-anchor="start" x="95.594" y="-606.9" font-family="Arial" font-size="14.00" fill="#666666">[int]</text>
<polygon fill="none" stroke="#000000" points="43.5,-565.5 43.5,-595.5 264.5,-595.5 264.5,-565.5 43.5,-565.5"/>
<text text-anchor="start" x="50.5" y="-576.9" font-family="Arial" font-size="14.00" fill="#000000">user_id    </text>
<text text-anchor="start" x="130.6024" y="-576.9" font-family="Arial" font-size="14.00" fill="#666666">[int]</text>
<polygon fill="none" stroke="#000000" points="43.5,-535.5 43.5,-565.5 264.5,-565.5 264.5,-535.5 43.5,-535.5"/>
<text text-anchor="start" x="50.5" y="-546.9" font-family="Arial" font-size="14.00" fill="#000000">first_name    </text>
<text text-anchor="start" x="150.0442" y="-546.9" font-family="Arial" font-size="14.00" fill="#666666">[varchar(255)]</text>
<polygon fill="none" stroke="#000000" points="43.5,-505.5 43.5,-535.5 264.5,-535.5 264.5,-505.5 43.5,-505.5"/>
<text text-anchor="start" x="50.5" y="-516.9" font-family="Arial" font-size="14.00" fill="#000000">last_name    </text>
<text text-anchor="start" x="149.2756" y="-516.9" font-family="Arial" font-size="14.00" fill="#666666">[varchar(255)]</text>
<polygon fill="none" stroke="#000000" points="43.5,-475.5 43.5,-505.5 264.5,-505.5 264.5,-475.5 43.5,-475.5"/>
<text text-anchor="start" x="50.5" y="-486.9" font-family="Arial" font-size="14.00" fill="#000000">bio    </text>
<text text-anchor="start" x="103.3766" y="-486.9" font-family="Arial" font-size="14.00" fill="#666666">[text]</text>
<polygon fill="none" stroke="#000000" points="43.5,-445.5 43.5,-475.5 264.5,-475.5 264.5,-445.5 43.5,-445.5"/>
<text text-anchor="start" x="50.5" y="-456.9" font-family="Arial" font-size="14.00" fill="#000000">avatar    </text>
<text text-anchor="start" x="123.6038" y="-456.9" font-family="Arial" font-size="14.00" fill="#666666">[varchar(255)]</text>
<polygon fill="none" stroke="#000000" points="43.5,-415.5 43.5,-445.5 264.5,-445.5 264.5,-415.5 43.5,-415.5"/>
<text text-anchor="start" x="50.5" y="-426.9" font-family="Arial" font-size="14.00" fill="#000000">birth_date    </text>
<text text-anchor="start" x="146.9488" y="-426.9" font-family="Arial" font-size="14.00" fill="#666666">[date]</text>
<polygon fill="none" stroke="#000000" points="43.5,-385.5 43.5,-415.5 264.5,-415.5 264.5,-385.5 43.5,-385.5"/>
<text text-anchor="start" x="50.1557" y="-396.9" font-family="Arial" font-size="14.00" fill="#000000">phone_number    </text>
<text text-anchor="start" x="178.5077" y="-396.9" font-family="Arial" font-size="14.00" fill="#666666">[varchar(20)]</text>
</g>
<!-- profiles&#45;&gt;users -->
<g id="edge1" class="edge">
<title>profiles:user_id&#45;&gt;users:id</title>
<path fill="none" stroke="#000000" d="M274.4897,-579.992C364.1847,-570.2128 246.8726,-421.644 315.5,-343 429.2453,-212.6529 508.5019,-210.5 681.5,-210.5"/>
<polygon fill="#000000" stroke="#000000" points="274.4871,-579.992 264.2714,-576.0058 269.4935,-580.246 264.5,-580.5 264.5,-580.5 264.5,-580.5 269.4935,-580.246 264.7286,-584.9942 274.4871,-579.992 274.4871,-579.992"/>
</g>
<!-- posts -->
<g id="node3" class="node">
<title>posts</title>
<polygon fill="#efefef" stroke="transparent" points="368.5,-610.5 368.5,-645.5 557.5,-645.5 557.5,-610.5 368.5,-610.5"/>
<polygon fill="none" stroke="#000000" points="368.5,-610.5 368.5,-645.5 557.5,-645.5 557.5,-610.5 368.5,-610.5"/>
<text text-anchor="start" x="375.3784" y="-623.3" font-family="Arial Bold" font-size="18.00" fill="#000000">posts</text>
<text text-anchor="start" x="418.393" y="-623.3" font-family="Arial" font-size="14.00" fill="#000000">    </text>
<text text-anchor="start" x="452.5978" y="-623.3" font-family="Arial" font-size="14.00" fill="#666666">[BASIC TABLE]</text>
<polygon fill="none" stroke="#000000" points="368.5,-580.5 368.5,-610.5 557.5,-610.5 557.5,-580.5 368.5,-580.5"/>
<text text-anchor="start" x="375.5" y="-591.9" font-family="Arial" font-size="14.00" fill="#000000">id    </text>
<text text-anchor="start" x="420.594" y="-591.9" font-family="Arial" font-size="14.00" fill="#666666">[int]</text>
<polygon fill="none" stroke="#000000" points="368.5,-550.5 368.5,-580.5 557.5,-580.5 557.5,-550.5 368.5,-550.5"/>
<text text-anchor="start" x="375.5" y="-561.9" font-family="Arial" font-size="14.00" fill="#000000">title    </text>
<text text-anchor="start" x="431.4818" y="-561.9" font-family="Arial" font-size="14.00" fill="#666666">[varchar(255)]</text>
<polygon fill="none" stroke="#000000" points="368.5,-520.5 368.5,-550.5 557.5,-550.5 557.5,-520.5 368.5,-520.5"/>
<text text-anchor="start" x="375.5" y="-531.9" font-family="Arial" font-size="14.00" fill="#000000">content    </text>
<text text-anchor="start" x="455.6164" y="-531.9" font-family="Arial" font-size="14.00" fill="#666666">[text]</text>
<polygon fill="none" stroke="#000000" points="368.5,-490.5 368.5,-520.5 557.5,-520.5 557.5,-490.5 368.5,-490.5"/>
<text text-anchor="start" x="375.5" y="-501.9" font-family="Arial" font-size="14.00" fill="#000000">published    </text>
<text text-anchor="start" x="469.6136" y="-501.9" font-family="Arial" font-size="14.00" fill="#666666">[bit]</text>
<polygon fill="none" stroke="#000000" points="368.5,-460.5 368.5,-490.5 557.5,-490.5 557.5,-460.5 368.5,-460.5"/>
<text text-anchor="start" x="375.5" y="-471.9" font-family="Arial" font-size="14.00" fill="#000000">created_at    </text>
<text text-anchor="start" x="475.8422" y="-471.9" font-family="Arial" font-size="14.00" fill="#666666">[datetime2]</text>
<polygon fill="none" stroke="#000000" points="368.5,-430.5 368.5,-460.5 557.5,-460.5 557.5,-430.5 368.5,-430.5"/>
<text text-anchor="start" x="375.5" y="-441.9" font-family="Arial" font-size="14.00" fill="#000000">updated_at    </text>
<text text-anchor="start" x="479.7468" y="-441.9" font-family="Arial" font-size="14.00" fill="#666666">[datetime2]</text>
<polygon fill="none" stroke="#000000" points="368.5,-400.5 368.5,-430.5 557.5,-430.5 557.5,-400.5 368.5,-400.5"/>
<text text-anchor="start" x="375.5" y="-411.9" font-family="Arial" font-size="14.00" fill="#000000">author_id    </text>
<text text-anchor="start" x="468.0582" y="-411.9" font-family="Arial" font-size="14.00" fill="#666666">[int]</text>
</g>
<!-- posts&#45;&gt;users -->
<g id="edge2" class="edge">
<title>posts:author_id&#45;&gt;users:id</title>
<path fill="none" stroke="#000000" d="M566.4796,-410.0167C597.5197,-377.416 657.4791,-210.5 681.5,-210.5"/>
<polygon fill="#000000" stroke="#000000" points="566.0346,-410.2884 555.1548,-411.6594 561.7673,-412.8942 557.5,-415.5 557.5,-415.5 557.5,-415.5 561.7673,-412.8942 559.8452,-419.3406 566.0346,-410.2884 566.0346,-410.2884"/>
</g>
<!-- comments -->
<g id="node4" class="node">
<title>comments</title>
<polygon fill="#efefef" stroke="transparent" points="661.5,-595.5 661.5,-630.5 890.5,-630.5 890.5,-595.5 661.5,-595.5"/>
<polygon fill="none" stroke="#000000" points="661.5,-595.5 661.5,-630.5 890.5,-630.5 890.5,-595.5 661.5,-595.5"/>
<text text-anchor="start" x="668.3831" y="-608.3" font-family="Arial Bold" font-size="18.00" fill="#000000">comments</text>
<text text-anchor="start" x="751.3883" y="-608.3" font-family="Arial" font-size="14.00" fill="#000000">    </text>
<text text-anchor="start" x="785.5931" y="-608.3" font-family="Arial" font-size="14.00" fill="#666666">[BASIC TABLE]</text>
<polygon fill="none" stroke="#000000" points="661.5,-565.5 661.5,-595.5 890.5,-595.5 890.5,-565.5 661.5,-565.5"/>
<text text-anchor="start" x="668.5" y="-576.9" font-family="Arial" font-size="14.00" fill="#000000">id    </text>
<text text-anchor="start" x="713.594" y="-576.9" font-family="Arial" font-size="14.00" fill="#666666">[int]</text>
<polygon fill="none" stroke="#000000" points="661.5,-535.5 661.5,-565.5 890.5,-565.5 890.5,-535.5 661.5,-535.5"/>
<text text-anchor="start" x="668.5" y="-546.9" font-family="Arial" font-size="14.00" fill="#000000">content    </text>
<text text-anchor="start" x="748.6164" y="-546.9" font-family="Arial" font-size="14.00" fill="#666666">[text]</text>
<polygon fill="none" stroke="#000000" points="661.5,-505.5 661.5,-535.5 890.5,-535.5 890.5,-505.5 661.5,-505.5"/>
<text text-anchor="start" x="668.5" y="-516.9" font-family="Arial" font-size="14.00" fill="#000000">created_at    </text>
<text text-anchor="start" x="768.8422" y="-516.9" font-family="Arial" font-size="14.00" fill="#666666">[datetime2]</text>
<polygon fill="none" stroke="#000000" points="661.5,-475.5 661.5,-505.5 890.5,-505.5 890.5,-475.5 661.5,-475.5"/>
<text text-anchor="start" x="668.5" y="-486.9" font-family="Arial" font-size="14.00" fill="#000000">updated_at    </text>
<text text-anchor="start" x="772.7468" y="-486.9" font-family="Arial" font-size="14.00" fill="#666666">[datetime2]</text>
<polygon fill="none" stroke="#000000" points="661.5,-445.5 661.5,-475.5 890.5,-475.5 890.5,-445.5 661.5,-445.5"/>
<text text-anchor="start" x="668.5" y="-456.9" font-family="Arial" font-size="14.00" fill="#000000">post_id    </text>
<text text-anchor="start" x="747.8324" y="-456.9" font-family="Arial" font-size="14.00" fill="#666666">[int]</text>
<polygon fill="none" stroke="#000000" points="661.5,-415.5 661.5,-445.5 890.5,-445.5 890.5,-415.5 661.5,-415.5"/>
<text text-anchor="start" x="668.5" y="-426.9" font-family="Arial" font-size="14.00" fill="#000000">author_id    </text>
<text text-anchor="start" x="761.0582" y="-426.9" font-family="Arial" font-size="14.00" fill="#666666">[int]</text>
</g>
<!-- comments&#45;&gt;users -->
<g id="edge3" class="edge">
<title>comments:author_id&#45;&gt;users:id</title>
<path fill="none" stroke="#000000" d="M775.825,-405.3477C768.4532,-352.9291 702.7761,-363.5971 681.5,-307 666.4083,-266.8541 638.6111,-210.5 681.5,-210.5"/>
<polygon fill="#000000" stroke="#000000" points="775.8365,-405.522 772.0099,-415.7986 776.1682,-410.511 776.5,-415.5 776.5,-415.5 776.5,-415.5 776.1682,-410.511 780.9901,-415.2014 775.8365,-405.522 775.8365,-405.522"/>
</g>
<!-- orders -->
<g id="node5" class="node">
<title>orders</title>
<polygon fill="#efefef" stroke="transparent" points="994.5,-595.5 994.5,-630.5 1191.5,-630.5 1191.5,-595.5 994.5,-595.5"/>
<polygon fill="none" stroke="#000000" points="994.5,-595.5 994.5,-630.5 1191.5,-630.5 1191.5,-595.5 994.5,-595.5"/>
<text text-anchor="start" x="1001.3842" y="-608.3" font-family="Arial Bold" font-size="18.00" fill="#000000">orders</text>
<text text-anchor="start" x="1052.3872" y="-608.3" font-family="Arial" font-size="14.00" fill="#000000">    </text>
<text text-anchor="start" x="1086.592" y="-608.3" font-family="Arial" font-size="14.00" fill="#666666">[BASIC TABLE]</text>
<polygon fill="none" stroke="#000000" points="994.5,-565.5 994.5,-595.5 1191.5,-595.5 1191.5,-565.5 994.5,-565.5"/>
<text text-anchor="start" x="1001.5" y="-576.9" font-family="Arial" font-size="14.00" fill="#000000">id    </text>
<text text-anchor="start" x="1046.594" y="-576.9" font-family="Arial" font-size="14.00" fill="#666666">[int]</text>
<polygon fill="none" stroke="#000000" points="994.5,-535.5 994.5,-565.5 1191.5,-565.5 1191.5,-535.5 994.5,-535.5"/>
<text text-anchor="start" x="1001.5" y="-546.9" font-family="Arial" font-size="14.00" fill="#000000">user_id    </text>
<text text-anchor="start" x="1081.6024" y="-546.9" font-family="Arial" font-size="14.00" fill="#666666">[int]</text>
<polygon fill="none" stroke="#000000" points="994.5,-505.5 994.5,-535.5 1191.5,-535.5 1191.5,-505.5 994.5,-505.5"/>
<text text-anchor="start" x="1001.5" y="-516.9" font-family="Arial" font-size="14.00" fill="#000000">status    </text>
<text text-anchor="start" x="1073.0512" y="-516.9" font-family="Arial" font-size="14.00" fill="#666666">[varchar(20)]</text>
<polygon fill="none" stroke="#000000" points="994.5,-475.5 994.5,-505.5 1191.5,-505.5 1191.5,-475.5 994.5,-475.5"/>
<text text-anchor="start" x="1001.5" y="-486.9" font-family="Arial" font-size="14.00" fill="#000000">total_price    </text>
<text text-anchor="start" x="1100.2728" y="-486.9" font-family="Arial" font-size="14.00" fill="#666666">[decimal]</text>
<polygon fill="none" stroke="#000000" points="994.5,-445.5 994.5,-475.5 1191.5,-475.5 1191.5,-445.5 994.5,-445.5"/>
<text text-anchor="start" x="1001.5" y="-456.9" font-family="Arial" font-size="14.00" fill="#000000">created_at    </text>
<text text-anchor="start" x="1101.8422" y="-456.9" font-family="Arial" font-size="14.00" fill="#666666">[datetime2]</text>
<polygon fill="none" stroke="#000000" points="994.5,-415.5 994.5,-445.5 1191.5,-445.5 1191.5,-415.5 994.5,-415.5"/>
<text text-anchor="start" x="1001.5" y="-426.9" font-family="Arial" font-size="14.00" fill="#000000">updated_at    </text>
<text text-anchor="start" x="1105.7468" y="-426.9" font-family="Arial" font-size="14.00" fill="#666666">[datetime2]</text>
</g>
<!-- orders&#45;&gt;users -->
<g id="edge4" class="edge">
<title>orders:user_id&#45;&gt;users:id</title>
<path fill="none" stroke="#000000" d="M984.1308,-549.965C905.298,-541.2635 975.429,-428.2195 942.5,-343 918.4194,-280.68 938.3106,-210.5 871.5,-210.5"/>
<polygon fill="#000000" stroke="#000000" points="984.5133,-549.9846 994.2681,-554.994 989.5066,-550.2423 994.5,-550.5 994.5,-550.5 994.5,-550.5 989.5066,-550.2423 994.7319,-546.006 984.5133,-549.9846 984.5133,-549.9846"/>
</g>
<!-- notifications -->
<g id="node6" class="node">
<title>notifications</title>
<polygon fill="#efefef" stroke="transparent" points="1295.5,-595.5 1295.5,-630.5 1536.5,-630.5 1536.5,-595.5 1295.5,-595.5"/>
<polygon fill="none" stroke="#000000" points="1295.5,-595.5 1295.5,-630.5 1536.5,-630.5 1536.5,-595.5 1295.5,-595.5"/>
<text text-anchor="start" x="1302.3756" y="-608.3" font-family="Arial Bold" font-size="18.00" fill="#000000">notifications</text>
<text text-anchor="start" x="1397.3958" y="-608.3" font-family="Arial" font-size="14.00" fill="#000000">    </text>
<text text-anchor="start" x="1431.6006" y="-608.3" font-family="Arial" font-size="14.00" fill="#666666">[BASIC TABLE]</text>
<polygon fill="none" stroke="#000000" points="1295.5,-565.5 1295.5,-595.5 1536.5,-595.5 1536.5,-565.5 1295.5,-565.5"/>
<text text-anchor="start" x="1302.5" y="-576.9" font-family="Arial" font-size="14.00" fill="#000000">id    </text>
<text text-anchor="start" x="1347.594" y="-576.9" font-family="Arial" font-size="14.00" fill="#666666">[int]</text>
<polygon fill="none" stroke="#000000" points="1295.5,-535.5 1295.5,-565.5 1536.5,-565.5 1536.5,-535.5 1295.5,-535.5"/>
<text text-anchor="start" x="1302.5" y="-546.9" font-family="Arial" font-size="14.00" fill="#000000">user_id    </text>
<text text-anchor="start" x="1382.6024" y="-546.9" font-family="Arial" font-size="14.00" fill="#666666">[int]</text>
<polygon fill="none" stroke="#000000" points="1295.5,-505.5 1295.5,-535.5 1536.5,-535.5 1536.5,-505.5 1295.5,-505.5"/>
<text text-anchor="start" x="1302.5" y="-516.9" font-family="Arial" font-size="14.00" fill="#000000">title    </text>
<text text-anchor="start" x="1358.4818" y="-516.9" font-family="Arial" font-size="14.00" fill="#666666">[varchar(255)]</text>
<polygon fill="none" stroke="#000000" points="1295.5,-475.5 1295.5,-505.5 1536.5,-505.5 1536.5,-475.5 1295.5,-475.5"/>
<text text-anchor="start" x="1302.5" y="-486.9" font-family="Arial" font-size="14.00" fill="#000000">content    </text>
<text text-anchor="start" x="1382.6164" y="-486.9" font-family="Arial" font-size="14.00" fill="#666666">[text]</text>
<polygon fill="none" stroke="#000000" points="1295.5,-445.5 1295.5,-475.5 1536.5,-475.5 1536.5,-445.5 1295.5,-445.5"/>
<text text-anchor="start" x="1302.5" y="-456.9" font-family="Arial" font-size="14.00" fill="#000000">is_read    </text>
<text text-anchor="start" x="1382.6024" y="-456.9" font-family="Arial" font-size="14.00" fill="#666666">[bit]</text>
<polygon fill="none" stroke="#000000" points="1295.5,-415.5 1295.5,-445.5 1536.5,-445.5 1536.5,-415.5 1295.5,-415.5"/>
<text text-anchor="start" x="1302.5" y="-426.9" font-family="Arial" font-size="14.00" fill="#000000">created_at    </text>
<text text-anchor="start" x="1402.8422" y="-426.9" font-family="Arial" font-size="14.00" fill="#666666">[datetime2]</text>
</g>
<!-- notifications&#45;&gt;users -->
<g id="edge5" class="edge">
<title>notifications:user_id&#45;&gt;users:id</title>
<path fill="none" stroke="#000000" d="M1285.2612,-549.8845C1208.5228,-539.8905 1304.9061,-410.6459 1243.5,-343 1125.5355,-213.0485 1047.0079,-210.5 871.5,-210.5"/>
<polygon fill="#000000" stroke="#000000" points="1285.518,-549.8999 1295.2299,-554.9919 1290.509,-550.1999 1295.5,-550.5 1295.5,-550.5 1295.5,-550.5 1290.509,-550.1999 1295.7701,-546.0081 1285.518,-549.8999 1285.518,-549.8999"/>
</g>
</g>
</svg>
