<?xml version="1.0" encoding="UTF-8" standalone="no"?>
<!DOCTYPE svg PUBLIC "-//W3C//DTD SVG 1.1//EN"
 "http://www.w3.org/Graphics/SVG/1.1/DTD/svg11.dtd">
<!-- Generated by graphviz version 12.1.2 (20240928.0832)
 -->
<!-- Title: categories Pages: 1 -->
<svg width="441pt" height="602pt"
 viewBox="0.00 0.00 440.67 602.00" xmlns="http://www.w3.org/2000/svg" xmlns:xlink="http://www.w3.org/1999/xlink">
<g id="graph0" class="graph" transform="scale(1 1) rotate(0) translate(4 598)">
<title>categories</title>
<polygon fill="white" stroke="none" points="-4,4 -4,-598 436.67,-598 436.67,4 -4,4"/>
<!-- categories -->
<g id="node1" class="node">
<title>categories</title>
<polygon fill="#efefef" stroke="none" points="175.02,-107.8 175.02,-143.4 386.47,-143.4 386.47,-107.8 175.02,-107.8"/>
<polygon fill="none" stroke="black" points="175.02,-107.8 175.02,-143.4 386.47,-143.4 386.47,-107.8 175.02,-107.8"/>
<text text-anchor="start" x="182.02" y="-121.2" font-family="Arial Bold" font-size="18.00">categories</text>
<text text-anchor="start" x="254.98" y="-121.2" font-family="Arial" font-size="14.00">    </text>
<text text-anchor="start" x="286.09" y="-121.2" font-family="Arial" font-size="14.00" fill="#666666">[BASE TABLE]</text>
<polygon fill="none" stroke="black" points="175.02,-77 175.02,-107.8 386.47,-107.8 386.47,-77 175.02,-77"/>
<text text-anchor="start" x="182.02" y="-89.2" font-family="Arial" font-size="14.00">id </text>
<text text-anchor="start" x="196.81" y="-89.2" font-family="Arial" font-size="14.00" fill="#666666">[int]</text>
<polygon fill="none" stroke="black" points="175.02,-46.2 175.02,-77 386.47,-77 386.47,-46.2 175.02,-46.2"/>
<text text-anchor="start" x="182.02" y="-58.4" font-family="Arial" font-size="14.00">name </text>
<text text-anchor="start" x="220.93" y="-58.4" font-family="Arial" font-size="14.00" fill="#666666">[varchar(255)]</text>
<polygon fill="none" stroke="black" stroke-width="3" points="173.52,-44.7 173.52,-144.9 387.97,-144.9 387.97,-44.7 173.52,-44.7"/>
</g>
<!-- products -->
<g id="node2" class="node">
<title>products</title>
<polygon fill="#efefef" stroke="none" points="180.5,-515.2 180.5,-550.8 380.98,-550.8 380.98,-515.2 180.5,-515.2"/>
<polygon fill="none" stroke="black" points="180.5,-515.2 180.5,-550.8 380.98,-550.8 380.98,-515.2 180.5,-515.2"/>
<text text-anchor="start" x="187.5" y="-528.6" font-family="Arial Bold" font-size="18.00">products</text>
<text text-anchor="start" x="249.49" y="-528.6" font-family="Arial" font-size="14.00">    </text>
<text text-anchor="start" x="280.61" y="-528.6" font-family="Arial" font-size="14.00" fill="#666666">[BASE TABLE]</text>
<polygon fill="none" stroke="black" points="180.5,-484.4 180.5,-515.2 380.98,-515.2 380.98,-484.4 180.5,-484.4"/>
<text text-anchor="start" x="187.5" y="-496.6" font-family="Arial" font-size="14.00">id </text>
<text text-anchor="start" x="202.29" y="-496.6" font-family="Arial" font-size="14.00" fill="#666666">[int]</text>
<polygon fill="none" stroke="black" points="180.5,-453.6 180.5,-484.4 380.98,-484.4 380.98,-453.6 180.5,-453.6"/>
<text text-anchor="start" x="187.5" y="-465.8" font-family="Arial" font-size="14.00">name </text>
<text text-anchor="start" x="226.41" y="-465.8" font-family="Arial" font-size="14.00" fill="#666666">[varchar(255)]</text>
<polygon fill="none" stroke="black" points="180.5,-422.8 180.5,-453.6 380.98,-453.6 380.98,-422.8 180.5,-422.8"/>
<text text-anchor="start" x="187.5" y="-435" font-family="Arial" font-size="14.00">description </text>
<text text-anchor="start" x="259.1" y="-435" font-family="Arial" font-size="14.00" fill="#666666">[text]</text>
<polygon fill="none" stroke="black" points="180.5,-392 180.5,-422.8 380.98,-422.8 380.98,-392 180.5,-392"/>
<text text-anchor="start" x="187.5" y="-404.2" font-family="Arial" font-size="14.00">price </text>
<text text-anchor="start" x="221.74" y="-404.2" font-family="Arial" font-size="14.00" fill="#666666">[decimal(10,2)]</text>
<polygon fill="none" stroke="black" points="180.5,-361.2 180.5,-392 380.98,-392 380.98,-361.2 180.5,-361.2"/>
<text text-anchor="start" x="187.5" y="-373.4" font-family="Arial" font-size="14.00">stock </text>
<text text-anchor="start" x="224.07" y="-373.4" font-family="Arial" font-size="14.00" fill="#666666">[int]</text>
<polygon fill="none" stroke="black" points="180.5,-330.4 180.5,-361.2 380.98,-361.2 380.98,-330.4 180.5,-330.4"/>
<text text-anchor="start" x="187.5" y="-342.6" font-family="Arial" font-size="14.00">created_at </text>
<text text-anchor="start" x="257.55" y="-342.6" font-family="Arial" font-size="14.00" fill="#666666">[timestamp]</text>
<polygon fill="none" stroke="black" points="180.5,-299.6 180.5,-330.4 380.98,-330.4 380.98,-299.6 180.5,-299.6"/>
<text text-anchor="start" x="187.5" y="-311.8" font-family="Arial" font-size="14.00">updated_at </text>
<text text-anchor="start" x="261.46" y="-311.8" font-family="Arial" font-size="14.00" fill="#666666">[timestamp]</text>
<polygon fill="none" stroke="black" points="180.5,-268.8 180.5,-299.6 380.98,-299.6 380.98,-268.8 180.5,-268.8"/>
<text text-anchor="start" x="187.5" y="-281" font-family="Arial" font-size="14.00">category_id </text>
<text text-anchor="start" x="263.77" y="-281" font-family="Arial" font-size="14.00" fill="#666666">[int]</text>
</g>
<!-- products&#45;&gt;categories -->
<g id="edge1" class="edge">
<title>products:category_id&#45;&gt;categories:id</title>
<path fill="none" stroke="black" d="M281.69,-257.58C290.73,-213.17 361.6,-238.3 386.47,-189.6 406.11,-151.12 430.67,-92.4 387.47,-92.4"/>
<polygon fill="black" stroke="black" points="281.7,-257.51 276.29,-267.05 281.21,-262.82 280.81,-267.13 280.81,-267.13 280.81,-267.13 281.21,-262.82 285.25,-267.88 281.7,-257.51"/>
<text text-anchor="start" x="7" y="-277.8" font-family="Arial" font-size="10.00">FOREIGN KEY (category_id) REFERENCES categories (id)</text>
</g>
</g>
</svg>
