<?xml version="1.0" encoding="UTF-8" standalone="no"?>
<!DOCTYPE svg PUBLIC "-//W3C//DTD SVG 1.1//EN"
 "http://www.w3.org/Graphics/SVG/1.1/DTD/svg11.dtd">
<!-- Generated by graphviz version 12.1.2 (20240928.0832)
 -->
<!-- Title: comments Pages: 1 -->
<svg width="711pt" height="694pt"
 viewBox="0.00 0.00 710.59 694.40" xmlns="http://www.w3.org/2000/svg" xmlns:xlink="http://www.w3.org/1999/xlink">
<g id="graph0" class="graph" transform="scale(1 1) rotate(0) translate(4 690.4)">
<title>comments</title>
<polygon fill="white" stroke="none" points="-4,4 -4,-690.4 706.59,-690.4 706.59,4 -4,4"/>
<!-- comments -->
<g id="node1" class="node">
<title>comments</title>
<polygon fill="#efefef" stroke="none" points="240.05,-604.6 240.05,-640.2 452.53,-640.2 452.53,-604.6 240.05,-604.6"/>
<polygon fill="none" stroke="black" points="240.05,-604.6 240.05,-640.2 452.53,-640.2 452.53,-604.6 240.05,-604.6"/>
<text text-anchor="start" x="247.05" y="-618" font-family="Arial Bold" font-size="18.00">comments</text>
<text text-anchor="start" x="321.04" y="-618" font-family="Arial" font-size="14.00">    </text>
<text text-anchor="start" x="352.16" y="-618" font-family="Arial" font-size="14.00" fill="#666666">[BASE TABLE]</text>
<polygon fill="none" stroke="black" points="240.05,-573.8 240.05,-604.6 452.53,-604.6 452.53,-573.8 240.05,-573.8"/>
<text text-anchor="start" x="247.05" y="-586" font-family="Arial" font-size="14.00">id </text>
<text text-anchor="start" x="261.84" y="-586" font-family="Arial" font-size="14.00" fill="#666666">[int]</text>
<polygon fill="none" stroke="black" points="240.05,-543 240.05,-573.8 452.53,-573.8 452.53,-543 240.05,-543"/>
<text text-anchor="start" x="247.05" y="-555.2" font-family="Arial" font-size="14.00">content </text>
<text text-anchor="start" x="296.87" y="-555.2" font-family="Arial" font-size="14.00" fill="#666666">[text]</text>
<polygon fill="none" stroke="black" points="240.05,-512.2 240.05,-543 452.53,-543 452.53,-512.2 240.05,-512.2"/>
<text text-anchor="start" x="247.05" y="-524.4" font-family="Arial" font-size="14.00">created_at </text>
<text text-anchor="start" x="317.1" y="-524.4" font-family="Arial" font-size="14.00" fill="#666666">[timestamp]</text>
<polygon fill="none" stroke="black" points="240.05,-481.4 240.05,-512.2 452.53,-512.2 452.53,-481.4 240.05,-481.4"/>
<text text-anchor="start" x="247.05" y="-493.6" font-family="Arial" font-size="14.00">updated_at </text>
<text text-anchor="start" x="321.01" y="-493.6" font-family="Arial" font-size="14.00" fill="#666666">[timestamp]</text>
<polygon fill="none" stroke="black" points="240.05,-450.6 240.05,-481.4 452.53,-481.4 452.53,-450.6 240.05,-450.6"/>
<text text-anchor="start" x="247.05" y="-462.8" font-family="Arial" font-size="14.00">post_id </text>
<text text-anchor="start" x="296.09" y="-462.8" font-family="Arial" font-size="14.00" fill="#666666">[int]</text>
<polygon fill="none" stroke="black" points="240.05,-419.8 240.05,-450.6 452.53,-450.6 452.53,-419.8 240.05,-419.8"/>
<text text-anchor="start" x="247.05" y="-432" font-family="Arial" font-size="14.00">author_id </text>
<text text-anchor="start" x="309.32" y="-432" font-family="Arial" font-size="14.00" fill="#666666">[int]</text>
<polygon fill="none" stroke="black" stroke-width="3" points="238.55,-418.3 238.55,-641.7 454.03,-641.7 454.03,-418.3 238.55,-418.3"/>
</g>
<!-- posts -->
<g id="node2" class="node">
<title>posts</title>
<polygon fill="#efefef" stroke="none" points="118.54,-258.8 118.54,-294.4 294.04,-294.4 294.04,-258.8 118.54,-258.8"/>
<polygon fill="none" stroke="black" points="118.54,-258.8 118.54,-294.4 294.04,-294.4 294.04,-258.8 118.54,-258.8"/>
<text text-anchor="start" x="125.54" y="-272.2" font-family="Arial Bold" font-size="18.00">posts</text>
<text text-anchor="start" x="162.55" y="-272.2" font-family="Arial" font-size="14.00">    </text>
<text text-anchor="start" x="193.67" y="-272.2" font-family="Arial" font-size="14.00" fill="#666666">[BASE TABLE]</text>
<polygon fill="none" stroke="black" points="118.54,-228 118.54,-258.8 294.04,-258.8 294.04,-228 118.54,-228"/>
<text text-anchor="start" x="125.54" y="-240.2" font-family="Arial" font-size="14.00">id </text>
<text text-anchor="start" x="140.33" y="-240.2" font-family="Arial" font-size="14.00" fill="#666666">[int]</text>
<polygon fill="none" stroke="black" points="118.54,-197.2 118.54,-228 294.04,-228 294.04,-197.2 118.54,-197.2"/>
<text text-anchor="start" x="125.54" y="-209.4" font-family="Arial" font-size="14.00">title </text>
<text text-anchor="start" x="151.22" y="-209.4" font-family="Arial" font-size="14.00" fill="#666666">[varchar(255)]</text>
<polygon fill="none" stroke="black" points="118.54,-166.4 118.54,-197.2 294.04,-197.2 294.04,-166.4 118.54,-166.4"/>
<text text-anchor="start" x="125.54" y="-178.6" font-family="Arial" font-size="14.00">content </text>
<text text-anchor="start" x="175.35" y="-178.6" font-family="Arial" font-size="14.00" fill="#666666">[text]</text>
<polygon fill="none" stroke="black" points="118.54,-135.6 118.54,-166.4 294.04,-166.4 294.04,-135.6 118.54,-135.6"/>
<text text-anchor="start" x="125.54" y="-147.8" font-family="Arial" font-size="14.00">published </text>
<text text-anchor="start" x="189.37" y="-147.8" font-family="Arial" font-size="14.00" fill="#666666">[tinyint(1)]</text>
<polygon fill="none" stroke="black" points="118.54,-104.8 118.54,-135.6 294.04,-135.6 294.04,-104.8 118.54,-104.8"/>
<text text-anchor="start" x="125.54" y="-117" font-family="Arial" font-size="14.00">created_at </text>
<text text-anchor="start" x="195.59" y="-117" font-family="Arial" font-size="14.00" fill="#666666">[timestamp]</text>
<polygon fill="none" stroke="black" points="118.54,-74 118.54,-104.8 294.04,-104.8 294.04,-74 118.54,-74"/>
<text text-anchor="start" x="125.54" y="-86.2" font-family="Arial" font-size="14.00">updated_at </text>
<text text-anchor="start" x="199.5" y="-86.2" font-family="Arial" font-size="14.00" fill="#666666">[timestamp]</text>
<polygon fill="none" stroke="black" points="118.54,-43.2 118.54,-74 294.04,-74 294.04,-43.2 118.54,-43.2"/>
<text text-anchor="start" x="125.54" y="-55.4" font-family="Arial" font-size="14.00">author_id </text>
<text text-anchor="start" x="187.81" y="-55.4" font-family="Arial" font-size="14.00" fill="#666666">[int]</text>
</g>
<!-- comments&#45;&gt;posts -->
<g id="edge1" class="edge">
<title>comments:post_id&#45;&gt;posts:id</title>
<path fill="none" stroke="black" d="M228.78,-464.46C202.35,-455.2 222.39,-406.18 240.05,-373.6 253.8,-348.25 280.3,-362.96 294.04,-337.6 313.99,-300.79 336.91,-243.4 295.04,-243.4"/>
<polygon fill="black" stroke="black" points="228.83,-464.47 238.06,-470.4 234.11,-465.26 238.39,-465.9 238.39,-465.9 238.39,-465.9 234.11,-465.26 239.39,-461.5 228.83,-464.47"/>
<text text-anchor="start" x="7" y="-476" font-family="Arial" font-size="10.00">FOREIGN KEY (post_id) REFERENCES posts (id)</text>
</g>
<!-- users -->
<g id="node3" class="node">
<title>users</title>
<polygon fill="#efefef" stroke="none" points="398.55,-243.4 398.55,-279 574.03,-279 574.03,-243.4 398.55,-243.4"/>
<polygon fill="none" stroke="black" points="398.55,-243.4 398.55,-279 574.03,-279 574.03,-243.4 398.55,-243.4"/>
<text text-anchor="start" x="405.55" y="-256.8" font-family="Arial Bold" font-size="18.00">users</text>
<text text-anchor="start" x="442.54" y="-256.8" font-family="Arial" font-size="14.00">    </text>
<text text-anchor="start" x="473.66" y="-256.8" font-family="Arial" font-size="14.00" fill="#666666">[BASE TABLE]</text>
<polygon fill="none" stroke="black" points="398.55,-212.6 398.55,-243.4 574.03,-243.4 574.03,-212.6 398.55,-212.6"/>
<text text-anchor="start" x="405.55" y="-224.8" font-family="Arial" font-size="14.00">id </text>
<text text-anchor="start" x="420.34" y="-224.8" font-family="Arial" font-size="14.00" fill="#666666">[int]</text>
<polygon fill="none" stroke="black" points="398.55,-181.8 398.55,-212.6 574.03,-212.6 574.03,-181.8 398.55,-181.8"/>
<text text-anchor="start" x="405.55" y="-194" font-family="Arial" font-size="14.00">email </text>
<text text-anchor="start" x="442.9" y="-194" font-family="Arial" font-size="14.00" fill="#666666">[varchar(255)]</text>
<polygon fill="none" stroke="black" points="398.55,-151 398.55,-181.8 574.03,-181.8 574.03,-151 398.55,-151"/>
<text text-anchor="start" x="405.55" y="-163.2" font-family="Arial" font-size="14.00">username </text>
<text text-anchor="start" x="471.69" y="-163.2" font-family="Arial" font-size="14.00" fill="#666666">[varchar(255)]</text>
<polygon fill="none" stroke="black" points="398.55,-120.2 398.55,-151 574.03,-151 574.03,-120.2 398.55,-120.2"/>
<text text-anchor="start" x="405.55" y="-132.4" font-family="Arial" font-size="14.00">password </text>
<text text-anchor="start" x="469.36" y="-132.4" font-family="Arial" font-size="14.00" fill="#666666">[varchar(255)]</text>
<polygon fill="none" stroke="black" points="398.55,-89.4 398.55,-120.2 574.03,-120.2 574.03,-89.4 398.55,-89.4"/>
<text text-anchor="start" x="405.55" y="-101.6" font-family="Arial" font-size="14.00">created_at </text>
<text text-anchor="start" x="475.6" y="-101.6" font-family="Arial" font-size="14.00" fill="#666666">[timestamp]</text>
<polygon fill="none" stroke="black" points="398.55,-58.6 398.55,-89.4 574.03,-89.4 574.03,-58.6 398.55,-58.6"/>
<text text-anchor="start" x="405.55" y="-70.8" font-family="Arial" font-size="14.00">updated_at </text>
<text text-anchor="start" x="479.51" y="-70.8" font-family="Arial" font-size="14.00" fill="#666666">[timestamp]</text>
</g>
<!-- comments&#45;&gt;users -->
<g id="edge2" class="edge">
<title>comments:author_id&#45;&gt;users:id</title>
<path fill="none" stroke="black" d="M463.28,-432.71C475.63,-424.07 461.8,-394.76 452.53,-373.6 439.23,-343.26 411.76,-352.58 398.55,-322.2 381.85,-283.81 355.68,-228 397.55,-228"/>
<polygon fill="black" stroke="black" points="463.54,-432.64 452.74,-430.76 458.37,-433.96 454.18,-435.03 454.18,-435.03 454.18,-435.03 458.37,-433.96 454.97,-439.48 463.54,-432.64"/>
<text text-anchor="start" x="460.53" y="-445.2" font-family="Arial" font-size="10.00">FOREIGN KEY (author_id) REFERENCES users (id)</text>
</g>
</g>
</svg>
