<?xml version="1.0" encoding="UTF-8" standalone="no"?>
<!DOCTYPE svg PUBLIC "-//W3C//DTD SVG 1.1//EN"
 "http://www.w3.org/Graphics/SVG/1.1/DTD/svg11.dtd">
<!-- Generated by graphviz version 12.1.2 (20240928.0832)
 -->
<!-- Title: notifications Pages: 1 -->
<svg width="524pt" height="664pt"
 viewBox="0.00 0.00 523.83 663.60" xmlns="http://www.w3.org/2000/svg" xmlns:xlink="http://www.w3.org/1999/xlink">
<g id="graph0" class="graph" transform="scale(1 1) rotate(0) translate(4 659.6)">
<title>notifications</title>
<polygon fill="white" stroke="none" points="-4,4 -4,-659.6 519.83,-659.6 519.83,4 -4,4"/>
<!-- notifications -->
<g id="node1" class="node">
<title>notifications</title>
<polygon fill="#efefef" stroke="none" points="46.2,-573.8 46.2,-609.4 274.67,-609.4 274.67,-573.8 46.2,-573.8"/>
<polygon fill="none" stroke="black" points="46.2,-573.8 46.2,-609.4 274.67,-609.4 274.67,-573.8 46.2,-573.8"/>
<text text-anchor="start" x="53.2" y="-587.2" font-family="Arial Bold" font-size="18.00">notifications</text>
<text text-anchor="start" x="143.18" y="-587.2" font-family="Arial" font-size="14.00">    </text>
<text text-anchor="start" x="174.3" y="-587.2" font-family="Arial" font-size="14.00" fill="#666666">[BASE TABLE]</text>
<polygon fill="none" stroke="black" points="46.2,-543 46.2,-573.8 274.67,-573.8 274.67,-543 46.2,-543"/>
<text text-anchor="start" x="53.2" y="-555.2" font-family="Arial" font-size="14.00">id </text>
<text text-anchor="start" x="67.99" y="-555.2" font-family="Arial" font-size="14.00" fill="#666666">[int]</text>
<polygon fill="none" stroke="black" points="46.2,-512.2 46.2,-543 274.67,-543 274.67,-512.2 46.2,-512.2"/>
<text text-anchor="start" x="53.2" y="-524.4" font-family="Arial" font-size="14.00">user_id </text>
<text text-anchor="start" x="103.01" y="-524.4" font-family="Arial" font-size="14.00" fill="#666666">[int]</text>
<polygon fill="none" stroke="black" points="46.2,-481.4 46.2,-512.2 274.67,-512.2 274.67,-481.4 46.2,-481.4"/>
<text text-anchor="start" x="53.2" y="-493.6" font-family="Arial" font-size="14.00">title </text>
<text text-anchor="start" x="78.88" y="-493.6" font-family="Arial" font-size="14.00" fill="#666666">[varchar(255)]</text>
<polygon fill="none" stroke="black" points="46.2,-450.6 46.2,-481.4 274.67,-481.4 274.67,-450.6 46.2,-450.6"/>
<text text-anchor="start" x="53.2" y="-462.8" font-family="Arial" font-size="14.00">content </text>
<text text-anchor="start" x="103.01" y="-462.8" font-family="Arial" font-size="14.00" fill="#666666">[text]</text>
<polygon fill="none" stroke="black" points="46.2,-419.8 46.2,-450.6 274.67,-450.6 274.67,-419.8 46.2,-419.8"/>
<text text-anchor="start" x="53.2" y="-432" font-family="Arial" font-size="14.00">is_read </text>
<text text-anchor="start" x="103.01" y="-432" font-family="Arial" font-size="14.00" fill="#666666">[tinyint(1)]</text>
<polygon fill="none" stroke="black" points="46.2,-389 46.2,-419.8 274.67,-419.8 274.67,-389 46.2,-389"/>
<text text-anchor="start" x="53.2" y="-401.2" font-family="Arial" font-size="14.00">created_at </text>
<text text-anchor="start" x="123.25" y="-401.2" font-family="Arial" font-size="14.00" fill="#666666">[timestamp]</text>
<polygon fill="none" stroke="black" stroke-width="3" points="44.7,-387.5 44.7,-610.9 276.17,-610.9 276.17,-387.5 44.7,-387.5"/>
</g>
<!-- users -->
<g id="node2" class="node">
<title>users</title>
<polygon fill="#efefef" stroke="none" points="72.69,-228 72.69,-263.6 248.18,-263.6 248.18,-228 72.69,-228"/>
<polygon fill="none" stroke="black" points="72.69,-228 72.69,-263.6 248.18,-263.6 248.18,-228 72.69,-228"/>
<text text-anchor="start" x="79.69" y="-241.4" font-family="Arial Bold" font-size="18.00">users</text>
<text text-anchor="start" x="116.69" y="-241.4" font-family="Arial" font-size="14.00">    </text>
<text text-anchor="start" x="147.8" y="-241.4" font-family="Arial" font-size="14.00" fill="#666666">[BASE TABLE]</text>
<polygon fill="none" stroke="black" points="72.69,-197.2 72.69,-228 248.18,-228 248.18,-197.2 72.69,-197.2"/>
<text text-anchor="start" x="79.69" y="-209.4" font-family="Arial" font-size="14.00">id </text>
<text text-anchor="start" x="94.48" y="-209.4" font-family="Arial" font-size="14.00" fill="#666666">[int]</text>
<polygon fill="none" stroke="black" points="72.69,-166.4 72.69,-197.2 248.18,-197.2 248.18,-166.4 72.69,-166.4"/>
<text text-anchor="start" x="79.69" y="-178.6" font-family="Arial" font-size="14.00">email </text>
<text text-anchor="start" x="117.04" y="-178.6" font-family="Arial" font-size="14.00" fill="#666666">[varchar(255)]</text>
<polygon fill="none" stroke="black" points="72.69,-135.6 72.69,-166.4 248.18,-166.4 248.18,-135.6 72.69,-135.6"/>
<text text-anchor="start" x="79.69" y="-147.8" font-family="Arial" font-size="14.00">username </text>
<text text-anchor="start" x="145.84" y="-147.8" font-family="Arial" font-size="14.00" fill="#666666">[varchar(255)]</text>
<polygon fill="none" stroke="black" points="72.69,-104.8 72.69,-135.6 248.18,-135.6 248.18,-104.8 72.69,-104.8"/>
<text text-anchor="start" x="79.69" y="-117" font-family="Arial" font-size="14.00">password </text>
<text text-anchor="start" x="143.5" y="-117" font-family="Arial" font-size="14.00" fill="#666666">[varchar(255)]</text>
<polygon fill="none" stroke="black" points="72.69,-74 72.69,-104.8 248.18,-104.8 248.18,-74 72.69,-74"/>
<text text-anchor="start" x="79.69" y="-86.2" font-family="Arial" font-size="14.00">created_at </text>
<text text-anchor="start" x="149.74" y="-86.2" font-family="Arial" font-size="14.00" fill="#666666">[timestamp]</text>
<polygon fill="none" stroke="black" points="72.69,-43.2 72.69,-74 248.18,-74 248.18,-43.2 72.69,-43.2"/>
<text text-anchor="start" x="79.69" y="-55.4" font-family="Arial" font-size="14.00">updated_at </text>
<text text-anchor="start" x="153.65" y="-55.4" font-family="Arial" font-size="14.00" fill="#666666">[timestamp]</text>
</g>
<!-- notifications&#45;&gt;users -->
<g id="edge1" class="edge">
<title>notifications:user_id&#45;&gt;users:id</title>
<path fill="none" stroke="black" d="M285.63,-525.25C343.12,-496.42 315.86,-212.6 249.18,-212.6"/>
<polygon fill="black" stroke="black" points="285.73,-525.22 274.96,-523.14 280.54,-526.45 276.32,-527.45 276.32,-527.45 276.32,-527.45 280.54,-526.45 277.03,-531.9 285.73,-525.22"/>
<text text-anchor="start" x="282.67" y="-537.6" font-family="Arial" font-size="10.00">FOREIGN KEY (user_id) REFERENCES users (id)</text>
</g>
</g>
</svg>
