<?xml version="1.0" encoding="UTF-8" standalone="no"?>
<!DOCTYPE svg PUBLIC "-//W3C//DTD SVG 1.1//EN"
 "http://www.w3.org/Graphics/SVG/1.1/DTD/svg11.dtd">
<!-- Generated by graphviz version 12.1.2 (20240928.0832)
 -->
<!-- Title: orders Pages: 1 -->
<svg width="827pt" height="976pt"
 viewBox="0.00 0.00 826.99 975.60" xmlns="http://www.w3.org/2000/svg" xmlns:xlink="http://www.w3.org/1999/xlink">
<g id="graph0" class="graph" transform="scale(1 1) rotate(0) translate(4 971.6)">
<title>orders</title>
<polygon fill="white" stroke="none" points="-4,4 -4,-971.6 822.99,-971.6 822.99,4 -4,4"/>
<!-- orders -->
<g id="node1" class="node">
<title>orders</title>
<polygon fill="#efefef" stroke="none" points="46.2,-573.8 46.2,-609.4 577.84,-609.4 577.84,-573.8 46.2,-573.8"/>
<polygon fill="none" stroke="black" points="46.2,-573.8 46.2,-609.4 577.84,-609.4 577.84,-573.8 46.2,-573.8"/>
<text text-anchor="start" x="227.28" y="-587.2" font-family="Arial Bold" font-size="18.00">orders</text>
<text text-anchor="start" x="272.27" y="-587.2" font-family="Arial" font-size="14.00">    </text>
<text text-anchor="start" x="303.38" y="-587.2" font-family="Arial" font-size="14.00" fill="#666666">[BASE TABLE]</text>
<polygon fill="none" stroke="black" points="46.2,-543 46.2,-573.8 577.84,-573.8 577.84,-543 46.2,-543"/>
<text text-anchor="start" x="53.2" y="-555.2" font-family="Arial" font-size="14.00">id </text>
<text text-anchor="start" x="67.99" y="-555.2" font-family="Arial" font-size="14.00" fill="#666666">[int]</text>
<polygon fill="none" stroke="black" points="46.2,-512.2 46.2,-543 577.84,-543 577.84,-512.2 46.2,-512.2"/>
<text text-anchor="start" x="53.2" y="-524.4" font-family="Arial" font-size="14.00">user_id </text>
<text text-anchor="start" x="103.01" y="-524.4" font-family="Arial" font-size="14.00" fill="#666666">[int]</text>
<polygon fill="none" stroke="black" points="46.2,-481.4 46.2,-512.2 577.84,-512.2 577.84,-481.4 46.2,-481.4"/>
<text text-anchor="start" x="53.2" y="-493.6" font-family="Arial" font-size="14.00">status </text>
<text text-anchor="start" x="94.44" y="-493.6" font-family="Arial" font-size="14.00" fill="#666666">[enum(&#39;PENDING&#39;,&#39;PROCESSING&#39;,&#39;SHIPPED&#39;,&#39;DELIVERED&#39;,&#39;CANCELLED&#39;)]</text>
<polygon fill="none" stroke="black" points="46.2,-450.6 46.2,-481.4 577.84,-481.4 577.84,-450.6 46.2,-450.6"/>
<text text-anchor="start" x="53.2" y="-462.8" font-family="Arial" font-size="14.00">total_price </text>
<text text-anchor="start" x="121.68" y="-462.8" font-family="Arial" font-size="14.00" fill="#666666">[decimal(10,2)]</text>
<polygon fill="none" stroke="black" points="46.2,-419.8 46.2,-450.6 577.84,-450.6 577.84,-419.8 46.2,-419.8"/>
<text text-anchor="start" x="53.2" y="-432" font-family="Arial" font-size="14.00">created_at </text>
<text text-anchor="start" x="123.25" y="-432" font-family="Arial" font-size="14.00" fill="#666666">[timestamp]</text>
<polygon fill="none" stroke="black" points="46.2,-389 46.2,-419.8 577.84,-419.8 577.84,-389 46.2,-389"/>
<text text-anchor="start" x="53.2" y="-401.2" font-family="Arial" font-size="14.00">updated_at </text>
<text text-anchor="start" x="127.16" y="-401.2" font-family="Arial" font-size="14.00" fill="#666666">[timestamp]</text>
<polygon fill="none" stroke="black" stroke-width="3" points="44.7,-387.5 44.7,-610.9 579.34,-610.9 579.34,-387.5 44.7,-387.5"/>
</g>
<!-- users -->
<g id="node3" class="node">
<title>users</title>
<polygon fill="#efefef" stroke="none" points="224.28,-228 224.28,-263.6 399.76,-263.6 399.76,-228 224.28,-228"/>
<polygon fill="none" stroke="black" points="224.28,-228 224.28,-263.6 399.76,-263.6 399.76,-228 224.28,-228"/>
<text text-anchor="start" x="231.28" y="-241.4" font-family="Arial Bold" font-size="18.00">users</text>
<text text-anchor="start" x="268.27" y="-241.4" font-family="Arial" font-size="14.00">    </text>
<text text-anchor="start" x="299.39" y="-241.4" font-family="Arial" font-size="14.00" fill="#666666">[BASE TABLE]</text>
<polygon fill="none" stroke="black" points="224.28,-197.2 224.28,-228 399.76,-228 399.76,-197.2 224.28,-197.2"/>
<text text-anchor="start" x="231.28" y="-209.4" font-family="Arial" font-size="14.00">id </text>
<text text-anchor="start" x="246.06" y="-209.4" font-family="Arial" font-size="14.00" fill="#666666">[int]</text>
<polygon fill="none" stroke="black" points="224.28,-166.4 224.28,-197.2 399.76,-197.2 399.76,-166.4 224.28,-166.4"/>
<text text-anchor="start" x="231.28" y="-178.6" font-family="Arial" font-size="14.00">email </text>
<text text-anchor="start" x="268.62" y="-178.6" font-family="Arial" font-size="14.00" fill="#666666">[varchar(255)]</text>
<polygon fill="none" stroke="black" points="224.28,-135.6 224.28,-166.4 399.76,-166.4 399.76,-135.6 224.28,-135.6"/>
<text text-anchor="start" x="231.28" y="-147.8" font-family="Arial" font-size="14.00">username </text>
<text text-anchor="start" x="297.42" y="-147.8" font-family="Arial" font-size="14.00" fill="#666666">[varchar(255)]</text>
<polygon fill="none" stroke="black" points="224.28,-104.8 224.28,-135.6 399.76,-135.6 399.76,-104.8 224.28,-104.8"/>
<text text-anchor="start" x="231.28" y="-117" font-family="Arial" font-size="14.00">password </text>
<text text-anchor="start" x="295.08" y="-117" font-family="Arial" font-size="14.00" fill="#666666">[varchar(255)]</text>
<polygon fill="none" stroke="black" points="224.28,-74 224.28,-104.8 399.76,-104.8 399.76,-74 224.28,-74"/>
<text text-anchor="start" x="231.28" y="-86.2" font-family="Arial" font-size="14.00">created_at </text>
<text text-anchor="start" x="301.33" y="-86.2" font-family="Arial" font-size="14.00" fill="#666666">[timestamp]</text>
<polygon fill="none" stroke="black" points="224.28,-43.2 224.28,-74 399.76,-74 399.76,-43.2 224.28,-43.2"/>
<text text-anchor="start" x="231.28" y="-55.4" font-family="Arial" font-size="14.00">updated_at </text>
<text text-anchor="start" x="305.24" y="-55.4" font-family="Arial" font-size="14.00" fill="#666666">[timestamp]</text>
</g>
<!-- orders&#45;&gt;users -->
<g id="edge2" class="edge">
<title>orders:user_id&#45;&gt;users:id</title>
<path fill="none" stroke="black" d="M589.17,-527.13C731.67,-513.61 557.97,-212.6 400.76,-212.6"/>
<polygon fill="black" stroke="black" points="589.16,-527.13 578.97,-523.09 583.83,-527.37 579.51,-527.57 579.51,-527.57 579.51,-527.57 583.83,-527.37 579.38,-532.08 589.16,-527.13"/>
<text text-anchor="start" x="585.84" y="-537.6" font-family="Arial" font-size="10.00">FOREIGN KEY (user_id) REFERENCES users (id)</text>
</g>
<!-- order_items -->
<g id="node2" class="node">
<title>order_items</title>
<polygon fill="#efefef" stroke="none" points="199.79,-888.8 199.79,-924.4 424.25,-924.4 424.25,-888.8 199.79,-888.8"/>
<polygon fill="none" stroke="black" points="199.79,-888.8 199.79,-924.4 424.25,-924.4 424.25,-888.8 199.79,-888.8"/>
<text text-anchor="start" x="206.79" y="-902.2" font-family="Arial Bold" font-size="18.00">order_items</text>
<text text-anchor="start" x="292.76" y="-902.2" font-family="Arial" font-size="14.00">    </text>
<text text-anchor="start" x="323.88" y="-902.2" font-family="Arial" font-size="14.00" fill="#666666">[BASE TABLE]</text>
<polygon fill="none" stroke="black" points="199.79,-858 199.79,-888.8 424.25,-888.8 424.25,-858 199.79,-858"/>
<text text-anchor="start" x="206.79" y="-870.2" font-family="Arial" font-size="14.00">id </text>
<text text-anchor="start" x="221.57" y="-870.2" font-family="Arial" font-size="14.00" fill="#666666">[int]</text>
<polygon fill="none" stroke="black" points="199.79,-827.2 199.79,-858 424.25,-858 424.25,-827.2 199.79,-827.2"/>
<text text-anchor="start" x="206.79" y="-839.4" font-family="Arial" font-size="14.00">order_id </text>
<text text-anchor="start" x="262.04" y="-839.4" font-family="Arial" font-size="14.00" fill="#666666">[int]</text>
<polygon fill="none" stroke="black" points="199.79,-796.4 199.79,-827.2 424.25,-827.2 424.25,-796.4 199.79,-796.4"/>
<text text-anchor="start" x="206.79" y="-808.6" font-family="Arial" font-size="14.00">product_id </text>
<text text-anchor="start" x="276.06" y="-808.6" font-family="Arial" font-size="14.00" fill="#666666">[int]</text>
<polygon fill="none" stroke="black" points="199.79,-765.6 199.79,-796.4 424.25,-796.4 424.25,-765.6 199.79,-765.6"/>
<text text-anchor="start" x="206.79" y="-777.8" font-family="Arial" font-size="14.00">quantity </text>
<text text-anchor="start" x="259.71" y="-777.8" font-family="Arial" font-size="14.00" fill="#666666">[int]</text>
<polygon fill="none" stroke="black" points="199.79,-734.8 199.79,-765.6 424.25,-765.6 424.25,-734.8 199.79,-734.8"/>
<text text-anchor="start" x="206.79" y="-747" font-family="Arial" font-size="14.00">price </text>
<text text-anchor="start" x="241.02" y="-747" font-family="Arial" font-size="14.00" fill="#666666">[decimal(10,2)]</text>
</g>
<!-- order_items&#45;&gt;orders -->
<g id="edge1" class="edge">
<title>order_items:order_id&#45;&gt;orders:id</title>
<path fill="none" stroke="black" d="M435.36,-842.14C575.86,-829.43 719.05,-558.4 578.84,-558.4"/>
<polygon fill="black" stroke="black" points="435.57,-842.13 425.38,-838.09 430.25,-842.37 425.92,-842.57 425.92,-842.57 425.92,-842.57 430.25,-842.37 425.79,-847.08 435.57,-842.13"/>
<text text-anchor="start" x="432.25" y="-852.6" font-family="Arial" font-size="10.00">FOREIGN KEY (order_id) REFERENCES orders (id)</text>
</g>
</g>
</svg>
