<?xml version="1.0" encoding="UTF-8" standalone="no"?>
<!DOCTYPE svg PUBLIC "-//W3C//DTD SVG 1.1//EN"
 "http://www.w3.org/Graphics/SVG/1.1/DTD/svg11.dtd">
<!-- Generated by graphviz version 12.1.2 (20240928.0832)
 -->
<!-- Title: order_items Pages: 1 -->
<svg width="933pt" height="694pt"
 viewBox="0.00 0.00 933.21 694.40" xmlns="http://www.w3.org/2000/svg" xmlns:xlink="http://www.w3.org/1999/xlink">
<g id="graph0" class="graph" transform="scale(1 1) rotate(0) translate(4 690.4)">
<title>order_items</title>
<polygon fill="white" stroke="none" points="-4,4 -4,-690.4 929.21,-690.4 929.21,4 -4,4"/>
<!-- order_items -->
<g id="node1" class="node">
<title>order_items</title>
<polygon fill="#efefef" stroke="none" points="431.79,-604.6 431.79,-640.2 656.25,-640.2 656.25,-604.6 431.79,-604.6"/>
<polygon fill="none" stroke="black" points="431.79,-604.6 431.79,-640.2 656.25,-640.2 656.25,-604.6 431.79,-604.6"/>
<text text-anchor="start" x="438.79" y="-618" font-family="Arial Bold" font-size="18.00">order_items</text>
<text text-anchor="start" x="524.76" y="-618" font-family="Arial" font-size="14.00">    </text>
<text text-anchor="start" x="555.88" y="-618" font-family="Arial" font-size="14.00" fill="#666666">[BASE TABLE]</text>
<polygon fill="none" stroke="black" points="431.79,-573.8 431.79,-604.6 656.25,-604.6 656.25,-573.8 431.79,-573.8"/>
<text text-anchor="start" x="438.79" y="-586" font-family="Arial" font-size="14.00">id </text>
<text text-anchor="start" x="453.57" y="-586" font-family="Arial" font-size="14.00" fill="#666666">[int]</text>
<polygon fill="none" stroke="black" points="431.79,-543 431.79,-573.8 656.25,-573.8 656.25,-543 431.79,-543"/>
<text text-anchor="start" x="438.79" y="-555.2" font-family="Arial" font-size="14.00">order_id </text>
<text text-anchor="start" x="494.04" y="-555.2" font-family="Arial" font-size="14.00" fill="#666666">[int]</text>
<polygon fill="none" stroke="black" points="431.79,-512.2 431.79,-543 656.25,-543 656.25,-512.2 431.79,-512.2"/>
<text text-anchor="start" x="438.79" y="-524.4" font-family="Arial" font-size="14.00">product_id </text>
<text text-anchor="start" x="508.06" y="-524.4" font-family="Arial" font-size="14.00" fill="#666666">[int]</text>
<polygon fill="none" stroke="black" points="431.79,-481.4 431.79,-512.2 656.25,-512.2 656.25,-481.4 431.79,-481.4"/>
<text text-anchor="start" x="438.79" y="-493.6" font-family="Arial" font-size="14.00">quantity </text>
<text text-anchor="start" x="491.71" y="-493.6" font-family="Arial" font-size="14.00" fill="#666666">[int]</text>
<polygon fill="none" stroke="black" points="431.79,-450.6 431.79,-481.4 656.25,-481.4 656.25,-450.6 431.79,-450.6"/>
<text text-anchor="start" x="438.79" y="-462.8" font-family="Arial" font-size="14.00">price </text>
<text text-anchor="start" x="473.02" y="-462.8" font-family="Arial" font-size="14.00" fill="#666666">[decimal(10,2)]</text>
<polygon fill="none" stroke="black" stroke-width="3" points="430.29,-449.1 430.29,-641.7 657.75,-641.7 657.75,-449.1 430.29,-449.1"/>
</g>
<!-- orders -->
<g id="node2" class="node">
<title>orders</title>
<polygon fill="#efefef" stroke="none" points="43.2,-258.8 43.2,-294.4 574.84,-294.4 574.84,-258.8 43.2,-258.8"/>
<polygon fill="none" stroke="black" points="43.2,-258.8 43.2,-294.4 574.84,-294.4 574.84,-258.8 43.2,-258.8"/>
<text text-anchor="start" x="224.28" y="-272.2" font-family="Arial Bold" font-size="18.00">orders</text>
<text text-anchor="start" x="269.27" y="-272.2" font-family="Arial" font-size="14.00">    </text>
<text text-anchor="start" x="300.38" y="-272.2" font-family="Arial" font-size="14.00" fill="#666666">[BASE TABLE]</text>
<polygon fill="none" stroke="black" points="43.2,-228 43.2,-258.8 574.84,-258.8 574.84,-228 43.2,-228"/>
<text text-anchor="start" x="50.2" y="-240.2" font-family="Arial" font-size="14.00">id </text>
<text text-anchor="start" x="64.99" y="-240.2" font-family="Arial" font-size="14.00" fill="#666666">[int]</text>
<polygon fill="none" stroke="black" points="43.2,-197.2 43.2,-228 574.84,-228 574.84,-197.2 43.2,-197.2"/>
<text text-anchor="start" x="50.2" y="-209.4" font-family="Arial" font-size="14.00">user_id </text>
<text text-anchor="start" x="100.01" y="-209.4" font-family="Arial" font-size="14.00" fill="#666666">[int]</text>
<polygon fill="none" stroke="black" points="43.2,-166.4 43.2,-197.2 574.84,-197.2 574.84,-166.4 43.2,-166.4"/>
<text text-anchor="start" x="50.2" y="-178.6" font-family="Arial" font-size="14.00">status </text>
<text text-anchor="start" x="91.44" y="-178.6" font-family="Arial" font-size="14.00" fill="#666666">[enum(&#39;PENDING&#39;,&#39;PROCESSING&#39;,&#39;SHIPPED&#39;,&#39;DELIVERED&#39;,&#39;CANCELLED&#39;)]</text>
<polygon fill="none" stroke="black" points="43.2,-135.6 43.2,-166.4 574.84,-166.4 574.84,-135.6 43.2,-135.6"/>
<text text-anchor="start" x="50.2" y="-147.8" font-family="Arial" font-size="14.00">total_price </text>
<text text-anchor="start" x="118.68" y="-147.8" font-family="Arial" font-size="14.00" fill="#666666">[decimal(10,2)]</text>
<polygon fill="none" stroke="black" points="43.2,-104.8 43.2,-135.6 574.84,-135.6 574.84,-104.8 43.2,-104.8"/>
<text text-anchor="start" x="50.2" y="-117" font-family="Arial" font-size="14.00">created_at </text>
<text text-anchor="start" x="120.25" y="-117" font-family="Arial" font-size="14.00" fill="#666666">[timestamp]</text>
<polygon fill="none" stroke="black" points="43.2,-74 43.2,-104.8 574.84,-104.8 574.84,-74 43.2,-74"/>
<text text-anchor="start" x="50.2" y="-86.2" font-family="Arial" font-size="14.00">updated_at </text>
<text text-anchor="start" x="124.16" y="-86.2" font-family="Arial" font-size="14.00" fill="#666666">[timestamp]</text>
</g>
<!-- order_items&#45;&gt;orders -->
<g id="edge1" class="edge">
<title>order_items:order_id&#45;&gt;orders:id</title>
<path fill="none" stroke="black" d="M420.45,-557.56C365.91,-547.97 396.86,-458.87 431.79,-404.4 469.66,-345.33 536.84,-396.59 574.84,-337.6 597.51,-302.4 617.71,-243.4 575.84,-243.4"/>
<polygon fill="black" stroke="black" points="420.49,-557.56 430.09,-562.86 425.8,-557.99 430.12,-558.35 430.12,-558.35 430.12,-558.35 425.8,-557.99 430.82,-553.89 420.49,-557.56"/>
<text text-anchor="start" x="189.85" y="-568.4" font-family="Arial" font-size="10.00">FOREIGN KEY (order_id) REFERENCES orders (id)</text>
</g>
<!-- products -->
<g id="node3" class="node">
<title>products</title>
<polygon fill="#efefef" stroke="none" points="678.78,-289.6 678.78,-325.2 879.26,-325.2 879.26,-289.6 678.78,-289.6"/>
<polygon fill="none" stroke="black" points="678.78,-289.6 678.78,-325.2 879.26,-325.2 879.26,-289.6 678.78,-289.6"/>
<text text-anchor="start" x="685.78" y="-303" font-family="Arial Bold" font-size="18.00">products</text>
<text text-anchor="start" x="747.77" y="-303" font-family="Arial" font-size="14.00">    </text>
<text text-anchor="start" x="778.89" y="-303" font-family="Arial" font-size="14.00" fill="#666666">[BASE TABLE]</text>
<polygon fill="none" stroke="black" points="678.78,-258.8 678.78,-289.6 879.26,-289.6 879.26,-258.8 678.78,-258.8"/>
<text text-anchor="start" x="685.78" y="-271" font-family="Arial" font-size="14.00">id </text>
<text text-anchor="start" x="700.57" y="-271" font-family="Arial" font-size="14.00" fill="#666666">[int]</text>
<polygon fill="none" stroke="black" points="678.78,-228 678.78,-258.8 879.26,-258.8 879.26,-228 678.78,-228"/>
<text text-anchor="start" x="685.78" y="-240.2" font-family="Arial" font-size="14.00">name </text>
<text text-anchor="start" x="724.69" y="-240.2" font-family="Arial" font-size="14.00" fill="#666666">[varchar(255)]</text>
<polygon fill="none" stroke="black" points="678.78,-197.2 678.78,-228 879.26,-228 879.26,-197.2 678.78,-197.2"/>
<text text-anchor="start" x="685.78" y="-209.4" font-family="Arial" font-size="14.00">description </text>
<text text-anchor="start" x="757.37" y="-209.4" font-family="Arial" font-size="14.00" fill="#666666">[text]</text>
<polygon fill="none" stroke="black" points="678.78,-166.4 678.78,-197.2 879.26,-197.2 879.26,-166.4 678.78,-166.4"/>
<text text-anchor="start" x="685.78" y="-178.6" font-family="Arial" font-size="14.00">price </text>
<text text-anchor="start" x="720.01" y="-178.6" font-family="Arial" font-size="14.00" fill="#666666">[decimal(10,2)]</text>
<polygon fill="none" stroke="black" points="678.78,-135.6 678.78,-166.4 879.26,-166.4 879.26,-135.6 678.78,-135.6"/>
<text text-anchor="start" x="685.78" y="-147.8" font-family="Arial" font-size="14.00">stock </text>
<text text-anchor="start" x="722.35" y="-147.8" font-family="Arial" font-size="14.00" fill="#666666">[int]</text>
<polygon fill="none" stroke="black" points="678.78,-104.8 678.78,-135.6 879.26,-135.6 879.26,-104.8 678.78,-104.8"/>
<text text-anchor="start" x="685.78" y="-117" font-family="Arial" font-size="14.00">created_at </text>
<text text-anchor="start" x="755.83" y="-117" font-family="Arial" font-size="14.00" fill="#666666">[timestamp]</text>
<polygon fill="none" stroke="black" points="678.78,-74 678.78,-104.8 879.26,-104.8 879.26,-74 678.78,-74"/>
<text text-anchor="start" x="685.78" y="-86.2" font-family="Arial" font-size="14.00">updated_at </text>
<text text-anchor="start" x="759.74" y="-86.2" font-family="Arial" font-size="14.00" fill="#666666">[timestamp]</text>
<polygon fill="none" stroke="black" points="678.78,-43.2 678.78,-74 879.26,-74 879.26,-43.2 678.78,-43.2"/>
<text text-anchor="start" x="685.78" y="-55.4" font-family="Arial" font-size="14.00">category_id </text>
<text text-anchor="start" x="762.05" y="-55.4" font-family="Arial" font-size="14.00" fill="#666666">[int]</text>
</g>
<!-- order_items&#45;&gt;products -->
<g id="edge2" class="edge">
<title>order_items:product_id&#45;&gt;products:id</title>
<path fill="none" stroke="black" d="M667.48,-526.78C756.95,-511.05 568.54,-274.2 677.78,-274.2"/>
<polygon fill="black" stroke="black" points="667.55,-526.77 657.22,-523.09 662.23,-527.2 657.92,-527.55 657.92,-527.55 657.92,-527.55 662.23,-527.2 657.94,-532.06 667.55,-526.77"/>
<text text-anchor="start" x="664.25" y="-537.6" font-family="Arial" font-size="10.00">FOREIGN KEY (product_id) REFERENCES products (id)</text>
</g>
</g>
</svg>
