<?xml version="1.0" encoding="UTF-8" standalone="no"?>
<!DOCTYPE svg PUBLIC "-//W3C//DTD SVG 1.1//EN"
 "http://www.w3.org/Graphics/SVG/1.1/DTD/svg11.dtd">
<!-- Generated by graphviz version 12.1.2 (20240928.0832)
 -->
<!-- Title: posts Pages: 1 -->
<svg width="624pt" height="1037pt"
 viewBox="0.00 0.00 624.39 1037.20" xmlns="http://www.w3.org/2000/svg" xmlns:xlink="http://www.w3.org/1999/xlink">
<g id="graph0" class="graph" transform="scale(1 1) rotate(0) translate(4 1033.2)">
<title>posts</title>
<polygon fill="white" stroke="none" points="-4,4 -4,-1033.2 620.39,-1033.2 620.39,4 -4,4"/>
<!-- posts -->
<g id="node1" class="node">
<title>posts</title>
<polygon fill="#efefef" stroke="none" points="219.69,-604.6 219.69,-640.2 395.19,-640.2 395.19,-604.6 219.69,-604.6"/>
<polygon fill="none" stroke="black" points="219.69,-604.6 219.69,-640.2 395.19,-640.2 395.19,-604.6 219.69,-604.6"/>
<text text-anchor="start" x="226.69" y="-618" font-family="Arial Bold" font-size="18.00">posts</text>
<text text-anchor="start" x="263.7" y="-618" font-family="Arial" font-size="14.00">    </text>
<text text-anchor="start" x="294.82" y="-618" font-family="Arial" font-size="14.00" fill="#666666">[BASE TABLE]</text>
<polygon fill="none" stroke="black" points="219.69,-573.8 219.69,-604.6 395.19,-604.6 395.19,-573.8 219.69,-573.8"/>
<text text-anchor="start" x="226.69" y="-586" font-family="Arial" font-size="14.00">id </text>
<text text-anchor="start" x="241.47" y="-586" font-family="Arial" font-size="14.00" fill="#666666">[int]</text>
<polygon fill="none" stroke="black" points="219.69,-543 219.69,-573.8 395.19,-573.8 395.19,-543 219.69,-543"/>
<text text-anchor="start" x="226.69" y="-555.2" font-family="Arial" font-size="14.00">title </text>
<text text-anchor="start" x="252.36" y="-555.2" font-family="Arial" font-size="14.00" fill="#666666">[varchar(255)]</text>
<polygon fill="none" stroke="black" points="219.69,-512.2 219.69,-543 395.19,-543 395.19,-512.2 219.69,-512.2"/>
<text text-anchor="start" x="226.69" y="-524.4" font-family="Arial" font-size="14.00">content </text>
<text text-anchor="start" x="276.5" y="-524.4" font-family="Arial" font-size="14.00" fill="#666666">[text]</text>
<polygon fill="none" stroke="black" points="219.69,-481.4 219.69,-512.2 395.19,-512.2 395.19,-481.4 219.69,-481.4"/>
<text text-anchor="start" x="226.69" y="-493.6" font-family="Arial" font-size="14.00">published </text>
<text text-anchor="start" x="290.51" y="-493.6" font-family="Arial" font-size="14.00" fill="#666666">[tinyint(1)]</text>
<polygon fill="none" stroke="black" points="219.69,-450.6 219.69,-481.4 395.19,-481.4 395.19,-450.6 219.69,-450.6"/>
<text text-anchor="start" x="226.69" y="-462.8" font-family="Arial" font-size="14.00">created_at </text>
<text text-anchor="start" x="296.74" y="-462.8" font-family="Arial" font-size="14.00" fill="#666666">[timestamp]</text>
<polygon fill="none" stroke="black" points="219.69,-419.8 219.69,-450.6 395.19,-450.6 395.19,-419.8 219.69,-419.8"/>
<text text-anchor="start" x="226.69" y="-432" font-family="Arial" font-size="14.00">updated_at </text>
<text text-anchor="start" x="300.65" y="-432" font-family="Arial" font-size="14.00" fill="#666666">[timestamp]</text>
<polygon fill="none" stroke="black" points="219.69,-389 219.69,-419.8 395.19,-419.8 395.19,-389 219.69,-389"/>
<text text-anchor="start" x="226.69" y="-401.2" font-family="Arial" font-size="14.00">author_id </text>
<text text-anchor="start" x="288.96" y="-401.2" font-family="Arial" font-size="14.00" fill="#666666">[int]</text>
<polygon fill="none" stroke="black" stroke-width="3" points="218.19,-387.5 218.19,-641.7 396.69,-641.7 396.69,-387.5 218.19,-387.5"/>
</g>
<!-- users -->
<g id="node4" class="node">
<title>users</title>
<polygon fill="#efefef" stroke="none" points="219.7,-228 219.7,-263.6 395.18,-263.6 395.18,-228 219.7,-228"/>
<polygon fill="none" stroke="black" points="219.7,-228 219.7,-263.6 395.18,-263.6 395.18,-228 219.7,-228"/>
<text text-anchor="start" x="226.7" y="-241.4" font-family="Arial Bold" font-size="18.00">users</text>
<text text-anchor="start" x="263.69" y="-241.4" font-family="Arial" font-size="14.00">    </text>
<text text-anchor="start" x="294.81" y="-241.4" font-family="Arial" font-size="14.00" fill="#666666">[BASE TABLE]</text>
<polygon fill="none" stroke="black" points="219.7,-197.2 219.7,-228 395.18,-228 395.18,-197.2 219.7,-197.2"/>
<text text-anchor="start" x="226.7" y="-209.4" font-family="Arial" font-size="14.00">id </text>
<text text-anchor="start" x="241.48" y="-209.4" font-family="Arial" font-size="14.00" fill="#666666">[int]</text>
<polygon fill="none" stroke="black" points="219.7,-166.4 219.7,-197.2 395.18,-197.2 395.18,-166.4 219.7,-166.4"/>
<text text-anchor="start" x="226.7" y="-178.6" font-family="Arial" font-size="14.00">email </text>
<text text-anchor="start" x="264.04" y="-178.6" font-family="Arial" font-size="14.00" fill="#666666">[varchar(255)]</text>
<polygon fill="none" stroke="black" points="219.7,-135.6 219.7,-166.4 395.18,-166.4 395.18,-135.6 219.7,-135.6"/>
<text text-anchor="start" x="226.7" y="-147.8" font-family="Arial" font-size="14.00">username </text>
<text text-anchor="start" x="292.84" y="-147.8" font-family="Arial" font-size="14.00" fill="#666666">[varchar(255)]</text>
<polygon fill="none" stroke="black" points="219.7,-104.8 219.7,-135.6 395.18,-135.6 395.18,-104.8 219.7,-104.8"/>
<text text-anchor="start" x="226.7" y="-117" font-family="Arial" font-size="14.00">password </text>
<text text-anchor="start" x="290.5" y="-117" font-family="Arial" font-size="14.00" fill="#666666">[varchar(255)]</text>
<polygon fill="none" stroke="black" points="219.7,-74 219.7,-104.8 395.18,-104.8 395.18,-74 219.7,-74"/>
<text text-anchor="start" x="226.7" y="-86.2" font-family="Arial" font-size="14.00">created_at </text>
<text text-anchor="start" x="296.74" y="-86.2" font-family="Arial" font-size="14.00" fill="#666666">[timestamp]</text>
<polygon fill="none" stroke="black" points="219.7,-43.2 219.7,-74 395.18,-74 395.18,-43.2 219.7,-43.2"/>
<text text-anchor="start" x="226.7" y="-55.4" font-family="Arial" font-size="14.00">updated_at </text>
<text text-anchor="start" x="300.65" y="-55.4" font-family="Arial" font-size="14.00" fill="#666666">[timestamp]</text>
</g>
<!-- posts&#45;&gt;users -->
<g id="edge3" class="edge">
<title>posts:author_id&#45;&gt;users:id</title>
<path fill="none" stroke="black" d="M308.38,-377.83C316.53,-337.41 375.16,-351.96 395.18,-306.8 412.15,-268.52 438.05,-212.6 396.18,-212.6"/>
<polygon fill="black" stroke="black" points="308.39,-377.71 302.99,-387.25 307.9,-383.02 307.5,-387.33 307.5,-387.33 307.5,-387.33 307.9,-383.02 311.95,-388.08 308.39,-377.71"/>
<text text-anchor="start" x="65.38" y="-398" font-family="Arial" font-size="10.00">FOREIGN KEY (author_id) REFERENCES users (id)</text>
</g>
<!-- comments -->
<g id="node2" class="node">
<title>comments</title>
<polygon fill="#efefef" stroke="none" points="43.2,-950.4 43.2,-986 255.68,-986 255.68,-950.4 43.2,-950.4"/>
<polygon fill="none" stroke="black" points="43.2,-950.4 43.2,-986 255.68,-986 255.68,-950.4 43.2,-950.4"/>
<text text-anchor="start" x="50.2" y="-963.8" font-family="Arial Bold" font-size="18.00">comments</text>
<text text-anchor="start" x="124.19" y="-963.8" font-family="Arial" font-size="14.00">    </text>
<text text-anchor="start" x="155.3" y="-963.8" font-family="Arial" font-size="14.00" fill="#666666">[BASE TABLE]</text>
<polygon fill="none" stroke="black" points="43.2,-919.6 43.2,-950.4 255.68,-950.4 255.68,-919.6 43.2,-919.6"/>
<text text-anchor="start" x="50.2" y="-931.8" font-family="Arial" font-size="14.00">id </text>
<text text-anchor="start" x="64.99" y="-931.8" font-family="Arial" font-size="14.00" fill="#666666">[int]</text>
<polygon fill="none" stroke="black" points="43.2,-888.8 43.2,-919.6 255.68,-919.6 255.68,-888.8 43.2,-888.8"/>
<text text-anchor="start" x="50.2" y="-901" font-family="Arial" font-size="14.00">content </text>
<text text-anchor="start" x="100.01" y="-901" font-family="Arial" font-size="14.00" fill="#666666">[text]</text>
<polygon fill="none" stroke="black" points="43.2,-858 43.2,-888.8 255.68,-888.8 255.68,-858 43.2,-858"/>
<text text-anchor="start" x="50.2" y="-870.2" font-family="Arial" font-size="14.00">created_at </text>
<text text-anchor="start" x="120.25" y="-870.2" font-family="Arial" font-size="14.00" fill="#666666">[timestamp]</text>
<polygon fill="none" stroke="black" points="43.2,-827.2 43.2,-858 255.68,-858 255.68,-827.2 43.2,-827.2"/>
<text text-anchor="start" x="50.2" y="-839.4" font-family="Arial" font-size="14.00">updated_at </text>
<text text-anchor="start" x="124.16" y="-839.4" font-family="Arial" font-size="14.00" fill="#666666">[timestamp]</text>
<polygon fill="none" stroke="black" points="43.2,-796.4 43.2,-827.2 255.68,-827.2 255.68,-796.4 43.2,-796.4"/>
<text text-anchor="start" x="50.2" y="-808.6" font-family="Arial" font-size="14.00">post_id </text>
<text text-anchor="start" x="99.23" y="-808.6" font-family="Arial" font-size="14.00" fill="#666666">[int]</text>
<polygon fill="none" stroke="black" points="43.2,-765.6 43.2,-796.4 255.68,-796.4 255.68,-765.6 43.2,-765.6"/>
<text text-anchor="start" x="50.2" y="-777.8" font-family="Arial" font-size="14.00">author_id </text>
<text text-anchor="start" x="112.47" y="-777.8" font-family="Arial" font-size="14.00" fill="#666666">[int]</text>
</g>
<!-- comments&#45;&gt;posts -->
<g id="edge1" class="edge">
<title>comments:post_id&#45;&gt;posts:id</title>
<path fill="none" stroke="black" d="M266.85,-810.24C291.37,-801.25 269.52,-755.31 255.68,-722.4 246.9,-701.55 228.45,-707.26 219.69,-686.4 202.95,-646.57 175.49,-589.2 218.69,-589.2"/>
<polygon fill="black" stroke="black" points="266.89,-810.23 256.32,-807.3 261.62,-811.04 257.34,-811.7 257.34,-811.7 257.34,-811.7 261.62,-811.04 257.69,-816.2 266.89,-810.23"/>
<text text-anchor="start" x="263.68" y="-821.8" font-family="Arial" font-size="10.00">FOREIGN KEY (post_id) REFERENCES posts (id)</text>
</g>
<!-- posts_tags -->
<g id="node3" class="node">
<title>posts_tags</title>
<polygon fill="#efefef" stroke="none" points="359.69,-888.8 359.69,-924.4 573.19,-924.4 573.19,-888.8 359.69,-888.8"/>
<polygon fill="none" stroke="black" points="359.69,-888.8 359.69,-924.4 573.19,-924.4 573.19,-888.8 359.69,-888.8"/>
<text text-anchor="start" x="366.69" y="-902.2" font-family="Arial Bold" font-size="18.00">posts_tags</text>
<text text-anchor="start" x="441.7" y="-902.2" font-family="Arial" font-size="14.00">    </text>
<text text-anchor="start" x="472.81" y="-902.2" font-family="Arial" font-size="14.00" fill="#666666">[BASE TABLE]</text>
<polygon fill="none" stroke="black" points="359.69,-858 359.69,-888.8 573.19,-888.8 573.19,-858 359.69,-858"/>
<text text-anchor="start" x="366.69" y="-870.2" font-family="Arial" font-size="14.00">post_id </text>
<text text-anchor="start" x="415.72" y="-870.2" font-family="Arial" font-size="14.00" fill="#666666">[int]</text>
<polygon fill="none" stroke="black" points="359.69,-827.2 359.69,-858 573.19,-858 573.19,-827.2 359.69,-827.2"/>
<text text-anchor="start" x="366.69" y="-839.4" font-family="Arial" font-size="14.00">tag_id </text>
<text text-anchor="start" x="408.72" y="-839.4" font-family="Arial" font-size="14.00" fill="#666666">[int]</text>
</g>
<!-- posts_tags&#45;&gt;posts -->
<g id="edge2" class="edge">
<title>posts_tags:post_id&#45;&gt;posts:id</title>
<path fill="none" stroke="black" d="M348.55,-872.68C248.05,-856.99 519.86,-589.2 396.19,-589.2"/>
<polygon fill="black" stroke="black" points="348.38,-872.67 358.04,-877.87 353.7,-873.05 358.02,-873.35 358.02,-873.35 358.02,-873.35 353.7,-873.05 358.67,-868.89 348.38,-872.67"/>
<text text-anchor="start" x="305.93" y="-857.4" font-family="Arial" font-size="10.00">FOREIGN KEY (post_id) REFERENCES posts (id)</text>
</g>
</g>
</svg>
