<?xml version="1.0" encoding="UTF-8" standalone="no"?>
<!DOCTYPE svg PUBLIC "-//W3C//DTD SVG 1.1//EN"
 "http://www.w3.org/Graphics/SVG/1.1/DTD/svg11.dtd">
<!-- Generated by graphviz version 12.1.2 (20240928.0832)
 -->
<!-- Title: posts_tags Pages: 1 -->
<svg width="692pt" height="571pt"
 viewBox="0.00 0.00 691.60 571.20" xmlns="http://www.w3.org/2000/svg" xmlns:xlink="http://www.w3.org/1999/xlink">
<g id="graph0" class="graph" transform="scale(1 1) rotate(0) translate(4 567.2)">
<title>posts_tags</title>
<polygon fill="white" stroke="none" points="-4,4 -4,-567.2 687.6,-567.2 687.6,4 -4,4"/>
<!-- posts_tags -->
<g id="node1" class="node">
<title>posts_tags</title>
<polygon fill="#efefef" stroke="none" points="240.05,-481.4 240.05,-517 453.55,-517 453.55,-481.4 240.05,-481.4"/>
<polygon fill="none" stroke="black" points="240.05,-481.4 240.05,-517 453.55,-517 453.55,-481.4 240.05,-481.4"/>
<text text-anchor="start" x="247.05" y="-494.8" font-family="Arial Bold" font-size="18.00">posts_tags</text>
<text text-anchor="start" x="322.06" y="-494.8" font-family="Arial" font-size="14.00">    </text>
<text text-anchor="start" x="353.18" y="-494.8" font-family="Arial" font-size="14.00" fill="#666666">[BASE TABLE]</text>
<polygon fill="none" stroke="black" points="240.05,-450.6 240.05,-481.4 453.55,-481.4 453.55,-450.6 240.05,-450.6"/>
<text text-anchor="start" x="247.05" y="-462.8" font-family="Arial" font-size="14.00">post_id </text>
<text text-anchor="start" x="296.09" y="-462.8" font-family="Arial" font-size="14.00" fill="#666666">[int]</text>
<polygon fill="none" stroke="black" points="240.05,-419.8 240.05,-450.6 453.55,-450.6 453.55,-419.8 240.05,-419.8"/>
<text text-anchor="start" x="247.05" y="-432" font-family="Arial" font-size="14.00">tag_id </text>
<text text-anchor="start" x="289.09" y="-432" font-family="Arial" font-size="14.00" fill="#666666">[int]</text>
<polygon fill="none" stroke="black" stroke-width="3" points="238.55,-418.3 238.55,-518.5 455.05,-518.5 455.05,-418.3 238.55,-418.3"/>
</g>
<!-- posts -->
<g id="node2" class="node">
<title>posts</title>
<polygon fill="#efefef" stroke="none" points="121.05,-258.8 121.05,-294.4 296.55,-294.4 296.55,-258.8 121.05,-258.8"/>
<polygon fill="none" stroke="black" points="121.05,-258.8 121.05,-294.4 296.55,-294.4 296.55,-258.8 121.05,-258.8"/>
<text text-anchor="start" x="128.05" y="-272.2" font-family="Arial Bold" font-size="18.00">posts</text>
<text text-anchor="start" x="165.06" y="-272.2" font-family="Arial" font-size="14.00">    </text>
<text text-anchor="start" x="196.18" y="-272.2" font-family="Arial" font-size="14.00" fill="#666666">[BASE TABLE]</text>
<polygon fill="none" stroke="black" points="121.05,-228 121.05,-258.8 296.55,-258.8 296.55,-228 121.05,-228"/>
<text text-anchor="start" x="128.05" y="-240.2" font-family="Arial" font-size="14.00">id </text>
<text text-anchor="start" x="142.84" y="-240.2" font-family="Arial" font-size="14.00" fill="#666666">[int]</text>
<polygon fill="none" stroke="black" points="121.05,-197.2 121.05,-228 296.55,-228 296.55,-197.2 121.05,-197.2"/>
<text text-anchor="start" x="128.05" y="-209.4" font-family="Arial" font-size="14.00">title </text>
<text text-anchor="start" x="153.73" y="-209.4" font-family="Arial" font-size="14.00" fill="#666666">[varchar(255)]</text>
<polygon fill="none" stroke="black" points="121.05,-166.4 121.05,-197.2 296.55,-197.2 296.55,-166.4 121.05,-166.4"/>
<text text-anchor="start" x="128.05" y="-178.6" font-family="Arial" font-size="14.00">content </text>
<text text-anchor="start" x="177.86" y="-178.6" font-family="Arial" font-size="14.00" fill="#666666">[text]</text>
<polygon fill="none" stroke="black" points="121.05,-135.6 121.05,-166.4 296.55,-166.4 296.55,-135.6 121.05,-135.6"/>
<text text-anchor="start" x="128.05" y="-147.8" font-family="Arial" font-size="14.00">published </text>
<text text-anchor="start" x="191.88" y="-147.8" font-family="Arial" font-size="14.00" fill="#666666">[tinyint(1)]</text>
<polygon fill="none" stroke="black" points="121.05,-104.8 121.05,-135.6 296.55,-135.6 296.55,-104.8 121.05,-104.8"/>
<text text-anchor="start" x="128.05" y="-117" font-family="Arial" font-size="14.00">created_at </text>
<text text-anchor="start" x="198.1" y="-117" font-family="Arial" font-size="14.00" fill="#666666">[timestamp]</text>
<polygon fill="none" stroke="black" points="121.05,-74 121.05,-104.8 296.55,-104.8 296.55,-74 121.05,-74"/>
<text text-anchor="start" x="128.05" y="-86.2" font-family="Arial" font-size="14.00">updated_at </text>
<text text-anchor="start" x="202.01" y="-86.2" font-family="Arial" font-size="14.00" fill="#666666">[timestamp]</text>
<polygon fill="none" stroke="black" points="121.05,-43.2 121.05,-74 296.55,-74 296.55,-43.2 121.05,-43.2"/>
<text text-anchor="start" x="128.05" y="-55.4" font-family="Arial" font-size="14.00">author_id </text>
<text text-anchor="start" x="190.32" y="-55.4" font-family="Arial" font-size="14.00" fill="#666666">[int]</text>
</g>
<!-- posts_tags&#45;&gt;posts -->
<g id="edge1" class="edge">
<title>posts_tags:post_id&#45;&gt;posts:id</title>
<path fill="none" stroke="black" d="M228.77,-464.46C202.28,-455.16 222.05,-405.99 240.05,-373.6 254.51,-347.57 282.09,-363.63 296.55,-337.6 316.88,-301 339.42,-243.4 297.55,-243.4"/>
<polygon fill="black" stroke="black" points="228.83,-464.47 238.05,-470.4 234.11,-465.26 238.39,-465.9 238.39,-465.9 238.39,-465.9 234.11,-465.26 239.39,-461.5 228.83,-464.47"/>
<text text-anchor="start" x="7" y="-476" font-family="Arial" font-size="10.00">FOREIGN KEY (post_id) REFERENCES posts (id)</text>
</g>
<!-- tags -->
<g id="node3" class="node">
<title>tags</title>
<polygon fill="#efefef" stroke="none" points="401.06,-181.8 401.06,-217.4 568.54,-217.4 568.54,-181.8 401.06,-181.8"/>
<polygon fill="none" stroke="black" points="401.06,-181.8 401.06,-217.4 568.54,-217.4 568.54,-181.8 401.06,-181.8"/>
<text text-anchor="start" x="408.06" y="-195.2" font-family="Arial Bold" font-size="18.00">tags</text>
<text text-anchor="start" x="437.05" y="-195.2" font-family="Arial" font-size="14.00">    </text>
<text text-anchor="start" x="468.17" y="-195.2" font-family="Arial" font-size="14.00" fill="#666666">[BASE TABLE]</text>
<polygon fill="none" stroke="black" points="401.06,-151 401.06,-181.8 568.54,-181.8 568.54,-151 401.06,-151"/>
<text text-anchor="start" x="408.06" y="-163.2" font-family="Arial" font-size="14.00">id </text>
<text text-anchor="start" x="422.85" y="-163.2" font-family="Arial" font-size="14.00" fill="#666666">[int]</text>
<polygon fill="none" stroke="black" points="401.06,-120.2 401.06,-151 568.54,-151 568.54,-120.2 401.06,-120.2"/>
<text text-anchor="start" x="408.06" y="-132.4" font-family="Arial" font-size="14.00">name </text>
<text text-anchor="start" x="446.97" y="-132.4" font-family="Arial" font-size="14.00" fill="#666666">[varchar(255)]</text>
</g>
<!-- posts_tags&#45;&gt;tags -->
<g id="edge2" class="edge">
<title>posts_tags:tag_id&#45;&gt;tags:id</title>
<path fill="none" stroke="black" d="M464.31,-432.57C475.06,-423.97 458.67,-395.91 453.55,-373.6 432.28,-280.9 304.95,-166.4 400.06,-166.4"/>
<polygon fill="black" stroke="black" points="464.53,-432.51 453.7,-430.77 459.38,-433.9 455.19,-435.03 455.19,-435.03 455.19,-435.03 459.38,-433.9 456.04,-439.46 464.53,-432.51"/>
<text text-anchor="start" x="461.55" y="-445.2" font-family="Arial" font-size="10.00">FOREIGN KEY (tag_id) REFERENCES tags (id)</text>
</g>
</g>
</svg>
