<?xml version="1.0" encoding="UTF-8" standalone="no"?>
<!DOCTYPE svg PUBLIC "-//W3C//DTD SVG 1.1//EN"
 "http://www.w3.org/Graphics/SVG/1.1/DTD/svg11.dtd">
<!-- Generated by graphviz version 12.1.2 (20240928.0832)
 -->
<!-- Title: products Pages: 1 -->
<svg width="670pt" height="914pt"
 viewBox="0.00 0.00 669.94 914.00" xmlns="http://www.w3.org/2000/svg" xmlns:xlink="http://www.w3.org/1999/xlink">
<g id="graph0" class="graph" transform="scale(1 1) rotate(0) translate(4 910)">
<title>products</title>
<polygon fill="white" stroke="none" points="-4,4 -4,-910 665.94,-910 665.94,4 -4,4"/>
<!-- products -->
<g id="node1" class="node">
<title>products</title>
<polygon fill="#efefef" stroke="none" points="180.5,-512.2 180.5,-547.8 380.98,-547.8 380.98,-512.2 180.5,-512.2"/>
<polygon fill="none" stroke="black" points="180.5,-512.2 180.5,-547.8 380.98,-547.8 380.98,-512.2 180.5,-512.2"/>
<text text-anchor="start" x="187.5" y="-525.6" font-family="Arial Bold" font-size="18.00">products</text>
<text text-anchor="start" x="249.49" y="-525.6" font-family="Arial" font-size="14.00">    </text>
<text text-anchor="start" x="280.61" y="-525.6" font-family="Arial" font-size="14.00" fill="#666666">[BASE TABLE]</text>
<polygon fill="none" stroke="black" points="180.5,-481.4 180.5,-512.2 380.98,-512.2 380.98,-481.4 180.5,-481.4"/>
<text text-anchor="start" x="187.5" y="-493.6" font-family="Arial" font-size="14.00">id </text>
<text text-anchor="start" x="202.29" y="-493.6" font-family="Arial" font-size="14.00" fill="#666666">[int]</text>
<polygon fill="none" stroke="black" points="180.5,-450.6 180.5,-481.4 380.98,-481.4 380.98,-450.6 180.5,-450.6"/>
<text text-anchor="start" x="187.5" y="-462.8" font-family="Arial" font-size="14.00">name </text>
<text text-anchor="start" x="226.41" y="-462.8" font-family="Arial" font-size="14.00" fill="#666666">[varchar(255)]</text>
<polygon fill="none" stroke="black" points="180.5,-419.8 180.5,-450.6 380.98,-450.6 380.98,-419.8 180.5,-419.8"/>
<text text-anchor="start" x="187.5" y="-432" font-family="Arial" font-size="14.00">description </text>
<text text-anchor="start" x="259.1" y="-432" font-family="Arial" font-size="14.00" fill="#666666">[text]</text>
<polygon fill="none" stroke="black" points="180.5,-389 180.5,-419.8 380.98,-419.8 380.98,-389 180.5,-389"/>
<text text-anchor="start" x="187.5" y="-401.2" font-family="Arial" font-size="14.00">price </text>
<text text-anchor="start" x="221.74" y="-401.2" font-family="Arial" font-size="14.00" fill="#666666">[decimal(10,2)]</text>
<polygon fill="none" stroke="black" points="180.5,-358.2 180.5,-389 380.98,-389 380.98,-358.2 180.5,-358.2"/>
<text text-anchor="start" x="187.5" y="-370.4" font-family="Arial" font-size="14.00">stock </text>
<text text-anchor="start" x="224.07" y="-370.4" font-family="Arial" font-size="14.00" fill="#666666">[int]</text>
<polygon fill="none" stroke="black" points="180.5,-327.4 180.5,-358.2 380.98,-358.2 380.98,-327.4 180.5,-327.4"/>
<text text-anchor="start" x="187.5" y="-339.6" font-family="Arial" font-size="14.00">created_at </text>
<text text-anchor="start" x="257.55" y="-339.6" font-family="Arial" font-size="14.00" fill="#666666">[timestamp]</text>
<polygon fill="none" stroke="black" points="180.5,-296.6 180.5,-327.4 380.98,-327.4 380.98,-296.6 180.5,-296.6"/>
<text text-anchor="start" x="187.5" y="-308.8" font-family="Arial" font-size="14.00">updated_at </text>
<text text-anchor="start" x="261.46" y="-308.8" font-family="Arial" font-size="14.00" fill="#666666">[timestamp]</text>
<polygon fill="none" stroke="black" points="180.5,-265.8 180.5,-296.6 380.98,-296.6 380.98,-265.8 180.5,-265.8"/>
<text text-anchor="start" x="187.5" y="-278" font-family="Arial" font-size="14.00">category_id </text>
<text text-anchor="start" x="263.77" y="-278" font-family="Arial" font-size="14.00" fill="#666666">[int]</text>
<polygon fill="none" stroke="black" stroke-width="3" points="179,-264.3 179,-549.3 382.48,-549.3 382.48,-264.3 179,-264.3"/>
</g>
<!-- categories -->
<g id="node3" class="node">
<title>categories</title>
<polygon fill="#efefef" stroke="none" points="175.02,-104.8 175.02,-140.4 386.47,-140.4 386.47,-104.8 175.02,-104.8"/>
<polygon fill="none" stroke="black" points="175.02,-104.8 175.02,-140.4 386.47,-140.4 386.47,-104.8 175.02,-104.8"/>
<text text-anchor="start" x="182.02" y="-118.2" font-family="Arial Bold" font-size="18.00">categories</text>
<text text-anchor="start" x="254.98" y="-118.2" font-family="Arial" font-size="14.00">    </text>
<text text-anchor="start" x="286.09" y="-118.2" font-family="Arial" font-size="14.00" fill="#666666">[BASE TABLE]</text>
<polygon fill="none" stroke="black" points="175.02,-74 175.02,-104.8 386.47,-104.8 386.47,-74 175.02,-74"/>
<text text-anchor="start" x="182.02" y="-86.2" font-family="Arial" font-size="14.00">id </text>
<text text-anchor="start" x="196.81" y="-86.2" font-family="Arial" font-size="14.00" fill="#666666">[int]</text>
<polygon fill="none" stroke="black" points="175.02,-43.2 175.02,-74 386.47,-74 386.47,-43.2 175.02,-43.2"/>
<text text-anchor="start" x="182.02" y="-55.4" font-family="Arial" font-size="14.00">name </text>
<text text-anchor="start" x="220.93" y="-55.4" font-family="Arial" font-size="14.00" fill="#666666">[varchar(255)]</text>
</g>
<!-- products&#45;&gt;categories -->
<g id="edge2" class="edge">
<title>products:category_id&#45;&gt;categories:id</title>
<path fill="none" stroke="black" d="M281.7,-254.42C290.74,-209.21 361.7,-233.19 386.47,-183.6 405.18,-146.14 429.34,-89.4 387.47,-89.4"/>
<polygon fill="black" stroke="black" points="281.69,-254.51 276.29,-264.06 281.2,-259.82 280.8,-264.13 280.8,-264.13 280.8,-264.13 281.2,-259.82 285.25,-264.88 281.69,-254.51"/>
<text text-anchor="start" x="7" y="-274.8" font-family="Arial" font-size="10.00">FOREIGN KEY (category_id) REFERENCES categories (id)</text>
</g>
<!-- order_items -->
<g id="node2" class="node">
<title>order_items</title>
<polygon fill="#efefef" stroke="none" points="168.51,-827.2 168.51,-862.8 392.98,-862.8 392.98,-827.2 168.51,-827.2"/>
<polygon fill="none" stroke="black" points="168.51,-827.2 168.51,-862.8 392.98,-862.8 392.98,-827.2 168.51,-827.2"/>
<text text-anchor="start" x="175.51" y="-840.6" font-family="Arial Bold" font-size="18.00">order_items</text>
<text text-anchor="start" x="261.49" y="-840.6" font-family="Arial" font-size="14.00">    </text>
<text text-anchor="start" x="292.6" y="-840.6" font-family="Arial" font-size="14.00" fill="#666666">[BASE TABLE]</text>
<polygon fill="none" stroke="black" points="168.51,-796.4 168.51,-827.2 392.98,-827.2 392.98,-796.4 168.51,-796.4"/>
<text text-anchor="start" x="175.51" y="-808.6" font-family="Arial" font-size="14.00">id </text>
<text text-anchor="start" x="190.3" y="-808.6" font-family="Arial" font-size="14.00" fill="#666666">[int]</text>
<polygon fill="none" stroke="black" points="168.51,-765.6 168.51,-796.4 392.98,-796.4 392.98,-765.6 168.51,-765.6"/>
<text text-anchor="start" x="175.51" y="-777.8" font-family="Arial" font-size="14.00">order_id </text>
<text text-anchor="start" x="230.77" y="-777.8" font-family="Arial" font-size="14.00" fill="#666666">[int]</text>
<polygon fill="none" stroke="black" points="168.51,-734.8 168.51,-765.6 392.98,-765.6 392.98,-734.8 168.51,-734.8"/>
<text text-anchor="start" x="175.51" y="-747" font-family="Arial" font-size="14.00">product_id </text>
<text text-anchor="start" x="244.78" y="-747" font-family="Arial" font-size="14.00" fill="#666666">[int]</text>
<polygon fill="none" stroke="black" points="168.51,-704 168.51,-734.8 392.98,-734.8 392.98,-704 168.51,-704"/>
<text text-anchor="start" x="175.51" y="-716.2" font-family="Arial" font-size="14.00">quantity </text>
<text text-anchor="start" x="228.44" y="-716.2" font-family="Arial" font-size="14.00" fill="#666666">[int]</text>
<polygon fill="none" stroke="black" points="168.51,-673.2 168.51,-704 392.98,-704 392.98,-673.2 168.51,-673.2"/>
<text text-anchor="start" x="175.51" y="-685.4" font-family="Arial" font-size="14.00">price </text>
<text text-anchor="start" x="209.75" y="-685.4" font-family="Arial" font-size="14.00" fill="#666666">[decimal(10,2)]</text>
</g>
<!-- order_items&#45;&gt;products -->
<g id="edge1" class="edge">
<title>order_items:product_id&#45;&gt;products:id</title>
<path fill="none" stroke="black" d="M404.18,-749.47C505.88,-734.61 491.21,-496.8 381.98,-496.8"/>
<polygon fill="black" stroke="black" points="404.28,-749.47 393.99,-745.69 398.96,-749.84 394.64,-750.15 394.64,-750.15 394.64,-750.15 398.96,-749.84 394.63,-754.66 404.28,-749.47"/>
<text text-anchor="start" x="400.98" y="-760.2" font-family="Arial" font-size="10.00">FOREIGN KEY (product_id) REFERENCES products (id)</text>
</g>
</g>
</svg>
