<?xml version="1.0" encoding="UTF-8" standalone="no"?>
<!DOCTYPE svg PUBLIC "-//W3C//DTD SVG 1.1//EN"
 "http://www.w3.org/Graphics/SVG/1.1/DTD/svg11.dtd">
<!-- Generated by graphviz version 12.1.2 (20240928.0832)
 -->
<!-- Title: profiles Pages: 1 -->
<svg width="489pt" height="725pt"
 viewBox="0.00 0.00 488.83 725.20" xmlns="http://www.w3.org/2000/svg" xmlns:xlink="http://www.w3.org/1999/xlink">
<g id="graph0" class="graph" transform="scale(1 1) rotate(0) translate(4 721.2)">
<title>profiles</title>
<polygon fill="white" stroke="none" points="-4,4 -4,-721.2 484.83,-721.2 484.83,4 -4,4"/>
<!-- profiles -->
<g id="node1" class="node">
<title>profiles</title>
<polygon fill="#efefef" stroke="none" points="46.2,-635.4 46.2,-671 239.67,-671 239.67,-635.4 46.2,-635.4"/>
<polygon fill="none" stroke="black" points="46.2,-635.4 46.2,-671 239.67,-671 239.67,-635.4 46.2,-635.4"/>
<text text-anchor="start" x="53.2" y="-648.8" font-family="Arial Bold" font-size="18.00">profiles</text>
<text text-anchor="start" x="108.18" y="-648.8" font-family="Arial" font-size="14.00">    </text>
<text text-anchor="start" x="139.3" y="-648.8" font-family="Arial" font-size="14.00" fill="#666666">[BASE TABLE]</text>
<polygon fill="none" stroke="black" points="46.2,-604.6 46.2,-635.4 239.67,-635.4 239.67,-604.6 46.2,-604.6"/>
<text text-anchor="start" x="53.2" y="-616.8" font-family="Arial" font-size="14.00">id </text>
<text text-anchor="start" x="67.99" y="-616.8" font-family="Arial" font-size="14.00" fill="#666666">[int]</text>
<polygon fill="none" stroke="black" points="46.2,-573.8 46.2,-604.6 239.67,-604.6 239.67,-573.8 46.2,-573.8"/>
<text text-anchor="start" x="53.2" y="-586" font-family="Arial" font-size="14.00">user_id </text>
<text text-anchor="start" x="103.01" y="-586" font-family="Arial" font-size="14.00" fill="#666666">[int]</text>
<polygon fill="none" stroke="black" points="46.2,-543 46.2,-573.8 239.67,-573.8 239.67,-543 46.2,-543"/>
<text text-anchor="start" x="53.2" y="-555.2" font-family="Arial" font-size="14.00">first_name </text>
<text text-anchor="start" x="122.45" y="-555.2" font-family="Arial" font-size="14.00" fill="#666666">[varchar(255)]</text>
<polygon fill="none" stroke="black" points="46.2,-512.2 46.2,-543 239.67,-543 239.67,-512.2 46.2,-512.2"/>
<text text-anchor="start" x="53.2" y="-524.4" font-family="Arial" font-size="14.00">last_name </text>
<text text-anchor="start" x="121.68" y="-524.4" font-family="Arial" font-size="14.00" fill="#666666">[varchar(255)]</text>
<polygon fill="none" stroke="black" points="46.2,-481.4 46.2,-512.2 239.67,-512.2 239.67,-481.4 46.2,-481.4"/>
<text text-anchor="start" x="53.2" y="-493.6" font-family="Arial" font-size="14.00">bio </text>
<text text-anchor="start" x="75.77" y="-493.6" font-family="Arial" font-size="14.00" fill="#666666">[text]</text>
<polygon fill="none" stroke="black" points="46.2,-450.6 46.2,-481.4 239.67,-481.4 239.67,-450.6 46.2,-450.6"/>
<text text-anchor="start" x="53.2" y="-462.8" font-family="Arial" font-size="14.00">avatar </text>
<text text-anchor="start" x="96" y="-462.8" font-family="Arial" font-size="14.00" fill="#666666">[varchar(255)]</text>
<polygon fill="none" stroke="black" points="46.2,-419.8 46.2,-450.6 239.67,-450.6 239.67,-419.8 46.2,-419.8"/>
<text text-anchor="start" x="53.2" y="-432" font-family="Arial" font-size="14.00">birth_date </text>
<text text-anchor="start" x="119.36" y="-432" font-family="Arial" font-size="14.00" fill="#666666">[date]</text>
<polygon fill="none" stroke="black" points="46.2,-389 46.2,-419.8 239.67,-419.8 239.67,-389 46.2,-389"/>
<text text-anchor="start" x="53.2" y="-401.2" font-family="Arial" font-size="14.00">phone_number </text>
<text text-anchor="start" x="151.28" y="-401.2" font-family="Arial" font-size="14.00" fill="#666666">[varchar(20)]</text>
<polygon fill="none" stroke="black" stroke-width="3" points="44.7,-387.5 44.7,-672.5 241.17,-672.5 241.17,-387.5 44.7,-387.5"/>
</g>
<!-- users -->
<g id="node2" class="node">
<title>users</title>
<polygon fill="#efefef" stroke="none" points="55.2,-228 55.2,-263.6 230.68,-263.6 230.68,-228 55.2,-228"/>
<polygon fill="none" stroke="black" points="55.2,-228 55.2,-263.6 230.68,-263.6 230.68,-228 55.2,-228"/>
<text text-anchor="start" x="62.2" y="-241.4" font-family="Arial Bold" font-size="18.00">users</text>
<text text-anchor="start" x="99.19" y="-241.4" font-family="Arial" font-size="14.00">    </text>
<text text-anchor="start" x="130.31" y="-241.4" font-family="Arial" font-size="14.00" fill="#666666">[BASE TABLE]</text>
<polygon fill="none" stroke="black" points="55.2,-197.2 55.2,-228 230.68,-228 230.68,-197.2 55.2,-197.2"/>
<text text-anchor="start" x="62.2" y="-209.4" font-family="Arial" font-size="14.00">id </text>
<text text-anchor="start" x="76.98" y="-209.4" font-family="Arial" font-size="14.00" fill="#666666">[int]</text>
<polygon fill="none" stroke="black" points="55.2,-166.4 55.2,-197.2 230.68,-197.2 230.68,-166.4 55.2,-166.4"/>
<text text-anchor="start" x="62.2" y="-178.6" font-family="Arial" font-size="14.00">email </text>
<text text-anchor="start" x="99.54" y="-178.6" font-family="Arial" font-size="14.00" fill="#666666">[varchar(255)]</text>
<polygon fill="none" stroke="black" points="55.2,-135.6 55.2,-166.4 230.68,-166.4 230.68,-135.6 55.2,-135.6"/>
<text text-anchor="start" x="62.2" y="-147.8" font-family="Arial" font-size="14.00">username </text>
<text text-anchor="start" x="128.34" y="-147.8" font-family="Arial" font-size="14.00" fill="#666666">[varchar(255)]</text>
<polygon fill="none" stroke="black" points="55.2,-104.8 55.2,-135.6 230.68,-135.6 230.68,-104.8 55.2,-104.8"/>
<text text-anchor="start" x="62.2" y="-117" font-family="Arial" font-size="14.00">password </text>
<text text-anchor="start" x="126" y="-117" font-family="Arial" font-size="14.00" fill="#666666">[varchar(255)]</text>
<polygon fill="none" stroke="black" points="55.2,-74 55.2,-104.8 230.68,-104.8 230.68,-74 55.2,-74"/>
<text text-anchor="start" x="62.2" y="-86.2" font-family="Arial" font-size="14.00">created_at </text>
<text text-anchor="start" x="132.24" y="-86.2" font-family="Arial" font-size="14.00" fill="#666666">[timestamp]</text>
<polygon fill="none" stroke="black" points="55.2,-43.2 55.2,-74 230.68,-74 230.68,-43.2 55.2,-43.2"/>
<text text-anchor="start" x="62.2" y="-55.4" font-family="Arial" font-size="14.00">updated_at </text>
<text text-anchor="start" x="136.15" y="-55.4" font-family="Arial" font-size="14.00" fill="#666666">[timestamp]</text>
</g>
<!-- profiles&#45;&gt;users -->
<g id="edge1" class="edge">
<title>profiles:user_id&#45;&gt;users:id</title>
<path fill="none" stroke="black" d="M250.51,-587.35C323.52,-558.94 311.96,-212.6 231.68,-212.6"/>
<polygon fill="black" stroke="black" points="250.83,-587.29 240.17,-584.72 245.59,-588.28 241.33,-589.08 241.33,-589.08 241.33,-589.08 245.59,-588.28 241.83,-593.56 250.83,-587.29"/>
<text text-anchor="start" x="247.67" y="-599.2" font-family="Arial" font-size="10.00">FOREIGN KEY (user_id) REFERENCES users (id)</text>
</g>
</g>
</svg>
