<?xml version="1.0" encoding="UTF-8" standalone="no"?>
<!DOCTYPE svg PUBLIC "-//W3C//DTD SVG 1.1//EN"
 "http://www.w3.org/Graphics/SVG/1.1/DTD/svg11.dtd">
<!-- Generated by graphviz version 12.1.2 (20240928.0832)
 -->
<!-- Title: blog_app Pages: 1 -->
<svg width="2288pt" height="1062pt"
 viewBox="0.00 0.00 2287.68 1062.00" xmlns="http://www.w3.org/2000/svg" xmlns:xlink="http://www.w3.org/1999/xlink">
<g id="graph0" class="graph" transform="scale(1 1) rotate(0) translate(4 1058)">
<title>blog_app</title>
<polygon fill="white" stroke="none" points="-4,4 -4,-1058 2283.68,-1058 2283.68,4 -4,4"/>
<!-- categories -->
<g id="node1" class="node">
<title>categories</title>
<polygon fill="#efefef" stroke="none" points="175.02,-166.4 175.02,-202 386.47,-202 386.47,-166.4 175.02,-166.4"/>
<polygon fill="none" stroke="black" points="175.02,-166.4 175.02,-202 386.47,-202 386.47,-166.4 175.02,-166.4"/>
<text text-anchor="start" x="182.02" y="-179.8" font-family="Arial Bold" font-size="18.00">categories</text>
<text text-anchor="start" x="254.98" y="-179.8" font-family="Arial" font-size="14.00">    </text>
<text text-anchor="start" x="286.09" y="-179.8" font-family="Arial" font-size="14.00" fill="#666666">[BASE TABLE]</text>
<polygon fill="none" stroke="black" points="175.02,-135.6 175.02,-166.4 386.47,-166.4 386.47,-135.6 175.02,-135.6"/>
<text text-anchor="start" x="182.02" y="-147.8" font-family="Arial" font-size="14.00">id </text>
<text text-anchor="start" x="196.81" y="-147.8" font-family="Arial" font-size="14.00" fill="#666666">[int]</text>
<polygon fill="none" stroke="black" points="175.02,-104.8 175.02,-135.6 386.47,-135.6 386.47,-104.8 175.02,-104.8"/>
<text text-anchor="start" x="182.02" y="-117" font-family="Arial" font-size="14.00">name </text>
<text text-anchor="start" x="220.93" y="-117" font-family="Arial" font-size="14.00" fill="#666666">[varchar(255)]</text>
</g>
<!-- comments -->
<g id="node2" class="node">
<title>comments</title>
<polygon fill="#efefef" stroke="none" points="1010.51,-975.2 1010.51,-1010.8 1222.98,-1010.8 1222.98,-975.2 1010.51,-975.2"/>
<polygon fill="none" stroke="black" points="1010.51,-975.2 1010.51,-1010.8 1222.98,-1010.8 1222.98,-975.2 1010.51,-975.2"/>
<text text-anchor="start" x="1017.51" y="-988.6" font-family="Arial Bold" font-size="18.00">comments</text>
<text text-anchor="start" x="1091.49" y="-988.6" font-family="Arial" font-size="14.00">    </text>
<text text-anchor="start" x="1122.61" y="-988.6" font-family="Arial" font-size="14.00" fill="#666666">[BASE TABLE]</text>
<polygon fill="none" stroke="black" points="1010.51,-944.4 1010.51,-975.2 1222.98,-975.2 1222.98,-944.4 1010.51,-944.4"/>
<text text-anchor="start" x="1017.51" y="-956.6" font-family="Arial" font-size="14.00">id </text>
<text text-anchor="start" x="1032.29" y="-956.6" font-family="Arial" font-size="14.00" fill="#666666">[int]</text>
<polygon fill="none" stroke="black" points="1010.51,-913.6 1010.51,-944.4 1222.98,-944.4 1222.98,-913.6 1010.51,-913.6"/>
<text text-anchor="start" x="1017.51" y="-925.8" font-family="Arial" font-size="14.00">content </text>
<text text-anchor="start" x="1067.32" y="-925.8" font-family="Arial" font-size="14.00" fill="#666666">[text]</text>
<polygon fill="none" stroke="black" points="1010.51,-882.8 1010.51,-913.6 1222.98,-913.6 1222.98,-882.8 1010.51,-882.8"/>
<text text-anchor="start" x="1017.51" y="-895" font-family="Arial" font-size="14.00">created_at </text>
<text text-anchor="start" x="1087.55" y="-895" font-family="Arial" font-size="14.00" fill="#666666">[timestamp]</text>
<polygon fill="none" stroke="black" points="1010.51,-852 1010.51,-882.8 1222.98,-882.8 1222.98,-852 1010.51,-852"/>
<text text-anchor="start" x="1017.51" y="-864.2" font-family="Arial" font-size="14.00">updated_at </text>
<text text-anchor="start" x="1091.46" y="-864.2" font-family="Arial" font-size="14.00" fill="#666666">[timestamp]</text>
<polygon fill="none" stroke="black" points="1010.51,-821.2 1010.51,-852 1222.98,-852 1222.98,-821.2 1010.51,-821.2"/>
<text text-anchor="start" x="1017.51" y="-833.4" font-family="Arial" font-size="14.00">post_id </text>
<text text-anchor="start" x="1066.54" y="-833.4" font-family="Arial" font-size="14.00" fill="#666666">[int]</text>
<polygon fill="none" stroke="black" points="1010.51,-790.4 1010.51,-821.2 1222.98,-821.2 1222.98,-790.4 1010.51,-790.4"/>
<text text-anchor="start" x="1017.51" y="-802.6" font-family="Arial" font-size="14.00">author_id </text>
<text text-anchor="start" x="1079.77" y="-802.6" font-family="Arial" font-size="14.00" fill="#666666">[int]</text>
</g>
<!-- posts -->
<g id="node6" class="node">
<title>posts</title>
<polygon fill="#efefef" stroke="none" points="1158.99,-617 1158.99,-652.6 1334.49,-652.6 1334.49,-617 1158.99,-617"/>
<polygon fill="none" stroke="black" points="1158.99,-617 1158.99,-652.6 1334.49,-652.6 1334.49,-617 1158.99,-617"/>
<text text-anchor="start" x="1165.99" y="-630.4" font-family="Arial Bold" font-size="18.00">posts</text>
<text text-anchor="start" x="1203" y="-630.4" font-family="Arial" font-size="14.00">    </text>
<text text-anchor="start" x="1234.12" y="-630.4" font-family="Arial" font-size="14.00" fill="#666666">[BASE TABLE]</text>
<polygon fill="none" stroke="black" points="1158.99,-586.2 1158.99,-617 1334.49,-617 1334.49,-586.2 1158.99,-586.2"/>
<text text-anchor="start" x="1165.99" y="-598.4" font-family="Arial" font-size="14.00">id </text>
<text text-anchor="start" x="1180.78" y="-598.4" font-family="Arial" font-size="14.00" fill="#666666">[int]</text>
<polygon fill="none" stroke="black" points="1158.99,-555.4 1158.99,-586.2 1334.49,-586.2 1334.49,-555.4 1158.99,-555.4"/>
<text text-anchor="start" x="1165.99" y="-567.6" font-family="Arial" font-size="14.00">title </text>
<text text-anchor="start" x="1191.67" y="-567.6" font-family="Arial" font-size="14.00" fill="#666666">[varchar(255)]</text>
<polygon fill="none" stroke="black" points="1158.99,-524.6 1158.99,-555.4 1334.49,-555.4 1334.49,-524.6 1158.99,-524.6"/>
<text text-anchor="start" x="1165.99" y="-536.8" font-family="Arial" font-size="14.00">content </text>
<text text-anchor="start" x="1215.81" y="-536.8" font-family="Arial" font-size="14.00" fill="#666666">[text]</text>
<polygon fill="none" stroke="black" points="1158.99,-493.8 1158.99,-524.6 1334.49,-524.6 1334.49,-493.8 1158.99,-493.8"/>
<text text-anchor="start" x="1165.99" y="-506" font-family="Arial" font-size="14.00">published </text>
<text text-anchor="start" x="1229.82" y="-506" font-family="Arial" font-size="14.00" fill="#666666">[tinyint(1)]</text>
<polygon fill="none" stroke="black" points="1158.99,-463 1158.99,-493.8 1334.49,-493.8 1334.49,-463 1158.99,-463"/>
<text text-anchor="start" x="1165.99" y="-475.2" font-family="Arial" font-size="14.00">created_at </text>
<text text-anchor="start" x="1236.04" y="-475.2" font-family="Arial" font-size="14.00" fill="#666666">[timestamp]</text>
<polygon fill="none" stroke="black" points="1158.99,-432.2 1158.99,-463 1334.49,-463 1334.49,-432.2 1158.99,-432.2"/>
<text text-anchor="start" x="1165.99" y="-444.4" font-family="Arial" font-size="14.00">updated_at </text>
<text text-anchor="start" x="1239.95" y="-444.4" font-family="Arial" font-size="14.00" fill="#666666">[timestamp]</text>
<polygon fill="none" stroke="black" points="1158.99,-401.4 1158.99,-432.2 1334.49,-432.2 1334.49,-401.4 1158.99,-401.4"/>
<text text-anchor="start" x="1165.99" y="-413.6" font-family="Arial" font-size="14.00">author_id </text>
<text text-anchor="start" x="1228.26" y="-413.6" font-family="Arial" font-size="14.00" fill="#666666">[int]</text>
</g>
<!-- comments&#45;&gt;posts -->
<g id="edge1" class="edge">
<title>comments:post_id&#45;&gt;posts:id</title>
<path fill="none" stroke="black" d="M1234.21,-835.01C1259.03,-825.88 1238.59,-779.31 1222.98,-747.2 1207.03,-714.4 1174.94,-728.61 1158.99,-695.8 1140.69,-658.14 1116.12,-601.6 1157.99,-601.6"/>
<polygon fill="black" stroke="black" points="1234.19,-835.02 1223.62,-832.1 1228.92,-835.83 1224.64,-836.5 1224.64,-836.5 1224.64,-836.5 1228.92,-835.83 1225,-841 1234.19,-835.02"/>
<text text-anchor="start" x="1230.98" y="-846.6" font-family="Arial" font-size="10.00">FOREIGN KEY (post_id) REFERENCES posts (id)</text>
</g>
<!-- users -->
<g id="node11" class="node">
<title>users</title>
<polygon fill="#efefef" stroke="none" points="1159,-228 1159,-263.6 1334.48,-263.6 1334.48,-228 1159,-228"/>
<polygon fill="none" stroke="black" points="1159,-228 1159,-263.6 1334.48,-263.6 1334.48,-228 1159,-228"/>
<text text-anchor="start" x="1166" y="-241.4" font-family="Arial Bold" font-size="18.00">users</text>
<text text-anchor="start" x="1203" y="-241.4" font-family="Arial" font-size="14.00">    </text>
<text text-anchor="start" x="1234.11" y="-241.4" font-family="Arial" font-size="14.00" fill="#666666">[BASE TABLE]</text>
<polygon fill="none" stroke="black" points="1159,-197.2 1159,-228 1334.48,-228 1334.48,-197.2 1159,-197.2"/>
<text text-anchor="start" x="1166" y="-209.4" font-family="Arial" font-size="14.00">id </text>
<text text-anchor="start" x="1180.79" y="-209.4" font-family="Arial" font-size="14.00" fill="#666666">[int]</text>
<polygon fill="none" stroke="black" points="1159,-166.4 1159,-197.2 1334.48,-197.2 1334.48,-166.4 1159,-166.4"/>
<text text-anchor="start" x="1166" y="-178.6" font-family="Arial" font-size="14.00">email </text>
<text text-anchor="start" x="1203.35" y="-178.6" font-family="Arial" font-size="14.00" fill="#666666">[varchar(255)]</text>
<polygon fill="none" stroke="black" points="1159,-135.6 1159,-166.4 1334.48,-166.4 1334.48,-135.6 1159,-135.6"/>
<text text-anchor="start" x="1166" y="-147.8" font-family="Arial" font-size="14.00">username </text>
<text text-anchor="start" x="1232.15" y="-147.8" font-family="Arial" font-size="14.00" fill="#666666">[varchar(255)]</text>
<polygon fill="none" stroke="black" points="1159,-104.8 1159,-135.6 1334.48,-135.6 1334.48,-104.8 1159,-104.8"/>
<text text-anchor="start" x="1166" y="-117" font-family="Arial" font-size="14.00">password </text>
<text text-anchor="start" x="1229.81" y="-117" font-family="Arial" font-size="14.00" fill="#666666">[varchar(255)]</text>
<polygon fill="none" stroke="black" points="1159,-74 1159,-104.8 1334.48,-104.8 1334.48,-74 1159,-74"/>
<text text-anchor="start" x="1166" y="-86.2" font-family="Arial" font-size="14.00">created_at </text>
<text text-anchor="start" x="1236.05" y="-86.2" font-family="Arial" font-size="14.00" fill="#666666">[timestamp]</text>
<polygon fill="none" stroke="black" points="1159,-43.2 1159,-74 1334.48,-74 1334.48,-43.2 1159,-43.2"/>
<text text-anchor="start" x="1166" y="-55.4" font-family="Arial" font-size="14.00">updated_at </text>
<text text-anchor="start" x="1239.96" y="-55.4" font-family="Arial" font-size="14.00" fill="#666666">[timestamp]</text>
</g>
<!-- comments&#45;&gt;users -->
<g id="edge2" class="edge">
<title>comments:author_id&#45;&gt;users:id</title>
<path fill="none" stroke="black" d="M1116.5,-779.15C1115.17,-752.34 1108.74,-742.48 1106.74,-711.2 1096.34,-547.8 1076.22,-503.66 1106.74,-342.8 1118.34,-281.7 1095.81,-212.6 1158,-212.6"/>
<polygon fill="black" stroke="black" points="1116.5,-779.07 1112.24,-789.17 1116.62,-784.4 1116.73,-788.73 1116.73,-788.73 1116.73,-788.73 1116.62,-784.4 1121.23,-788.96 1116.5,-779.07"/>
<text text-anchor="start" x="1123.74" y="-773.4" font-family="Arial" font-size="10.00">FOREIGN KEY (author_id) REFERENCES users (id)</text>
</g>
<!-- notifications -->
<g id="node3" class="node">
<title>notifications</title>
<polygon fill="#efefef" stroke="none" points="1710.51,-601.6 1710.51,-637.2 1938.98,-637.2 1938.98,-601.6 1710.51,-601.6"/>
<polygon fill="none" stroke="black" points="1710.51,-601.6 1710.51,-637.2 1938.98,-637.2 1938.98,-601.6 1710.51,-601.6"/>
<text text-anchor="start" x="1717.51" y="-615" font-family="Arial Bold" font-size="18.00">notifications</text>
<text text-anchor="start" x="1807.49" y="-615" font-family="Arial" font-size="14.00">    </text>
<text text-anchor="start" x="1838.61" y="-615" font-family="Arial" font-size="14.00" fill="#666666">[BASE TABLE]</text>
<polygon fill="none" stroke="black" points="1710.51,-570.8 1710.51,-601.6 1938.98,-601.6 1938.98,-570.8 1710.51,-570.8"/>
<text text-anchor="start" x="1717.51" y="-583" font-family="Arial" font-size="14.00">id </text>
<text text-anchor="start" x="1732.29" y="-583" font-family="Arial" font-size="14.00" fill="#666666">[int]</text>
<polygon fill="none" stroke="black" points="1710.51,-540 1710.51,-570.8 1938.98,-570.8 1938.98,-540 1710.51,-540"/>
<text text-anchor="start" x="1717.51" y="-552.2" font-family="Arial" font-size="14.00">user_id </text>
<text text-anchor="start" x="1767.31" y="-552.2" font-family="Arial" font-size="14.00" fill="#666666">[int]</text>
<polygon fill="none" stroke="black" points="1710.51,-509.2 1710.51,-540 1938.98,-540 1938.98,-509.2 1710.51,-509.2"/>
<text text-anchor="start" x="1717.51" y="-521.4" font-family="Arial" font-size="14.00">title </text>
<text text-anchor="start" x="1743.18" y="-521.4" font-family="Arial" font-size="14.00" fill="#666666">[varchar(255)]</text>
<polygon fill="none" stroke="black" points="1710.51,-478.4 1710.51,-509.2 1938.98,-509.2 1938.98,-478.4 1710.51,-478.4"/>
<text text-anchor="start" x="1717.51" y="-490.6" font-family="Arial" font-size="14.00">content </text>
<text text-anchor="start" x="1767.32" y="-490.6" font-family="Arial" font-size="14.00" fill="#666666">[text]</text>
<polygon fill="none" stroke="black" points="1710.51,-447.6 1710.51,-478.4 1938.98,-478.4 1938.98,-447.6 1710.51,-447.6"/>
<text text-anchor="start" x="1717.51" y="-459.8" font-family="Arial" font-size="14.00">is_read </text>
<text text-anchor="start" x="1767.31" y="-459.8" font-family="Arial" font-size="14.00" fill="#666666">[tinyint(1)]</text>
<polygon fill="none" stroke="black" points="1710.51,-416.8 1710.51,-447.6 1938.98,-447.6 1938.98,-416.8 1710.51,-416.8"/>
<text text-anchor="start" x="1717.51" y="-429" font-family="Arial" font-size="14.00">created_at </text>
<text text-anchor="start" x="1787.56" y="-429" font-family="Arial" font-size="14.00" fill="#666666">[timestamp]</text>
</g>
<!-- notifications&#45;&gt;users -->
<g id="edge3" class="edge">
<title>notifications:user_id&#45;&gt;users:id</title>
<path fill="none" stroke="black" d="M1699.53,-554.84C1620.27,-545.17 1719.8,-413.67 1658.74,-342.8 1557.65,-225.46 1490.37,-212.6 1335.48,-212.6"/>
<polygon fill="black" stroke="black" points="1699.19,-554.82 1708.92,-559.87 1704.52,-555.12 1708.84,-555.36 1708.84,-555.36 1708.84,-555.36 1704.52,-555.12 1709.43,-550.89 1699.19,-554.82"/>
<text text-anchor="start" x="1476.35" y="-565.4" font-family="Arial" font-size="10.00">FOREIGN KEY (user_id) REFERENCES users (id)</text>
</g>
<!-- order_items -->
<g id="node4" class="node">
<title>order_items</title>
<polygon fill="#efefef" stroke="none" points="403.51,-959.8 403.51,-995.4 627.98,-995.4 627.98,-959.8 403.51,-959.8"/>
<polygon fill="none" stroke="black" points="403.51,-959.8 403.51,-995.4 627.98,-995.4 627.98,-959.8 403.51,-959.8"/>
<text text-anchor="start" x="410.51" y="-973.2" font-family="Arial Bold" font-size="18.00">order_items</text>
<text text-anchor="start" x="496.49" y="-973.2" font-family="Arial" font-size="14.00">    </text>
<text text-anchor="start" x="527.6" y="-973.2" font-family="Arial" font-size="14.00" fill="#666666">[BASE TABLE]</text>
<polygon fill="none" stroke="black" points="403.51,-929 403.51,-959.8 627.98,-959.8 627.98,-929 403.51,-929"/>
<text text-anchor="start" x="410.51" y="-941.2" font-family="Arial" font-size="14.00">id </text>
<text text-anchor="start" x="425.3" y="-941.2" font-family="Arial" font-size="14.00" fill="#666666">[int]</text>
<polygon fill="none" stroke="black" points="403.51,-898.2 403.51,-929 627.98,-929 627.98,-898.2 403.51,-898.2"/>
<text text-anchor="start" x="410.51" y="-910.4" font-family="Arial" font-size="14.00">order_id </text>
<text text-anchor="start" x="465.77" y="-910.4" font-family="Arial" font-size="14.00" fill="#666666">[int]</text>
<polygon fill="none" stroke="black" points="403.51,-867.4 403.51,-898.2 627.98,-898.2 627.98,-867.4 403.51,-867.4"/>
<text text-anchor="start" x="410.51" y="-879.6" font-family="Arial" font-size="14.00">product_id </text>
<text text-anchor="start" x="479.78" y="-879.6" font-family="Arial" font-size="14.00" fill="#666666">[int]</text>
<polygon fill="none" stroke="black" points="403.51,-836.6 403.51,-867.4 627.98,-867.4 627.98,-836.6 403.51,-836.6"/>
<text text-anchor="start" x="410.51" y="-848.8" font-family="Arial" font-size="14.00">quantity </text>
<text text-anchor="start" x="463.44" y="-848.8" font-family="Arial" font-size="14.00" fill="#666666">[int]</text>
<polygon fill="none" stroke="black" points="403.51,-805.8 403.51,-836.6 627.98,-836.6 627.98,-805.8 403.51,-805.8"/>
<text text-anchor="start" x="410.51" y="-818" font-family="Arial" font-size="14.00">price </text>
<text text-anchor="start" x="444.75" y="-818" font-family="Arial" font-size="14.00" fill="#666666">[decimal(10,2)]</text>
</g>
<!-- orders -->
<g id="node5" class="node">
<title>orders</title>
<polygon fill="#efefef" stroke="none" points="484.92,-601.6 484.92,-637.2 1016.56,-637.2 1016.56,-601.6 484.92,-601.6"/>
<polygon fill="none" stroke="black" points="484.92,-601.6 484.92,-637.2 1016.56,-637.2 1016.56,-601.6 484.92,-601.6"/>
<text text-anchor="start" x="666.01" y="-615" font-family="Arial Bold" font-size="18.00">orders</text>
<text text-anchor="start" x="710.99" y="-615" font-family="Arial" font-size="14.00">    </text>
<text text-anchor="start" x="742.11" y="-615" font-family="Arial" font-size="14.00" fill="#666666">[BASE TABLE]</text>
<polygon fill="none" stroke="black" points="484.92,-570.8 484.92,-601.6 1016.56,-601.6 1016.56,-570.8 484.92,-570.8"/>
<text text-anchor="start" x="491.92" y="-583" font-family="Arial" font-size="14.00">id </text>
<text text-anchor="start" x="506.71" y="-583" font-family="Arial" font-size="14.00" fill="#666666">[int]</text>
<polygon fill="none" stroke="black" points="484.92,-540 484.92,-570.8 1016.56,-570.8 1016.56,-540 484.92,-540"/>
<text text-anchor="start" x="491.92" y="-552.2" font-family="Arial" font-size="14.00">user_id </text>
<text text-anchor="start" x="541.73" y="-552.2" font-family="Arial" font-size="14.00" fill="#666666">[int]</text>
<polygon fill="none" stroke="black" points="484.92,-509.2 484.92,-540 1016.56,-540 1016.56,-509.2 484.92,-509.2"/>
<text text-anchor="start" x="491.92" y="-521.4" font-family="Arial" font-size="14.00">status </text>
<text text-anchor="start" x="533.17" y="-521.4" font-family="Arial" font-size="14.00" fill="#666666">[enum(&#39;PENDING&#39;,&#39;PROCESSING&#39;,&#39;SHIPPED&#39;,&#39;DELIVERED&#39;,&#39;CANCELLED&#39;)]</text>
<polygon fill="none" stroke="black" points="484.92,-478.4 484.92,-509.2 1016.56,-509.2 1016.56,-478.4 484.92,-478.4"/>
<text text-anchor="start" x="491.92" y="-490.6" font-family="Arial" font-size="14.00">total_price </text>
<text text-anchor="start" x="560.41" y="-490.6" font-family="Arial" font-size="14.00" fill="#666666">[decimal(10,2)]</text>
<polygon fill="none" stroke="black" points="484.92,-447.6 484.92,-478.4 1016.56,-478.4 1016.56,-447.6 484.92,-447.6"/>
<text text-anchor="start" x="491.92" y="-459.8" font-family="Arial" font-size="14.00">created_at </text>
<text text-anchor="start" x="561.97" y="-459.8" font-family="Arial" font-size="14.00" fill="#666666">[timestamp]</text>
<polygon fill="none" stroke="black" points="484.92,-416.8 484.92,-447.6 1016.56,-447.6 1016.56,-416.8 484.92,-416.8"/>
<text text-anchor="start" x="491.92" y="-429" font-family="Arial" font-size="14.00">updated_at </text>
<text text-anchor="start" x="565.88" y="-429" font-family="Arial" font-size="14.00" fill="#666666">[timestamp]</text>
</g>
<!-- order_items&#45;&gt;orders -->
<g id="edge4" class="edge">
<title>order_items:order_id&#45;&gt;orders:id</title>
<path fill="none" stroke="black" d="M639.09,-912.79C692.34,-903.53 659.93,-817.4 627.98,-762.6 591.04,-699.26 521.99,-743.67 484.92,-680.4 463.76,-644.27 442.06,-586.2 483.92,-586.2"/>
<polygon fill="black" stroke="black" points="639.28,-912.77 628.95,-909.09 633.96,-913.2 629.64,-913.55 629.64,-913.55 629.64,-913.55 633.96,-913.2 629.67,-918.06 639.28,-912.77"/>
<text text-anchor="start" x="635.98" y="-923.6" font-family="Arial" font-size="10.00">FOREIGN KEY (order_id) REFERENCES orders (id)</text>
</g>
<!-- products -->
<g id="node8" class="node">
<title>products</title>
<polygon fill="#efefef" stroke="none" points="180.5,-632.4 180.5,-668 380.98,-668 380.98,-632.4 180.5,-632.4"/>
<polygon fill="none" stroke="black" points="180.5,-632.4 180.5,-668 380.98,-668 380.98,-632.4 180.5,-632.4"/>
<text text-anchor="start" x="187.5" y="-645.8" font-family="Arial Bold" font-size="18.00">products</text>
<text text-anchor="start" x="249.49" y="-645.8" font-family="Arial" font-size="14.00">    </text>
<text text-anchor="start" x="280.61" y="-645.8" font-family="Arial" font-size="14.00" fill="#666666">[BASE TABLE]</text>
<polygon fill="none" stroke="black" points="180.5,-601.6 180.5,-632.4 380.98,-632.4 380.98,-601.6 180.5,-601.6"/>
<text text-anchor="start" x="187.5" y="-613.8" font-family="Arial" font-size="14.00">id </text>
<text text-anchor="start" x="202.29" y="-613.8" font-family="Arial" font-size="14.00" fill="#666666">[int]</text>
<polygon fill="none" stroke="black" points="180.5,-570.8 180.5,-601.6 380.98,-601.6 380.98,-570.8 180.5,-570.8"/>
<text text-anchor="start" x="187.5" y="-583" font-family="Arial" font-size="14.00">name </text>
<text text-anchor="start" x="226.41" y="-583" font-family="Arial" font-size="14.00" fill="#666666">[varchar(255)]</text>
<polygon fill="none" stroke="black" points="180.5,-540 180.5,-570.8 380.98,-570.8 380.98,-540 180.5,-540"/>
<text text-anchor="start" x="187.5" y="-552.2" font-family="Arial" font-size="14.00">description </text>
<text text-anchor="start" x="259.1" y="-552.2" font-family="Arial" font-size="14.00" fill="#666666">[text]</text>
<polygon fill="none" stroke="black" points="180.5,-509.2 180.5,-540 380.98,-540 380.98,-509.2 180.5,-509.2"/>
<text text-anchor="start" x="187.5" y="-521.4" font-family="Arial" font-size="14.00">price </text>
<text text-anchor="start" x="221.74" y="-521.4" font-family="Arial" font-size="14.00" fill="#666666">[decimal(10,2)]</text>
<polygon fill="none" stroke="black" points="180.5,-478.4 180.5,-509.2 380.98,-509.2 380.98,-478.4 180.5,-478.4"/>
<text text-anchor="start" x="187.5" y="-490.6" font-family="Arial" font-size="14.00">stock </text>
<text text-anchor="start" x="224.07" y="-490.6" font-family="Arial" font-size="14.00" fill="#666666">[int]</text>
<polygon fill="none" stroke="black" points="180.5,-447.6 180.5,-478.4 380.98,-478.4 380.98,-447.6 180.5,-447.6"/>
<text text-anchor="start" x="187.5" y="-459.8" font-family="Arial" font-size="14.00">created_at </text>
<text text-anchor="start" x="257.55" y="-459.8" font-family="Arial" font-size="14.00" fill="#666666">[timestamp]</text>
<polygon fill="none" stroke="black" points="180.5,-416.8 180.5,-447.6 380.98,-447.6 380.98,-416.8 180.5,-416.8"/>
<text text-anchor="start" x="187.5" y="-429" font-family="Arial" font-size="14.00">updated_at </text>
<text text-anchor="start" x="261.46" y="-429" font-family="Arial" font-size="14.00" fill="#666666">[timestamp]</text>
<polygon fill="none" stroke="black" points="180.5,-386 180.5,-416.8 380.98,-416.8 380.98,-386 180.5,-386"/>
<text text-anchor="start" x="187.5" y="-398.2" font-family="Arial" font-size="14.00">category_id </text>
<text text-anchor="start" x="263.77" y="-398.2" font-family="Arial" font-size="14.00" fill="#666666">[int]</text>
</g>
<!-- order_items&#45;&gt;products -->
<g id="edge5" class="edge">
<title>order_items:product_id&#45;&gt;products:id</title>
<path fill="none" stroke="black" d="M392.36,-882.04C297.23,-866.45 496.76,-617 381.98,-617"/>
<polygon fill="black" stroke="black" points="392.21,-882.03 401.84,-887.26 397.53,-882.43 401.84,-882.75 401.84,-882.75 401.84,-882.75 397.53,-882.43 402.51,-878.29 392.21,-882.03"/>
<text text-anchor="start" x="141.55" y="-892.8" font-family="Arial" font-size="10.00">FOREIGN KEY (product_id) REFERENCES products (id)</text>
</g>
<!-- orders&#45;&gt;users -->
<g id="edge6" class="edge">
<title>orders:user_id&#45;&gt;users:id</title>
<path fill="none" stroke="black" d="M1027.72,-554.9C1109.44,-546.3 1035.68,-428.87 1073.74,-342.8 1101.62,-279.76 1089.07,-212.6 1158,-212.6"/>
<polygon fill="black" stroke="black" points="1027.88,-554.89 1017.67,-550.89 1022.56,-555.15 1018.23,-555.37 1018.23,-555.37 1018.23,-555.37 1022.56,-555.15 1018.12,-559.88 1027.88,-554.89"/>
<text text-anchor="start" x="1024.56" y="-565.4" font-family="Arial" font-size="10.00">FOREIGN KEY (user_id) REFERENCES users (id)</text>
</g>
<!-- posts&#45;&gt;users -->
<g id="edge7" class="edge">
<title>posts:author_id&#45;&gt;users:id</title>
<path fill="none" stroke="black" d="M1247.54,-390.25C1255.13,-345.2 1314.61,-356.3 1334.48,-306.8 1350.09,-267.95 1377.35,-212.6 1335.48,-212.6"/>
<polygon fill="black" stroke="black" points="1247.55,-390.1 1242.28,-399.71 1247.14,-395.42 1246.8,-399.73 1246.8,-399.73 1246.8,-399.73 1247.14,-395.42 1251.26,-400.42 1247.55,-390.1"/>
<text text-anchor="start" x="1253.74" y="-410.4" font-family="Arial" font-size="10.00">FOREIGN KEY (author_id) REFERENCES users (id)</text>
</g>
<!-- posts_tags -->
<g id="node7" class="node">
<title>posts_tags</title>
<polygon fill="#efefef" stroke="none" points="1386,-913.6 1386,-949.2 1599.49,-949.2 1599.49,-913.6 1386,-913.6"/>
<polygon fill="none" stroke="black" points="1386,-913.6 1386,-949.2 1599.49,-949.2 1599.49,-913.6 1386,-913.6"/>
<text text-anchor="start" x="1393" y="-927" font-family="Arial Bold" font-size="18.00">posts_tags</text>
<text text-anchor="start" x="1468" y="-927" font-family="Arial" font-size="14.00">    </text>
<text text-anchor="start" x="1499.12" y="-927" font-family="Arial" font-size="14.00" fill="#666666">[BASE TABLE]</text>
<polygon fill="none" stroke="black" points="1386,-882.8 1386,-913.6 1599.49,-913.6 1599.49,-882.8 1386,-882.8"/>
<text text-anchor="start" x="1393" y="-895" font-family="Arial" font-size="14.00">post_id </text>
<text text-anchor="start" x="1442.03" y="-895" font-family="Arial" font-size="14.00" fill="#666666">[int]</text>
<polygon fill="none" stroke="black" points="1386,-852 1386,-882.8 1599.49,-882.8 1599.49,-852 1386,-852"/>
<text text-anchor="start" x="1393" y="-864.2" font-family="Arial" font-size="14.00">tag_id </text>
<text text-anchor="start" x="1435.03" y="-864.2" font-family="Arial" font-size="14.00" fill="#666666">[int]</text>
</g>
<!-- posts_tags&#45;&gt;posts -->
<g id="edge8" class="edge">
<title>posts_tags:post_id&#45;&gt;posts:id</title>
<path fill="none" stroke="black" d="M1374.81,-897.55C1263,-882.2 1465.48,-601.6 1335.49,-601.6"/>
<polygon fill="black" stroke="black" points="1374.68,-897.54 1384.37,-902.67 1380.01,-897.88 1384.33,-898.16 1384.33,-898.16 1384.33,-898.16 1380.01,-897.88 1384.95,-893.69 1374.68,-897.54"/>
<text text-anchor="start" x="1212.71" y="-882.2" font-family="Arial" font-size="10.00">FOREIGN KEY (post_id) REFERENCES posts (id)</text>
</g>
<!-- tags -->
<g id="node10" class="node">
<title>tags</title>
<polygon fill="#efefef" stroke="none" points="1439,-540 1439,-575.6 1606.49,-575.6 1606.49,-540 1439,-540"/>
<polygon fill="none" stroke="black" points="1439,-540 1439,-575.6 1606.49,-575.6 1606.49,-540 1439,-540"/>
<text text-anchor="start" x="1446" y="-553.4" font-family="Arial Bold" font-size="18.00">tags</text>
<text text-anchor="start" x="1475" y="-553.4" font-family="Arial" font-size="14.00">    </text>
<text text-anchor="start" x="1506.11" y="-553.4" font-family="Arial" font-size="14.00" fill="#666666">[BASE TABLE]</text>
<polygon fill="none" stroke="black" points="1439,-509.2 1439,-540 1606.49,-540 1606.49,-509.2 1439,-509.2"/>
<text text-anchor="start" x="1446" y="-521.4" font-family="Arial" font-size="14.00">id </text>
<text text-anchor="start" x="1460.79" y="-521.4" font-family="Arial" font-size="14.00" fill="#666666">[int]</text>
<polygon fill="none" stroke="black" points="1439,-478.4 1439,-509.2 1606.49,-509.2 1606.49,-478.4 1439,-478.4"/>
<text text-anchor="start" x="1446" y="-490.6" font-family="Arial" font-size="14.00">name </text>
<text text-anchor="start" x="1484.91" y="-490.6" font-family="Arial" font-size="14.00" fill="#666666">[varchar(255)]</text>
</g>
<!-- posts_tags&#45;&gt;tags -->
<g id="edge9" class="edge">
<title>posts_tags:tag_id&#45;&gt;tags:id</title>
<path fill="none" stroke="black" d="M1492.09,-840.82C1482.32,-756.66 1367.54,-524.6 1438,-524.6"/>
<polygon fill="black" stroke="black" points="1492.08,-840.69 1488.23,-850.95 1492.42,-846.01 1492.7,-850.33 1492.7,-850.33 1492.7,-850.33 1492.42,-846.01 1497.21,-850.38 1492.08,-840.69"/>
<text text-anchor="start" x="1499.74" y="-861" font-family="Arial" font-size="10.00">FOREIGN KEY (tag_id) REFERENCES tags (id)</text>
</g>
<!-- products&#45;&gt;categories -->
<g id="edge10" class="edge">
<title>products:category_id&#45;&gt;categories:id</title>
<path fill="none" stroke="black" d="M281.26,-374.62C288.17,-308.02 362.47,-315.47 386.47,-245.2 400,-205.58 429.34,-151 387.47,-151"/>
<polygon fill="black" stroke="black" points="281.26,-374.68 276.27,-384.44 280.99,-380.01 280.78,-384.33 280.78,-384.33 280.78,-384.33 280.99,-380.01 285.25,-384.89 281.26,-374.68"/>
<text text-anchor="start" x="7" y="-395" font-family="Arial" font-size="10.00">FOREIGN KEY (category_id) REFERENCES categories (id)</text>
</g>
<!-- profiles -->
<g id="node9" class="node">
<title>profiles</title>
<polygon fill="#efefef" stroke="none" points="2043.01,-632.4 2043.01,-668 2236.48,-668 2236.48,-632.4 2043.01,-632.4"/>
<polygon fill="none" stroke="black" points="2043.01,-632.4 2043.01,-668 2236.48,-668 2236.48,-632.4 2043.01,-632.4"/>
<text text-anchor="start" x="2050.01" y="-645.8" font-family="Arial Bold" font-size="18.00">profiles</text>
<text text-anchor="start" x="2104.99" y="-645.8" font-family="Arial" font-size="14.00">    </text>
<text text-anchor="start" x="2136.11" y="-645.8" font-family="Arial" font-size="14.00" fill="#666666">[BASE TABLE]</text>
<polygon fill="none" stroke="black" points="2043.01,-601.6 2043.01,-632.4 2236.48,-632.4 2236.48,-601.6 2043.01,-601.6"/>
<text text-anchor="start" x="2050.01" y="-613.8" font-family="Arial" font-size="14.00">id </text>
<text text-anchor="start" x="2064.79" y="-613.8" font-family="Arial" font-size="14.00" fill="#666666">[int]</text>
<polygon fill="none" stroke="black" points="2043.01,-570.8 2043.01,-601.6 2236.48,-601.6 2236.48,-570.8 2043.01,-570.8"/>
<text text-anchor="start" x="2050.01" y="-583" font-family="Arial" font-size="14.00">user_id </text>
<text text-anchor="start" x="2099.81" y="-583" font-family="Arial" font-size="14.00" fill="#666666">[int]</text>
<polygon fill="none" stroke="black" points="2043.01,-540 2043.01,-570.8 2236.48,-570.8 2236.48,-540 2043.01,-540"/>
<text text-anchor="start" x="2050.01" y="-552.2" font-family="Arial" font-size="14.00">first_name </text>
<text text-anchor="start" x="2119.25" y="-552.2" font-family="Arial" font-size="14.00" fill="#666666">[varchar(255)]</text>
<polygon fill="none" stroke="black" points="2043.01,-509.2 2043.01,-540 2236.48,-540 2236.48,-509.2 2043.01,-509.2"/>
<text text-anchor="start" x="2050.01" y="-521.4" font-family="Arial" font-size="14.00">last_name </text>
<text text-anchor="start" x="2118.49" y="-521.4" font-family="Arial" font-size="14.00" fill="#666666">[varchar(255)]</text>
<polygon fill="none" stroke="black" points="2043.01,-478.4 2043.01,-509.2 2236.48,-509.2 2236.48,-478.4 2043.01,-478.4"/>
<text text-anchor="start" x="2050.01" y="-490.6" font-family="Arial" font-size="14.00">bio </text>
<text text-anchor="start" x="2072.58" y="-490.6" font-family="Arial" font-size="14.00" fill="#666666">[text]</text>
<polygon fill="none" stroke="black" points="2043.01,-447.6 2043.01,-478.4 2236.48,-478.4 2236.48,-447.6 2043.01,-447.6"/>
<text text-anchor="start" x="2050.01" y="-459.8" font-family="Arial" font-size="14.00">avatar </text>
<text text-anchor="start" x="2092.81" y="-459.8" font-family="Arial" font-size="14.00" fill="#666666">[varchar(255)]</text>
<polygon fill="none" stroke="black" points="2043.01,-416.8 2043.01,-447.6 2236.48,-447.6 2236.48,-416.8 2043.01,-416.8"/>
<text text-anchor="start" x="2050.01" y="-429" font-family="Arial" font-size="14.00">birth_date </text>
<text text-anchor="start" x="2116.16" y="-429" font-family="Arial" font-size="14.00" fill="#666666">[date]</text>
<polygon fill="none" stroke="black" points="2043.01,-386 2043.01,-416.8 2236.48,-416.8 2236.48,-386 2043.01,-386"/>
<text text-anchor="start" x="2050.01" y="-398.2" font-family="Arial" font-size="14.00">phone_number </text>
<text text-anchor="start" x="2148.08" y="-398.2" font-family="Arial" font-size="14.00" fill="#666666">[varchar(20)]</text>
</g>
<!-- profiles&#45;&gt;users -->
<g id="edge11" class="edge">
<title>profiles:user_id&#45;&gt;users:id</title>
<path fill="none" stroke="black" d="M2031.8,-585.66C1940.37,-575.29 2066.75,-417.94 1990.74,-342.8 1885.17,-238.42 1483.94,-212.6 1335.48,-212.6"/>
<polygon fill="black" stroke="black" points="2031.69,-585.66 2041.44,-590.68 2037.01,-585.94 2041.34,-586.16 2041.34,-586.16 2041.34,-586.16 2037.01,-585.94 2041.91,-581.69 2031.69,-585.66"/>
<text text-anchor="start" x="1808.85" y="-596.2" font-family="Arial" font-size="10.00">FOREIGN KEY (user_id) REFERENCES users (id)</text>
</g>
</g>
</svg>
