<?xml version="1.0" encoding="UTF-8" standalone="no"?>
<!DOCTYPE svg PUBLIC "-//W3C//DTD SVG 1.1//EN"
 "http://www.w3.org/Graphics/SVG/1.1/DTD/svg11.dtd">
<!-- Generated by graphviz version 12.1.2 (20240928.0832)
 -->
<!-- Title: tags Pages: 1 -->
<svg width="387pt" height="417pt"
 viewBox="0.00 0.00 387.00 417.20" xmlns="http://www.w3.org/2000/svg" xmlns:xlink="http://www.w3.org/1999/xlink">
<g id="graph0" class="graph" transform="scale(1 1) rotate(0) translate(4 413.2)">
<title>tags</title>
<polygon fill="white" stroke="none" points="-4,4 -4,-413.2 383,-413.2 383,4 -4,4"/>
<!-- tags -->
<g id="node1" class="node">
<title>tags</title>
<polygon fill="#efefef" stroke="none" points="145.31,-107.8 145.31,-143.4 312.8,-143.4 312.8,-107.8 145.31,-107.8"/>
<polygon fill="none" stroke="black" points="145.31,-107.8 145.31,-143.4 312.8,-143.4 312.8,-107.8 145.31,-107.8"/>
<text text-anchor="start" x="152.31" y="-121.2" font-family="Arial Bold" font-size="18.00">tags</text>
<text text-anchor="start" x="181.31" y="-121.2" font-family="Arial" font-size="14.00">    </text>
<text text-anchor="start" x="212.42" y="-121.2" font-family="Arial" font-size="14.00" fill="#666666">[BASE TABLE]</text>
<polygon fill="none" stroke="black" points="145.31,-77 145.31,-107.8 312.8,-107.8 312.8,-77 145.31,-77"/>
<text text-anchor="start" x="152.31" y="-89.2" font-family="Arial" font-size="14.00">id </text>
<text text-anchor="start" x="167.1" y="-89.2" font-family="Arial" font-size="14.00" fill="#666666">[int]</text>
<polygon fill="none" stroke="black" points="145.31,-46.2 145.31,-77 312.8,-77 312.8,-46.2 145.31,-46.2"/>
<text text-anchor="start" x="152.31" y="-58.4" font-family="Arial" font-size="14.00">name </text>
<text text-anchor="start" x="191.22" y="-58.4" font-family="Arial" font-size="14.00" fill="#666666">[varchar(255)]</text>
<polygon fill="none" stroke="black" stroke-width="3" points="143.81,-44.7 143.81,-144.9 314.3,-144.9 314.3,-44.7 143.81,-44.7"/>
</g>
<!-- posts_tags -->
<g id="node2" class="node">
<title>posts_tags</title>
<polygon fill="#efefef" stroke="none" points="122.31,-330.4 122.31,-366 335.8,-366 335.8,-330.4 122.31,-330.4"/>
<polygon fill="none" stroke="black" points="122.31,-330.4 122.31,-366 335.8,-366 335.8,-330.4 122.31,-330.4"/>
<text text-anchor="start" x="129.31" y="-343.8" font-family="Arial Bold" font-size="18.00">posts_tags</text>
<text text-anchor="start" x="204.31" y="-343.8" font-family="Arial" font-size="14.00">    </text>
<text text-anchor="start" x="235.43" y="-343.8" font-family="Arial" font-size="14.00" fill="#666666">[BASE TABLE]</text>
<polygon fill="none" stroke="black" points="122.31,-299.6 122.31,-330.4 335.8,-330.4 335.8,-299.6 122.31,-299.6"/>
<text text-anchor="start" x="129.31" y="-311.8" font-family="Arial" font-size="14.00">post_id </text>
<text text-anchor="start" x="178.34" y="-311.8" font-family="Arial" font-size="14.00" fill="#666666">[int]</text>
<polygon fill="none" stroke="black" points="122.31,-268.8 122.31,-299.6 335.8,-299.6 335.8,-268.8 122.31,-268.8"/>
<text text-anchor="start" x="129.31" y="-281" font-family="Arial" font-size="14.00">tag_id </text>
<text text-anchor="start" x="171.34" y="-281" font-family="Arial" font-size="14.00" fill="#666666">[int]</text>
</g>
<!-- posts_tags&#45;&gt;tags -->
<g id="edge1" class="edge">
<title>posts_tags:tag_id&#45;&gt;tags:id</title>
<path fill="none" stroke="black" d="M230.06,-257.57C238.2,-219.38 293.79,-232.74 312.8,-189.6 330.21,-150.06 357,-92.4 313.8,-92.4"/>
<polygon fill="black" stroke="black" points="230.06,-257.51 224.61,-267.03 229.54,-262.82 229.12,-267.13 229.12,-267.13 229.12,-267.13 229.54,-262.82 233.56,-267.91 230.06,-257.51"/>
<text text-anchor="start" x="7" y="-277.8" font-family="Arial" font-size="10.00">FOREIGN KEY (tag_id) REFERENCES tags (id)</text>
</g>
</g>
</svg>
