<?xml version="1.0" encoding="UTF-8" standalone="no"?>
<!DOCTYPE svg PUBLIC "-//W3C//DTD SVG 1.1//EN"
 "http://www.w3.org/Graphics/SVG/1.1/DTD/svg11.dtd">
<!-- Generated by graphviz version 12.1.2 (20240928.0832)
 -->
<!-- Title: users Pages: 1 -->
<svg width="1853pt" height="725pt"
 viewBox="0.00 0.00 1853.37 725.20" xmlns="http://www.w3.org/2000/svg" xmlns:xlink="http://www.w3.org/1999/xlink">
<g id="graph0" class="graph" transform="scale(1 1) rotate(0) translate(4 721.2)">
<title>users</title>
<polygon fill="white" stroke="none" points="-4,4 -4,-721.2 1849.37,-721.2 1849.37,4 -4,4"/>
<!-- users -->
<g id="node1" class="node">
<title>users</title>
<polygon fill="#efefef" stroke="none" points="870.7,-231 870.7,-266.6 1046.18,-266.6 1046.18,-231 870.7,-231"/>
<polygon fill="none" stroke="black" points="870.7,-231 870.7,-266.6 1046.18,-266.6 1046.18,-231 870.7,-231"/>
<text text-anchor="start" x="877.7" y="-244.4" font-family="Arial Bold" font-size="18.00">users</text>
<text text-anchor="start" x="914.69" y="-244.4" font-family="Arial" font-size="14.00">    </text>
<text text-anchor="start" x="945.81" y="-244.4" font-family="Arial" font-size="14.00" fill="#666666">[BASE TABLE]</text>
<polygon fill="none" stroke="black" points="870.7,-200.2 870.7,-231 1046.18,-231 1046.18,-200.2 870.7,-200.2"/>
<text text-anchor="start" x="877.7" y="-212.4" font-family="Arial" font-size="14.00">id </text>
<text text-anchor="start" x="892.48" y="-212.4" font-family="Arial" font-size="14.00" fill="#666666">[int]</text>
<polygon fill="none" stroke="black" points="870.7,-169.4 870.7,-200.2 1046.18,-200.2 1046.18,-169.4 870.7,-169.4"/>
<text text-anchor="start" x="877.7" y="-181.6" font-family="Arial" font-size="14.00">email </text>
<text text-anchor="start" x="915.04" y="-181.6" font-family="Arial" font-size="14.00" fill="#666666">[varchar(255)]</text>
<polygon fill="none" stroke="black" points="870.7,-138.6 870.7,-169.4 1046.18,-169.4 1046.18,-138.6 870.7,-138.6"/>
<text text-anchor="start" x="877.7" y="-150.8" font-family="Arial" font-size="14.00">username </text>
<text text-anchor="start" x="943.84" y="-150.8" font-family="Arial" font-size="14.00" fill="#666666">[varchar(255)]</text>
<polygon fill="none" stroke="black" points="870.7,-107.8 870.7,-138.6 1046.18,-138.6 1046.18,-107.8 870.7,-107.8"/>
<text text-anchor="start" x="877.7" y="-120" font-family="Arial" font-size="14.00">password </text>
<text text-anchor="start" x="941.5" y="-120" font-family="Arial" font-size="14.00" fill="#666666">[varchar(255)]</text>
<polygon fill="none" stroke="black" points="870.7,-77 870.7,-107.8 1046.18,-107.8 1046.18,-77 870.7,-77"/>
<text text-anchor="start" x="877.7" y="-89.2" font-family="Arial" font-size="14.00">created_at </text>
<text text-anchor="start" x="947.74" y="-89.2" font-family="Arial" font-size="14.00" fill="#666666">[timestamp]</text>
<polygon fill="none" stroke="black" points="870.7,-46.2 870.7,-77 1046.18,-77 1046.18,-46.2 870.7,-46.2"/>
<text text-anchor="start" x="877.7" y="-58.4" font-family="Arial" font-size="14.00">updated_at </text>
<text text-anchor="start" x="951.65" y="-58.4" font-family="Arial" font-size="14.00" fill="#666666">[timestamp]</text>
<polygon fill="none" stroke="black" stroke-width="3" points="869.2,-44.7 869.2,-268.1 1047.68,-268.1 1047.68,-44.7 869.2,-44.7"/>
</g>
<!-- comments -->
<g id="node2" class="node">
<title>comments</title>
<polygon fill="#efefef" stroke="none" points="43.2,-607.6 43.2,-643.2 255.68,-643.2 255.68,-607.6 43.2,-607.6"/>
<polygon fill="none" stroke="black" points="43.2,-607.6 43.2,-643.2 255.68,-643.2 255.68,-607.6 43.2,-607.6"/>
<text text-anchor="start" x="50.2" y="-621" font-family="Arial Bold" font-size="18.00">comments</text>
<text text-anchor="start" x="124.19" y="-621" font-family="Arial" font-size="14.00">    </text>
<text text-anchor="start" x="155.3" y="-621" font-family="Arial" font-size="14.00" fill="#666666">[BASE TABLE]</text>
<polygon fill="none" stroke="black" points="43.2,-576.8 43.2,-607.6 255.68,-607.6 255.68,-576.8 43.2,-576.8"/>
<text text-anchor="start" x="50.2" y="-589" font-family="Arial" font-size="14.00">id </text>
<text text-anchor="start" x="64.99" y="-589" font-family="Arial" font-size="14.00" fill="#666666">[int]</text>
<polygon fill="none" stroke="black" points="43.2,-546 43.2,-576.8 255.68,-576.8 255.68,-546 43.2,-546"/>
<text text-anchor="start" x="50.2" y="-558.2" font-family="Arial" font-size="14.00">content </text>
<text text-anchor="start" x="100.01" y="-558.2" font-family="Arial" font-size="14.00" fill="#666666">[text]</text>
<polygon fill="none" stroke="black" points="43.2,-515.2 43.2,-546 255.68,-546 255.68,-515.2 43.2,-515.2"/>
<text text-anchor="start" x="50.2" y="-527.4" font-family="Arial" font-size="14.00">created_at </text>
<text text-anchor="start" x="120.25" y="-527.4" font-family="Arial" font-size="14.00" fill="#666666">[timestamp]</text>
<polygon fill="none" stroke="black" points="43.2,-484.4 43.2,-515.2 255.68,-515.2 255.68,-484.4 43.2,-484.4"/>
<text text-anchor="start" x="50.2" y="-496.6" font-family="Arial" font-size="14.00">updated_at </text>
<text text-anchor="start" x="124.16" y="-496.6" font-family="Arial" font-size="14.00" fill="#666666">[timestamp]</text>
<polygon fill="none" stroke="black" points="43.2,-453.6 43.2,-484.4 255.68,-484.4 255.68,-453.6 43.2,-453.6"/>
<text text-anchor="start" x="50.2" y="-465.8" font-family="Arial" font-size="14.00">post_id </text>
<text text-anchor="start" x="99.23" y="-465.8" font-family="Arial" font-size="14.00" fill="#666666">[int]</text>
<polygon fill="none" stroke="black" points="43.2,-422.8 43.2,-453.6 255.68,-453.6 255.68,-422.8 43.2,-422.8"/>
<text text-anchor="start" x="50.2" y="-435" font-family="Arial" font-size="14.00">author_id </text>
<text text-anchor="start" x="112.47" y="-435" font-family="Arial" font-size="14.00" fill="#666666">[int]</text>
</g>
<!-- comments&#45;&gt;users -->
<g id="edge1" class="edge">
<title>comments:author_id&#45;&gt;users:id</title>
<path fill="none" stroke="black" d="M266.9,-436.89C297.76,-427.8 274.76,-373.85 308.44,-348.8 411.3,-272.3 741.51,-215.6 869.7,-215.6"/>
<polygon fill="black" stroke="black" points="266.93,-436.88 256.43,-433.69 261.63,-437.56 257.34,-438.11 257.34,-438.11 257.34,-438.11 261.63,-437.56 257.58,-442.62 266.93,-436.88"/>
<text text-anchor="start" x="139.15" y="-422.2" font-family="Arial" font-size="10.00">FOREIGN KEY (author_id) REFERENCES users (id)</text>
</g>
<!-- notifications -->
<g id="node3" class="node">
<title>notifications</title>
<polygon fill="#efefef" stroke="none" points="360.2,-607.6 360.2,-643.2 588.67,-643.2 588.67,-607.6 360.2,-607.6"/>
<polygon fill="none" stroke="black" points="360.2,-607.6 360.2,-643.2 588.67,-643.2 588.67,-607.6 360.2,-607.6"/>
<text text-anchor="start" x="367.2" y="-621" font-family="Arial Bold" font-size="18.00">notifications</text>
<text text-anchor="start" x="457.18" y="-621" font-family="Arial" font-size="14.00">    </text>
<text text-anchor="start" x="488.3" y="-621" font-family="Arial" font-size="14.00" fill="#666666">[BASE TABLE]</text>
<polygon fill="none" stroke="black" points="360.2,-576.8 360.2,-607.6 588.67,-607.6 588.67,-576.8 360.2,-576.8"/>
<text text-anchor="start" x="367.2" y="-589" font-family="Arial" font-size="14.00">id </text>
<text text-anchor="start" x="381.99" y="-589" font-family="Arial" font-size="14.00" fill="#666666">[int]</text>
<polygon fill="none" stroke="black" points="360.2,-546 360.2,-576.8 588.67,-576.8 588.67,-546 360.2,-546"/>
<text text-anchor="start" x="367.2" y="-558.2" font-family="Arial" font-size="14.00">user_id </text>
<text text-anchor="start" x="417.01" y="-558.2" font-family="Arial" font-size="14.00" fill="#666666">[int]</text>
<polygon fill="none" stroke="black" points="360.2,-515.2 360.2,-546 588.67,-546 588.67,-515.2 360.2,-515.2"/>
<text text-anchor="start" x="367.2" y="-527.4" font-family="Arial" font-size="14.00">title </text>
<text text-anchor="start" x="392.88" y="-527.4" font-family="Arial" font-size="14.00" fill="#666666">[varchar(255)]</text>
<polygon fill="none" stroke="black" points="360.2,-484.4 360.2,-515.2 588.67,-515.2 588.67,-484.4 360.2,-484.4"/>
<text text-anchor="start" x="367.2" y="-496.6" font-family="Arial" font-size="14.00">content </text>
<text text-anchor="start" x="417.02" y="-496.6" font-family="Arial" font-size="14.00" fill="#666666">[text]</text>
<polygon fill="none" stroke="black" points="360.2,-453.6 360.2,-484.4 588.67,-484.4 588.67,-453.6 360.2,-453.6"/>
<text text-anchor="start" x="367.2" y="-465.8" font-family="Arial" font-size="14.00">is_read </text>
<text text-anchor="start" x="417.01" y="-465.8" font-family="Arial" font-size="14.00" fill="#666666">[tinyint(1)]</text>
<polygon fill="none" stroke="black" points="360.2,-422.8 360.2,-453.6 588.67,-453.6 588.67,-422.8 360.2,-422.8"/>
<text text-anchor="start" x="367.2" y="-435" font-family="Arial" font-size="14.00">created_at </text>
<text text-anchor="start" x="437.25" y="-435" font-family="Arial" font-size="14.00" fill="#666666">[timestamp]</text>
</g>
<!-- notifications&#45;&gt;users -->
<g id="edge2" class="edge">
<title>notifications:user_id&#45;&gt;users:id</title>
<path fill="none" stroke="black" d="M599.67,-560.85C679.3,-551.48 584.62,-423.86 640.44,-348.8 710.76,-254.24 751.85,-215.6 869.7,-215.6"/>
<polygon fill="black" stroke="black" points="599.99,-560.84 589.76,-556.89 594.67,-561.13 590.34,-561.36 590.34,-561.36 590.34,-561.36 594.67,-561.13 590.25,-565.88 599.99,-560.84"/>
<text text-anchor="start" x="596.67" y="-571.4" font-family="Arial" font-size="10.00">FOREIGN KEY (user_id) REFERENCES users (id)</text>
</g>
<!-- orders -->
<g id="node4" class="node">
<title>orders</title>
<polygon fill="#efefef" stroke="none" points="692.62,-607.6 692.62,-643.2 1224.26,-643.2 1224.26,-607.6 692.62,-607.6"/>
<polygon fill="none" stroke="black" points="692.62,-607.6 692.62,-643.2 1224.26,-643.2 1224.26,-607.6 692.62,-607.6"/>
<text text-anchor="start" x="873.7" y="-621" font-family="Arial Bold" font-size="18.00">orders</text>
<text text-anchor="start" x="918.68" y="-621" font-family="Arial" font-size="14.00">    </text>
<text text-anchor="start" x="949.8" y="-621" font-family="Arial" font-size="14.00" fill="#666666">[BASE TABLE]</text>
<polygon fill="none" stroke="black" points="692.62,-576.8 692.62,-607.6 1224.26,-607.6 1224.26,-576.8 692.62,-576.8"/>
<text text-anchor="start" x="699.62" y="-589" font-family="Arial" font-size="14.00">id </text>
<text text-anchor="start" x="714.41" y="-589" font-family="Arial" font-size="14.00" fill="#666666">[int]</text>
<polygon fill="none" stroke="black" points="692.62,-546 692.62,-576.8 1224.26,-576.8 1224.26,-546 692.62,-546"/>
<text text-anchor="start" x="699.62" y="-558.2" font-family="Arial" font-size="14.00">user_id </text>
<text text-anchor="start" x="749.43" y="-558.2" font-family="Arial" font-size="14.00" fill="#666666">[int]</text>
<polygon fill="none" stroke="black" points="692.62,-515.2 692.62,-546 1224.26,-546 1224.26,-515.2 692.62,-515.2"/>
<text text-anchor="start" x="699.62" y="-527.4" font-family="Arial" font-size="14.00">status </text>
<text text-anchor="start" x="740.86" y="-527.4" font-family="Arial" font-size="14.00" fill="#666666">[enum(&#39;PENDING&#39;,&#39;PROCESSING&#39;,&#39;SHIPPED&#39;,&#39;DELIVERED&#39;,&#39;CANCELLED&#39;)]</text>
<polygon fill="none" stroke="black" points="692.62,-484.4 692.62,-515.2 1224.26,-515.2 1224.26,-484.4 692.62,-484.4"/>
<text text-anchor="start" x="699.62" y="-496.6" font-family="Arial" font-size="14.00">total_price </text>
<text text-anchor="start" x="768.1" y="-496.6" font-family="Arial" font-size="14.00" fill="#666666">[decimal(10,2)]</text>
<polygon fill="none" stroke="black" points="692.62,-453.6 692.62,-484.4 1224.26,-484.4 1224.26,-453.6 692.62,-453.6"/>
<text text-anchor="start" x="699.62" y="-465.8" font-family="Arial" font-size="14.00">created_at </text>
<text text-anchor="start" x="769.67" y="-465.8" font-family="Arial" font-size="14.00" fill="#666666">[timestamp]</text>
<polygon fill="none" stroke="black" points="692.62,-422.8 692.62,-453.6 1224.26,-453.6 1224.26,-422.8 692.62,-422.8"/>
<text text-anchor="start" x="699.62" y="-435" font-family="Arial" font-size="14.00">updated_at </text>
<text text-anchor="start" x="773.58" y="-435" font-family="Arial" font-size="14.00" fill="#666666">[timestamp]</text>
</g>
<!-- orders&#45;&gt;users -->
<g id="edge3" class="edge">
<title>orders:user_id&#45;&gt;users:id</title>
<path fill="none" stroke="black" d="M1235.37,-560.76C1301.67,-551.78 1255.34,-450.23 1224.26,-379.6 1181.04,-281.42 1154.45,-215.6 1047.18,-215.6"/>
<polygon fill="black" stroke="black" points="1235.57,-560.75 1225.31,-556.89 1230.25,-561.08 1225.92,-561.36 1225.92,-561.36 1225.92,-561.36 1230.25,-561.08 1225.87,-565.87 1235.57,-560.75"/>
<text text-anchor="start" x="1112.18" y="-545.4" font-family="Arial" font-size="10.00">FOREIGN KEY (user_id) REFERENCES users (id)</text>
</g>
<!-- posts -->
<g id="node5" class="node">
<title>posts</title>
<polygon fill="#efefef" stroke="none" points="1328.69,-623 1328.69,-658.6 1504.19,-658.6 1504.19,-623 1328.69,-623"/>
<polygon fill="none" stroke="black" points="1328.69,-623 1328.69,-658.6 1504.19,-658.6 1504.19,-623 1328.69,-623"/>
<text text-anchor="start" x="1335.69" y="-636.4" font-family="Arial Bold" font-size="18.00">posts</text>
<text text-anchor="start" x="1372.7" y="-636.4" font-family="Arial" font-size="14.00">    </text>
<text text-anchor="start" x="1403.82" y="-636.4" font-family="Arial" font-size="14.00" fill="#666666">[BASE TABLE]</text>
<polygon fill="none" stroke="black" points="1328.69,-592.2 1328.69,-623 1504.19,-623 1504.19,-592.2 1328.69,-592.2"/>
<text text-anchor="start" x="1335.69" y="-604.4" font-family="Arial" font-size="14.00">id </text>
<text text-anchor="start" x="1350.47" y="-604.4" font-family="Arial" font-size="14.00" fill="#666666">[int]</text>
<polygon fill="none" stroke="black" points="1328.69,-561.4 1328.69,-592.2 1504.19,-592.2 1504.19,-561.4 1328.69,-561.4"/>
<text text-anchor="start" x="1335.69" y="-573.6" font-family="Arial" font-size="14.00">title </text>
<text text-anchor="start" x="1361.36" y="-573.6" font-family="Arial" font-size="14.00" fill="#666666">[varchar(255)]</text>
<polygon fill="none" stroke="black" points="1328.69,-530.6 1328.69,-561.4 1504.19,-561.4 1504.19,-530.6 1328.69,-530.6"/>
<text text-anchor="start" x="1335.69" y="-542.8" font-family="Arial" font-size="14.00">content </text>
<text text-anchor="start" x="1385.5" y="-542.8" font-family="Arial" font-size="14.00" fill="#666666">[text]</text>
<polygon fill="none" stroke="black" points="1328.69,-499.8 1328.69,-530.6 1504.19,-530.6 1504.19,-499.8 1328.69,-499.8"/>
<text text-anchor="start" x="1335.69" y="-512" font-family="Arial" font-size="14.00">published </text>
<text text-anchor="start" x="1399.51" y="-512" font-family="Arial" font-size="14.00" fill="#666666">[tinyint(1)]</text>
<polygon fill="none" stroke="black" points="1328.69,-469 1328.69,-499.8 1504.19,-499.8 1504.19,-469 1328.69,-469"/>
<text text-anchor="start" x="1335.69" y="-481.2" font-family="Arial" font-size="14.00">created_at </text>
<text text-anchor="start" x="1405.74" y="-481.2" font-family="Arial" font-size="14.00" fill="#666666">[timestamp]</text>
<polygon fill="none" stroke="black" points="1328.69,-438.2 1328.69,-469 1504.19,-469 1504.19,-438.2 1328.69,-438.2"/>
<text text-anchor="start" x="1335.69" y="-450.4" font-family="Arial" font-size="14.00">updated_at </text>
<text text-anchor="start" x="1409.65" y="-450.4" font-family="Arial" font-size="14.00" fill="#666666">[timestamp]</text>
<polygon fill="none" stroke="black" points="1328.69,-407.4 1328.69,-438.2 1504.19,-438.2 1504.19,-407.4 1328.69,-407.4"/>
<text text-anchor="start" x="1335.69" y="-419.6" font-family="Arial" font-size="14.00">author_id </text>
<text text-anchor="start" x="1397.96" y="-419.6" font-family="Arial" font-size="14.00" fill="#666666">[int]</text>
</g>
<!-- posts&#45;&gt;users -->
<g id="edge4" class="edge">
<title>posts:author_id&#45;&gt;users:id</title>
<path fill="none" stroke="black" d="M1317.53,-421.52C1290.77,-413.84 1302.96,-373.29 1276.44,-348.8 1189.87,-268.85 1165.02,-215.6 1047.18,-215.6"/>
<polygon fill="black" stroke="black" points="1317.43,-421.51 1326.79,-427.22 1322.73,-422.18 1327.02,-422.72 1327.02,-422.72 1327.02,-422.72 1322.73,-422.18 1327.92,-418.29 1317.43,-421.51"/>
<text text-anchor="start" x="1334.69" y="-432.8" font-family="Arial" font-size="10.00">FOREIGN KEY (author_id) REFERENCES users (id)</text>
</g>
<!-- profiles -->
<g id="node6" class="node">
<title>profiles</title>
<polygon fill="#efefef" stroke="none" points="1608.7,-638.4 1608.7,-674 1802.17,-674 1802.17,-638.4 1608.7,-638.4"/>
<polygon fill="none" stroke="black" points="1608.7,-638.4 1608.7,-674 1802.17,-674 1802.17,-638.4 1608.7,-638.4"/>
<text text-anchor="start" x="1615.7" y="-651.8" font-family="Arial Bold" font-size="18.00">profiles</text>
<text text-anchor="start" x="1670.69" y="-651.8" font-family="Arial" font-size="14.00">    </text>
<text text-anchor="start" x="1701.8" y="-651.8" font-family="Arial" font-size="14.00" fill="#666666">[BASE TABLE]</text>
<polygon fill="none" stroke="black" points="1608.7,-607.6 1608.7,-638.4 1802.17,-638.4 1802.17,-607.6 1608.7,-607.6"/>
<text text-anchor="start" x="1615.7" y="-619.8" font-family="Arial" font-size="14.00">id </text>
<text text-anchor="start" x="1630.49" y="-619.8" font-family="Arial" font-size="14.00" fill="#666666">[int]</text>
<polygon fill="none" stroke="black" points="1608.7,-576.8 1608.7,-607.6 1802.17,-607.6 1802.17,-576.8 1608.7,-576.8"/>
<text text-anchor="start" x="1615.7" y="-589" font-family="Arial" font-size="14.00">user_id </text>
<text text-anchor="start" x="1665.51" y="-589" font-family="Arial" font-size="14.00" fill="#666666">[int]</text>
<polygon fill="none" stroke="black" points="1608.7,-546 1608.7,-576.8 1802.17,-576.8 1802.17,-546 1608.7,-546"/>
<text text-anchor="start" x="1615.7" y="-558.2" font-family="Arial" font-size="14.00">first_name </text>
<text text-anchor="start" x="1684.95" y="-558.2" font-family="Arial" font-size="14.00" fill="#666666">[varchar(255)]</text>
<polygon fill="none" stroke="black" points="1608.7,-515.2 1608.7,-546 1802.17,-546 1802.17,-515.2 1608.7,-515.2"/>
<text text-anchor="start" x="1615.7" y="-527.4" font-family="Arial" font-size="14.00">last_name </text>
<text text-anchor="start" x="1684.18" y="-527.4" font-family="Arial" font-size="14.00" fill="#666666">[varchar(255)]</text>
<polygon fill="none" stroke="black" points="1608.7,-484.4 1608.7,-515.2 1802.17,-515.2 1802.17,-484.4 1608.7,-484.4"/>
<text text-anchor="start" x="1615.7" y="-496.6" font-family="Arial" font-size="14.00">bio </text>
<text text-anchor="start" x="1638.27" y="-496.6" font-family="Arial" font-size="14.00" fill="#666666">[text]</text>
<polygon fill="none" stroke="black" points="1608.7,-453.6 1608.7,-484.4 1802.17,-484.4 1802.17,-453.6 1608.7,-453.6"/>
<text text-anchor="start" x="1615.7" y="-465.8" font-family="Arial" font-size="14.00">avatar </text>
<text text-anchor="start" x="1658.5" y="-465.8" font-family="Arial" font-size="14.00" fill="#666666">[varchar(255)]</text>
<polygon fill="none" stroke="black" points="1608.7,-422.8 1608.7,-453.6 1802.17,-453.6 1802.17,-422.8 1608.7,-422.8"/>
<text text-anchor="start" x="1615.7" y="-435" font-family="Arial" font-size="14.00">birth_date </text>
<text text-anchor="start" x="1681.86" y="-435" font-family="Arial" font-size="14.00" fill="#666666">[date]</text>
<polygon fill="none" stroke="black" points="1608.7,-392 1608.7,-422.8 1802.17,-422.8 1802.17,-392 1608.7,-392"/>
<text text-anchor="start" x="1615.7" y="-404.2" font-family="Arial" font-size="14.00">phone_number </text>
<text text-anchor="start" x="1713.78" y="-404.2" font-family="Arial" font-size="14.00" fill="#666666">[varchar(20)]</text>
</g>
<!-- profiles&#45;&gt;users -->
<g id="edge5" class="edge">
<title>profiles:user_id&#45;&gt;users:id</title>
<path fill="none" stroke="black" d="M1597.49,-591.67C1505.92,-581.44 1630.17,-426.18 1556.44,-348.8 1475.74,-264.11 1164.15,-215.6 1047.18,-215.6"/>
<polygon fill="black" stroke="black" points="1597.38,-591.66 1607.13,-596.68 1602.71,-591.94 1607.03,-592.17 1607.03,-592.17 1607.03,-592.17 1602.71,-591.94 1607.6,-587.69 1597.38,-591.66"/>
<text text-anchor="start" x="1374.54" y="-602.2" font-family="Arial" font-size="10.00">FOREIGN KEY (user_id) REFERENCES users (id)</text>
</g>
</g>
</svg>
